<svg xmlns="http://www.w3.org/2000/svg" viewBox="0 0 1200 800" width="1200" height="800"><g transform="translate(91.0 672.0) rotate(0.0 397.0 1.0) scale(1.4162436367138866 1.0)"><svg width="560.638" height="2" viewBox="0 0 560.638 2"><path d="M559.638 2H1a1 1 0 0 1 0-2h558.638a1 1 0 0 1 0 2z" fill="#1d0333"/></svg></g><g transform="translate(422.0 249.0) rotate(0.0 353.5 174.0) scale(1.2663261139012876 1.27007299270073)"><svg width="558.308" height="274" viewBox="0 0 558.308 274"><path d="M281.117 261h272.612c3.19 0 5.401-3.182 4.288-6.171L493.306 81H214.109z" fill="#fff"/><path d="M553.728 262H281.117a1 1 0 0 1-.937-.651l-67.007-180a1 1 0 0 1 .937-1.348h279.197a1 1 0 0 1 .937.651l64.71 173.829a5.575 5.575 0 0 1-5.226 7.519zm-271.917-2h271.917c1.188 0 2.258-.56 2.937-1.535a3.53 3.53 0 0 0 .415-3.287L492.612 82H215.549z" fill="#1d0333"/><path d="M415.472 274H8.416c-5.862 0-9.925-5.848-7.88-11.342L96.276 5.475A8.407 8.407 0 0 1 104.156 0h407.056c5.862 0 9.925 5.848 7.88 11.342l-95.74 257.183a8.409 8.409 0 0 1-7.88 5.475z" fill="#fff"/><path d="M415.472 275H8.416c-3.126 0-5.943-1.473-7.727-4.04-1.784-2.568-2.181-5.72-1.09-8.65L95.339 5.126A9.447 9.447 0 0 1 104.156-1h407.056c3.126 0 5.942 1.472 7.726 4.04s2.182 5.721 1.091 8.651l-95.74 257.183a9.45 9.45 0 0 1-8.817 6.126zM104.156 1a7.439 7.439 0 0 0-6.943 4.824L1.473 263.007a7.312 7.312 0 0 0 .859 6.811A7.313 7.313 0 0 0 8.416 273h407.056a7.439 7.439 0 0 0 6.943-4.824l95.74-257.183a7.317 7.317 0 0 0-.859-6.812A7.315 7.315 0 0 0 511.212 1z" fill="#1d0333"/><path d="m495.314 19-36.91 99-41.24 110.58-9.85 26.42h-353l88-236z" fill="#fff"/><g fill="#1d0333"><path d="M428.314 255H4.075a1 1 0 0 1 0-2h424.239a1 1 0 0 1 0 2z"/><path d="M55.314 255a1 1 0 0 1-.937-1.349l87.304-234.556a1 1 0 0 1 1.874.698L56.251 254.349a.999.999 0 0 1-.937.651zm353 0a1 1 0 0 1-.937-1.349l87.304-234.556a1 1 0 0 1 1.874.698l-87.304 234.556a.999.999 0 0 1-.937.651zm15 16a1 1 0 0 1-.938-1.348l96-259a1 1 0 1 1 1.875.695l-96 259a.998.998 0 0 1-.937.653z"/><path d="M515.314 20.444H91.075a1 1 0 0 1 0-2h424.239a1 1 0 0 1 0 2z"/><ellipse cx="78.042" cy="122.446" rx="17.644" ry="11.872" transform="matrix(.7761 -.6306 .6306 .7761 -59.7392 76.6217)"/><path d="M115.314 50h-21a1 1 0 0 1 0-2h21a1 1 0 0 1 0 2zm-5.326 14h-21a1 1 0 0 1 0-2h21a1 1 0 0 1 0 2zm-6.087 16h-21a1 1 0 0 1 0-2h21a1 1 0 0 1 0 2zm-27.587 77h-21a1 1 0 0 1 0-2h21a1 1 0 0 1 0 2zm-5.326 14h-21a1 1 0 0 1 0-2h21a1 1 0 0 1 0 2zm-6.087 16h-21a1 1 0 0 1 0-2h21a1 1 0 0 1 0 2z"/></g></svg></g><g transform="translate(570.0 299.0) rotate(0.0 182.5 121.5) scale(1.2673611111111112 1.2592630978908639)"><svg width="288" height="192.97" viewBox="0 0 288 192.97"><path d="M145.753 38.888C165.094 11.137 211.387-2.872 239 1.93c23 4 42.142 15.934 47.188 58.822 5.404 45.934-16.819 95.025-47.092 116.048-23.937 16.623-89.979 26.91-113.525-9.25-30.611-47.009.304-100.142 20.182-128.662z" fill="#fff"/><path d="M181.662 192.986c-6.513 0-13.02-.554-19.28-1.779-16.945-3.317-29.964-11.309-37.649-23.112-13.546-20.803-16.563-45.054-8.967-72.08 5.024-17.875 14.564-36.748 29.166-57.699C164.059 10.873 210.467-4.047 239.171.945c13.614 2.368 23.428 7.175 30.885 15.129 9.143 9.753 14.744 24.329 17.125 44.561 5.208 44.266-15.219 94.559-47.515 116.986-12.334 8.566-35.192 15.365-58.004 15.365zM227.217 1.98c-27.748 0-64.339 14.086-80.644 37.48-14.472 20.764-23.919 39.441-28.882 57.096-7.434 26.447-4.5 50.149 8.717 70.448 7.384 11.339 19.956 19.029 36.358 22.24 27.667 5.416 60.244-2.492 75.759-13.266 14.855-10.316 27.844-27.451 36.573-48.248 9.047-21.554 12.632-45.3 10.096-66.862-5.28-44.881-26.401-54.481-46.366-57.953-3.613-.628-7.518-.935-11.611-.935zm-81.464 36.908h.01z" fill="#1d0333"/><path d="M160 23.93 105.116 158.3 63.07 191.937H16.819L0 165.868l37.001-62.229c-11.833 4.177-23.287-7.13-19.241-19.008 5.337-15.666 11.941-33.379 16.952-41.373C47.759 22.446 75.428 15.83 99.977 16.684z" fill="#cc9af0"/><path d="M56.615 67.479c17.659-18.5 45.41-17.659 62.229.841-21.865 15.978-42.888 15.137-62.229-.841z" fill="#fff"/><path d="M87.59 80.951c-10.799 0-21.362-4.234-31.612-12.701a1 1 0 0 1-.086-1.462c8.613-9.024 19.916-13.917 31.896-13.768 12.062.147 23.354 5.341 31.795 14.627a.998.998 0 0 1-.15 1.481C108.647 77.01 98.008 80.951 87.59 80.951zM58.095 67.395c18.816 15.073 38.736 15.335 59.243.777-7.974-8.355-18.434-13.016-29.574-13.151-11.054-.144-21.542 4.251-29.669 12.374z" fill="#1d0333"/><path d="M207.025 32.4c15.989-16.75 41.115-15.989 56.342.761-19.796 14.466-38.83 13.705-56.342-.761z" fill="#fff"/><path d="M235.069 44.695c-9.798 0-19.381-3.841-28.681-11.524a1 1 0 0 1-.086-1.462c7.704-8.071 17.802-12.498 28.479-12.498.158 0 .313.001.471.003 10.947.133 21.195 4.848 28.855 13.275a.997.997 0 0 1-.15 1.48c-9.784 7.15-19.436 10.726-28.888 10.726zm-26.562-12.38c16.947 13.53 34.886 13.765 53.354.698-7.193-7.497-16.608-11.677-26.633-11.799-9.974-.12-19.391 3.813-26.721 11.101z" fill="#1d0333"/><path d="M91.692 156.618H61.657c-7.895 0-14.292-6.4-14.292-14.296 0-7.895 6.4-14.296 14.296-14.296h30.028c4.058 0 7.58 3.091 7.802 7.143a7.568 7.568 0 0 1-4.086 7.152 7.568 7.568 0 0 1 4.086 7.152c-.222 4.054-3.741 7.145-7.799 7.145z" fill="#fff"/><path d="M96.138 143.322H60.819a1 1 0 0 1 0-2h35.319a1 1 0 0 1 0 2z" fill="#1d0333"/><path d="M253.641 87.071h12.614l20.182 49.615h-45.269a5.886 5.886 0 1 1 0-11.773h12.473z" fill="#cc9af0"/><g fill="#1d0333"><path d="M121.366 78.411h12.614l20.182 49.615h-45.269a5.886 5.886 0 1 1 0-11.773h12.473z"/><circle cx="86.263" cy="67.231" r="13.455"/><circle cx="233.81" cy="32.231" r="12.182"/></g></svg></g><g transform="translate(725.0 326.0) rotate(0.0 86.5 46.0) scale(1.304449454468682 1.2869112730629886)"><svg width="132.623" height="71.489" viewBox="0 0 132.623 71.489"><path d="M123.87 71.48a5.595 5.595 0 0 1-2.246-.603L3.074 10.629A5.62 5.62 0 0 1 8.165.611L126.714 60.86c2.767 1.406 5.909 9.659 5.909 9.659s-6.602 1.075-8.753.962z" fill="#1d0333"/></svg></g><g transform="translate(101.0 132.0) rotate(0.0 381.0 310.5) scale(1.2651901687086262 1.2662357522990029)"><svg width="602.281" height="490.43" viewBox="0 0 602.281 490.43"><ellipse cx="277.111" cy="374.307" fill="#1d0333" rx="26.852" ry="15" transform="matrix(.9365 -.3507 .3507 .9365 -113.6696 120.9562)"/><ellipse cx="314.726" cy="332.076" fill="#1d0333" rx="26.852" ry="15" transform="matrix(.9365 -.3507 .3507 .9365 -96.4704 131.4656)"/><path d="M554.281 278.43c-2.47 5.19-6.72 14.23-12.15 25.61-16.58 34.66-44.27 91.01-66.85 126.39-26.41 41.38-42 60-56 60-13.04 0-60-24-95-55-20.4-18.06-48.6-43.94-70.17-66.34-11.34-11.79-20.85-22.61-26.43-30.83-2.01-2.98-3.51-5.61-4.4-7.83-5.75-14.37 32.39-24.61 54.31-29.24 8.59-1.81 14.69-2.76 14.69-2.76 7.86 8.7 15.48 16.91 22.82 24.62 44.94 47.23 79.14 75.78 91.18 84.38 0 0 26.64-32.51 50-64 13.72-18.49 27.79-37.33 40.73-55.89 5.75-8.24 11.27-16.43 16.43-24.5.34-.51.66-1.02.98-1.52 2.37-3.72 4.66-7.42 6.86-11.09 20.67-3.6 27.61 11.39 31.71 23.9.46 1.41.89 2.78 1.29 4.1z" fill="#ffb5a6"/><path d="M251.281 285.43c-7.04 10.57-18.39 34.8-28.95 62.01-10.42 26.87-20.08 56.63-24.05 78.99h-196c-4-99 18-192 42-214 14.08-12.91 23.64-10.44 60-3 44 9 118 13 118 13s40.44 45.85 29 63z" fill="#FAF1A2"/><path d="M242.281 29.43c33 20 28 52 23 87-3.302 23.111 1 50-29 60s-66-19-73-66c-11.472-77.028 47.906-99.845 79-81z" fill="#ffb5a6"/><path d="M262.281 119.43c2 8 7 11 7 14s-7 8-9 8-1-13-1-14 3-8 3-8z" fill="#ffb5a6"/><ellipse cx="240.781" cy="126.43" fill="#f99282" rx="7" ry="12.5" transform="matrix(.3344 -.9424 .9424 .3344 41.1076 311.0666)"/><path d="M206.281 166.43a233.32 233.32 0 0 1-3.38 6.33c-1.79 3.27-3.61 6.42-5.44 9.44-13.61 22.58-26.198 39.491-32.18 43.23-8 5-35 5-36-15-.75-15.01-3-13 18-34s35-54 35-54z" fill="#ffb5a6"/><path d="M241.616 101.984c-.783-.621 6.381-5.769 8.253-6.992s17.003-.954 18.225.918c1.223 1.872.573 4.967-.421 5.082-.993.115-9.399-2.943-14.366-2.37s-10.583 4.241-11.691 3.362z" fill="#1d0333"/><path d="M286.281 65.43c-16 10-45 7-60 2 0 0-7.19 25.39-23 57-24 48-45.69 56.12-62 92-15 33-18 69 16 85-121 18-110-83-110-83s-15 16-14 39c-63-51-27.22-103.02 30-131 45-22 36.67-61.41 70-100 19-22 52-32 75.62-23.31 8.42 3.1 18.34 2.55 25.38 4.31 11.23.45 23.07 7.56 32.62 17.35 3.52 3.61 6.73 7.58 9.47 11.72 6.39 9.6 10.29 20.08 9.91 28.93z" fill="#1d0333"/><path d="M210.281 96.43s9-24 8-51c-.815-22.008-9-42-9-42s5.055-2.994 14-2c9 1 11.811 5.478 11.811 5.478s6.844 21.758 2.189 48.522c-4 23-15 47-15 47z" fill="#FAF1A2"/><path d="M225.281 102.43c-2-16-22.358-24.821-30-21-6 3-7 17 0 27s16 13 20 11 10-17 10-17z" fill="#ffb5a6"/><path d="M208.282 109.43a.996.996 0 0 1-.769-.36c-2.329-2.794-2.729-5.791-1.07-8.017 1.667-2.238 4.934-3.037 8.357-2.178-1.654-4.35-6.703-10.308-14.408-9.452a1 1 0 1 1-.221-1.987c9.314-1.037 16.023 6.92 17.094 12.815a1 1 0 0 1-1.378 1.098c-3.568-1.529-6.645-.705-7.84.899-1.085 1.455-.719 3.475 1.002 5.541a1 1 0 0 1-.767 1.641z" fill="#1d0333"/><path d="M262.281 113.43c-2 3-3 4-7 2-.2-.1-.41-.2-.61-.3-6.06-2.91-9.42-2.76-10.39-4.7-.89-1.79 8-6 14-5 1.29.21 2.31.57 3.08 1.03 2.83 1.65 2.49 4.62.92 6.97z" fill="#fff"/><path d="M262.281 113.43c-2 3-3 4-7 2-.2-.1-.41-.2-.61-.3-.25-.68-.39-1.43-.39-2.2a6.5 6.5 0 0 1 6.5-6.5c.19 0 .39.01.58.03 2.83 1.65 2.49 4.62.92 6.97zm-59.38 59.33c-1.79 3.27-3.61 6.42-5.44 9.44-7.74-4.51-10.05-16.25-8.92-20.47 1.26-4.69 2.74-1.3 6.74 3.7 2.47 3.09 5.59 5.75 7.62 7.33z" fill="#1d0333"/><path d="M276.371 36.5c-2.51 6.19-7.09 9.93-13.09 9.93-6.325 0-13 1-18 8 1-10 12-15 17-17 4.15-1.65 4.17-6.06 4.62-12.65 3.52 3.61 6.73 7.58 9.47 11.72z" fill="#eedcff"/><path d="M324.281 327.43c-10 3-23.13 22.32-24 31-1 10-4 17-12 18-10.516 1.314-19.83-6.66-31 0-11.34-11.79-18.02-23.95-23.6-32.17 9.4-7.66 35.97-27.25 49.91-37.07 8.59-1.81 14.69-2.76 14.69-2.76 7.86 8.7 18.66 15.29 26 23z" fill="#1d0333"/><path d="M254.281 149.43c-1 7-10 10-12 4s-1-12 1-12 3 4 5 6 6 2 6 2z" fill="#fff"/><path d="M179.908 222.574c21.373-.144 64.344-4.174 81.373 12.856 18 18 25 39 47 52 13.476 7.963 30 24 32 37-7-11-31.13-10.132-37 11-5 18-19 25-32 27s-22 13-18 24c-10-9-56-75-56-75z" fill="#FAF1A2"/><path d="M599.281 238.43c-3 6-11 9-13 7-11.56 20.23-29.61 29.32-38.07 41.58-.33.47-.64.94-.93 1.42-7.41 12.04-46-7-46-7 1.85-2.41 3.58-5.26 5.16-8.39.26-.49.51-.99.75-1.5 6.58-13.64 10.75-31.74 12.09-41.11 2-14 5.76-26.53 8-31 1-2 26-31 34-31s33 16 37 21 2 12-9 8c-7.158-2.603-24-9-24-9s-5 5-8 10c14-12 23 2.11 23 6 6 0 11 4 12 9 6 0 14.22 10.55 7 25z" fill="#ffb5a6"/><g fill="#1d0333"><path d="M152.338 229.782c-6.522 0-12.861-2.313-17.319-6.398a1 1 0 0 1 1.351-1.475c4.593 4.207 11.383 6.366 18.171 5.777 7.158-.622 13.532-4.126 17.948-9.867a.999.999 0 1 1 1.585 1.219c-4.761 6.19-11.637 9.968-19.359 10.64-.794.071-1.587.104-2.377.104zm77.623 128.326a1 1 0 0 1-.804-.404c-9.22-12.405-26.083-31.376-31.624-37.61a1 1 0 1 1 1.495-1.329c9.643 10.848 23.423 26.563 31.734 37.745a1 1 0 0 1-.801 1.598z"/><path d="M222.331 347.44c-10.42 26.87-20.08 56.63-24.05 78.99h-8.13c-1.04-8.66-1.66-17.03-.87-21 2-10 9-8 3-27-3.433-10.872-2-16 6-27s6-19 1.31-30.52c4.35 4.48 17.93 20.74 22.74 26.53zm201.951 76.99a.997.997 0 0 1-.764-.354c-.109-.129-11.075-12.983-25.751-21.788a1 1 0 1 1 1.029-1.715c14.969 8.981 26.138 22.08 26.249 22.212a1 1 0 0 1-.763 1.645zm155.999-219c-.419 0-.809-.265-.949-.684-1.94-5.821-5.529-9.327-10.105-9.871-4.546-.54-9.521 1.961-12.098 6.085a1 1 0 0 1-1.696-1.06c2.974-4.757 8.745-7.641 14.03-7.011 3.121.371 8.8 2.323 11.767 11.225a1 1 0 0 1-.949 1.316z"/><path d="M591.988 213.338a1 1 0 0 1-.918-.604c-1.592-3.689-3.772-5.877-6.48-6.504-4.712-1.089-9.951 2.64-12.657 4.959a1 1 0 0 1-1.302-1.519c5.169-4.43 10.288-6.343 14.41-5.389 3.362.778 6.008 3.355 7.865 7.66a1 1 0 0 1-.918 1.397z"/><path d="M601.282 223.43a.999.999 0 0 1-.919-.606c-2.358-5.503-4.846-8.481-7.393-8.853-2.229-.325-4.75 1.295-7.92 5.099a1 1 0 1 1-1.536-1.28c2.498-2.997 5.856-6.365 9.746-5.798 3.328.486 6.253 3.771 8.941 10.044a1 1 0 0 1-.919 1.394zm-19.002 29a1 1 0 0 1-.831-1.555c3.915-5.873 9.832-14.748 9.832-22.445a1 1 0 0 1 2 0c0 8.303-6.119 17.481-10.168 23.555a.998.998 0 0 1-.833.445z"/></g></svg></g></svg>