<svg xmlns="http://www.w3.org/2000/svg" viewBox="0 0 1200 800" width="1200" height="800"><path fill="#370E3D" d="M0 0h1200v800H0z"/><g transform="translate(-213.0 -82.0) rotate(-33.767798626988295 293.5 230.5) scale(4.34930796360511 4.382879199863094)"><svg width="134.964" height="105.182" viewBox="0 0 134.964 105.182"><path d="M19.215 42.433c1.732.17 3.407.779 5.146.86 3.365.157 6.552-1.699 8.892-4.122s4.007-5.398 5.86-8.211C49.115 15.782 65.365 4.86 83.197 1.332c5.761-1.14 12.052-1.461 17.2 1.367 5.147 2.827 8.381 9.726 5.503 14.845-2.576 4.583-6.298 11.365-.403 15.118 5.088 3.24 12.289 1.894 16.484 6.77 2.871 3.337 2.661 8.526.589 12.41s-5.648 6.719-9.245 9.257c-3.598 2.537-7.379 4.949-10.176 8.348-3.136 3.812-4.805 8.584-7.075 12.968s-5.521 8.689-10.237 10.149c-5.661 1.752-11.667-1.06-16.697-4.192s-10.195-6.797-16.119-6.92c-4.605-.095-8.948 1.996-12.999 4.186s-8.156 4.576-12.724 5.162c-4.568.585-9.799-1.151-11.785-5.307-1.572-3.29-1.098-7.803-4.067-9.92-1.25-.891-2.842-1.108-4.286-1.63-15.596-5.643-.522-32.744 12.055-31.51z" fill="#401946"/><path d="M19.215 42.933c1.797.196 3.53.825 5.348.867 1.563.036 3.1-.353 4.516-.996 3.05-1.384 5.333-3.92 7.221-6.616 1.914-2.732 3.576-5.624 5.581-8.295a66.983 66.983 0 0 1 5.981-6.911c8.689-8.775 19.739-15.205 31.699-18.308 6.319-1.639 13.699-2.885 19.831.069 4.74 2.283 8.533 8.143 6.582 13.457-.436 1.189-1.185 2.275-1.767 3.398-.595 1.147-1.146 2.324-1.578 3.544-.795 2.244-1.187 4.785-.127 7.012 1.14 2.396 3.716 3.694 6.126 4.469 2.639.848 5.419 1.158 8.05 2.033 2.722.906 5.204 2.619 6.29 5.372 1.097 2.781.772 6.039-.427 8.733-2.75 6.174-9.202 9.496-14.35 13.368-2.694 2.026-5.134 4.299-6.991 7.133-1.887 2.88-3.21 6.075-4.699 9.166-2.624 5.448-6.539 11.535-13.17 12.123-7.089.628-13.113-4.28-18.854-7.663-2.861-1.686-5.929-3.21-9.241-3.732-3.463-.546-6.882.145-10.101 1.449-3.305 1.339-6.345 3.208-9.519 4.815-3.003 1.521-6.275 2.891-9.69 2.984-2.739.074-5.654-.651-7.804-2.413a8.036 8.036 0 0 1-2.398-3.252c-.511-1.292-.758-2.673-1.063-4.023-.614-2.717-1.594-5.21-4.366-6.304-1.298-.512-2.685-.748-3.953-1.343-.839-.394-1.638-.886-2.334-1.5-2.687-2.374-3.324-6.031-2.857-9.447.542-3.962 2.342-7.745 4.656-10.971 2.221-3.095 5.184-6.024 8.771-7.466 1.477-.595 3.046-.898 4.637-.752.641.059.637-.941 0-1-3.656-.337-7.121 1.546-9.83 3.834-3.188 2.694-5.728 6.246-7.406 10.058C.444 59.311-.539 63.328.317 67.121.699 68.812 1.495 70.4 2.68 71.67c1.439 1.542 3.345 2.485 5.346 3.073 1.543.454 3.115.864 4.131 2.214.839 1.115 1.194 2.518 1.501 3.854.62 2.699 1.132 5.378 3.201 7.389 1.958 1.903 4.653 2.884 7.335 3.143 3.282.317 6.517-.618 9.501-1.913 6.56-2.846 12.808-8.107 20.373-7.422 7.142.647 12.673 6.013 18.851 9.065 3.084 1.524 6.506 2.701 9.992 2.507 3.18-.176 6.054-1.56 8.374-3.708 4.979-4.609 6.726-11.349 10.1-17.02 1.799-3.023 4.186-5.474 6.969-7.603 2.72-2.081 5.638-3.891 8.318-6.028 2.579-2.056 5.009-4.472 6.495-7.456 1.312-2.635 1.836-5.739 1.183-8.631-.642-2.841-2.544-5.137-5.105-6.481-2.491-1.308-5.306-1.731-8.015-2.364-2.639-.617-5.792-1.496-7.415-3.859-1.482-2.157-1.008-4.869-.168-7.177.45-1.235 1.03-2.418 1.646-3.578.614-1.156 1.347-2.268 1.751-3.522.826-2.564.395-5.364-.726-7.768-1.141-2.446-3.045-4.583-5.376-5.953C98.036.724 94.619.058 91.281.002c-3.404-.057-6.8.492-10.109 1.248a67.402 67.402 0 0 0-9.051 2.754 70.584 70.584 0 0 0-16.529 9.006c-5.074 3.722-9.66 8.105-13.555 13.05-2.053 2.607-3.806 5.39-5.619 8.164-1.918 2.933-4.117 5.814-7.3 7.451-1.407.723-2.968 1.16-4.557 1.124-1.811-.042-3.553-.671-5.348-.867-.637-.068-.632.932.002 1.001z" fill="#401946"/><path d="M127.564 9.945c-4.566-1.433-9.547.231-12.663 3.781-3.744 4.266-4.651 11.702 1.391 14.171 5.646 2.307 12.722.839 16.594-3.989 3.893-4.855.021-12.287-5.322-13.963z" fill="#401946"/><path d="M127.697 9.462c-4.959-1.509-10.461.423-13.621 4.484-2.354 3.025-3.664 7.601-1.733 11.163 2.214 4.086 8.044 4.825 12.178 4.124 4.331-.735 9.49-3.739 10.316-8.424.845-4.8-2.596-9.873-7.14-11.347-.614-.199-.876.766-.266.964 3.682 1.194 6.548 5.062 6.537 8.949-.013 4.402-4.297 7.459-8.161 8.545a14.61 14.61 0 0 1-6.577.314c-1.952-.361-3.981-1.056-5.318-2.596-2.423-2.791-1.573-7.084.187-9.975 2.715-4.462 8.302-6.767 13.332-5.236.617.187.881-.777.266-.965zm-2.376 70.134c1.723-3.569 1.565-8.375-1.444-10.955-7.134-6.114-15.33 5.723-18.404 10.868-1.158 1.938-2.185 4.317-1.271 6.381.666 1.504 2.271 2.447 3.904 2.649 6.847.847 14.189-2.676 17.215-8.943z" fill="#401946"/><path d="M125.753 79.848c2.027-4.287 1.543-10.132-2.996-12.594-3.781-2.05-7.758.194-10.586 2.802-1.622 1.495-3.038 3.206-4.341 4.982-1.16 1.582-2.282 3.235-3.213 4.963-1.303 2.419-2.057 5.625.312 7.672 1.947 1.682 4.852 1.654 7.271 1.365 5.659-.674 11.007-4.002 13.553-9.19.282-.576-.58-1.083-.863-.505-2.06 4.199-6.047 7.142-10.542 8.288-2.127.542-4.673.849-6.829.288-1.162-.302-2.262-1.018-2.806-2.116-.658-1.327-.316-2.877.229-4.177.726-1.734 1.848-3.355 2.913-4.899 1.096-1.589 2.28-3.122 3.596-4.536 2.266-2.433 5.656-5.438 9.28-4.641 2.202.484 4.01 2.228 4.732 4.338.828 2.421.51 5.167-.573 7.456-.275.578.587 1.086.863.504zm-59.578 17.71c-1.309-4.625-5.798-5.746-9.812-7.035-3.488-1.12-6.822.055-8.952 3.228-1.665 2.481-1.789 6.037.064 8.382 1.836 2.323 4.525 2.838 7.23 2.426 2.717-.413 7.193.413 9.621-.693 2.111-.963 2.415-4.306 1.849-6.308z" fill="#401946"/><path d="M66.657 97.425c-.542-1.842-1.636-3.358-3.194-4.476-1.5-1.076-3.275-1.718-5.016-2.287-1.899-.62-3.76-1.263-5.787-.966-2.012.294-3.805 1.418-5.076 2.987-2.683 3.311-2.717 8.437.895 11.11 1.701 1.258 3.885 1.563 5.942 1.305 2.046-.257 4.084-.095 6.14-.128 1.957-.031 4.271-.171 5.455-1.962 1.042-1.576 1.121-3.806.641-5.583-.168-.621-1.133-.357-.964.266.381 1.41.359 3.116-.321 4.436-.792 1.539-2.506 1.746-4.077 1.821-1.832.088-3.666-.083-5.497.008-1.835.091-3.54.46-5.33-.209-3.856-1.441-4.814-6.208-2.774-9.512.98-1.587 2.493-2.876 4.306-3.381 1.817-.506 3.497-.08 5.24.472 3.519 1.114 7.303 2.465 8.452 6.365.182.616 1.147.353.965-.266z" fill="#401946"/></svg></g><g transform="translate(66.0 30.0) rotate(62.679008174567684 52.0 58.5) scale(0.5959851232944223 0.5962239152037098)"><svg width="174.501" height="196.235" viewBox="0 0 174.501 196.235"><path d="M36.757 6.82C4.107 22.992-9.286 62.545 6.82 95.227l48.998 99.172a3.31 3.31 0 0 0 4.42 1.497c.88-.44 1.725-.944 2.531-1.508a18.1 18.1 0 0 0 6.258-9.46c1.025-5.538 6.345-9.196 11.882-8.171a10.2 10.2 0 0 1 2.763.936c8.431 3.691 18.258-.151 21.95-8.582.384-.878.692-1.787.92-2.717 1.012-5.521 6.309-9.177 11.831-8.164.969.178 1.907.495 2.785.943 8.408 3.692 18.218-.131 21.911-8.539.389-.886.7-1.805.93-2.746 1.012-5.521 6.309-9.177 11.831-8.164.969.178 1.907.495 2.785.943a18.268 18.268 0 0 0 10.947.849 14.923 14.923 0 0 0 3.105-1.166 3.31 3.31 0 0 0 1.497-4.42l-48.998-99.172C108.992 4.107 69.439-9.286 36.757 6.82z" fill="#FEF8E7"/><path d="M160.621 134.374c-8.408-3.692-18.218.131-21.911 8.539-.389.886-.7 1.805-.93 2.746-1.012 5.521-6.309 9.177-11.831 8.164a10.168 10.168 0 0 1-2.785-.943c-8.408-3.692-18.218.131-21.911 8.539-.389.886-.7 1.805-.93 2.746-1.025 5.538-6.345 9.196-11.882 8.171a10.2 10.2 0 0 1-2.763-.936c-8.408-3.692-18.218.131-21.911 8.539-.389.886-.7 1.805-.93 2.746a14.373 14.373 0 0 1-2.8 5.359l-47.299-95.74c-14.532-29.412-2.469-65.035 26.943-79.566 29.412-14.531 65.035-2.469 79.566 26.943l47.288 95.71a13.727 13.727 0 0 1-5.913-1.017z" fill="#FEF8E7"/><path d="M46.674 93.941c-6.537 3.22-14.446.542-17.681-5.987l-2.924-5.917c-3.229-6.536-.549-14.452 5.987-17.681s14.452-.549 17.681 5.987l2.924 5.917c3.22 6.537.542 14.446-5.987 17.681z" fill="#FEF8E7"/><path d="M34.98 70.272a6.607 6.607 0 0 0-2.994 8.841l2.924 5.917a6.601 6.601 0 0 0 11.835-5.847l-2.924-5.917a6.607 6.607 0 0 0-8.841-2.994z" fill="#370E3D"/><path d="M99.928 67.629c-6.537 3.22-14.446.542-17.681-5.987l-2.924-5.917c-3.229-6.536-.549-14.452 5.987-17.681s14.452-.549 17.681 5.987l2.924 5.917c3.22 6.537.542 14.446-5.987 17.681z" fill="#FEF8E7"/><path d="M88.234 43.961a6.607 6.607 0 0 0-2.994 8.841l2.924 5.917a6.601 6.601 0 0 0 11.835-5.847l-2.924-5.917a6.607 6.607 0 0 0-8.841-2.994z" fill="#370E3D"/></svg></g><g transform="translate(566.0 225.0) rotate(-9.352904207266837 418.0 328.0) scale(6.194244391096885 6.2368085794147285)"><svg width="134.964" height="105.182" viewBox="0 0 134.964 105.182"><path d="M19.215 42.433c1.732.17 3.407.779 5.146.86 3.365.157 6.552-1.699 8.892-4.122s4.007-5.398 5.86-8.211C49.115 15.782 65.365 4.86 83.197 1.332c5.761-1.14 12.052-1.461 17.2 1.367 5.147 2.827 8.381 9.726 5.503 14.845-2.576 4.583-6.298 11.365-.403 15.118 5.088 3.24 12.289 1.894 16.484 6.77 2.871 3.337 2.661 8.526.589 12.41s-5.648 6.719-9.245 9.257c-3.598 2.537-7.379 4.949-10.176 8.348-3.136 3.812-4.805 8.584-7.075 12.968s-5.521 8.689-10.237 10.149c-5.661 1.752-11.667-1.06-16.697-4.192s-10.195-6.797-16.119-6.92c-4.605-.095-8.948 1.996-12.999 4.186s-8.156 4.576-12.724 5.162c-4.568.585-9.799-1.151-11.785-5.307-1.572-3.29-1.098-7.803-4.067-9.92-1.25-.891-2.842-1.108-4.286-1.63-15.596-5.643-.522-32.744 12.055-31.51z" fill="#330D38"/><path d="M19.215 42.933c1.797.196 3.53.825 5.348.867 1.563.036 3.1-.353 4.516-.996 3.05-1.384 5.333-3.92 7.221-6.616 1.914-2.732 3.576-5.624 5.581-8.295a66.983 66.983 0 0 1 5.981-6.911c8.689-8.775 19.739-15.205 31.699-18.308 6.319-1.639 13.699-2.885 19.831.069 4.74 2.283 8.533 8.143 6.582 13.457-.436 1.189-1.185 2.275-1.767 3.398-.595 1.147-1.146 2.324-1.578 3.544-.795 2.244-1.187 4.785-.127 7.012 1.14 2.396 3.716 3.694 6.126 4.469 2.639.848 5.419 1.158 8.05 2.033 2.722.906 5.204 2.619 6.29 5.372 1.097 2.781.772 6.039-.427 8.733-2.75 6.174-9.202 9.496-14.35 13.368-2.694 2.026-5.134 4.299-6.991 7.133-1.887 2.88-3.21 6.075-4.699 9.166-2.624 5.448-6.539 11.535-13.17 12.123-7.089.628-13.113-4.28-18.854-7.663-2.861-1.686-5.929-3.21-9.241-3.732-3.463-.546-6.882.145-10.101 1.449-3.305 1.339-6.345 3.208-9.519 4.815-3.003 1.521-6.275 2.891-9.69 2.984-2.739.074-5.654-.651-7.804-2.413a8.036 8.036 0 0 1-2.398-3.252c-.511-1.292-.758-2.673-1.063-4.023-.614-2.717-1.594-5.21-4.366-6.304-1.298-.512-2.685-.748-3.953-1.343-.839-.394-1.638-.886-2.334-1.5-2.687-2.374-3.324-6.031-2.857-9.447.542-3.962 2.342-7.745 4.656-10.971 2.221-3.095 5.184-6.024 8.771-7.466 1.477-.595 3.046-.898 4.637-.752.641.059.637-.941 0-1-3.656-.337-7.121 1.546-9.83 3.834-3.188 2.694-5.728 6.246-7.406 10.058C.444 59.311-.539 63.328.317 67.121.699 68.812 1.495 70.4 2.68 71.67c1.439 1.542 3.345 2.485 5.346 3.073 1.543.454 3.115.864 4.131 2.214.839 1.115 1.194 2.518 1.501 3.854.62 2.699 1.132 5.378 3.201 7.389 1.958 1.903 4.653 2.884 7.335 3.143 3.282.317 6.517-.618 9.501-1.913 6.56-2.846 12.808-8.107 20.373-7.422 7.142.647 12.673 6.013 18.851 9.065 3.084 1.524 6.506 2.701 9.992 2.507 3.18-.176 6.054-1.56 8.374-3.708 4.979-4.609 6.726-11.349 10.1-17.02 1.799-3.023 4.186-5.474 6.969-7.603 2.72-2.081 5.638-3.891 8.318-6.028 2.579-2.056 5.009-4.472 6.495-7.456 1.312-2.635 1.836-5.739 1.183-8.631-.642-2.841-2.544-5.137-5.105-6.481-2.491-1.308-5.306-1.731-8.015-2.364-2.639-.617-5.792-1.496-7.415-3.859-1.482-2.157-1.008-4.869-.168-7.177.45-1.235 1.03-2.418 1.646-3.578.614-1.156 1.347-2.268 1.751-3.522.826-2.564.395-5.364-.726-7.768-1.141-2.446-3.045-4.583-5.376-5.953C98.036.724 94.619.058 91.281.002c-3.404-.057-6.8.492-10.109 1.248a67.402 67.402 0 0 0-9.051 2.754 70.584 70.584 0 0 0-16.529 9.006c-5.074 3.722-9.66 8.105-13.555 13.05-2.053 2.607-3.806 5.39-5.619 8.164-1.918 2.933-4.117 5.814-7.3 7.451-1.407.723-2.968 1.16-4.557 1.124-1.811-.042-3.553-.671-5.348-.867-.637-.068-.632.932.002 1.001z" fill="#330D38"/><path d="M127.564 9.945c-4.566-1.433-9.547.231-12.663 3.781-3.744 4.266-4.651 11.702 1.391 14.171 5.646 2.307 12.722.839 16.594-3.989 3.893-4.855.021-12.287-5.322-13.963z" fill="#330D38"/><path d="M127.697 9.462c-4.959-1.509-10.461.423-13.621 4.484-2.354 3.025-3.664 7.601-1.733 11.163 2.214 4.086 8.044 4.825 12.178 4.124 4.331-.735 9.49-3.739 10.316-8.424.845-4.8-2.596-9.873-7.14-11.347-.614-.199-.876.766-.266.964 3.682 1.194 6.548 5.062 6.537 8.949-.013 4.402-4.297 7.459-8.161 8.545a14.61 14.61 0 0 1-6.577.314c-1.952-.361-3.981-1.056-5.318-2.596-2.423-2.791-1.573-7.084.187-9.975 2.715-4.462 8.302-6.767 13.332-5.236.617.187.881-.777.266-.965zm-2.376 70.134c1.723-3.569 1.565-8.375-1.444-10.955-7.134-6.114-15.33 5.723-18.404 10.868-1.158 1.938-2.185 4.317-1.271 6.381.666 1.504 2.271 2.447 3.904 2.649 6.847.847 14.189-2.676 17.215-8.943z" fill="#330D38"/><path d="M125.753 79.848c2.027-4.287 1.543-10.132-2.996-12.594-3.781-2.05-7.758.194-10.586 2.802-1.622 1.495-3.038 3.206-4.341 4.982-1.16 1.582-2.282 3.235-3.213 4.963-1.303 2.419-2.057 5.625.312 7.672 1.947 1.682 4.852 1.654 7.271 1.365 5.659-.674 11.007-4.002 13.553-9.19.282-.576-.58-1.083-.863-.505-2.06 4.199-6.047 7.142-10.542 8.288-2.127.542-4.673.849-6.829.288-1.162-.302-2.262-1.018-2.806-2.116-.658-1.327-.316-2.877.229-4.177.726-1.734 1.848-3.355 2.913-4.899 1.096-1.589 2.28-3.122 3.596-4.536 2.266-2.433 5.656-5.438 9.28-4.641 2.202.484 4.01 2.228 4.732 4.338.828 2.421.51 5.167-.573 7.456-.275.578.587 1.086.863.504zm-59.578 17.71c-1.309-4.625-5.798-5.746-9.812-7.035-3.488-1.12-6.822.055-8.952 3.228-1.665 2.481-1.789 6.037.064 8.382 1.836 2.323 4.525 2.838 7.23 2.426 2.717-.413 7.193.413 9.621-.693 2.111-.963 2.415-4.306 1.849-6.308z" fill="#330D38"/><path d="M66.657 97.425c-.542-1.842-1.636-3.358-3.194-4.476-1.5-1.076-3.275-1.718-5.016-2.287-1.899-.62-3.76-1.263-5.787-.966-2.012.294-3.805 1.418-5.076 2.987-2.683 3.311-2.717 8.437.895 11.11 1.701 1.258 3.885 1.563 5.942 1.305 2.046-.257 4.084-.095 6.14-.128 1.957-.031 4.271-.171 5.455-1.962 1.042-1.576 1.121-3.806.641-5.583-.168-.621-1.133-.357-.964.266.381 1.41.359 3.116-.321 4.436-.792 1.539-2.506 1.746-4.077 1.821-1.832.088-3.666-.083-5.497.008-1.835.091-3.54.46-5.33-.209-3.856-1.441-4.814-6.208-2.774-9.512.98-1.587 2.493-2.876 4.306-3.381 1.817-.506 3.497-.08 5.24.472 3.519 1.114 7.303 2.465 8.452 6.365.182.616 1.147.353.965-.266z" fill="#330D38"/></svg></g><g transform="translate(1018.0 259.0) rotate(5.034153231306984 60.5 68.0) scale(0.6934057684483184 0.6930466022880729)"><svg width="174.501" height="196.235" viewBox="0 0 174.501 196.235"><path d="M36.757 6.82C4.107 22.992-9.286 62.545 6.82 95.227l48.998 99.172a3.31 3.31 0 0 0 4.42 1.497c.88-.44 1.725-.944 2.531-1.508a18.1 18.1 0 0 0 6.258-9.46c1.025-5.538 6.345-9.196 11.882-8.171a10.2 10.2 0 0 1 2.763.936c8.431 3.691 18.258-.151 21.95-8.582.384-.878.692-1.787.92-2.717 1.012-5.521 6.309-9.177 11.831-8.164.969.178 1.907.495 2.785.943 8.408 3.692 18.218-.131 21.911-8.539.389-.886.7-1.805.93-2.746 1.012-5.521 6.309-9.177 11.831-8.164.969.178 1.907.495 2.785.943a18.268 18.268 0 0 0 10.947.849 14.923 14.923 0 0 0 3.105-1.166 3.31 3.31 0 0 0 1.497-4.42l-48.998-99.172C108.992 4.107 69.439-9.286 36.757 6.82z" fill="#FEF8E7"/><path d="M160.621 134.374c-8.408-3.692-18.218.131-21.911 8.539-.389.886-.7 1.805-.93 2.746-1.012 5.521-6.309 9.177-11.831 8.164a10.168 10.168 0 0 1-2.785-.943c-8.408-3.692-18.218.131-21.911 8.539-.389.886-.7 1.805-.93 2.746-1.025 5.538-6.345 9.196-11.882 8.171a10.2 10.2 0 0 1-2.763-.936c-8.408-3.692-18.218.131-21.911 8.539-.389.886-.7 1.805-.93 2.746a14.373 14.373 0 0 1-2.8 5.359l-47.299-95.74c-14.532-29.412-2.469-65.035 26.943-79.566 29.412-14.531 65.035-2.469 79.566 26.943l47.288 95.71a13.727 13.727 0 0 1-5.913-1.017z" fill="#FEF8E7"/><path d="M46.674 93.941c-6.537 3.22-14.446.542-17.681-5.987l-2.924-5.917c-3.229-6.536-.549-14.452 5.987-17.681s14.452-.549 17.681 5.987l2.924 5.917c3.22 6.537.542 14.446-5.987 17.681z" fill="#FEF8E7"/><path d="M34.98 70.272a6.607 6.607 0 0 0-2.994 8.841l2.924 5.917a6.601 6.601 0 0 0 11.835-5.847l-2.924-5.917a6.607 6.607 0 0 0-8.841-2.994z" fill="#370E3D"/><path d="M99.928 67.629c-6.537 3.22-14.446.542-17.681-5.987l-2.924-5.917c-3.229-6.536-.549-14.452 5.987-17.681s14.452-.549 17.681 5.987l2.924 5.917c3.22 6.537.542 14.446-5.987 17.681z" fill="#FEF8E7"/><path d="M88.234 43.961a6.607 6.607 0 0 0-2.994 8.841l2.924 5.917a6.601 6.601 0 0 0 11.835-5.847l-2.924-5.917a6.607 6.607 0 0 0-8.841-2.994z" fill="#370E3D"/></svg></g><g transform="translate(522.0 -44.0) rotate(162.62151459779557 63.0 68.5) scale(0.7373034588894806 0.7432604721060312)"><svg width="170.893" height="184.323" viewBox="0 0 170.893 184.323"><path d="M167.514 184.323c3.94-29.03 5.731-85.611-1.989-125.702C158.464 21.957 143.295 0 136.02 0s-20.778 39.608-20.778 39.608H55.65S42.147 0 34.873 0 12.428 21.957 5.368 58.62c-7.721 40.091-5.93 96.673-1.989 125.702h164.135z" fill="#300C35"/><g fill="#370E3D"><ellipse cx="63.059" cy="86.349" rx="10.445" ry="13.786"/><ellipse cx="107.834" cy="86.349" rx="10.445" ry="13.786"/></g></svg></g></svg>