<svg xmlns="http://www.w3.org/2000/svg" viewBox="0 0 1200 1200" width="1200" height="1200"><path fill="#FFF" d="M0 0h1200v1200H0z"/><g transform="translate(-87.0 989.0) rotate(0.0 565.0 1.0) translate(348.0 0.0) scale(1.2309368191721133 1.0)"><svg width="635.288" height="2" viewBox="282.712 0 635.288 2"><path d="M917 2H1a1 1 0 0 1 0-2h916a1 1 0 0 1 0 2z" fill="#1d0333"/></svg></g><g transform="translate(48.0 167.0) rotate(0.0 507.5 420.5) scale(1.3481009043565575 1.3519400580964491)"><svg width="752.911" height="622.069" viewBox="0 0 752.911 622.069"><path d="M659.134 287.932c-9.121-18.242-36.484-57.007-30.784-79.809 2.549-10.198 47.885-21.663 64.987-17.102s22.803 38.764 25.083 55.866 10.261 36.484-7.981 37.624c-18.241 1.14-51.305 3.421-51.305 3.421zM86.788 351.779c1.14-38.764-7.981-80.949-10.261-119.714-1.674-28.454-2.28-39.905-9.121-39.905-9.121 0-14.822 23.943-13.682 50.166s-2.28 30.784-2.28 30.784-41.045 17.102-43.325 22.803 10.261 60.427 19.382 70.688 58.984-4.502 59.287-14.822z" fill="#ffb5a6"/><path d="M297.713 387.123s-4.503 8.038-11.732 20.921c-10.717 19.12-27.42 48.889-44.237 78.852-15.984 28.48-32.072 57.121-43.222 76.947-30.784 54.726-64.988 68.408-93.491 51.306-24.983-14.99-11.401-66.128 1.14-95.771s62.707-112.873 84.37-167.599 53.586-58.147 83.572-65.751z" fill="#624C7C"/><path d="M285.981 408.045c-10.717 19.12-27.42 48.889-44.237 78.852-7.051-2.663.103-19.964-1.037-32.505-1.377-15.149 5.701-23.943 10.261-31.924 8.158-14.277 5.701-25.391 0-45.605 0 0 17.102 13.682 21.662 17.159 3.853 2.929 11.173 11.446 13.351 14.023z" fill="#1d0333"/><path d="m552.297 600.035-82.424 8.274h-91.211l-89.365-8.274s1.016-66.929-4.126-129.682c-5.701-69.548-25.361-175.678-25.361-175.678s48-13 93.359-24.917c15.015-2.201 30.669-3.899 46.016-4.629 16.509-.787 33.509-1.026 49.892-.946 55.734 11.493 102.22 5.852 102.22 5.852s-.557 188.487 3.513 255.64c4.207 69.366 5.737 76.693 6.216 81.961.034.445-8.729-7.601-8.729-7.601z" fill="#ECDFF8"/><path d="M439.089 118.052c-5.701 25.083-17.102 46.745-41.045 74.109-22.837 26.098-68.773 20.123-77.529-17.102-1.265-5.37-1.893-11.139-1.95-17.193-.091-5.416.285-11.048 1.049-16.806 4.492-34.261 22.597-72.661 41.945-93.696 10.923-11.869 83.231 45.605 77.53 70.688z" fill="#ffb5a6"/><path d="M404.885 287.932c-15.962 0-35.344-10.261-34.204-21.663.593-5.86.228-27.329-.593-45.263a551.536 551.536 0 0 0-.741-13.203c-.296-4.139-.616-7.605-.946-9.942-3.42-23.943 66.082-100.822 60.427-62.707s0 115.153 1.14 128.835c.855 10.284-11.356 23.943-25.083 23.943z" fill="#ffb5a6"/><path d="M455.051 87.269c-1.505 7.525-5.986 19.519-15.745 26.155-5.028 3.409-11.458 5.404-19.599 4.629-1.14-9.121-18.242-35.344-35.344-37.624s-27.101 21.491-37.624 17.102c-3.671-1.539-7.605-4.903-11.059-9.703-9.429-13.066-15.449-36.781-3.762-63.266 17.102-38.764 60.404-25.813 74.109-1.14a79.325 79.325 0 0 0 2.497 4.196c4.401 6.955 9.543 12.895 14.765 17.877 8.3 7.936 16.782 13.431 22.643 16.692 10.259 5.699 11.399 13.68 9.119 25.082z" fill="#1d0333"/><path d="M417.426 116.912c3.605-3.605 25.083-18.242 33.064-17.102s7.981 18.242 0 29.643-28.503 12.541-33.064 7.981c-4.56-4.56-5.7-14.821 0-20.522z" fill="#ffb5a6"/><path d="M402.605 197.861c-4.561 9.121-11.401 23.943-21.662 23.943a76.78 76.78 0 0 1-10.854-.798 551.536 551.536 0 0 0-.741-13.203c11.299-3.671 24.387-12.541 32.117-22.483 7.98-10.261 5.7 3.42 1.14 12.541z" fill="#1d0333"/><path d="M392.229 136.294c-.935 3.021-9.269 3.375-14.856 3.409-.753.011-1.448.011-2.075.011-5.29 0-12.69 1.14-13.75-1.14-1.425-3.055 5.233-10.261 14.81-10.261a33.5 33.5 0 0 1 3.956.228c8.164.958 12.839 4.789 11.915 7.753zm-44.898-1.471c-1.22 2.451-7.137 3.728-14.377 2.691-.308-.034-.615-.08-.935-.137-7.651-1.277-11.481 1.277-11.709-2.554-.217-3.819 5.233-7.65 12.986-7.65.456 0 .901.011 1.346.034 8.266.388 14.319 4.367 12.689 7.616z" fill="#fff"/><path d="M392.229 136.294c-.935 3.021-9.269 3.375-14.856 3.409a8.36 8.36 0 0 1-.992-3.979 8.502 8.502 0 0 1 3.933-7.183c8.164.958 12.839 4.789 11.915 7.753zm-44.898-1.471c-1.22 2.451-7.137 3.728-14.377 2.691a8.47 8.47 0 0 1-1.037-4.07 8.473 8.473 0 0 1 2.725-6.236c8.266.387 14.319 4.366 12.689 7.615zm16.509-19.051c2.28 0 15.642-1.204 21.663 0 5.701 1.14 11.401 6.841 12.541 6.841s-5.701-10.261-7.981-11.401-22.803-1.14-25.083-1.14-4.56 5.7-1.14 5.7zm-18.242-6.841c-3.605 0-9.477-.962-13.682 1.14-4.561 2.28-7.534 5.867-6.841 6.841.694.973 4.561-2.28 9.121-3.42 4.424-1.106 11.401 1.14 12.541 1.14 1.141 0 1.141-5.701-1.139-5.701z" fill="#1d0333"/><ellipse cx="386.073" cy="151.686" fill="#f99282" rx="14.252" ry="8.551"/><path d="M330.776 149.406c0 4.298-5.313 7.867-12.211 8.46-.091-5.416.285-11.048 1.049-16.806 6.385.844 11.162 4.264 11.162 8.346z" fill="#f99282"/><path d="M434.529 128.173a1 1 0 0 1-.556-1.832c2.563-1.709 3.878-3.725 3.351-5.135-.504-1.348-2.985-2.678-8.321-1.995a1.001 1.001 0 0 1-.94-1.574c2.662-3.719 10.766-10.833 18.307-11.241.554-.049 1.023.393 1.053.944s-.393 1.022-.944 1.053c-5.726.31-12.051 5.14-15.319 8.645 4.228-.11 7.164 1.132 8.038 3.469.891 2.384-.647 5.188-4.115 7.499-.17.112-.363.167-.554.167zm-83.798.283c-.749 3.005-1.99 5.799-3.297 8.53-1.319 2.728-2.76 5.382-4.16 8.036-.697 1.326-1.388 2.655-1.993 3.989-.293.664-.574 1.343-.738 1.969-.078.284-.11.651-.082.658.005-.006-.013-.067-.05-.088a.15.15 0 0 0-.067-.074.166.166 0 0 0-.047-.017l.042.014c.125.03.218.103.365.114 1.099.219 2.558-.169 3.876-.665 1.348-.504 2.663-1.153 3.992-1.84a1 1 0 1 1 .895 1.789c-1.358.663-2.76 1.32-4.244 1.837a14.56 14.56 0 0 1-2.32.628c-.811.135-1.678.218-2.618-.003-.23-.034-.47-.159-.701-.245l-.089-.039-.157-.105a2.224 2.224 0 0 1-.287-.251 1.864 1.864 0 0 1-.296-.589c-.154-.735.011-1.129.104-1.567.237-.824.559-1.53.887-2.235.669-1.391 1.398-2.716 2.131-4.036 1.467-2.635 2.957-5.237 4.318-7.897 1.349-2.657 2.622-5.373 3.393-8.199l.003-.012a.59.59 0 0 1 1.14.298z" fill="#1d0333"/><path d="M349.018 167.078c.721-1.442 6.702-.334 9.121-1.14 3.42-1.14 5.701-4.561 6.841-4.561s4.561 9.121-3.42 12.541-13.682-4.56-12.542-6.84z" fill="#fff"/><path d="M423.287 45.494c-36.952 16.395-51.466-9.531-51.466-9.531s-3.42 5.701-10.261 7.981-11.401-10.261-11.401-10.261l-13.682 10.261 13.682-17.102s4.561 12.541 11.401 10.261 5.606-18.336 12.541-11.401c12.541 12.541 23.943 11.401 34.421 1.915 4.401 6.955 9.543 12.895 14.765 17.877z" fill="#ECDFF8"/><path d="M376.382 608.309h-93.491s-1.609-12.075-3.42-57.007c-2.713-67.302-20.522-261.033-20.522-261.033s43.473-13.032 94.221-20.454c3.306 34.877 8.95 168.42 12.952 239.359 3.157 56.015 10.26 99.135 10.26 99.135zm185.841 0h-92.351c-6.841-62.707-18.242-253.109-20.796-344.126 6.784.034 13.465.137 19.952.274 27.956.593 52.526 1.973 67.519 2.976.023-.011.046 0 .068 0s.057 0 .091.011c3.58.228 6.613.445 9.007.627 4.025.296 5.583.964 6.248 1.003.046 5.655.513 56.117 1.471 112.702.159 8.699.319 17.547.49 26.394.901 45.708 2.132 91.507 3.74 118.049l.205 3.432c4.105 67.142 3.831 72.809 4.298 77.985.035.445.058.673.058.673z" fill="#624C7C"/><path d="M712.721 583.226c-26.531 11.059-66.994-11.116-99.556-66.504a231.339 231.339 0 0 1-3.055-5.324c-18.664-33.474-40.953-74.804-56.186-103.228-2.474-4.606-4.754-8.87-6.795-12.701A8743.404 8743.404 0 0 1 536 374.582l.524-102.498.023-4.652v-.011c.023 0 .046 0 .068.011a.29.29 0 0 1 .091.011c2.371.262 5.29.513 8.619.855 2.064.217 4.287.467 6.636.775 26.086 3.477 68.248 14.514 86.65 67.883 22.803 66.128 72.968 135.676 85.51 171.02s15.963 63.848-11.4 75.25z" fill="#624C7C"/><path d="M403.047 288.875h-.15c-17.007-.072-28.175-7.157-33.194-21.058a.999.999 0 0 1 .601-1.28.996.996 0 0 1 1.28.601c4.704 13.028 15.243 19.669 31.322 19.737h.142c7.801 0 15.005-2.723 19.786-7.483 4.014-3.997 6.135-9.323 6.135-15.403a1 1 0 1 1 2 0c0 6.624-2.325 12.44-6.724 16.82-5.154 5.131-12.873 8.066-21.198 8.066z" fill="#1d0333"/><path d="M429.968 324.276c-.294 0-.575-.13-.766-.357l-28.852-34.4-24.322 30.956a1.001 1.001 0 0 1-1.63-.081l-20.337-31.924a1 1 0 1 1 1.687-1.074l19.579 30.733 24.211-30.814c.186-.236.469-.377.77-.382.307.004.589.127.782.357l28.747 34.274 18.658-30.73a1 1 0 1 1 1.71 1.037l-19.382 31.924a1 1 0 0 1-.855.481z" fill="#1d0333"/><path d="M424.266 609.309a1 1 0 0 1-.984-.831c-11.841-68.893-27.463-237.597-23.956-320.588a1 1 0 1 1 1.998.084c-3.502 82.87 12.102 251.354 23.929 320.166a.999.999 0 0 1-.987 1.169zm-60.027-134.496a.999.999 0 0 1-.848-.468l-38.022-60.467a1.001 1.001 0 0 1 .004-1.071l17.777-27.775-25.572-22.236a1.002 1.002 0 0 1-.325-.948c4.715-23.889 16.975-86.401 17.083-88.752a1.022 1.022 0 0 1 1.022-.97.987.987 0 0 1 .977.984c0 2.269-14.8 77.361-17.009 88.556l25.786 22.423c.374.326.453.876.186 1.294l-17.9 27.969 37.684 59.93a1 1 0 0 1-.843 1.531zm96.512-3.46a1 1 0 0 1-.901-1.432l31.744-66.293-20.843-25.855a1.002 1.002 0 0 1 .044-1.307l23.19-25.098c-3.415-10.888-26.307-83.922-26.554-86.176a1 1 0 0 1 1.987-.23c.382 2.381 19.363 63.138 26.648 86.358.107.342.023.715-.22.979l-22.997 24.89 20.697 25.674c.242.3.29.712.123 1.06l-32.016 66.861a.997.997 0 0 1-.902.569z" fill="#1d0333"/><path d="M106.182 617.168c-26.349-12.011-44.477-56.174-61.579-132.563S18.38 361.47 18.38 361.47s15.962-14.822 36.484-18.242 42.185-1.14 42.185-1.14 5.746 17.877 13.362 42.755h.011c7.217 23.566 16.144 53.427 23.464 80.288 5.324 19.519 9.805 37.453 12.188 50.257 9.122 49.026 5.702 122.564-39.892 101.78zm619.756-43.124c30.814-31.191 28.968-93.43 24.407-165.258S733.243 273.11 733.243 273.11s-20.522-4.561-44.465 0-37.624 12.541-37.624 12.541 7.91 127.166 10.261 182.421c2.28 53.587 21.662 149.358 64.523 105.972z" fill="#624C7C"/><path d="M613.164 516.722a231.339 231.339 0 0 1-3.055-5.324c-18.664-33.474-40.953-74.804-56.186-103.228-2.474-4.606-4.754-8.87-6.795-12.701l4.834-14.047 6.67-5.701c13.852 11.401 17.273 15.962 17.273 33.064s10.261 28.503 15.962 34.204 13.682 15.962 12.542 27.363c-.902 8.974 10.922 29.245 8.755 46.37zm-479.277-51.591c-5.621 9.988-18.961 34.067-22.689 44.18-5.222-12.918 5.233-13.305-2.748-29.267-2.884-5.769-6.841-18.242 0-30.784 6.841-12.541 6.228-17.449 2.28-28.503-5.701-15.962-.319-35.914-.319-35.914h.011c7.218 23.566 16.146 53.426 23.465 80.288z" fill="#31194E"/><g fill="#1d0333"><path d="M284.032 409.785c-.312 0-.619-.146-.815-.419-6.721-9.409-17.78-23.042-36.138-32.761a1 1 0 0 1 .936-1.768c18.732 9.917 29.991 23.792 36.83 33.366a1 1 0 0 1-.813 1.582zm251.969 5.702a1.001 1.001 0 0 1-.968-1.255c5.898-22.411 22.722-39.931 32.226-48.378a.999.999 0 1 1 1.329 1.494c-9.335 8.299-25.857 25.49-31.621 47.394a1 1 0 0 1-.966.745zm-435.53 126.554a1 1 0 0 1-.995-1.114c3.212-27.835 22.459-58.791 33.958-77.287a1421.65 1421.65 0 0 0 2.433-3.922 1 1 0 0 1 1.702 1.051c-.766 1.24-1.581 2.552-2.436 3.928-11.411 18.353-30.51 49.07-33.67 76.459a1 1 0 0 1-.992.885zm564.751-34.998c-.474 0-.895-.339-.983-.821-5.528-30.483-9.498-105.804-8.966-135.162.01-.553.474-1.027 1.018-.981a1 1 0 0 1 .982 1.019c-.589 32.506 3.804 106.472 8.935 134.768a1 1 0 0 1-.986 1.177zM545.714 268.071c-.137.08-.262.148-.388.228-2.611 1.562-5.564 2.907-8.802 3.785a29.5 29.5 0 0 1-9.646 1.026c-19.382-1.14-33.064 14.822-52.195 12.918l-3.945-12.918-1.71-8.654c27.956.593 52.526 1.973 67.519 2.976v-.011c.023 0 .046 0 .068.011a.29.29 0 0 1 .091.011c3.581.229 6.614.445 9.008.628z"/><path d="M551.962 514.818c2.28-11.401-3.42-25.083-10.261-41.045s1.14-33.064 1.14-45.605-5.074-19.382-5.074-19.382 1.653-4.561 5.199-11.55c2.645-5.233 7.958-12.245 10.467-15.46.159 8.699.319 17.547.49 26.394.901 45.708 2.132 91.507 3.74 118.049l.205 3.432c-3.797-4.161-6.978-9.497-5.906-14.833z"/></g><path d="M10.399 263.989c-8.596 1.228-11.401 15.962-7.981 27.363s10.261 15.962 13.682 15.962 10.261-12.541 7.981-25.083-5.701-19.382-13.682-18.242z" fill="#ffb5a6"/><path d="M16.1 308.314c-3.726 0-10.995-4.527-14.64-16.675-2.508-8.36-1.736-18.147 1.877-23.801 1.772-2.772 4.165-4.445 6.921-4.84 9.715-1.377 12.858 8.338 14.807 19.054 1.908 10.492-2.292 20.285-5.387 23.993-1.256 1.506-2.46 2.269-3.578 2.269zm-5.559-43.335c-2.193.313-4.049 1.638-5.518 3.937-3.27 5.115-3.962 14.431-1.646 22.149 3.423 11.409 10.171 15.249 12.724 15.249.346 0 1.088-.406 2.042-1.55 3.075-3.685 6.645-13.056 4.955-22.354-2.452-13.485-5.972-18.376-12.557-17.431z" fill="#1d0333"/><path d="M29.782 300.473c-6.617 1.734-12.385-10.163-13.666-22.69-1.281-12.528-.015-25.195 9.106-25.195 10.261 0 10.12 9.135 11.401 21.663s-2.294 25.031-6.841 26.222z" fill="#ffb5a6"/><path d="M28.477 301.645c-1.323 0-2.633-.445-3.911-1.331-4.605-3.193-8.401-12.207-9.446-22.43-.816-7.982-.851-18.538 3.62-23.489 1.682-1.863 3.863-2.808 6.48-2.808 10.257 0 11.062 8.52 12.08 19.307.1 1.056.202 2.142.316 3.255 1.319 12.898-2.295 25.906-7.582 27.292a6.132 6.132 0 0 1-1.557.204zm1.305-1.172h.01zm-4.561-46.886c-2.057 0-3.691.703-4.996 2.148-3.104 3.438-4.21 11.231-3.115 21.945.974 9.523 4.509 18.155 8.596 20.989 1.275.885 2.561 1.166 3.822.835 3.401-.891 7.46-11.846 6.099-25.153-.114-1.118-.217-2.21-.318-3.27-1.114-11.814-2.009-17.494-10.088-17.494z" fill="#1d0333"/><path d="M43.463 242.326c-10.261 0-10.261 15.962-9.121 31.924.988 13.835 5.701 23.943 12.541 23.943 5.814 0 7.981-13.682 7.981-27.363s-1.14-28.504-11.401-28.504z" fill="#ffb5a6"/><path d="M46.884 299.193c-7.145 0-12.46-9.763-13.539-24.871-.904-12.653-1.065-25.088 3.836-30.351 1.634-1.755 3.747-2.645 6.282-2.645 10.928 0 12.401 14.914 12.401 29.503 0 8.529-.875 28.364-8.98 28.364zm-3.421-55.866c-1.985 0-3.561.656-4.818 2.007-4.391 4.716-4.135 17.229-3.305 28.846.983 13.766 5.623 23.014 11.544 23.014 4.175 0 6.981-10.595 6.981-26.363-.001-24.237-5.258-27.504-10.402-27.504z" fill="#1d0333"/><path d="M79.437 297.167c-7.923-15.987-28.468-21.124-41.212-19.021s-14.007 11.92-9.572 16.232 18.564 1.14 24.98 9.449 2.541 19.038 2.541 19.038" fill="#ffb5a6"/><path d="M56.174 323.865a1 1 0 0 1-.941-1.339c.037-.103 3.601-10.325-2.392-18.087-3.515-4.552-9.662-5.438-15.085-6.22-4.15-.598-7.733-1.114-9.8-3.124-2.363-2.297-3.221-5.914-2.186-9.214 1.407-4.486 5.887-7.665 12.292-8.722 6.97-1.15 15.547-.111 22.941 2.781 6.232 2.438 14.645 7.328 19.33 16.781a1.001 1.001 0 0 1-1.792.889c-4.776-9.637-20.391-21.741-40.154-18.479-5.633.93-9.536 3.607-10.709 7.348-.811 2.587-.155 5.405 1.672 7.182 1.601 1.557 5.045 2.053 8.691 2.578 5.8.836 12.373 1.783 16.383 6.977 6.674 8.645 2.856 19.529 2.69 19.988a1 1 0 0 1-.94.661z" fill="#1d0333"/><path d="M689.005 170.188c7.723-1.038 13.106 11.313 13.455 23.113s-3.838 16.501-6.841 17.102c-5.701 1.14-11.44-6.621-13.094-19.22-1.655-12.598-.691-20.031 6.48-20.995z" fill="#ffb5a6"/><path d="M694.516 211.512c-1.528 0-3.064-.529-4.507-1.562-4.167-2.983-7.336-9.95-8.476-18.637-1.416-10.784-1.507-20.927 7.339-22.116 2.33-.312 4.544.404 6.579 2.132 4.516 3.834 7.734 12.651 8.008 21.943.181 6.123-1.226 16.827-7.644 18.111a6.63 6.63 0 0 1-1.299.129zm-5.378-40.333c-5.821.782-7.397 6.354-5.622 19.874 1.07 8.147 3.932 14.604 7.657 17.271 1.411 1.011 2.841 1.377 4.249 1.099 2.239-.448 6.383-4.388 6.037-16.092-.255-8.622-3.258-17.043-7.303-20.477-1.585-1.346-3.273-1.904-5.018-1.675z" fill="#1d0333"/><path d="M677.718 210.99c6.836-.244 8.937-13.297 6.558-25.663-2.378-12.367-7.236-24.134-15.971-21.509-9.827 2.953-7.064 11.661-4.685 24.027 2.378 12.366 9.4 23.313 14.098 23.145z" fill="#ffb5a6"/><path d="M677.615 211.992c-5.445 0-12.548-11.332-14.977-23.958-.211-1.099-.426-2.169-.634-3.208-2.129-10.623-3.81-19.014 6.013-21.966 2.507-.752 4.867-.476 7.014.824 5.706 3.455 8.711 13.573 10.226 21.454 1.941 10.091.899 19.815-2.592 24.198-1.347 1.692-3 2.584-4.913 2.652a2.069 2.069 0 0 1-.137.004zm-6.905-47.546c-.681 0-1.385.109-2.117.33-7.737 2.324-6.96 8.021-4.628 19.656.209 1.045.425 2.12.637 3.225 2.526 13.137 9.568 22.463 13.08 22.334 1.302-.047 2.453-.686 3.42-1.9 3.099-3.891 4-13.174 2.192-22.575-2.034-10.576-5.336-17.722-9.298-20.12-1.047-.635-2.134-.95-3.286-.95z" fill="#1d0333"/><path d="M646.742 160.38c9.827-2.953 14.42 12.334 17.922 27.949 3.035 13.534 1.431 24.57-5.121 26.539-5.568 1.673-11.58-10.806-15.518-23.909-3.937-13.103-7.11-27.626 2.717-30.579z" fill="#ffb5a6"/><path d="M658.496 216.025c-7.173 0-13.117-17.083-15.429-24.778-4.198-13.972-7.079-28.679 3.387-31.824 2.428-.729 4.708-.485 6.777.725 6.208 3.63 9.632 15.585 12.408 27.963 3.314 14.78 1.034 25.659-5.809 27.716a4.673 4.673 0 0 1-1.334.198zm-9.373-55.015c-.672 0-1.368.109-2.094.328-8.778 2.638-5.961 16.308-2.047 29.332 4.537 15.103 10.273 24.446 14.272 23.239 5.671-1.704 7.452-11.896 4.433-25.362-2.549-11.364-5.904-23.421-11.466-26.674-.984-.576-2.009-.863-3.098-.863z" fill="#1d0333"/><path d="M628.351 168.218c9.827-2.953 13.429 12.477 16.931 28.092 3.035 13.534 1.107 21.555-5.529 23.214-4.561 1.14-11.172-7.481-15.109-20.584s-6.12-27.769 3.707-30.722z" fill="#ffb5a6"/><path d="M638.914 220.626c-5.161 0-11.396-8.643-15.229-21.398-5.605-18.654-4.133-29.41 4.378-31.968 2.358-.709 4.538-.491 6.481.645 6.207 3.63 9.006 16.114 11.714 28.187 4.008 17.873-1.194 23.136-6.263 24.402a4.468 4.468 0 0 1-1.081.132zm-10.563-52.408.288.958c-7.239 2.175-8.261 12.093-3.038 29.476 4.036 13.432 10.363 20.789 13.909 19.902 7.619-1.905 6.814-13.029 4.796-22.025-2.492-11.112-5.316-23.707-10.771-26.897-1.465-.857-3.066-1.005-4.896-.455z" fill="#1d0333"/><path d="M632.301 217.856c7.923-15.987 28.468-21.124 41.212-19.021s14.007 11.92 9.572 16.232-18.564 1.14-24.98 9.449-2.541 19.038-2.541 19.038" fill="#ffb5a6"/><path d="M655.563 244.555a1 1 0 0 1-.94-.66c-.166-.459-3.984-11.345 2.69-19.989 4.01-5.193 10.583-6.141 16.383-6.977 3.646-.525 7.09-1.021 8.691-2.578 1.827-1.776 2.483-4.595 1.672-7.181-1.173-3.74-5.076-6.419-10.709-7.349-19.762-3.26-35.378 8.843-40.154 18.479a1.001 1.001 0 0 1-1.792-.889c4.685-9.453 13.098-14.344 19.33-16.782 7.394-2.892 15.97-3.931 22.941-2.781 6.405 1.057 10.885 4.236 12.292 8.723 1.035 3.3.177 6.916-2.186 9.213-2.067 2.01-5.651 2.526-9.8 3.124-5.423.782-11.571 1.668-15.085 6.22-5.993 7.763-2.429 17.985-2.392 18.088a1 1 0 0 1-.941 1.339z" fill="#1d0333"/></svg></g><g transform="translate(800.0 410.0) rotate(0.0 173.5 204.5) scale(1.3451802231370997 1.344178785637992)"><svg width="257.958" height="304.275" viewBox="0 0 257.958 304.275"><path d="M1.002 40.02 207.135 1l49.836 263.269-206.134 39.02z" fill="#fff"/><g fill="#1d0333"><path d="M50.833 304.274a.999.999 0 0 1-.981-.814L.017 40.205a1 1 0 0 1 .797-1.168L206.938.017a.998.998 0 0 1 1.168.797L257.94 264.07a.999.999 0 0 1-.796 1.168L51.02 304.257a1.084 1.084 0 0 1-.187.017zM2.169 40.816l49.462 261.289 204.158-38.646-49.462-261.29z"/><path d="M26.437 65.061a.999.999 0 0 1-.184-1.982l163.555-30.96a.999.999 0 1 1 .372 1.965L26.624 65.044a.993.993 0 0 1-.187.017zm120.821 8.611a.999.999 0 0 1-.184-1.982l48.487-9.178a1 1 0 1 1 .372 1.965l-48.487 9.178a1.104 1.104 0 0 1-.188.017zM32.19 95.454a.999.999 0 0 1-.184-1.982l97.095-18.38a.999.999 0 1 1 .372 1.965l-97.095 18.38a1.095 1.095 0 0 1-.188.017zm5.754 30.393a.999.999 0 0 1-.184-1.982l163.555-30.961a1 1 0 1 1 .372 1.965l-163.556 30.96a1.003 1.003 0 0 1-.187.018zm75.597 17.17a.999.999 0 0 1-.184-1.982l93.71-17.739a1 1 0 1 1 .372 1.965L113.728 143a.993.993 0 0 1-.187.017zm-69.844 13.222a.999.999 0 0 1-.184-1.982l56.401-10.677a1.001 1.001 0 0 1 .372 1.965l-56.401 10.677a1.113 1.113 0 0 1-.188.017zm5.753 30.393a.999.999 0 0 1-.184-1.982l163.555-30.961a1 1 0 1 1 .372 1.965l-163.556 30.96a.995.995 0 0 1-.187.018zm5.753 30.392a.999.999 0 0 1-.184-1.982l163.555-30.961a.999.999 0 1 1 .372 1.965L55.391 217.007a1.095 1.095 0 0 1-.188.017zm24.902 55.206c-.339 0-.681-.024-1.027-.076-3.142-.473-5.848-3.241-7.239-7.406-2.61-7.811-.466-16.988 5.335-22.836 1.025-1.032 2.623-2.418 4.666-2.531 1.179-.07 2.419.443 3.234 1.327.682.739.988 1.65.863 2.566a1 1 0 1 1-1.981-.272c.055-.401-.161-.731-.351-.938a2.259 2.259 0 0 0-1.654-.688c-1.031.058-2.098.675-3.356 1.943-5.282 5.325-7.234 13.682-4.858 20.794.43 1.288 2.108 5.531 5.64 6.062 1.712.263 3.632-.395 6.039-2.056a32.796 32.796 0 0 0 4.161-3.411c-.396-1.689-.346-3.629.154-5.702 1.053-4.368 3.773-8.346 7.461-10.914a1.001 1.001 0 0 1 1.529.532c.957 3.176.144 6.858-2.415 10.945a34.919 34.919 0 0 1-4.459 5.695c.03.074.062.147.096.221.717 1.562 2.443 3.057 4.357 2.884 1.11-.099 2.181-.735 3.082-1.345 4.417-2.989 7.827-7.346 9.721-12.308.318-1.451.776-2.833 1.188-4.073a1 1 0 0 1 1.929.516 27.536 27.536 0 0 1-1.199 4.142c-.299 1.415-.433 2.856-.202 4.258.397 2.413 2.375 4.942 4.878 4.846.96-.041 1.93-.477 2.668-.853a20.027 20.027 0 0 0 7.873-7.181 1 1 0 0 1 1.692 1.067 22.028 22.028 0 0 1-8.659 7.897c-.918.467-2.145 1.011-3.489 1.067-3.643.18-6.389-3.193-6.936-6.52l-.009-.054a28.102 28.102 0 0 1-8.333 8.852c-1.113.753-2.462 1.542-4.026 1.681-2.405.215-4.868-1.259-6.141-3.62a34.531 34.531 0 0 1-3.784 3.024c-1.587 1.094-3.898 2.465-6.448 2.465zm16.978-21.531c-2.653 2.266-4.592 5.39-5.409 8.776-.23.954-.419 2.162-.347 3.407a32.932 32.932 0 0 0 3.282-4.374c1.825-2.913 2.653-5.533 2.474-7.809z"/></g></svg></g><g transform="translate(883.0 382.0) rotate(0.0 58.0 42.5) scale(1.3948846213970492 1.379578984954474)"><svg width="83.161" height="61.613" viewBox="0 0 83.161 61.613"><path d="M68.685 11.176c7.723-1.038 13.106 11.313 13.455 23.113s-3.838 16.501-6.841 17.102c-5.701 1.14-11.44-6.621-13.094-19.22s-.69-20.03 6.48-20.995z" fill="#ffb5a6"/><path d="M74.197 52.501c-1.528 0-3.064-.529-4.507-1.562-4.167-2.983-7.336-9.95-8.476-18.637-1.416-10.784-1.507-20.927 7.339-22.116 2.329-.312 4.544.404 6.579 2.132 4.516 3.834 7.734 12.651 8.008 21.943.181 6.123-1.226 16.827-7.644 18.111a6.63 6.63 0 0 1-1.299.129zm-5.378-40.333c-5.821.782-7.397 6.354-5.622 19.874 1.07 8.147 3.932 14.604 7.657 17.271 1.411 1.011 2.841 1.378 4.249 1.099 2.239-.448 6.383-4.388 6.037-16.092-.255-8.622-3.258-17.043-7.303-20.477-1.585-1.345-3.273-1.906-5.018-1.675z" fill="#1d0333"/><path d="M57.399 51.978c6.836-.244 8.937-13.297 6.559-25.663-2.379-12.366-7.237-24.134-15.972-21.509-9.827 2.953-7.064 11.661-4.685 24.027 2.378 12.367 9.4 23.313 14.098 23.145z" fill="#ffb5a6"/><path d="M57.296 52.98c-5.445 0-12.548-11.332-14.977-23.958-.211-1.099-.426-2.169-.634-3.208-2.129-10.623-3.81-19.014 6.013-21.966 2.508-.752 4.867-.476 7.014.824 5.706 3.455 8.711 13.573 10.226 21.454 1.941 10.091.899 19.815-2.592 24.198-1.347 1.692-3 2.584-4.913 2.652a2.069 2.069 0 0 1-.137.004zM50.391 5.434c-.681 0-1.385.109-2.117.33-7.737 2.324-6.96 8.021-4.628 19.656.209 1.045.425 2.12.637 3.225 2.526 13.136 9.569 22.436 13.08 22.334 1.302-.047 2.453-.686 3.42-1.9 3.099-3.891 4-13.174 2.192-22.575-2.034-10.576-5.336-17.722-9.298-20.12-1.047-.634-2.134-.95-3.286-.95z" fill="#1d0333"/><path d="M26.423 1.369c9.827-2.953 14.42 12.334 17.922 27.949 3.035 13.534 1.431 24.57-5.121 26.539-5.568 1.673-11.58-10.806-15.518-23.909s-7.11-27.626 2.717-30.579z" fill="#ffb5a6"/><path d="M38.177 57.013c-7.173 0-13.117-17.083-15.429-24.778C18.55 18.263 15.669 3.556 26.135.411c2.428-.729 4.708-.485 6.777.725 6.208 3.63 9.632 15.585 12.408 27.963 3.314 14.78 1.034 25.659-5.809 27.716a4.638 4.638 0 0 1-1.334.198zM28.804 1.999c-.672 0-1.368.109-2.094.328-8.778 2.638-5.961 16.308-2.047 29.332C29.2 46.762 34.936 56.091 38.935 54.898c5.671-1.704 7.452-11.896 4.433-25.362C40.82 18.171 37.465 6.115 31.903 2.862c-.985-.576-2.011-.863-3.099-.863z" fill="#1d0333"/><path d="M8.032 9.206c9.827-2.953 13.429 12.477 16.931 28.092 3.035 13.534 1.107 21.555-5.529 23.214-4.561 1.14-11.172-7.481-15.109-20.584S-1.796 12.159 8.032 9.206z" fill="#ffb5a6"/><path d="M18.595 61.615c-5.161 0-11.396-8.643-15.229-21.398-5.605-18.654-4.133-29.41 4.378-31.968 2.358-.71 4.538-.491 6.481.645 6.207 3.63 9.006 16.114 11.714 28.187 4.008 17.873-1.194 23.136-6.263 24.402a4.468 4.468 0 0 1-1.081.132zM8.032 9.207l.288.958C1.08 12.339.058 22.257 5.281 39.64 9.317 53.072 15.645 60.431 19.19 59.543c7.619-1.905 6.814-13.029 4.796-22.025-2.491-11.113-5.315-23.708-10.771-26.898-1.465-.856-3.066-1.005-4.896-.455z" fill="#1d0333"/></svg></g><g transform="translate(1013.0 671.0) rotate(0.0 77.0 97.5) scale(1.4236981020440238 1.423887724627416)"><svg width="108.169" height="136.949" viewBox="0 0 108.169 136.949"><path d="m37.233 136.949-8.792-11.687-20.608 7.462c12.245-20.972 22.465-47.344 17.692-67.012 10.065 1.048 13.494 2.783 23.247 3.987 2.672 20.713.848 44.142-11.539 67.25z" fill="#f85572"/><path d="m108.169 116.706-22.538-.686-3.86 16.405C63.439 112.147 53.135 88.654 44.87 65.808c8.201-4.604 12.498-7.578 20.82-12.19 7.139 22.928 25.191 42.38 42.479 63.088z" fill="#f85572"/><path d="m79.789 35.827-6.572 6.247a3.592 3.592 0 0 0-.39 4.771l5.469 7.232c1.661 2.196.335 5.368-2.395 5.728l-8.99 1.187a3.592 3.592 0 0 0-3.121 3.634l.181 9.057c.055 2.755-2.884 4.544-5.306 3.229l-7.966-4.325a3.593 3.593 0 0 0-4.662 1.104l-5.18 7.438c-1.575 2.261-5.004 1.981-6.191-.506l-3.9-8.177a3.594 3.594 0 0 0-4.42-1.848l-8.567 2.971c-2.602.902-5.209-1.338-4.71-4.046l1.644-8.916a3.592 3.592 0 0 0-2.489-4.089L3.55 53.883c-2.634-.8-3.426-4.144-1.431-6.041l6.572-6.247a3.592 3.592 0 0 0 .39-4.771l-5.469-7.232c-1.661-2.196-.335-5.368 2.395-5.728l8.99-1.187a3.592 3.592 0 0 0 3.121-3.634l-.181-9.057c-.055-2.755 2.884-4.544 5.306-3.229l7.966 4.325a3.593 3.593 0 0 0 4.662-1.104l5.18-7.438c1.575-2.261 5.004-1.981 6.191.506l3.9 8.177a3.594 3.594 0 0 0 4.42 1.848l8.567-2.971c2.602-.902 5.209 1.338 4.71 4.046l-1.644 8.916a3.592 3.592 0 0 0 2.489 4.089l8.675 2.636c2.634.799 3.426 4.143 1.43 6.04z" fill="#1d0333"/><path d="M37.923 83.669c-.129 0-.258-.006-.388-.017a4.548 4.548 0 0 1-3.771-2.6l-3.9-8.177a2.594 2.594 0 0 0-3.189-1.334l-8.568 2.971c-1.561.542-3.243.223-4.497-.854s-1.824-2.691-1.524-4.317l1.644-8.915a2.591 2.591 0 0 0-1.796-2.95L3.259 54.84a4.55 4.55 0 0 1-3.134-3.336 4.55 4.55 0 0 1 1.305-4.388l6.572-6.246a2.592 2.592 0 0 0 .282-3.443l-5.469-7.231c-.997-1.319-1.212-3.017-.574-4.542s1.997-2.565 3.636-2.781l8.99-1.187a2.591 2.591 0 0 0 2.253-2.623l-.182-9.057c-.033-1.654.791-3.155 2.204-4.016s3.125-.902 4.579-.112l7.965 4.324a2.59 2.59 0 0 0 3.364-.797l5.18-7.438A4.53 4.53 0 0 1 44.373.015a4.545 4.545 0 0 1 3.77 2.6l3.9 8.177a2.595 2.595 0 0 0 3.189 1.334l8.567-2.972a4.547 4.547 0 0 1 4.497.854 4.548 4.548 0 0 1 1.524 4.317l-1.644 8.916a2.59 2.59 0 0 0 1.796 2.95l8.675 2.636a4.55 4.55 0 0 1 3.134 3.337 4.546 4.546 0 0 1-1.305 4.386l-6.572 6.247a2.59 2.59 0 0 0-.282 3.442l5.469 7.231c.997 1.319 1.212 3.017.574 4.542s-1.997 2.565-3.636 2.781l-8.99 1.188a2.591 2.591 0 0 0-2.253 2.623l.182 9.056a4.55 4.55 0 0 1-2.204 4.016 4.547 4.547 0 0 1-4.579.113l-7.965-4.324a2.585 2.585 0 0 0-3.364.796l-5.18 7.438a4.53 4.53 0 0 1-3.753 1.97zM27.526 69.398c1.726 0 3.361.979 4.143 2.617l3.9 8.177a2.567 2.567 0 0 0 2.129 1.468 2.576 2.576 0 0 0 2.339-1.102l5.18-7.438a4.586 4.586 0 0 1 5.96-1.411l7.965 4.324c.821.444 1.787.421 2.585-.064s1.263-1.332 1.244-2.267l-.182-9.056A4.588 4.588 0 0 1 66.779 60l8.99-1.188c.925-.122 1.693-.709 2.053-1.57s.239-1.819-.324-2.563l-5.469-7.231a4.59 4.59 0 0 1 .499-6.099l6.572-6.247a2.57 2.57 0 0 0 .737-2.476 2.57 2.57 0 0 0-1.769-1.884l-8.675-2.636a4.589 4.589 0 0 1-3.181-5.228l1.644-8.916a2.568 2.568 0 0 0-.86-2.437 2.572 2.572 0 0 0-2.539-.483l-8.567 2.972a4.587 4.587 0 0 1-5.65-2.361l-3.9-8.177a2.567 2.567 0 0 0-2.128-1.468 2.57 2.57 0 0 0-2.339 1.102l-5.18 7.438a4.59 4.59 0 0 1-5.96 1.412l-7.966-4.324c-.822-.446-1.788-.422-2.585.064s-1.263 1.332-1.244 2.266l.182 9.058a4.588 4.588 0 0 1-3.991 4.646l-8.99 1.187c-.925.122-1.692.709-2.052 1.57s-.239 1.819.324 2.563l5.469 7.231a4.591 4.591 0 0 1-.499 6.1l-6.572 6.246a2.571 2.571 0 0 0-.737 2.478 2.57 2.57 0 0 0 1.769 1.883l8.675 2.636a4.59 4.59 0 0 1 3.181 5.228l-1.644 8.915a2.568 2.568 0 0 0 .86 2.437 2.57 2.57 0 0 0 2.538.483l8.568-2.971a4.536 4.536 0 0 1 1.507-.258z" fill="#1d0333"/><circle cx="40.954" cy="41.834" fill="#fff" r="31.403"/><path d="M40.893 74.25c-5.937 0-11.775-1.643-16.955-4.839-7.366-4.545-12.521-11.687-14.515-20.108C5.305 31.917 16.1 14.422 33.486 10.305c17.386-4.124 34.88 6.677 38.998 24.062 4.117 17.386-6.677 34.881-24.063 38.998a32.582 32.582 0 0 1-7.528.885zm.062-62.822c-2.313 0-4.661.266-7.008.821-16.312 3.865-26.441 20.28-22.577 36.592 1.871 7.902 6.708 14.603 13.62 18.867 6.911 4.264 15.07 5.581 22.972 3.711 16.313-3.864 26.441-20.278 22.578-36.592-3.309-13.965-15.818-23.399-29.585-23.399z" fill="#1d0333"/><circle cx="40.643" cy="42.338" fill="#fff" r="20.935"/><path d="M40.643 64.276c-9.934 0-18.958-6.806-21.345-16.883-2.787-11.77 4.52-23.612 16.29-26.399 11.77-2.792 23.613 4.521 26.4 16.289 2.787 11.77-4.52 23.613-16.29 26.4a21.845 21.845 0 0 1-5.055.593zm0-41.875c-1.517 0-3.056.174-4.594.538-10.696 2.534-17.338 13.297-14.804 23.993 2.533 10.695 13.297 17.339 23.993 14.806 10.696-2.534 17.338-13.298 14.804-23.994-2.169-9.158-10.372-15.343-19.399-15.343z" fill="#1d0333"/></svg></g></svg>