<svg xmlns="http://www.w3.org/2000/svg" viewBox="0 0 1200 800" width="1200" height="800"><g transform="translate(466.0 209.0) rotate(0.0 134.0 191.5) scale(1.00290017775283 1.0012653065492685)"><svg width="267.225" height="382.516" viewBox="0 0 267.225 382.516"><path d="m266.225 367.922-117.242 7.154-105.574 6.44-19.003-168.724L1 14.595l85.472-5.218 3.37-.203 5.952-.367 36.401-2.216 35.846-2.182L223.816 1l27.436 232.307z" fill="#fff"/><g fill="#1d0333"><path d="M43.408 382.516a1 1 0 0 1-.993-.888L23.412 212.905.007 14.712a1 1 0 0 1 .933-1.115L223.755.002c.519-.037.992.354 1.054.881l27.436 232.307 14.975 134.622a1.001 1.001 0 0 1-.934 1.108L43.469 382.514l-.061.002zM2.118 15.529l23.281 197.146L44.296 380.46l220.818-13.473-14.857-133.57L222.934 2.056z"/><circle cx="73.79" cy="280.061" r="8.365"/><circle cx="76.487" cy="312.411" r="8.365"/><circle cx="80.378" cy="344.794" r="8.365"/><path d="M92.967 279.198a1 1 0 0 1-.057-1.998l125.719-7.301a1.01 1.01 0 0 1 1.056.94 1 1 0 0 1-.94 1.056l-125.719 7.301-.059.002zm3.924 31.188a1 1 0 0 1-.057-1.998l125.719-7.301c.534-.021 1.024.389 1.056.94a1 1 0 0 1-.94 1.056L96.95 310.384l-.059.002zm3.891 32.383a1 1 0 0 1-.057-1.998l125.719-7.301a1.004 1.004 0 0 1 1.056.94 1 1 0 0 1-.94 1.056l-125.719 7.301-.059.002zm18.249-188.198a79.308 79.308 0 0 0-.804-1.934 80.29 80.29 0 0 0-1.613-3.567 94.227 94.227 0 0 0-3.197-6.141s-3.409-6.002-7.857-11.739c-.346-.459-.996-1.334-1.955-2.421-1.397-1.571-2.436-2.427-4.377-4.689-4.005-4.673-8.682-9.887-9.612-16.363-1.007-7.042 2.023-13.364 4.831-17.665 2.214 1.081 21.343 10.81 25.42 32.591.397 2.082-.271 6.091-.681 12.658l-.003.024a153.694 153.694 0 0 0-.281 7.454c-.033 2.831-.015 5.379.02 7.544.024 1.654.068 3.072.109 4.248z"/></g><path d="M208.414 233.664c-1.318.992-2.66 1.959-4.025 2.902-.609.426-1.218.839-1.839 1.24l-10.501.644-14.237.864-.599.043-.407.025-39.934 2.44-20.057 1.217-.395.025-22.847 1.392h-.012l-6.718.413-7.687.47a70.255 70.255 0 0 1-2.487-1.276 75.617 75.617 0 0 1-3.721-2.075 533.682 533.682 0 0 0-5.27-38.745 233.12 233.12 0 0 1 4.658-.29l.036.001a557.24 557.24 0 0 1 18.564-.84.201.201 0 0 1 .119.003c.766-.027 1.507-.042 2.237-.058l.024.001a23.57 23.57 0 0 1 1.292-.036c5.442-.125 10.261-.16 14.384-.13l.012-.012.024.001.514.014c.323-.003.634-.007.944.002l.06.002c.227-.006.442 0 .669.007.132-.008.275-.004.419-.012 2.019.032 3.895.059 5.687.097.466.001.92.013 1.374.026 7.467.158 14.069.459 25.801.71 4.373.084 8.531.163 12.474.212.502.002 1.004.016 1.506.017 2.008.019 3.944.037 5.808.04.024.013.048.013.071.014 0 0 .012-.012.024.001.263.007.514.002.777-.002h.012c2.534.022 4.936.028 7.207.031.526.003 1.052-.007 1.566-.005.621.005 1.231-.002 1.817.002.191.005.371-.002.55-.009h.012l2.63.001c2.08-.015 3.994-.034 5.739-.045 15.176 10.184 20.544 20.588 22.806 27.464.357 1.071.674 2.143.919 3.214z" fill="#b8bfcc"/><path d="m224.415 236.471-21.865 1.335-10.501.644-14.237.864c-.166-.495-.32-.977-.486-1.46a568.92 568.92 0 0 0-5.786-16.512 540.69 540.69 0 0 0-7.158-18.331c-.336-.834-.683-1.68-1.042-2.527-.044-.145-.112-.278-.168-.423.227.006.442.024.669.03h.012c2.59.143 5.109.272 7.544.411a.203.203 0 0 0 .119.003c.167.016.334.021.489.037.048-.011.084.002.119.003h.012c1.838.098 3.616.207 5.359.303h.012c15.623.908 27.746 1.708 35.296 1.891 1.887.052 4.636.092 7.705.63l.098.792z" fill="#cc9af0"/><path d="M168.017 181.168c-6.52-3.023-18.016-7.303-32.582-7.011-3.246.065-29.092.584-32.195 11.298-.522 1.8-1.207 6.674 11.801 20.109 11.263 11.633 34.951 36.1 48.276 29.138 10.147-5.302 12.547-27.932 4.7-53.534z" fill="#1d0333"/><path d="M103.239 185.455c-.129 1.321-.218 4.13 1.202 7.208 1.919 4.159 5.328 6.066 6.44 6.631-.784 1.431-2.314 3.626-4.973 4.83-4.717 2.137-11.088.296-15.619-4.803l12.95-13.866zm66.028-.346 8.268 15.809-8.648 10.333-7.283-16.121a20.019 20.019 0 0 0 4.973-4.83 20.025 20.025 0 0 0 2.69-5.191z" fill="#cc9af0"/><path d="m192.049 238.45-14.237.864-.599.043-.407.025-39.934 2.44-20.057 1.217-.395.025-22.847 1.392c3.403-8.537 6.806-17.086 10.22-25.611v-.012c2.234-5.617 4.468-11.21 6.715-16.826l.039-.107c.116-.284.231-.567.334-.851v-.012c.038-.083.076-.141.114-.236.064-.166.141-.343.205-.52l6.287.029 1.411.003c12.826.042 25.651.096 38.464.149l1.542.007 4.375.013.06.002c.239-.005.454.001.681-.005 2.462.008 4.912.028 7.375.024a.203.203 0 0 0 .119.003c.155.004.311-.003.466.013.012 0 .024.013.023.025.046.061.092.11.139.171.012.012.012.012.011.024a73.33 73.33 0 0 1 1.79 2.297c.288.39.577.757.853 1.147.126.183.254.342.38.524v.012c9.344 12.795 14.226 24.8 16.873 33.731z" fill="#fff"/><path d="M111.195 201.279c-.241 0-.482-.087-.675-.262-6.476-5.921-9.07-10.777-7.931-14.846 2.266-8.098 19.804-11.949 36.18-12.174 12.869-.177 28.718 2.032 30.828 8.846 1.064 3.437-1.333 7.699-7.329 13.033a1 1 0 0 1-1.33-1.494c5.2-4.626 7.534-8.411 6.749-10.947-1.424-4.594-13.32-7.644-28.891-7.438-15.605.215-32.393 3.964-34.281 10.714-.903 3.227 1.571 7.543 7.354 12.83a1 1 0 0 1-.674 1.738z" fill="#1d0333"/><path d="M153.019 212.127c-4.603 5.402-12.964 9.375-21.479 7.45-1.064-.245-9.689-2.33-13.192-9.648-2.033-4.278-.979-7.509.098-17.903a226.208 226.208 0 0 0 1.194-18.318s.086-21.875-5.861-43.663c.002-.012-1.079-3.939-1.337-4.94-.46-1.633-.906-3.276-1.363-4.932 12.797 1.932 25.606 3.865 38.402 5.808a215.435 215.435 0 0 1 3.132 11.706 249.992 249.992 0 0 1 1.604 7.089c.01.014.019.039.015.062.218 1.032.453 2.114.678 3.268a188.793 188.793 0 0 1 1.945 11.734c.004.061.017.135.021.196l.01.014c.139 1.081.276 2.174.421 3.292.471 3.625.926 7.453 1.189 11.532.337 5.018.375 10.453-.179 16.408-1.027 10.824-1.375 16.253-5.298 20.845z" fill="#e59588"/><path d="M103.242 111.802c.967 3.175 5.215 8.852 13.709 20.205 8.056 10.767 12.084 16.151 14.82 18.323 11.822 9.385 30.654 13.717 43.535 6.406 1.611-.914 5.325-3.081 8.128-7.39 4.208-6.468 4.333-14.533 2.48-22.808-.904-4.055-2.274-8.153-3.87-12.134-2.67-6.688-5.965-13.055-8.691-18.337-3.306-6.408-8.455-15.178-16.215-24.778-1.364 4.378-19.829-7.24-31.663-4.472-19.587 4.583-26.68 30.389-22.233 44.985z" fill="#e59588"/><path d="M158.498 174.874c-1.913-.557-3.934-1.551-6.671-3.296-.388-.247-.74-.489-1.126-.748-2.298-1.6-5.226-3.794-9.725-7.946-3.291-3.042-4.956-4.601-6.394-6.66-1.005-1.443-3.399-4.866-2.631-5.7 1.039-1.134 6.586 3.984 15.501 7.111a44.226 44.226 0 0 0 9.405 2.206c.004.061.017.135.021.196l.01.014c.139 1.081.276 2.174.421 3.292.471 3.624.926 7.452 1.189 11.531zm-50.192-58.807c3.382-.964 5.381-4.589 7.159-7.806 4.176-7.574 3.218-15.039 2.765-17.625a83.953 83.953 0 0 0 20.725 2.706c9.883.049 20.799.1 30.88-6.79 3.235-2.212 9.72-7.421 14.131-17.841-.892.379-2.319.902-4.113 1.112-4.713.555-8.678-1.364-12.369-4.157-3.356-2.531-6.488-5.789-9.755-8.548a41.205 41.205 0 0 0-2.969-2.321c-16.448-11.543-46.012-8.354-56.732 6.249-2.095 2.862-5.263 8.597-4.812 18.697-4.082.584-8.5 1.971-10.234 5.363-5.114 9.979 14.765 33.963 25.324 30.961z" fill="#1d0333"/><path d="M137.934 75.035c-.233-2.983-.092-7.017 2.414-8.915 3.342-2.534 8.496.531 13.991 1.387 3.349.525 7.697.37 13.144-1.842-3.356-2.531-6.488-5.789-9.755-8.548a11.404 11.404 0 0 1-1.984 1.671c-6.972 4.598-16.043-.604-20.264 4.097-1.943 2.177-1.913 5.391-1.6 7.7l-13.375 1.65c5.806.934 11.623 1.867 17.429 2.8z" fill="#eedcff"/><path d="m116.42 243.064-22.847 1.392h-.012l-6.718.413-7.687.47a70.255 70.255 0 0 1-2.487-1.276 75.617 75.617 0 0 1-3.721-2.075 120.971 120.971 0 0 1-16.822-11.628l-3.482-29.431c.061-.476.134-.953.206-1.417v-.012c.072-.452.121-.917.193-1.369 9.003.379 18.006.77 27.02 1.162 3.439.154 6.865.296 10.304.451h.012l.012-.012c.096.003.179.017.286.02l.012.012h.012c6.46.261 12.895.546 19.367.82h.012c.036.001.084.002.131.016.096.421.18.854.275 1.299.011.036.022.072.021.108a316.19 316.19 0 0 1 5.913 41.057z" fill="#cc9af0"/><path d="M102.284 206.358s.283 1.43.145 2.981c-.271 2.897-2.589 5.475-3.07 6a5.849 5.849 0 0 0-.557.702l-.012.012c-1.904 2.721-5.416 10.478-11.946 28.815l-7.687.47-21.11 1.284-1.92-16.263-3.482-29.431-.175-1.475-.193-1.667.443-.024c9.517-.503 19.129.335 27.345 1.529 2.429.354 4.725.74 6.866 1.145 1.32.24 2.569.477 3.757.737.024.001.059.014.083.014.666.138 1.295.275 1.914.399h.012c.665.162 1.295.287 1.913.435 5.001 1.142 8.037 2.05 8.037 2.05s-.386.133-.989.32c.079.158.157.363.234.604.144.376.287.835.392 1.363z" fill="#cc9af0"/><path d="M160.352 131.928c-2.859-.825-4.462-2.048-5.483-1.26-.73.563-.66 1.767-.643 2.06.181 3.108 4.414 6.875 8.303 5.984 3.056-.7 5.365-4.154 4.671-5.548-.555-1.116-2.577-.003-6.848-1.236zm-9.965-16.403c-1.962 2.212-4.682 1.216-9.257 1.664-.135.017-.257.025-.392.042-.747.077-1.547.194-2.405.376-3.906.842-5.965 2.28-7.426 1.075-.984-.813-.984-2.285-.976-2.429.071-3.103 4.641-6.109 9.144-6.904.323-.064.642-.103.961-.143a14.583 14.583 0 0 1 2.91-.016c4.255.377 8.209 2.389 8.342 4.459.043.814-.527 1.446-.901 1.876zm26.964-4.995c-1.595 1.744-3.779.968-7.482 1.308l-.429.049c-.576.064-1.169.163-1.814.29-3.158.669-4.824 1.8-5.995.852-.803-.643-.786-1.799-.782-1.919.052-2.189 3.018-4.332 6.253-5.208a11.804 11.804 0 0 1 1.897-.363c.77-.073 1.568-.083 2.342-.011 3.435.287 6.627 1.878 6.725 3.509.042.646-.414 1.149-.715 1.493z" fill="#fff"/><path d="M159.876 110.532c2.319 2.998 4.949 5.712 7.801 8.202.711.634 1.434 1.245 2.151 1.961.351.382.736.73 1.022 1.429.077.158.105.404.123.622-.018.235-.049.488-.155.7-.206.441-.545.7-.828.872-.583.333-1.114.453-1.634.562-.52.104-1.022.154-1.523.196a31.81 31.81 0 0 1-2.954.059 1 1 0 1 1 .04-2.001l.048.002h.009c.928.065 1.855.107 2.762.086.878-.02 1.849-.118 2.399-.386.127-.063.177-.122.175-.116-.009 0 .025.041-.009-.065-.052-.198-.329-.571-.615-.89-.599-.663-1.299-1.323-1.979-1.993-2.76-2.668-5.316-5.59-7.509-8.743a.42.42 0 0 1 .676-.497z" fill="#1d0333"/><path d="M204.39 236.566c-.609.426-1.218.839-1.839 1.24l-10.501.644-14.237.864-.599.043a432.376 432.376 0 0 0-5.794-17.529 556.73 556.73 0 0 0-7.061-18.819c-.359-.859-.694-1.717-1.018-2.526-.044-.145-.112-.278-.168-.423.204-.03.419-.036.635-.054 2.899-.231 5.62-.049 8.175.512.048.001.095.015.143.028h.012a27.21 27.21 0 0 1 4.528 1.416c.071.038.154.064.236.102.685.294 1.37.611 2.053.965 10.701 5.506 19.003 17.903 25.435 33.537z" fill="#cc9af0"/><path d="M114.13 224.2c-.073 0-.147-.008-.222-.024-3.836-.867-9.506-2.895-14.725-7.634-6.594-5.986-9.014-13.221-9.869-17.001-.073-.325.02-.665.248-.907l14.606-15.476a1.001 1.001 0 0 1 1.455 1.373l-14.237 15.084c.901 3.663 3.241 10.09 9.141 15.446 4.897 4.446 10.22 6.35 13.822 7.163a1.001 1.001 0 0 1-.219 1.976zm53.772-11.636a1 1 0 0 1-.539-1.843 26.063 26.063 0 0 0 2.544-1.852c2.63-2.169 4.815-4.848 6.503-7.966l-8.662-17.317a1 1 0 0 1 1.789-.895l8.893 17.778a.999.999 0 0 1-.007.908c-1.843 3.55-4.279 6.589-7.242 9.034a27.748 27.748 0 0 1-2.741 1.994.99.99 0 0 1-.538.159z" fill="#1d0333"/><path d="M116.814 244.038a1 1 0 0 1-.996-.929 325.756 325.756 0 0 0-5.582-41.006l-.161-.805a4.145 4.145 0 0 1-.062-.31c-.039-.161-.072-.315-.104-.464l-.026-.126a.998.998 0 0 1 .764-1.189.998.998 0 0 1 1.189.764l.028.131c.031.145.064.296.104.455.01.038.017.077.021.116.008.061.022.117.036.177l.174.863a327.397 327.397 0 0 1 5.614 41.251.998.998 0 0 1-.999 1.072zm-17.942-27.923c-.023-.025-.059-.038-.082-.062-7.134-5.313-13.705-8.47-18.4-10.344-1.668-.655-4.399-1.747-8.017-2.755a62.679 62.679 0 0 0-4.025-1.007c-3.553-.779-5.616-.943-13.688-2.158-.619-.101-1.226-.189-1.809-.277-.131-.028-.262-.043-.381-.058l-.193-1.667-.03-.204c4.446-.404 9.317-.628 14.54-.568a140.674 140.674 0 0 1 23.51 2.308c.02.132.052.276.072.42h.012c.083.445.178.925.307 1.431.075.301.15.614.249.939a30.19 30.19 0 0 0 1.856 5.084 32.535 32.535 0 0 0 6.079 8.918zm73.947-121.061c-.624-.185-1.147.032-4.854.206-2.881.138-4.598.098-6.18 1.151-.327.223-.724.541-1.014 1.053-.559 1.024-.612 2.585.059 3.1.955.736 2.507-1.329 6.16-2.185 2.521-.586 4.78-.298 6.2-.118.497.063.964.147 1.41.221zm-25.381 7.837c-.563 1.622-3.855.414-9.26 2.244-1.342.454-6.238 2.111-10.215 6.397-1.54 1.659-2.632 3.378-3.041 3.159-.543-.291.761-3.654.955-4.153 1-2.579 1.569-4.046 3.001-5.225 1.282-1.055 1.69-.591 5.127-2.165 1.687-.772 1.591-.885 4.094-2.145 4.844-2.439 5.749-2.29 6.16-2.185 1.915.49 3.642 2.739 3.179 4.073zm29.368 137.49a1 1 0 0 1-.958-.712 471.646 471.646 0 0 0-5.482-17.078.806.806 0 0 1-.024-.084 505.228 505.228 0 0 0-6.986-19.149c-.333-.852-.667-1.681-1.001-2.497a251.041 251.041 0 0 0-1.387-3.481 1 1 0 0 1 1.852-.758c.462 1.129.922 2.294 1.393 3.496.332.812.67 1.65 1.007 2.515a506.242 506.242 0 0 1 7.04 19.299.806.806 0 0 1 .024.084 470.253 470.253 0 0 1 5.481 17.078 1.002 1.002 0 0 1-.959 1.287z" fill="#1d0333"/><ellipse cx="140.151" cy="128.98" fill="#e27469" rx="8.784" ry="5.684" transform="matrix(.9998 -.0191 .0191 .9998 -2.4318 2.6934)"/><path d="M175.265 120.373c.064 3.337 4.755 5.998 10.65 6.164-.904-4.055-2.274-8.153-3.87-12.134-4.041 1.06-6.83 3.356-6.78 5.97z" fill="#e27469"/><path d="M118.924 150.321a30.003 30.003 0 0 1-.697 2.316 80.29 80.29 0 0 0-1.613-3.567 410.128 410.128 0 0 0-1.16-3.444c-2.966-8.739-6-17.343-9.076-25.82 2.529 1.246 6.437 3.674 9.464 8.09 1.654 2.415 2.703 4.926 3.346 7.405l-.003.024c1.532 5.956.604 11.654-.261 14.996z" fill="#1d0333"/><path d="M116.498 108.241a63.034 63.034 0 0 0-16.104-6.844c-6.49-1.741-12.776-3.432-15.497-.38-2.399 2.69-1.184 8.067.755 11.39 5.529 9.474 22.901 12.804 28.802 5.874.886-1.04 2.875-3.913 2.044-10.04z" fill="#e59588"/><path d="M102.408 116.96c-2.491 0-4.767-.73-6.196-2.013-.767-.687-1.19-1.461-1.228-2.239-.08-1.7 1.824-3.691 4.941-4.596-1.383-.892-3.386-1.826-5.811-1.734a9.849 9.849 0 0 0-3.776.848 1 1 0 1 1-.804-1.832 11.886 11.886 0 0 1 4.54-1.016c4.491-.062 7.71 2.466 8.893 3.571a1.001 1.001 0 0 1-.586 1.726c-3.58.347-5.432 2.241-5.398 2.939.008.162.16.481.565.845.918.824 2.849 1.647 5.53 1.48.543-.009 1.026.387 1.06.937a1.001 1.001 0 0 1-.937 1.06c-.267.016-.532.024-.793.024zm38.329.271c-.747.077-1.547.194-2.405.376-3.906.842-5.965 2.28-7.426 1.075-.984-.813-.984-2.285-.976-2.429.071-3.103 4.641-6.109 9.144-6.904 1.871 1.468 2.838 5.09 1.663 7.882zm28.702-5.344c-.576.064-1.169.163-1.814.29-3.158.669-4.824 1.8-5.995.852-.803-.643-.786-1.799-.782-1.919.052-2.189 3.018-4.332 6.253-5.208 1.542 1.06 2.542 3.576 2.338 5.985z" fill="#1d0333"/><path d="M58.045 247.622a1 1 0 0 1-.992-.883L32.756 40.975a.998.998 0 0 1 .933-1.115l97.961-5.984 68.406-4.167a.996.996 0 0 1 1.055.881l24.298 205.765a1 1 0 0 1-.933 1.115L58.107 247.62l-.062.002zM34.867 41.791l18.771 159.021 5.291 44.755 164.369-10.029-24.062-203.776z" fill="#1d0333"/></svg></g></svg>