<svg xmlns="http://www.w3.org/2000/svg" viewBox="0 0 800 800" width="800" height="800"><g transform="translate(44.0 44.0) rotate(0.0 356.0 356.0) scale(1.0 1.0)"><svg width="712" height="712" viewBox="0 0 712 712"><clipPath id="a"><circle cx="356" cy="356" fill="#FCEFC8" r="356"/></clipPath><circle cx="356" cy="356" fill="#FCEFC8" clip-path="url(#a)" r="356"/></svg></g><g transform="translate(173.0 169.0) rotate(0.0 227.5 231.5) scale(0.7843421179650545 0.7833821466701182)"><svg width="580.104" height="591.027" viewBox="0 0 580.104 591.027"><path d="M427.461 157.131c-11-13-34.448-16.489-50-11-17 6-17.446-10.837-6-17 26-14 34-9 47-2 17.806 9.589 9 30 9 30z" fill="#ffb5a6"/><path d="M388.461 102.131c4 12 29 46 41 57 10.026 9.191 13 25 17 50s55-19 55-19-29-92-44-108c-3.059-3.262-69 20-69 20z" fill="#ffb5a6"/><path d="M193.46 280.131s-49-19-66-37c-16.479-17.448 0-33 14-34 2-13 32.518-44.248 80-39s74 30 76 42c12-5 42 23 17 36-24.475 12.727-80 55-80 55z" fill="#7A4E98"/><path d="M167.905 223.833s10.555-20.702 38.555-16.702 40.018 7.331 43 7c9-1 22 7 21 13 3 1 5.084 4.76 5.084 4.76s-9.478 7.14-12.281 9.69-21.803 4.55-21.803 4.55-29.913-1.217-33.457-1.109c-3.543.109-17.55-3.441-17.55-3.441s-7.994-6.45-11.994-10.45-10.554-7.298-10.554-7.298z" fill="#1d0333"/><path d="M387.56 257.631c-5.32 19.39-17.13 63.26-28.81 111.61-5.46 22.59-10.89 46.16-15.61 68.67v.01c-6.46 30.79-11.59 59.59-13.68 81.21-58-1-245-10-245-10l-3-264s4.1-.36 10.97-.93c8.1-.67 20.05-1.63 33.64-2.62 29.14-2.14 65.83-4.45 88.39-4.45 34.72 0 112 5 148 5 5.645 0 26.591 10.06 25.1 15.5z" fill="#7A4E98"/><path d="M259.14 197.821c-.31 4.32-.69 8.64-1.17 12.94-1.38 12.57-3.5 25.05-6.51 37.37-17.37-1.37-37.17-3.03-54.54-4.4 9.39-38.47 14.54-79.6 9.26-117.64l52.12 4.11c1.86 22.49 2.431 45.16.84 67.62z" fill="#ffb5a6"/><path d="M307.142 183.83c-1.009 1.414-10.521 14.317-25.984 16.839-33.222 5.426-78.723-39.517-76.856-84.585.204-4.743 2.249-40.588 30.404-53.06 21.095-9.362 45.55-.607 58.928 13.175 7.119 7.354 10.109 16.365 13.078 31.244a318.56 318.56 0 0 1 1.107 5.781c.603 3.265 1.226 6.781 1.9 10.582 1.017 5.704 1.951 10.978 2.715 15.894.783 5.167 1.373 9.904 1.645 14.329.734 11.808-.817 21.281-6.937 29.801z" fill="#ffb5a6"/><path d="M271.241 130.911c-.02.2-.07.4-.13.58-.29.88-1.05 1.47-1.56 1.91-3.08 2.55-6.47.97-12.28.43-.44-.04-.89-.07-1.36-.1-.63-.05-1.29-.06-1.96-.07-.7-.01-1.4.01-2.14.05-5.77.33-9.04 1.93-10.87-.11-1.24-1.4-.89-3.5-.85-3.69.85-4.74 9.07-8.19 16.03-7.85 1.16.05 2.34.2 3.49.46.23.05.45.1.68.16 6.029 1.48 11.24 5.25 10.95 8.23zm39.74-1.99c-.03.3-.14.57-.27.81-.31.5-.77.87-1.11 1.15-2.51 2.03-5.29.71-10.13.29-.28-.03-.57-.05-.87-.07-1-.05-2.1-.07-3.29-.01-.41.03-.79.05-1.17.09-3.94.34-6.25 1.27-7.6-.21-1-1.11-.73-2.76-.71-2.92.68-3.75 7.31-6.45 12.93-6.17.79.04 1.59.14 2.38.3.33.06.66.13.98.21 4.86 1.18 9.069 4.17 8.86 6.53z" fill="#fff"/><path d="M281.766 123.836a80.987 80.987 0 0 0 4.356 6.963c1.568 2.243 3.249 4.392 5.012 6.501.878 1.065 1.78 2.099 2.652 3.284.418.626.896 1.21 1.155 2.284.075.245.062.61.039.931-.079.338-.181.699-.383.983-.399.595-.948.894-1.396 1.079-.917.351-1.708.406-2.478.447-.77.034-1.502-.005-2.23-.056-1.449-.115-2.855-.324-4.25-.566a1.5 1.5 0 1 1 .588-2.942l.013.003c1.313.302 2.631.569 3.93.743.646.081 1.294.148 1.906.153.604.011 1.214-.039 1.599-.164.191-.061.27-.13.259-.113-.018.006.021.086-.001-.068-.027-.285-.338-.881-.675-1.399-.708-1.082-1.562-2.184-2.384-3.295-1.664-2.224-3.271-4.521-4.743-6.891a82.347 82.347 0 0 1-4.046-7.315.608.608 0 0 1 1.077-.562zm-47.503-7.792c1.098 1.285 6.319-3.623 13.848-5.678 10.717-2.925 19.04 1.816 20.337-.898.711-1.487-1.259-4.221-3.215-5.475-.599-.384-1.745-.977-4.345-1.13-3.136-.185-4.681.491-7.933 1.092-6.844 1.265-8.104-.229-11.269 1.709-1.783 1.091-3.213 2.686-4.027 3.592-1.683 1.875-2.339 3.203-2.641 3.891-.691 1.57-1.103 2.491-.755 2.897zm73.557-2.819c-2.612-1.186-6.288-2.598-10.697-2.499-5.209.131-8.233 2.283-9.727.612-.877-3.374.024-4.952.477-5.562 2.395-3.184 8.937-1.438 13.908-.125 2.088.55 3.695 1.17 4.932 1.794.372 1.841.737 3.762 1.107 5.78z" fill="#1d0333"/><path d="M316.461 75.131c-12.91 23.05-29.22 20.72-36 12-7-9-19-12-36 1-17.44 13.34-24.59 35.52-46 22-19-12-18-45 1-58 7.4-5.06 13.88-6.75 21.78-10.33.36-.16 1.86.5 2.22.33 6.47-3.01 13.31-6.49 23-15 .67-.59.83-2.94 1.53-3.57.15-.14.31-.28.47-.43 18.76-17.2 35-31 57-18 23.51 13.89 25 45 11 70z" fill="#1d0333"/><ellipse cx="247.049" cy="150.089" fill="#f99282" rx="8.238" ry="12.731" transform="matrix(.1346 -.9909 .9909 .1346 65.0791 374.6935)"/><path d="M314.082 154.025c-1.3.501-2.723.856-4.244 1.026-6.557.766-12.274-2.056-12.765-6.297-.504-4.244 4.413-8.306 10.97-9.072 1.521-.17 3.012-.16 4.387.025.784 5.154 1.38 9.9 1.652 14.318z" fill="#f99282"/><path d="M218.662 132.042c-3.611 5.931-14.079 11.275-28.345 2.328-12.992-8.148-12.926-26.666-7.086-30.263 9.448-5.82 38.975 16.296 38.975 16.296s0 5.819-3.544 11.639z" fill="#ffb5a6"/><path d="M201.164 129.255a.962.962 0 0 1-.184-.017c-3.358-.625-6.223-2.271-7.663-4.402-.679-1.004-.944-2.002-.766-2.885.415-2.067 3.455-3.865 7.639-3.862-1.402-1.603-3.7-3.566-6.958-4.31a12.485 12.485 0 0 0-4.9-.121 1 1 0 1 1-.335-1.971 14.473 14.473 0 0 1 5.68.143c5.336 1.219 8.411 5.219 9.486 6.882a1.001 1.001 0 0 1-.989 1.532c-4.36-.656-7.439.988-7.662 2.102-.067.332.106.845.463 1.372.885 1.31 3.024 2.932 6.372 3.555a1 1 0 0 1-.183 1.982z" fill="#1d0333"/><path d="M262.466 159.941c2.995-4.81 8.995 1.19 12.995 2.19 2.91.728 7 1 7 4 0 2.236-3.043 6.255-11 5-6.829-1.076-10.99-7.987-8.995-11.19z" fill="#fff"/><path d="M271.241 130.911c-.02.2-.07.4-.13.58-.29.88-1.05 1.47-1.56 1.91-3.08 2.55-6.47.97-12.28.43-1.14-1.32-1.81-2.94-1.81-4.7 0-2.75 1.64-5.17 4.15-6.61.23.05.45.1.68.16 6.029 1.48 11.24 5.25 10.95 8.23zm39.74-1.99c-.03.3-.14.57-.27.81-.31.5-.77.87-1.11 1.15-2.51 2.03-5.29.71-10.13.29a6.693 6.693 0 0 1-1.01-3.54c0-2.15 1.03-4.09 2.68-5.45.33.06.66.13.98.21 4.86 1.18 9.069 4.17 8.86 6.53z" fill="#1d0333"/><path d="M392.9 497.847c48.757 15.922 65.468 38.279 68.233 47.091 3.524 11.23-4.302 13.85-12.269 10.291 5.962 6.279.458 19.243-11.236 17.057.122.615 1.552 8.367-3.33 12.481-2.533 2.135-5.605 2.312-6.785 2.303-8.629-.062-14.078-10.765-20.496-18.581-5.631-6.857-15.103-15.264-31.841-21.351 5.281 3.991 37.872 28.93 32.51 40.041-.79 1.638-2.157 2.461-2.817 2.848-9.806 5.74-22.873-14.676-48.851-24.09-20.995-7.608-29.049-.284-51.045-11.048a91.308 91.308 0 0 1-18.193-11.796c2.993-7.084 6.723-18.411 7.064-32.698a89.112 89.112 0 0 0-2.848-24.54c46.069-3.149 80.872 5.124 101.904 11.992z" fill="#ffb5a6"/><path d="M116.46 367.131c-.006 1-3 32 1 47 5.762 21.606 5 31 0 41s-2 19 4 30c6.132 11.243-10 22-12 22s-17-12-17-12l11-116zm322.261 205.962a1 1 0 0 1-.889-.54 90.343 90.343 0 0 0-10.132-15.448c-10.773-13.221-25.564-23.413-42.774-29.474a.999.999 0 1 1 .664-1.886c17.557 6.183 32.655 16.59 43.66 30.097a92.278 92.278 0 0 1 10.356 15.79 1 1 0 0 1-.885 1.461zm11.724-15.939a1 1 0 0 1-.831-.442 104.875 104.875 0 0 0-17.382-19.908c-11.042-9.803-23.921-17.095-38.281-21.675a1 1 0 1 1 .608-1.906c14.628 4.665 27.75 12.095 39.002 22.085a106.808 106.808 0 0 1 17.714 20.288 1 1 0 0 1-.83 1.558z" fill="#1d0333"/><path d="M94.848 244.003c-40.388 1.128-69.504 22.957-73.388 84.128-4 63-11.688 107.406-17 137-21 117 35.974 133.006 91 121 55-12 128-32 193-29 14-47 3-79 3-79s-57 0-103 3c-45.302 2.954-89 4-89 4s15-139 28-171c2.525-6.214-32.612-70.128-32.612-70.128zm448.613 213.128c-29.84 6.74-62-12-93-31s-152-97-152-97l37-86c35-4 62 1 93.05 33.05 3.629 3.746 8.1 7.51 12.95 11.95 10.96 10.05 23.38 20.82 36.02 31.47 34.508 29.072 70.674 57.198 83.303 66.936 3.082 2.377 18.01 2.759 18.677 6.594 4 23-10.952 58.344-36 64z" fill="#7A4E98"/><path d="M482.461 333.131c0 3 1 57 1 57s-11-3-15-9c-4.332-6.499-2-19-14-28-11.37-8.528-13-24-10-41 1.81-10.27-11.04-26.83-15.95-35.95 3.83 3.54 8.1 7.51 12.95 11.95 10.96 10.05 23.38 20.82 36.02 31.47 2.899 7.21 4.98 12.63 4.98 13.53z" fill="#633182"/><path d="M435.461 189.131s11.621 65.124 21.811 92.562c10.189 27.438 15.189 66.438 16.189 75.438.731 6.577 16.619 74.492 42.063 89.12 24.332 13.989 62.744-8.455 64.34-39.288s-13.404-75.832-38.404-137.832-40-99-41-101c-24.999 23-64.999 21-64.999 21z" fill="#7A4E98"/><path d="m221.46 236.131-35.595 1.771s36.595 35.229 42.595 59.229c7-28 38.053-58.378 38.053-58.378z" fill="#ffb5a6"/><path d="m312.461 53.131-9-10-13 8-9-5s-27.31 19.12-60.22-4.33c.36-.16.72-.32 1.08-.49 6.47-3.01 13.93-7.41 23.62-15.92.67-.59 1.35-1.2 2.05-1.83 7.5 15.51 20.03 22.93 40.47 6.57 2 6 4 14 4 14l13-10z" fill="#eedcff"/><g fill="#1d0333"><path d="M259.14 197.821c-.31 4.32-.69 8.64-1.17 12.94-17.93 3.77-22.55-13.8-23.51-17.63-1-4-10-13-7.26-18.42 2.349-4.646 8.26-1.58 16.26 10.42a33.58 33.58 0 0 0 15.68 12.69zm-28.68 112.31a1 1 0 0 1-.999-.966c-.444-12.865-9.385-31.102-24.531-50.035-13.647-17.059-29.689-31.222-40.868-36.083a1 1 0 1 1 .798-1.834c23.134 10.058 65.578 58.213 66.601 87.883a1 1 0 0 1-.965 1.034l-.036.001z"/><path d="M228.461 298.132a1 1 0 0 1-.966-1.264c6.06-22.219 27.08-54.386 50.473-67.608a1.001 1.001 0 0 1 .984 1.742c-22.944 12.969-43.573 44.56-49.527 66.392a1 1 0 0 1-.964.738zm-16-4.001a.997.997 0 0 1-.743-.33c-.089-.099-9.226-10.066-33.746-23.797-7.45-4.172-15.103-7.334-22.504-10.391-17.352-7.168-32.337-13.358-35.873-29.265a1 1 0 1 1 1.952-.434c3.309 14.89 17.849 20.896 34.684 27.85 7.455 3.08 15.164 6.264 22.718 10.494 24.858 13.921 33.883 23.79 34.255 24.204a1 1 0 0 1-.743 1.669zm31.999-7a1 1 0 0 1-.768-1.64c5.645-6.774 20.522-19.628 38.374-27.279 5.444-2.333 10.704-4.223 15.791-6.051 13.863-4.981 24.812-8.915 25.271-17.367a1 1 0 0 1 1.997.109c-.531 9.777-12.031 13.909-26.592 19.141-5.059 1.818-10.291 3.697-15.679 6.007-17.528 7.512-32.105 20.096-37.626 26.721a.995.995 0 0 1-.768.359zm-24 89.001a.99.99 0 0 1-.371-.072c-3.228-1.291-6.749-5.525-8.563-10.295-1.671-4.396-1.657-8.686.04-12.08.613-1.227 1.3-2.46 1.964-3.653 2.36-4.24 4.588-8.244 3.592-11.686-.586-2.024-2.267-3.77-5.14-5.337-4.301-2.346-6.445-4.747-6.748-7.558-.534-4.956 4.709-10.528 14.572-19.076a1 1 0 1 1 1.31 1.512c-8.9 7.714-14.329 13.307-13.893 17.35.226 2.1 2.043 4.012 5.717 6.016 3.365 1.836 5.362 3.974 6.104 6.536 1.228 4.242-1.311 8.803-3.766 13.214-.653 1.174-1.329 2.387-1.922 3.575-1.444 2.888-1.429 6.608.041 10.475 1.798 4.73 5.173 8.244 7.436 9.149a1 1 0 0 1-.373 1.93zm35.001-3.001a1 1 0 0 1-.601-1.8c.01-.01 3.125-2.816-2.278-12.721-3.791-6.949-.49-13.196 2.422-18.708 1.974-3.737 3.839-7.266 3.462-10.66-.548-4.934-4.319-9.599-8.311-14.537-2.89-3.575-5.878-7.272-7.609-11.167a1 1 0 1 1 1.828-.812c1.624 3.655 4.528 7.247 7.337 10.722 3.997 4.945 8.13 10.058 8.743 15.574.445 4.005-1.559 7.799-3.682 11.816-2.808 5.314-5.711 10.809-2.434 16.816 6.234 11.43 2.202 14.919 1.722 15.279-.179.133-.39.198-.599.198zm75 17.001a1 1 0 0 1-.959-1.285c4.248-14.337 15.431-20.87 26.245-27.188 9.746-5.694 18.952-11.072 21.746-21.78a1 1 0 1 1 1.935.505c-3.003 11.512-12.557 17.093-22.672 23.002-10.479 6.121-21.314 12.451-25.337 26.029a1.001 1.001 0 0 1-.958.717z"/><path d="M407.067 399.782c-.182 0-.365-.05-.531-.153l-54.396-34.151a1 1 0 1 1 1.064-1.694l54.396 34.151a1 1 0 0 1-.533 1.847zm76.394-8.65c-.344 0-.679-.178-.865-.496-9.308-15.958-11.164-33.858-12.802-49.651-.826-7.968-1.606-15.494-3.298-21.585-1.311-4.721-2.715-10.285-4.202-16.176-3.72-14.742-7.935-31.45-13.161-45.237a1 1 0 1 1 1.871-.709c5.267 13.895 9.498 30.663 13.23 45.457 1.483 5.879 2.885 11.432 4.189 16.13 1.737 6.253 2.526 13.86 3.36 21.914 1.616 15.592 3.449 33.265 12.54 48.85a1 1 0 0 1-.862 1.503zm-195.001 166a1 1 0 0 1-.922-1.389c8.163-19.388 9.648-47.27 4.096-76.604-116.778 1.041-181.504 3.261-232.988 12.975a1 1 0 1 1-.371-1.965c51.755-9.765 116.749-11.978 234.177-13.017.488.008.899.336.991.81 5.809 30.013 4.329 58.654-4.06 78.578a1.003 1.003 0 0 1-.923.612z"/><path d="M99.462 486.132a1 1 0 0 1-.989-1.152c.449-2.916 1.04-8.481 1.858-16.184 2.757-25.947 7.888-74.245 17.302-109.919a1 1 0 0 1 1.934.51c-9.375 35.527-14.496 83.726-17.248 109.621-.821 7.729-1.415 13.314-1.87 16.276a1 1 0 0 1-.987.848zm259.289-116.891c-5.46 22.59-10.89 46.16-15.61 68.67-1.36-3.32-3.68-6.78-4.68-11.78-2.732-13.658 1-15 4-27s-11-14-11-14 2-6 8.87-11.66c9.041-7.449 9.22-10.3 16.17-6.82.819.41 1.569 1.31 2.25 2.59zm-149.291-79.11c-18-7-32-10-46-9s-25-9-31-17c-4.31-5.75-17.51-16.19-40.03-19.93 8.1-.67 20.05-1.63 33.64-2.62 2.94 3.62 11.4 9.64 19.39 12.55 11 4 27 11 41.78 20.14 15.424 9.539 22.22 15.86 22.22 15.86z"/></g><path d="M390.433 76.178c-8.744-1.749-14.482 12.002-15.485 27.013-.591 8.85 4.546 14.969 8.065 13.796 3.71-1.237 9.893-8.657 12.366-22.26 1.979-10.882 1.237-17.312-4.946-18.549z" fill="#ffb5a6"/><path d="M382.112 118.132c-1.069 0-2.195-.427-3.267-1.255-2.752-2.127-5.333-7.204-4.896-13.752.817-12.216 4.515-22.247 9.651-26.179 2.167-1.659 4.531-2.248 7.028-1.748 7.923 1.585 7.345 10.852 5.734 19.709-2.653 14.593-9.249 21.768-13.034 23.03-.392.13-.799.195-1.216.195zm6.844-41.103c-1.444 0-2.831.503-4.139 1.505-4.622 3.538-8.104 13.243-8.871 24.724-.389 5.813 1.791 10.234 4.123 12.036.945.73 1.878.995 2.628.745 3.444-1.148 9.35-8.574 11.699-21.49 2.063-11.349.859-16.387-4.159-17.39a6.475 6.475 0 0 0-1.281-.13z" fill="#1d0333"/><path d="M406.219 76.231c-5.314-5.739-19.786-.291-19.786 23.496 0 13.603 7.346 19.846 9.893 19.786 5.018-.117 9.893-8.657 11.13-22.26.603-6.631 2.34-17.159-1.237-21.022z" fill="#ffb5a6"/><path d="M396.289 120.514c-1.233 0-2.832-.873-4.4-2.405-1.941-1.897-6.457-7.485-6.457-18.382 0-15.597 6.201-23.585 12.005-25.859 3.6-1.411 7.247-.766 9.515 1.683 3.401 3.672 2.507 12.128 1.789 18.922a195.138 195.138 0 0 0-.29 2.871c-1.228 13.504-6.204 23.032-12.103 23.169l-.059.001zm4.882-45.379c-.965 0-1.983.196-3.004.596-5.189 2.034-10.735 9.406-10.735 23.997 0 10.137 4.094 15.231 5.855 16.951 1.507 1.472 2.62 1.841 3.015 1.835 5.348-.124 9.225-11.093 10.157-21.35.082-.904.185-1.879.293-2.9.64-6.055 1.516-14.347-1.268-17.353-1.081-1.168-2.614-1.776-4.313-1.776z" fill="#1d0333"/><path d="M424.719 75.584c0-8.702-15.112-7.052-20.666 3.263-7.614 14.14.006 35.351 3.263 35.894 6.526 1.088 11.965-8.702 14.14-16.316 2.113-7.394 3.263-16.586 3.263-22.841z" fill="#ffb5a6"/><path d="M408.305 115.824c-.381 0-.765-.031-1.153-.096-.415-.069-1.677-.28-3.451-3.898-3.417-6.969-6.581-22.214-.528-33.457 3.837-7.125 12.165-10.461 17.534-9.107 3.186.803 5.013 3.106 5.013 6.318 0 5.754-1.021 15.134-3.302 23.116-2.425 8.487-7.788 17.124-14.113 17.124zm9.781-44.868c-4.503 0-10.244 2.962-13.153 8.366-5.638 10.47-2.502 24.368-.057 30.253 1.318 3.171 2.355 4.105 2.615 4.183 5.981.996 11.055-8.787 13.003-15.606 2.228-7.797 3.225-16.952 3.225-22.567 0-2.889-1.904-3.976-3.502-4.379a8.693 8.693 0 0 0-2.131-.25z" fill="#1d0333"/><path d="M462.461 89.131s-20-33-40-21c-15.741 9.445-7.059 46.244-.264 46.094 4.264-.094 10.264-9.094 13.264-26.094" fill="#ffb5a6"/><path d="M422.151 115.226c-3.907.001-6.507-7.533-7.446-10.786-3.248-11.244-4-30.421 7.241-37.166 8.592-5.155 18.511-3.041 28.683 6.114 7.523 6.771 12.479 14.883 12.686 15.225a1 1 0 0 1-1.711 1.036c-.195-.322-19.716-32.01-38.63-20.661-10.201 6.121-9.308 24.652-6.349 34.896 1.783 6.173 4.119 9.356 5.548 9.341 3.269-.072 9.247-7.959 12.302-25.268a1 1 0 0 1 1.97.348c-2.775 15.727-8.626 26.797-14.227 26.92l-.067.001z" fill="#1d0333"/><path d="M433.64 97.291a1 1 0 0 1-.977-1.218l.44-1.967c1.52-6.773 2.357-10.504 2.357-14.975a1 1 0 0 1 2 0c0 4.692-.854 8.5-2.405 15.413l-.44 1.964a1 1 0 0 1-.975.783z" fill="#1d0333"/></svg></g></svg>