<svg width="587" height="268" viewBox="0 0 587 268" fill="none" xmlns="http://www.w3.org/2000/svg">
<rect y="0.5" width="587" height="75" rx="15" fill="#320D38"/>
<path d="M88.98 25.3C92.028 25.3 94.284 25.804 95.748 26.812C97.236 27.796 97.98 29.548 97.98 32.068C97.98 34.588 97.248 36.592 95.784 38.08C94.32 39.544 91.956 40.276 88.692 40.276H85.668L85.56 48.088L88.368 48.34C88.368 49.012 88.164 49.732 87.756 50.5H79.656L79.548 49.276C80.556 48.892 81.588 48.604 82.644 48.412C82.5 39.052 82.38 32.092 82.284 27.532C81.636 27.412 80.58 27.124 79.116 26.668L79.296 25.3H88.98ZM88.332 37.936C90.396 37.912 91.968 37.396 93.048 36.388C94.128 35.356 94.668 34 94.668 32.32C94.668 30.64 94.14 29.476 93.084 28.828C92.028 28.156 90.336 27.82 88.008 27.82C87.576 27.82 86.844 27.832 85.812 27.856C85.812 27.88 85.776 31.252 85.704 37.972L88.332 37.936ZM111.055 34.804C110.935 34.684 110.671 34.624 110.263 34.624C109.855 34.624 109.243 34.768 108.427 35.056C107.635 35.344 106.915 35.68 106.267 36.064C106.123 41.392 106.027 45.388 105.979 48.052L109.003 48.34C109.003 49.012 108.799 49.732 108.391 50.5H100.111L100.003 49.24C101.107 48.856 102.187 48.568 103.243 48.376C103.099 42.28 102.979 37.768 102.883 34.84C101.563 34.768 100.507 34.624 99.715 34.408L99.859 32.536C101.131 32.176 103.015 31.996 105.511 31.996C105.895 32.596 106.135 33.364 106.231 34.3C108.991 32.62 110.635 31.78 111.163 31.78C111.691 31.78 112.303 31.888 112.999 32.104C113.695 32.296 114.211 32.512 114.547 32.752C114.547 35.152 114.319 37.108 113.863 38.62C113.527 38.716 113.131 38.764 112.675 38.764C112.243 38.764 111.943 38.752 111.775 38.728L111.055 34.804ZM124.491 48.772C126.507 48.772 127.863 48.148 128.559 46.9C129.279 45.628 129.639 43.828 129.639 41.5C129.639 37.804 128.823 35.488 127.191 34.552C126.519 34.168 125.571 33.976 124.347 33.976C123.147 33.976 122.007 34.228 120.927 34.732C119.967 36.58 119.487 38.728 119.487 41.176C119.487 43.528 119.799 45.34 120.423 46.612C121.143 48.052 122.499 48.772 124.491 48.772ZM116.175 41.5C116.175 38.452 116.871 36.076 118.263 34.372C119.655 32.644 121.803 31.78 124.707 31.78C127.611 31.78 129.711 32.572 131.007 34.156C132.303 35.716 132.951 38.032 132.951 41.104C132.951 44.176 132.255 46.588 130.863 48.34C129.495 50.092 127.407 50.968 124.599 50.968C121.791 50.968 119.679 50.152 118.263 48.52C116.871 46.888 116.175 44.548 116.175 41.5ZM147.57 29.368L146.994 29.332H146.85L145.734 25.804C145.206 25.708 144.738 25.66 144.33 25.66C143.154 25.66 142.326 26.116 141.846 27.028C141.39 27.94 141.162 29.536 141.162 31.816V32.248H141.702C143.358 32.248 144.63 32.344 145.518 32.536C145.542 32.536 145.59 32.548 145.662 32.572C145.638 33.268 145.434 33.976 145.05 34.696H140.946V48.052H141.486C142.422 48.052 143.25 48.1 143.97 48.196C144.69 48.292 145.074 48.364 145.122 48.412C145.122 49.036 144.918 49.732 144.51 50.5H135.078L134.97 49.24C136.074 48.856 137.082 48.568 137.994 48.376V34.696H135.222L135.114 33.436C135.978 33.1 136.938 32.836 137.994 32.644V31.168C137.994 28.456 138.498 26.476 139.506 25.228C139.914 24.748 140.49 24.352 141.234 24.04C141.978 23.704 142.842 23.536 143.826 23.536C145.746 23.536 147.57 23.956 149.298 24.796C149.298 26.284 149.154 27.772 148.866 29.26C148.602 29.332 148.17 29.368 147.57 29.368ZM157.944 48.484C159 48.484 160.656 47.98 162.912 46.972C163.368 47.596 163.608 48.148 163.632 48.628C162.408 49.348 161.208 49.912 160.032 50.32C158.856 50.728 158.016 50.932 157.512 50.932C154.728 50.932 152.604 50.104 151.14 48.448C149.676 46.768 148.944 44.428 148.944 41.428C148.944 38.428 149.652 36.076 151.068 34.372C152.508 32.644 154.656 31.78 157.512 31.78C159.72 31.78 161.4 32.572 162.552 34.156C163.728 35.74 164.316 37.864 164.316 40.528C164.124 40.864 163.968 41.092 163.848 41.212L152.256 41.032C152.28 43.456 152.7 45.304 153.516 46.576C154.356 47.848 155.832 48.484 157.944 48.484ZM161.04 38.98C161.04 37.396 160.752 36.172 160.176 35.308C159.6 34.42 158.64 33.976 157.296 33.976C155.952 33.976 154.752 34.228 153.696 34.732C152.976 36.172 152.52 37.648 152.328 39.16C154.224 39.136 157.128 39.076 161.04 38.98ZM170.21 48.196C171.05 48.556 172.07 48.736 173.27 48.736C174.494 48.736 175.454 48.508 176.15 48.052C176.846 47.596 177.194 46.972 177.194 46.18C177.194 45.388 176.87 44.728 176.222 44.2C175.574 43.672 174.782 43.204 173.846 42.796C172.91 42.388 171.974 41.956 171.038 41.5C170.102 41.044 169.31 40.444 168.662 39.7C168.014 38.956 167.69 38.092 167.69 37.108C167.69 35.452 168.242 34.156 169.346 33.22C170.45 32.26 171.974 31.78 173.918 31.78C175.886 31.78 177.734 32.224 179.462 33.112C179.486 33.352 179.498 34 179.498 35.056C179.498 36.088 179.39 36.976 179.174 37.72C178.598 37.912 177.914 38.008 177.122 38.008L175.934 34.336C175.406 34.072 174.686 33.94 173.774 33.94C172.886 33.94 172.178 34.18 171.65 34.66C171.122 35.116 170.858 35.704 170.858 36.424C170.858 37.12 171.182 37.732 171.83 38.26C172.502 38.788 173.306 39.268 174.242 39.7C175.178 40.108 176.114 40.552 177.05 41.032C177.986 41.488 178.778 42.1 179.426 42.868C180.098 43.612 180.434 44.476 180.434 45.46C180.434 47.188 179.762 48.544 178.418 49.528C177.098 50.488 175.466 50.968 173.522 50.968C172.466 50.968 171.338 50.8 170.138 50.464C168.938 50.104 167.93 49.648 167.114 49.096C167.114 47.488 167.258 46.06 167.546 44.812C168.098 44.716 168.842 44.668 169.778 44.668L170.21 48.196ZM186.487 48.196C187.327 48.556 188.347 48.736 189.547 48.736C190.771 48.736 191.731 48.508 192.427 48.052C193.123 47.596 193.471 46.972 193.471 46.18C193.471 45.388 193.147 44.728 192.499 44.2C191.851 43.672 191.059 43.204 190.123 42.796C189.187 42.388 188.251 41.956 187.315 41.5C186.379 41.044 185.587 40.444 184.939 39.7C184.291 38.956 183.967 38.092 183.967 37.108C183.967 35.452 184.519 34.156 185.623 33.22C186.727 32.26 188.251 31.78 190.195 31.78C192.163 31.78 194.011 32.224 195.739 33.112C195.763 33.352 195.775 34 195.775 35.056C195.775 36.088 195.667 36.976 195.451 37.72C194.875 37.912 194.191 38.008 193.399 38.008L192.211 34.336C191.683 34.072 190.963 33.94 190.051 33.94C189.163 33.94 188.455 34.18 187.927 34.66C187.399 35.116 187.135 35.704 187.135 36.424C187.135 37.12 187.459 37.732 188.107 38.26C188.779 38.788 189.583 39.268 190.519 39.7C191.455 40.108 192.391 40.552 193.327 41.032C194.263 41.488 195.055 42.1 195.703 42.868C196.375 43.612 196.711 44.476 196.711 45.46C196.711 47.188 196.039 48.544 194.695 49.528C193.375 50.488 191.743 50.968 189.799 50.968C188.743 50.968 187.615 50.8 186.415 50.464C185.215 50.104 184.207 49.648 183.391 49.096C183.391 47.488 183.535 46.06 183.823 44.812C184.375 44.716 185.119 44.668 186.055 44.668L186.487 48.196ZM206.256 28.792C205.632 28.936 205.02 29.008 204.42 29.008C203.844 29.008 203.268 28.972 202.692 28.9C202.548 28.228 202.476 27.556 202.476 26.884C202.476 26.188 202.5 25.672 202.548 25.336C203.076 25.216 203.628 25.156 204.204 25.156C204.804 25.156 205.44 25.18 206.112 25.228C206.256 25.852 206.328 26.464 206.328 27.064C206.328 27.64 206.304 28.216 206.256 28.792ZM199.704 32.572C201.744 32.212 203.328 32.032 204.456 32.032C205.584 32.032 206.304 32.056 206.616 32.104C206.616 32.68 206.544 33.316 206.4 34.012C206.256 34.708 206.172 35.044 206.148 35.02L205.824 48.052L208.848 48.34C208.848 49.012 208.644 49.732 208.236 50.5H199.956L199.848 49.24C200.952 48.856 202.032 48.568 203.088 48.376C202.944 42.376 202.824 37.876 202.728 34.876C201.336 34.876 200.28 34.732 199.56 34.444L199.704 32.572ZM219.167 48.772C221.183 48.772 222.539 48.148 223.235 46.9C223.955 45.628 224.315 43.828 224.315 41.5C224.315 37.804 223.499 35.488 221.867 34.552C221.195 34.168 220.247 33.976 219.023 33.976C217.823 33.976 216.683 34.228 215.603 34.732C214.643 36.58 214.163 38.728 214.163 41.176C214.163 43.528 214.475 45.34 215.099 46.612C215.819 48.052 217.175 48.772 219.167 48.772ZM210.851 41.5C210.851 38.452 211.547 36.076 212.939 34.372C214.331 32.644 216.479 31.78 219.383 31.78C222.287 31.78 224.387 32.572 225.683 34.156C226.979 35.716 227.627 38.032 227.627 41.104C227.627 44.176 226.931 46.588 225.539 48.34C224.171 50.092 222.083 50.968 219.275 50.968C216.467 50.968 214.355 50.152 212.939 48.52C211.547 46.888 210.851 44.548 210.851 41.5ZM241.454 31.78C243.758 31.78 245.426 32.356 246.458 33.508C247.49 34.636 248.006 36.364 248.006 38.692C248.006 39.364 247.91 42.484 247.718 48.052L250.742 48.34C250.742 49.012 250.538 49.732 250.13 50.5H241.85L241.742 49.24C242.846 48.856 243.926 48.568 244.982 48.376C244.838 42.088 244.706 38.596 244.586 37.9C244.49 37.18 244.322 36.556 244.082 36.028C243.842 35.5 243.482 35.128 243.002 34.912C242.522 34.696 241.886 34.588 241.094 34.588C239.51 34.588 237.974 34.972 236.486 35.74C236.342 41.212 236.246 45.316 236.198 48.052L239.222 48.34C239.222 49.012 239.018 49.732 238.61 50.5H230.33L230.222 49.24C231.326 48.856 232.406 48.568 233.462 48.376C233.318 42.28 233.198 37.768 233.102 34.84C231.782 34.768 230.726 34.624 229.934 34.408L230.078 32.536C231.374 32.176 233.258 31.996 235.73 31.996C236.018 32.428 236.234 33.052 236.378 33.868C237.41 33.316 238.442 32.836 239.474 32.428C240.53 31.996 241.19 31.78 241.454 31.78ZM266.877 38.728L266.697 48.016C267.729 48.088 268.761 48.256 269.793 48.52L269.721 49.78C269.337 49.972 268.641 50.188 267.633 50.428C266.649 50.644 265.677 50.752 264.717 50.752C264.285 49.888 264.045 49.06 263.997 48.268C261.261 50.068 259.341 50.968 258.237 50.968C256.533 50.968 255.165 50.512 254.133 49.6C253.101 48.688 252.585 47.416 252.585 45.784C252.585 42.016 254.889 40.072 259.497 39.952C262.185 39.88 263.541 39.844 263.565 39.844L263.529 38.62C263.481 36.964 263.169 35.776 262.593 35.056C262.017 34.312 260.985 33.94 259.497 33.94C258.873 33.94 258.201 34.084 257.481 34.372L256.617 37.972C256.497 37.996 256.293 38.008 256.005 38.008L254.529 37.9C254.145 36.868 253.941 35.44 253.917 33.616C254.373 33.376 255.417 33.016 257.049 32.536C258.681 32.032 259.725 31.78 260.181 31.78C262.629 31.78 264.357 32.32 265.365 33.4C266.373 34.48 266.877 36.256 266.877 38.728ZM259.029 48.52C259.725 48.52 261.333 47.74 263.853 46.18L263.673 41.68C262.041 41.824 260.673 41.956 259.569 42.076C258.465 42.196 257.577 42.52 256.905 43.048C256.233 43.552 255.897 44.356 255.897 45.46C255.897 47.5 256.941 48.52 259.029 48.52ZM276.672 23.752C277.416 23.752 277.944 23.776 278.256 23.824C278.256 24.664 278.1 25.624 277.788 26.704C277.572 40.864 277.464 47.98 277.464 48.052L280.488 48.34C280.488 49.012 280.284 49.732 279.876 50.5H271.596L271.488 49.24C272.592 48.856 273.672 48.568 274.728 48.376L274.368 26.596C273.048 26.524 271.992 26.38 271.2 26.164L271.344 24.292C272.568 23.932 274.344 23.752 276.672 23.752ZM313.056 37.324C313.056 42.748 311.82 46.432 309.348 48.376C308.316 49.192 307.2 49.756 306 50.068C304.8 50.356 303.228 50.5 301.284 50.5H292.14L292.032 49.24C292.128 49.168 292.62 49.012 293.508 48.772C294.396 48.532 294.924 48.412 295.092 48.412C294.948 39.052 294.828 32.092 294.732 27.532C293.652 27.388 292.596 27.1 291.564 26.668C291.612 25.852 291.672 25.396 291.744 25.3H300.816C303.312 25.3 305.28 25.528 306.72 25.984C308.184 26.44 309.456 27.28 310.536 28.504C312.216 30.352 313.056 33.292 313.056 37.324ZM309.564 37.612C309.564 34.372 308.952 31.936 307.728 30.304C306.528 28.648 304.5 27.82 301.644 27.82H297.972C297.876 32.236 297.756 38.98 297.612 48.052H301.392C304.68 48.052 306.864 47.32 307.944 45.856C309.024 44.368 309.564 41.62 309.564 37.612ZM324.936 48.484C325.992 48.484 327.648 47.98 329.904 46.972C330.36 47.596 330.6 48.148 330.624 48.628C329.4 49.348 328.2 49.912 327.024 50.32C325.848 50.728 325.008 50.932 324.504 50.932C321.72 50.932 319.596 50.104 318.132 48.448C316.668 46.768 315.936 44.428 315.936 41.428C315.936 38.428 316.644 36.076 318.06 34.372C319.5 32.644 321.648 31.78 324.504 31.78C326.712 31.78 328.392 32.572 329.544 34.156C330.72 35.74 331.308 37.864 331.308 40.528C331.116 40.864 330.96 41.092 330.84 41.212L319.248 41.032C319.272 43.456 319.692 45.304 320.508 46.576C321.348 47.848 322.824 48.484 324.936 48.484ZM328.032 38.98C328.032 37.396 327.744 36.172 327.168 35.308C326.592 34.42 325.632 33.976 324.288 33.976C322.944 33.976 321.744 34.228 320.688 34.732C319.968 36.172 319.512 37.648 319.32 39.16C321.216 39.136 324.12 39.076 328.032 38.98ZM351.746 34.624L344.726 50.5H342.17L335.582 34.66L332.558 34.372C332.558 33.7 332.762 32.98 333.17 32.212H341.882L341.99 33.472C341.222 33.808 340.37 34.072 339.434 34.264L342.674 44.092L343.502 47.26H343.934L344.834 44.056L348.182 34.264L345.158 33.472L345.266 32.212H354.086C354.494 32.98 354.698 33.7 354.698 34.372C353.714 34.492 352.73 34.576 351.746 34.624ZM364.592 48.484C365.648 48.484 367.304 47.98 369.56 46.972C370.016 47.596 370.256 48.148 370.28 48.628C369.056 49.348 367.856 49.912 366.68 50.32C365.504 50.728 364.664 50.932 364.16 50.932C361.376 50.932 359.252 50.104 357.788 48.448C356.324 46.768 355.592 44.428 355.592 41.428C355.592 38.428 356.3 36.076 357.716 34.372C359.156 32.644 361.304 31.78 364.16 31.78C366.368 31.78 368.048 32.572 369.2 34.156C370.376 35.74 370.964 37.864 370.964 40.528C370.772 40.864 370.616 41.092 370.496 41.212L358.904 41.032C358.928 43.456 359.348 45.304 360.164 46.576C361.004 47.848 362.48 48.484 364.592 48.484ZM367.688 38.98C367.688 37.396 367.4 36.172 366.824 35.308C366.248 34.42 365.288 33.976 363.944 33.976C362.6 33.976 361.4 34.228 360.344 34.732C359.624 36.172 359.168 37.648 358.976 39.16C360.872 39.136 363.776 39.076 367.688 38.98ZM378.73 23.752C379.474 23.752 380.002 23.776 380.314 23.824C380.314 24.664 380.158 25.624 379.846 26.704C379.63 40.864 379.522 47.98 379.522 48.052L382.546 48.34C382.546 49.012 382.342 49.732 381.934 50.5H373.654L373.546 49.24C374.65 48.856 375.73 48.568 376.786 48.376L376.426 26.596C375.106 26.524 374.05 26.38 373.258 26.164L373.402 24.292C374.626 23.932 376.402 23.752 378.73 23.752ZM392.803 48.772C394.819 48.772 396.175 48.148 396.871 46.9C397.591 45.628 397.951 43.828 397.951 41.5C397.951 37.804 397.135 35.488 395.503 34.552C394.831 34.168 393.883 33.976 392.659 33.976C391.459 33.976 390.319 34.228 389.239 34.732C388.279 36.58 387.799 38.728 387.799 41.176C387.799 43.528 388.111 45.34 388.735 46.612C389.455 48.052 390.811 48.772 392.803 48.772ZM384.487 41.5C384.487 38.452 385.183 36.076 386.575 34.372C387.967 32.644 390.115 31.78 393.019 31.78C395.923 31.78 398.023 32.572 399.319 34.156C400.615 35.716 401.263 38.032 401.263 41.104C401.263 44.176 400.567 46.588 399.175 48.34C397.807 50.092 395.719 50.968 392.911 50.968C390.103 50.968 387.991 50.152 386.575 48.52C385.183 46.888 384.487 44.548 384.487 41.5ZM409.511 48.664L409.331 56.368L412.463 56.62C412.463 57.292 412.259 58.012 411.851 58.78H403.499L403.391 57.52C404.495 57.16 405.575 56.884 406.631 56.692C406.487 46.9 406.367 39.616 406.271 34.84C405.191 34.816 404.135 34.672 403.103 34.408L403.247 32.536C404.639 32.176 406.583 31.996 409.079 31.996C409.295 32.38 409.499 33.088 409.691 34.12C412.763 32.56 414.707 31.78 415.523 31.78C417.755 31.78 419.411 32.656 420.491 34.408C421.571 36.136 422.111 38.392 422.111 41.176C422.111 43.936 421.499 46.252 420.275 48.124C419.075 49.996 417.323 50.932 415.019 50.932C414.155 50.932 413.207 50.716 412.175 50.284C411.167 49.852 410.279 49.312 409.511 48.664ZM414.875 34.48C413.387 34.48 411.659 35.008 409.691 36.064C409.643 40.528 409.595 43.876 409.547 46.108C410.147 46.708 410.939 47.26 411.923 47.764C412.931 48.244 413.807 48.484 414.551 48.484C417.383 48.484 418.799 46.156 418.799 41.5C418.799 39.724 418.595 38.332 418.187 37.324C417.779 36.292 417.311 35.56 416.783 35.128C416.255 34.696 415.619 34.48 414.875 34.48ZM442.166 35.812C442.262 36.58 442.31 37.468 442.31 38.476C442.31 39.484 442.214 42.676 442.022 48.052L445.046 48.34C445.046 49.012 444.842 49.732 444.434 50.5H436.154L436.046 49.24C437.15 48.856 438.23 48.568 439.286 48.376C439.142 41.992 439.01 38.44 438.89 37.72C438.794 37 438.626 36.4 438.386 35.92C438.146 35.416 437.774 35.068 437.27 34.876C436.766 34.684 435.998 34.588 434.966 34.588C433.958 34.588 432.626 34.972 430.97 35.74C430.826 41.212 430.73 45.316 430.682 48.052L433.706 48.34C433.706 49.012 433.502 49.732 433.094 50.5H424.814L424.706 49.24C425.81 48.856 426.89 48.568 427.946 48.376C427.922 46.648 427.862 44.212 427.766 41.068C427.67 37.9 427.61 35.824 427.586 34.84C426.266 34.768 425.21 34.624 424.418 34.408L424.562 32.536C425.858 32.176 427.742 31.996 430.214 31.996C430.55 32.596 430.766 33.22 430.862 33.868C431.918 33.316 432.962 32.836 433.994 32.428C435.026 31.996 435.674 31.78 435.938 31.78C438.602 31.78 440.462 32.596 441.518 34.228C442.622 33.628 443.762 33.076 444.938 32.572C446.138 32.044 446.858 31.78 447.098 31.78C449.282 31.78 450.914 32.32 451.994 33.4C453.098 34.456 453.65 36.196 453.65 38.62C453.65 39.34 453.554 42.484 453.362 48.052L456.386 48.34C456.386 49.012 456.182 49.732 455.774 50.5H447.494L447.386 49.24C448.49 48.856 449.57 48.568 450.626 48.376C450.53 44.584 450.446 41.716 450.374 39.772C450.302 37.828 450.026 36.484 449.546 35.74C449.066 34.972 448.106 34.588 446.666 34.588C445.226 34.588 443.726 34.996 442.166 35.812ZM467.178 48.484C468.234 48.484 469.89 47.98 472.146 46.972C472.602 47.596 472.842 48.148 472.866 48.628C471.642 49.348 470.442 49.912 469.266 50.32C468.09 50.728 467.25 50.932 466.746 50.932C463.962 50.932 461.838 50.104 460.374 48.448C458.91 46.768 458.178 44.428 458.178 41.428C458.178 38.428 458.886 36.076 460.302 34.372C461.742 32.644 463.89 31.78 466.746 31.78C468.954 31.78 470.634 32.572 471.786 34.156C472.962 35.74 473.55 37.864 473.55 40.528C473.358 40.864 473.202 41.092 473.082 41.212L461.49 41.032C461.514 43.456 461.934 45.304 462.75 46.576C463.59 47.848 465.066 48.484 467.178 48.484ZM470.274 38.98C470.274 37.396 469.986 36.172 469.41 35.308C468.834 34.42 467.874 33.976 466.53 33.976C465.186 33.976 463.986 34.228 462.93 34.732C462.21 36.172 461.754 37.648 461.562 39.16C463.458 39.136 466.362 39.076 470.274 38.98ZM487.688 31.78C489.992 31.78 491.66 32.356 492.692 33.508C493.724 34.636 494.24 36.364 494.24 38.692C494.24 39.364 494.144 42.484 493.952 48.052L496.976 48.34C496.976 49.012 496.772 49.732 496.364 50.5H488.084L487.976 49.24C489.08 48.856 490.16 48.568 491.216 48.376C491.072 42.088 490.94 38.596 490.82 37.9C490.724 37.18 490.556 36.556 490.316 36.028C490.076 35.5 489.716 35.128 489.236 34.912C488.756 34.696 488.12 34.588 487.328 34.588C485.744 34.588 484.208 34.972 482.72 35.74C482.576 41.212 482.48 45.316 482.432 48.052L485.456 48.34C485.456 49.012 485.252 49.732 484.844 50.5H476.564L476.456 49.24C477.56 48.856 478.64 48.568 479.696 48.376C479.552 42.28 479.432 37.768 479.336 34.84C478.016 34.768 476.96 34.624 476.168 34.408L476.312 32.536C477.608 32.176 479.492 31.996 481.964 31.996C482.252 32.428 482.468 33.052 482.612 33.868C483.644 33.316 484.676 32.836 485.708 32.428C486.764 31.996 487.424 31.78 487.688 31.78ZM501.304 48.268L501.016 34.696H498.244L498.136 33.436C498.376 33.268 499.072 32.956 500.224 32.5L503.176 27.892C503.656 27.94 504.028 28.06 504.292 28.252L504.256 32.212C506.056 32.212 507.532 32.332 508.684 32.572C508.684 33.22 508.48 33.928 508.072 34.696H504.184C504.136 37.576 504.088 41.944 504.04 47.8C505.384 47.872 506.728 48.112 508.072 48.52L508.036 49.78C507.7 49.996 506.836 50.248 505.444 50.536C504.076 50.824 502.948 50.968 502.06 50.968C501.94 50.776 501.784 50.368 501.592 49.744C501.4 49.096 501.304 48.604 501.304 48.268Z" fill="#FFEEC3"/>
<rect y="96.5" width="587" height="75" rx="15" fill="#320D38"/>
<path d="M49.804 146.968C42.748 146.968 39.22 142.54 39.22 133.684C39.22 129.484 40.072 126.292 41.776 124.108C43.504 121.924 46.252 120.832 50.02 120.832C53.044 120.832 55.732 121.672 58.084 123.352C58.084 124.696 57.916 126.4 57.58 128.464C57.244 128.536 56.548 128.572 55.492 128.572L54.412 124.108C52.708 123.796 51.34 123.64 50.308 123.64C48.412 123.64 46.744 123.904 45.304 124.432L44.62 124.684C44.476 124.924 44.296 125.284 44.08 125.764C43.864 126.22 43.576 127.192 43.216 128.68C42.88 130.168 42.712 131.692 42.712 133.252C42.712 136.636 43.264 139.324 44.368 141.316C45.496 143.308 47.284 144.304 49.732 144.304C51.484 144.304 52.804 144.124 53.692 143.764C53.932 143.644 54.28 143.464 54.736 143.224L55.492 138.904L57.58 139.012C57.94 141.484 58.12 143.488 58.12 145.024C57.616 145.408 56.524 145.828 54.844 146.284C53.188 146.74 51.508 146.968 49.804 146.968ZM69.3815 144.772C71.3975 144.772 72.7535 144.148 73.4495 142.9C74.1695 141.628 74.5295 139.828 74.5295 137.5C74.5295 133.804 73.7135 131.488 72.0815 130.552C71.4095 130.168 70.4615 129.976 69.2375 129.976C68.0375 129.976 66.8975 130.228 65.8175 130.732C64.8575 132.58 64.3775 134.728 64.3775 137.176C64.3775 139.528 64.6895 141.34 65.3135 142.612C66.0335 144.052 67.3895 144.772 69.3815 144.772ZM61.0655 137.5C61.0655 134.452 61.7615 132.076 63.1535 130.372C64.5455 128.644 66.6935 127.78 69.5975 127.78C72.5015 127.78 74.6015 128.572 75.8975 130.156C77.1935 131.716 77.8415 134.032 77.8415 137.104C77.8415 140.176 77.1455 142.588 75.7535 144.34C74.3855 146.092 72.2975 146.968 69.4895 146.968C66.6815 146.968 64.5695 146.152 63.1535 144.52C61.7615 142.888 61.0655 140.548 61.0655 137.5ZM91.6686 127.78C93.9726 127.78 95.6406 128.356 96.6726 129.508C97.7046 130.636 98.2206 132.364 98.2206 134.692C98.2206 135.364 98.1246 138.484 97.9326 144.052L100.957 144.34C100.957 145.012 100.753 145.732 100.345 146.5H92.0646L91.9566 145.24C93.0606 144.856 94.1406 144.568 95.1966 144.376C95.0526 138.088 94.9206 134.596 94.8006 133.9C94.7046 133.18 94.5366 132.556 94.2966 132.028C94.0566 131.5 93.6966 131.128 93.2166 130.912C92.7366 130.696 92.1006 130.588 91.3086 130.588C89.7246 130.588 88.1886 130.972 86.7006 131.74C86.5566 137.212 86.4606 141.316 86.4126 144.052L89.4366 144.34C89.4366 145.012 89.2326 145.732 88.8246 146.5H80.5446L80.4366 145.24C81.5406 144.856 82.6206 144.568 83.6766 144.376C83.5326 138.28 83.4126 133.768 83.3166 130.84C81.9966 130.768 80.9406 130.624 80.1486 130.408L80.2926 128.536C81.5886 128.176 83.4726 127.996 85.9446 127.996C86.2326 128.428 86.4486 129.052 86.5926 129.868C87.6246 129.316 88.6566 128.836 89.6886 128.428C90.7446 127.996 91.4046 127.78 91.6686 127.78ZM105.284 144.268L104.996 130.696H102.224L102.116 129.436C102.356 129.268 103.052 128.956 104.204 128.5L107.156 123.892C107.636 123.94 108.008 124.06 108.272 124.252L108.236 128.212C110.036 128.212 111.512 128.332 112.664 128.572C112.664 129.22 112.46 129.928 112.052 130.696H108.164C108.116 133.576 108.068 137.944 108.02 143.8C109.364 143.872 110.708 144.112 112.052 144.52L112.016 145.78C111.68 145.996 110.816 146.248 109.424 146.536C108.056 146.824 106.928 146.968 106.04 146.968C105.92 146.776 105.764 146.368 105.572 145.744C105.38 145.096 105.284 144.604 105.284 144.268ZM124.28 144.484C125.336 144.484 126.992 143.98 129.248 142.972C129.704 143.596 129.944 144.148 129.968 144.628C128.744 145.348 127.544 145.912 126.368 146.32C125.192 146.728 124.352 146.932 123.848 146.932C121.064 146.932 118.94 146.104 117.476 144.448C116.012 142.768 115.28 140.428 115.28 137.428C115.28 134.428 115.988 132.076 117.404 130.372C118.844 128.644 120.992 127.78 123.848 127.78C126.056 127.78 127.736 128.572 128.888 130.156C130.064 131.74 130.652 133.864 130.652 136.528C130.46 136.864 130.304 137.092 130.184 137.212L118.592 137.032C118.616 139.456 119.036 141.304 119.852 142.576C120.692 143.848 122.168 144.484 124.28 144.484ZM127.376 134.98C127.376 133.396 127.088 132.172 126.512 131.308C125.936 130.42 124.976 129.976 123.632 129.976C122.288 129.976 121.088 130.228 120.032 130.732C119.312 132.172 118.856 133.648 118.664 135.16C120.56 135.136 123.464 135.076 127.376 134.98ZM144.79 127.78C147.094 127.78 148.762 128.356 149.794 129.508C150.826 130.636 151.342 132.364 151.342 134.692C151.342 135.364 151.246 138.484 151.054 144.052L154.078 144.34C154.078 145.012 153.874 145.732 153.466 146.5H145.186L145.078 145.24C146.182 144.856 147.262 144.568 148.318 144.376C148.174 138.088 148.042 134.596 147.922 133.9C147.826 133.18 147.658 132.556 147.418 132.028C147.178 131.5 146.818 131.128 146.338 130.912C145.858 130.696 145.222 130.588 144.43 130.588C142.846 130.588 141.31 130.972 139.822 131.74C139.678 137.212 139.582 141.316 139.534 144.052L142.558 144.34C142.558 145.012 142.354 145.732 141.946 146.5H133.666L133.558 145.24C134.662 144.856 135.742 144.568 136.798 144.376C136.654 138.28 136.534 133.768 136.438 130.84C135.118 130.768 134.062 130.624 133.27 130.408L133.414 128.536C134.71 128.176 136.594 127.996 139.066 127.996C139.354 128.428 139.57 129.052 139.714 129.868C140.746 129.316 141.778 128.836 142.81 128.428C143.866 127.996 144.526 127.78 144.79 127.78ZM158.405 144.268L158.117 130.696H155.345L155.237 129.436C155.477 129.268 156.173 128.956 157.325 128.5L160.277 123.892C160.757 123.94 161.129 124.06 161.393 124.252L161.357 128.212C163.157 128.212 164.633 128.332 165.785 128.572C165.785 129.22 165.581 129.928 165.173 130.696H161.285C161.237 133.576 161.189 137.944 161.141 143.8C162.485 143.872 163.829 144.112 165.173 144.52L165.137 145.78C164.801 145.996 163.937 146.248 162.545 146.536C161.177 146.824 160.049 146.968 159.161 146.968C159.041 146.776 158.885 146.368 158.693 145.744C158.501 145.096 158.405 144.604 158.405 144.268ZM187.617 146.968C180.561 146.968 177.033 142.54 177.033 133.684C177.033 129.484 177.885 126.292 179.589 124.108C181.317 121.924 184.065 120.832 187.833 120.832C190.857 120.832 193.545 121.672 195.897 123.352C195.897 124.696 195.729 126.4 195.393 128.464C195.057 128.536 194.361 128.572 193.305 128.572L192.225 124.108C190.521 123.796 189.153 123.64 188.121 123.64C186.225 123.64 184.557 123.904 183.117 124.432L182.433 124.684C182.289 124.924 182.109 125.284 181.893 125.764C181.677 126.22 181.389 127.192 181.029 128.68C180.693 130.168 180.525 131.692 180.525 133.252C180.525 136.636 181.077 139.324 182.181 141.316C183.309 143.308 185.097 144.304 187.545 144.304C189.297 144.304 190.617 144.124 191.505 143.764C191.745 143.644 192.093 143.464 192.549 143.224L193.305 138.904L195.393 139.012C195.753 141.484 195.933 143.488 195.933 145.024C195.429 145.408 194.337 145.828 192.657 146.284C191.001 146.74 189.321 146.968 187.617 146.968ZM209.93 130.804C209.81 130.684 209.546 130.624 209.138 130.624C208.73 130.624 208.118 130.768 207.302 131.056C206.51 131.344 205.79 131.68 205.142 132.064C204.998 137.392 204.902 141.388 204.854 144.052L207.878 144.34C207.878 145.012 207.674 145.732 207.266 146.5H198.986L198.878 145.24C199.982 144.856 201.062 144.568 202.118 144.376C201.974 138.28 201.854 133.768 201.758 130.84C200.438 130.768 199.382 130.624 198.59 130.408L198.734 128.536C200.006 128.176 201.89 127.996 204.386 127.996C204.77 128.596 205.01 129.364 205.106 130.3C207.866 128.62 209.51 127.78 210.038 127.78C210.566 127.78 211.178 127.888 211.874 128.104C212.57 128.296 213.086 128.512 213.422 128.752C213.422 131.152 213.194 133.108 212.738 134.62C212.402 134.716 212.006 134.764 211.55 134.764C211.118 134.764 210.818 134.752 210.65 134.728L209.93 130.804ZM224.194 144.484C225.25 144.484 226.906 143.98 229.162 142.972C229.618 143.596 229.858 144.148 229.882 144.628C228.658 145.348 227.458 145.912 226.282 146.32C225.106 146.728 224.266 146.932 223.762 146.932C220.978 146.932 218.854 146.104 217.39 144.448C215.926 142.768 215.194 140.428 215.194 137.428C215.194 134.428 215.902 132.076 217.318 130.372C218.758 128.644 220.906 127.78 223.762 127.78C225.97 127.78 227.65 128.572 228.802 130.156C229.978 131.74 230.566 133.864 230.566 136.528C230.374 136.864 230.218 137.092 230.098 137.212L218.506 137.032C218.53 139.456 218.95 141.304 219.766 142.576C220.606 143.848 222.082 144.484 224.194 144.484ZM227.29 134.98C227.29 133.396 227.002 132.172 226.426 131.308C225.85 130.42 224.89 129.976 223.546 129.976C222.202 129.976 221.002 130.228 219.946 130.732C219.226 132.172 218.77 133.648 218.578 135.16C220.474 135.136 223.378 135.076 227.29 134.98ZM247.944 134.728L247.764 144.016C248.796 144.088 249.828 144.256 250.86 144.52L250.788 145.78C250.404 145.972 249.708 146.188 248.7 146.428C247.716 146.644 246.744 146.752 245.784 146.752C245.352 145.888 245.112 145.06 245.064 144.268C242.328 146.068 240.408 146.968 239.304 146.968C237.6 146.968 236.232 146.512 235.2 145.6C234.168 144.688 233.652 143.416 233.652 141.784C233.652 138.016 235.956 136.072 240.564 135.952C243.252 135.88 244.608 135.844 244.632 135.844L244.596 134.62C244.548 132.964 244.236 131.776 243.66 131.056C243.084 130.312 242.052 129.94 240.564 129.94C239.94 129.94 239.268 130.084 238.548 130.372L237.684 133.972C237.564 133.996 237.36 134.008 237.072 134.008L235.596 133.9C235.212 132.868 235.008 131.44 234.984 129.616C235.44 129.376 236.484 129.016 238.116 128.536C239.748 128.032 240.792 127.78 241.248 127.78C243.696 127.78 245.424 128.32 246.432 129.4C247.44 130.48 247.944 132.256 247.944 134.728ZM240.096 144.52C240.792 144.52 242.4 143.74 244.92 142.18L244.74 137.68C243.108 137.824 241.74 137.956 240.636 138.076C239.532 138.196 238.644 138.52 237.972 139.048C237.3 139.552 236.964 140.356 236.964 141.46C236.964 143.5 238.008 144.52 240.096 144.52ZM255.542 144.268L255.254 130.696H252.482L252.374 129.436C252.614 129.268 253.31 128.956 254.462 128.5L257.414 123.892C257.894 123.94 258.266 124.06 258.53 124.252L258.494 128.212C260.294 128.212 261.77 128.332 262.922 128.572C262.922 129.22 262.718 129.928 262.31 130.696H258.422C258.374 133.576 258.326 137.944 258.278 143.8C259.622 143.872 260.966 144.112 262.31 144.52L262.274 145.78C261.938 145.996 261.074 146.248 259.682 146.536C258.314 146.824 257.186 146.968 256.298 146.968C256.178 146.776 256.022 146.368 255.83 145.744C255.638 145.096 255.542 144.604 255.542 144.268ZM271.874 124.792C271.25 124.936 270.638 125.008 270.038 125.008C269.462 125.008 268.886 124.972 268.31 124.9C268.166 124.228 268.094 123.556 268.094 122.884C268.094 122.188 268.118 121.672 268.166 121.336C268.694 121.216 269.246 121.156 269.822 121.156C270.422 121.156 271.058 121.18 271.73 121.228C271.874 121.852 271.946 122.464 271.946 123.064C271.946 123.64 271.922 124.216 271.874 124.792ZM265.322 128.572C267.362 128.212 268.946 128.032 270.074 128.032C271.202 128.032 271.922 128.056 272.234 128.104C272.234 128.68 272.162 129.316 272.018 130.012C271.874 130.708 271.79 131.044 271.766 131.02L271.442 144.052L274.466 144.34C274.466 145.012 274.262 145.732 273.854 146.5H265.574L265.466 145.24C266.57 144.856 267.65 144.568 268.706 144.376C268.562 138.376 268.442 133.876 268.346 130.876C266.954 130.876 265.898 130.732 265.178 130.444L265.322 128.572ZM284.784 144.772C286.8 144.772 288.156 144.148 288.852 142.9C289.572 141.628 289.932 139.828 289.932 137.5C289.932 133.804 289.116 131.488 287.484 130.552C286.812 130.168 285.864 129.976 284.64 129.976C283.44 129.976 282.3 130.228 281.22 130.732C280.26 132.58 279.78 134.728 279.78 137.176C279.78 139.528 280.092 141.34 280.716 142.612C281.436 144.052 282.792 144.772 284.784 144.772ZM276.468 137.5C276.468 134.452 277.164 132.076 278.556 130.372C279.948 128.644 282.096 127.78 285 127.78C287.904 127.78 290.004 128.572 291.3 130.156C292.596 131.716 293.244 134.032 293.244 137.104C293.244 140.176 292.548 142.588 291.156 144.34C289.788 146.092 287.7 146.968 284.892 146.968C282.084 146.968 279.972 146.152 278.556 144.52C277.164 142.888 276.468 140.548 276.468 137.5ZM307.071 127.78C309.375 127.78 311.043 128.356 312.075 129.508C313.107 130.636 313.623 132.364 313.623 134.692C313.623 135.364 313.527 138.484 313.335 144.052L316.359 144.34C316.359 145.012 316.155 145.732 315.747 146.5H307.467L307.359 145.24C308.463 144.856 309.543 144.568 310.599 144.376C310.455 138.088 310.323 134.596 310.203 133.9C310.107 133.18 309.939 132.556 309.699 132.028C309.459 131.5 309.099 131.128 308.619 130.912C308.139 130.696 307.503 130.588 306.711 130.588C305.127 130.588 303.591 130.972 302.103 131.74C301.959 137.212 301.863 141.316 301.815 144.052L304.839 144.34C304.839 145.012 304.635 145.732 304.227 146.5H295.947L295.839 145.24C296.943 144.856 298.023 144.568 299.079 144.376C298.935 138.28 298.815 133.768 298.719 130.84C297.399 130.768 296.343 130.624 295.551 130.408L295.695 128.536C296.991 128.176 298.875 127.996 301.347 127.996C301.635 128.428 301.851 129.052 301.995 129.868C303.027 129.316 304.059 128.836 305.091 128.428C306.147 127.996 306.807 127.78 307.071 127.78ZM334.682 134.116C333.578 134.62 332.666 135.352 331.946 136.312C331.25 137.248 330.902 138.232 330.902 139.264C330.902 140.272 331.118 141.148 331.55 141.892C331.982 142.636 332.522 143.188 333.17 143.548C334.394 144.268 335.594 144.628 336.77 144.628C339.242 144.628 341.306 143.644 342.962 141.676L334.682 134.116ZM336.626 146.932C333.866 146.932 331.658 146.284 330.002 144.988C328.346 143.692 327.518 141.82 327.518 139.372C327.518 137.74 328.022 136.312 329.03 135.088C330.062 133.864 331.25 132.952 332.594 132.352C331.706 131.368 331.058 130.456 330.65 129.616C330.266 128.776 330.074 127.768 330.074 126.592C330.074 124.936 330.698 123.568 331.946 122.488C333.218 121.408 334.946 120.868 337.13 120.868C338.306 120.868 339.434 121.12 340.514 121.624C341.618 122.128 342.482 122.68 343.106 123.28L342.494 126.844C342.23 126.94 341.894 126.988 341.486 126.988L340.802 126.952L339.902 123.244C339.206 123.052 338.282 122.956 337.13 122.956C335.978 122.956 335.114 123.316 334.538 124.036C333.962 124.756 333.674 125.476 333.674 126.196C333.674 126.916 333.818 127.588 334.106 128.212C334.418 128.836 334.73 129.34 335.042 129.724C335.378 130.084 335.942 130.66 336.734 131.452C337.478 132.22 339.998 134.968 344.294 139.696C345.206 138.088 345.662 135.664 345.662 132.424C345.662 131.728 345.638 131.164 345.59 130.732L342.566 130.444C342.566 129.772 342.77 129.052 343.178 128.284H351.458L351.566 129.544C350.462 129.928 349.358 130.216 348.254 130.408C348.23 131.8 347.99 133.624 347.534 135.88C347.102 138.136 346.514 139.84 345.77 140.992L350.414 146.104C350.03 146.8 349.55 147.148 348.974 147.148L344.294 143.116C343.406 144.124 342.194 145.012 340.658 145.78C339.146 146.548 337.802 146.932 336.626 146.932ZM370.405 123.604L370.045 144.052L373.069 144.34C373.069 145.012 372.865 145.732 372.457 146.5H364.177L364.069 145.24C365.173 144.856 366.265 144.568 367.345 144.376C367.297 142.816 367.213 139.6 367.093 134.728C366.997 129.856 366.913 126.088 366.841 123.424C365.881 123.232 364.801 122.944 363.601 122.56L363.709 121.3H372.709C373.117 122.068 373.321 122.788 373.321 123.46C372.097 123.556 371.125 123.604 370.405 123.604ZM387.825 127.78C390.129 127.78 391.797 128.356 392.829 129.508C393.861 130.636 394.377 132.364 394.377 134.692C394.377 135.364 394.281 138.484 394.089 144.052L397.113 144.34C397.113 145.012 396.909 145.732 396.501 146.5H388.221L388.113 145.24C389.217 144.856 390.297 144.568 391.353 144.376C391.209 138.088 391.077 134.596 390.957 133.9C390.861 133.18 390.693 132.556 390.453 132.028C390.213 131.5 389.853 131.128 389.373 130.912C388.893 130.696 388.257 130.588 387.465 130.588C385.881 130.588 384.345 130.972 382.857 131.74C382.713 137.212 382.617 141.316 382.569 144.052L385.593 144.34C385.593 145.012 385.389 145.732 384.981 146.5H376.701L376.593 145.24C377.697 144.856 378.777 144.568 379.833 144.376C379.689 138.28 379.569 133.768 379.473 130.84C378.153 130.768 377.097 130.624 376.305 130.408L376.449 128.536C377.745 128.176 379.629 127.996 382.101 127.996C382.389 128.428 382.605 129.052 382.749 129.868C383.781 129.316 384.813 128.836 385.845 128.428C386.901 127.996 387.561 127.78 387.825 127.78ZM410.8 125.368L410.224 125.332H410.08L408.964 121.804C408.436 121.708 407.968 121.66 407.56 121.66C406.384 121.66 405.556 122.116 405.076 123.028C404.62 123.94 404.392 125.536 404.392 127.816V128.248H404.932C406.588 128.248 407.86 128.344 408.748 128.536C408.772 128.536 408.82 128.548 408.892 128.572C408.868 129.268 408.664 129.976 408.28 130.696H404.176V144.052H404.716C405.652 144.052 406.48 144.1 407.2 144.196C407.92 144.292 408.304 144.364 408.352 144.412C408.352 145.036 408.148 145.732 407.74 146.5H398.308L398.2 145.24C399.304 144.856 400.312 144.568 401.224 144.376V130.696H398.452L398.344 129.436C399.208 129.1 400.168 128.836 401.224 128.644V127.168C401.224 124.456 401.728 122.476 402.736 121.228C403.144 120.748 403.72 120.352 404.464 120.04C405.208 119.704 406.072 119.536 407.056 119.536C408.976 119.536 410.8 119.956 412.528 120.796C412.528 122.284 412.384 123.772 412.096 125.26C411.832 125.332 411.4 125.368 410.8 125.368ZM416.89 119.752C417.634 119.752 418.162 119.776 418.474 119.824C418.474 120.664 418.318 121.624 418.006 122.704C417.79 136.864 417.682 143.98 417.682 144.052L420.706 144.34C420.706 145.012 420.502 145.732 420.094 146.5H411.814L411.706 145.24C412.81 144.856 413.89 144.568 414.946 144.376L414.586 122.596C413.266 122.524 412.21 122.38 411.418 122.164L411.562 120.292C412.786 119.932 414.562 119.752 416.89 119.752ZM431.936 144.124C432.632 144.124 433.412 143.98 434.276 143.692C435.14 143.38 435.848 143.008 436.4 142.576C436.304 137.464 436.22 133.588 436.148 130.948C434.66 130.948 433.556 130.804 432.836 130.516L432.98 128.644C435.02 128.284 436.616 128.104 437.768 128.104C438.944 128.104 439.688 128.128 440 128.176C440 128.608 439.928 129.184 439.784 129.904C439.664 130.624 439.58 131.02 439.532 131.092L439.1 143.944C440.372 144.016 441.404 144.16 442.196 144.376L442.124 146.212C441.068 146.548 440.048 146.716 439.064 146.716C438.08 146.716 437.48 146.704 437.264 146.68C436.808 145.768 436.544 144.928 436.472 144.16C435.296 145.048 434.204 145.732 433.196 146.212C432.212 146.692 431.564 146.932 431.252 146.932C429.14 146.932 427.604 146.368 426.644 145.24C425.708 144.088 425.24 142.408 425.24 140.2C425.24 140.176 425.348 137.104 425.564 130.984C424.172 130.984 422.888 130.828 421.712 130.516L421.856 128.644C423.896 128.284 425.48 128.104 426.608 128.104C427.736 128.104 428.456 128.128 428.768 128.176C428.768 128.752 428.696 129.388 428.552 130.084C428.408 130.78 428.324 131.116 428.3 131.092L428.336 138.868C428.336 140.692 428.564 142.024 429.02 142.864C429.476 143.704 430.448 144.124 431.936 144.124ZM453.202 144.484C454.258 144.484 455.914 143.98 458.17 142.972C458.626 143.596 458.866 144.148 458.89 144.628C457.666 145.348 456.466 145.912 455.29 146.32C454.114 146.728 453.274 146.932 452.77 146.932C449.986 146.932 447.862 146.104 446.398 144.448C444.934 142.768 444.202 140.428 444.202 137.428C444.202 134.428 444.91 132.076 446.326 130.372C447.766 128.644 449.914 127.78 452.77 127.78C454.978 127.78 456.658 128.572 457.81 130.156C458.986 131.74 459.574 133.864 459.574 136.528C459.382 136.864 459.226 137.092 459.106 137.212L447.514 137.032C447.538 139.456 447.958 141.304 448.774 142.576C449.614 143.848 451.09 144.484 453.202 144.484ZM456.298 134.98C456.298 133.396 456.01 132.172 455.434 131.308C454.858 130.42 453.898 129.976 452.554 129.976C451.21 129.976 450.01 130.228 448.954 130.732C448.234 132.172 447.778 133.648 447.586 135.16C449.482 135.136 452.386 135.076 456.298 134.98ZM473.712 127.78C476.016 127.78 477.684 128.356 478.716 129.508C479.748 130.636 480.264 132.364 480.264 134.692C480.264 135.364 480.168 138.484 479.976 144.052L483 144.34C483 145.012 482.796 145.732 482.388 146.5H474.108L474 145.24C475.104 144.856 476.184 144.568 477.24 144.376C477.096 138.088 476.964 134.596 476.844 133.9C476.748 133.18 476.58 132.556 476.34 132.028C476.1 131.5 475.74 131.128 475.26 130.912C474.78 130.696 474.144 130.588 473.352 130.588C471.768 130.588 470.232 130.972 468.744 131.74C468.6 137.212 468.504 141.316 468.456 144.052L471.48 144.34C471.48 145.012 471.276 145.732 470.868 146.5H462.588L462.48 145.24C463.584 144.856 464.664 144.568 465.72 144.376C465.576 138.28 465.456 133.768 465.36 130.84C464.04 130.768 462.984 130.624 462.192 130.408L462.336 128.536C463.632 128.176 465.516 127.996 467.988 127.996C468.276 128.428 468.492 129.052 468.636 129.868C469.668 129.316 470.7 128.836 471.732 128.428C472.788 127.996 473.448 127.78 473.712 127.78ZM493.231 146.932C490.351 146.932 488.203 146.128 486.787 144.52C485.371 142.888 484.663 140.572 484.663 137.572C484.663 131.044 487.567 127.78 493.375 127.78C494.311 127.78 495.283 127.924 496.291 128.212C497.299 128.476 498.091 128.776 498.667 129.112C498.595 131.344 498.367 132.928 497.983 133.864C497.551 133.984 497.203 134.044 496.939 134.044H496.327C496.207 134.044 496.063 134.032 495.895 134.008L494.995 130.048C494.203 129.976 493.747 129.94 493.627 129.94C491.899 129.94 490.519 130.468 489.487 131.524C488.479 132.58 487.975 134.356 487.975 136.852C487.975 139.348 488.359 141.244 489.127 142.54C489.919 143.836 491.431 144.484 493.663 144.484C494.719 144.484 496.375 143.98 498.631 142.972C499.087 143.596 499.327 144.148 499.351 144.628C498.127 145.348 496.927 145.912 495.751 146.32C494.575 146.728 493.735 146.932 493.231 146.932ZM508.124 124.792C507.5 124.936 506.888 125.008 506.288 125.008C505.712 125.008 505.136 124.972 504.56 124.9C504.416 124.228 504.344 123.556 504.344 122.884C504.344 122.188 504.368 121.672 504.416 121.336C504.944 121.216 505.496 121.156 506.072 121.156C506.672 121.156 507.308 121.18 507.98 121.228C508.124 121.852 508.196 122.464 508.196 123.064C508.196 123.64 508.172 124.216 508.124 124.792ZM501.572 128.572C503.612 128.212 505.196 128.032 506.324 128.032C507.452 128.032 508.172 128.056 508.484 128.104C508.484 128.68 508.412 129.316 508.268 130.012C508.124 130.708 508.04 131.044 508.016 131.02L507.692 144.052L510.716 144.34C510.716 145.012 510.512 145.732 510.104 146.5H501.824L501.716 145.24C502.82 144.856 503.9 144.568 504.956 144.376C504.812 138.376 504.692 133.876 504.596 130.876C503.204 130.876 502.148 130.732 501.428 130.444L501.572 128.572ZM523.95 127.78C526.254 127.78 527.922 128.356 528.954 129.508C529.986 130.636 530.502 132.364 530.502 134.692C530.502 135.364 530.406 138.484 530.214 144.052L533.238 144.34C533.238 145.012 533.034 145.732 532.626 146.5H524.346L524.238 145.24C525.342 144.856 526.422 144.568 527.478 144.376C527.334 138.088 527.202 134.596 527.082 133.9C526.986 133.18 526.818 132.556 526.578 132.028C526.338 131.5 525.978 131.128 525.498 130.912C525.018 130.696 524.382 130.588 523.59 130.588C522.006 130.588 520.47 130.972 518.982 131.74C518.838 137.212 518.742 141.316 518.694 144.052L521.718 144.34C521.718 145.012 521.514 145.732 521.106 146.5H512.826L512.718 145.24C513.822 144.856 514.902 144.568 515.958 144.376C515.814 138.28 515.694 133.768 515.598 130.84C514.278 130.768 513.222 130.624 512.43 130.408L512.574 128.536C513.87 128.176 515.754 127.996 518.226 127.996C518.514 128.428 518.73 129.052 518.874 129.868C519.906 129.316 520.938 128.836 521.97 128.428C523.026 127.996 523.686 127.78 523.95 127.78ZM544.405 144.304L547.609 144.232C550.921 144.232 552.577 145.6 552.577 148.336C552.577 149.608 552.025 150.784 550.921 151.864C549.841 152.968 548.545 153.796 547.033 154.348C545.521 154.9 544.105 155.176 542.785 155.176C541.489 155.176 540.277 154.984 539.149 154.6C538.021 154.24 537.061 153.64 536.269 152.8C535.477 151.96 535.081 150.988 535.081 149.884C535.081 149.62 535.501 148.924 536.341 147.796C537.205 146.692 537.769 146.044 538.033 145.852C537.817 145.708 537.397 145.3 536.773 144.628C536.149 143.932 535.801 143.452 535.729 143.188C536.329 142.084 537.277 141.004 538.573 139.948C536.653 138.796 535.693 136.9 535.693 134.26C535.693 132.148 536.365 130.54 537.709 129.436C539.053 128.332 540.733 127.78 542.749 127.78C544.765 127.78 546.325 128.104 547.429 128.752C549.349 128.368 551.233 128.176 553.081 128.176C553.537 128.176 553.765 128.452 553.765 129.004C553.765 129.964 553.585 130.624 553.225 130.984L549.085 130.3C549.949 131.404 550.381 132.724 550.381 134.26C550.381 136.66 549.673 138.388 548.257 139.444C546.841 140.476 545.101 140.992 543.037 140.992C542.389 140.992 541.621 140.908 540.733 140.74C540.373 141.484 539.917 142.288 539.365 143.152C539.797 143.92 541.477 144.304 544.405 144.304ZM548.977 150.928C549.217 150.256 549.337 149.56 549.337 148.84C549.337 148.144 549.061 147.58 548.509 147.148C547.957 146.716 547.249 146.5 546.385 146.5C542.953 146.5 540.853 146.464 540.085 146.392C539.437 147.424 538.981 148.288 538.717 148.984C538.477 149.704 538.357 150.112 538.357 150.208C538.357 151.144 538.801 151.84 539.689 152.296C540.577 152.752 541.597 152.98 542.749 152.98C543.925 152.98 545.101 152.788 546.277 152.404C547.477 152.02 548.377 151.528 548.977 150.928ZM547.141 134.404C547.141 131.428 545.773 129.94 543.037 129.94C540.301 129.94 538.933 131.38 538.933 134.26C538.933 135.724 539.293 136.852 540.013 137.644C540.733 138.436 541.777 138.832 543.145 138.832C545.809 138.832 547.141 137.356 547.141 134.404Z" fill="#FFEEC3"/>
<rect y="192.5" width="587" height="75" rx="15" fill="#320D38"/>
<path d="M150.48 217.3C153.528 217.3 155.784 217.804 157.248 218.812C158.736 219.796 159.48 221.548 159.48 224.068C159.48 226.588 158.748 228.592 157.284 230.08C155.82 231.544 153.456 232.276 150.192 232.276H147.168L147.06 240.088L149.868 240.34C149.868 241.012 149.664 241.732 149.256 242.5H141.156L141.048 241.276C142.056 240.892 143.088 240.604 144.144 240.412C144 231.052 143.88 224.092 143.784 219.532C143.136 219.412 142.08 219.124 140.616 218.668L140.796 217.3H150.48ZM149.832 229.936C151.896 229.912 153.468 229.396 154.548 228.388C155.628 227.356 156.168 226 156.168 224.32C156.168 222.64 155.64 221.476 154.584 220.828C153.528 220.156 151.836 219.82 149.508 219.82C149.076 219.82 148.344 219.832 147.312 219.856C147.312 219.88 147.276 223.252 147.204 229.972L149.832 229.936ZM170.295 240.484C171.351 240.484 173.007 239.98 175.263 238.972C175.719 239.596 175.959 240.148 175.983 240.628C174.759 241.348 173.559 241.912 172.383 242.32C171.207 242.728 170.367 242.932 169.863 242.932C167.079 242.932 164.955 242.104 163.491 240.448C162.027 238.768 161.295 236.428 161.295 233.428C161.295 230.428 162.003 228.076 163.419 226.372C164.859 224.644 167.007 223.78 169.863 223.78C172.071 223.78 173.751 224.572 174.903 226.156C176.079 227.74 176.667 229.864 176.667 232.528C176.475 232.864 176.319 233.092 176.199 233.212L164.607 233.032C164.631 235.456 165.051 237.304 165.867 238.576C166.707 239.848 168.183 240.484 170.295 240.484ZM173.391 230.98C173.391 229.396 173.103 228.172 172.527 227.308C171.951 226.42 170.991 225.976 169.647 225.976C168.303 225.976 167.103 226.228 166.047 226.732C165.327 228.172 164.871 229.648 164.679 231.16C166.575 231.136 169.479 231.076 173.391 230.98ZM190.625 226.804C190.505 226.684 190.241 226.624 189.833 226.624C189.425 226.624 188.813 226.768 187.997 227.056C187.205 227.344 186.485 227.68 185.837 228.064C185.693 233.392 185.597 237.388 185.549 240.052L188.573 240.34C188.573 241.012 188.369 241.732 187.961 242.5H179.681L179.573 241.24C180.677 240.856 181.757 240.568 182.813 240.376C182.669 234.28 182.549 229.768 182.453 226.84C181.133 226.768 180.077 226.624 179.285 226.408L179.429 224.536C180.701 224.176 182.585 223.996 185.081 223.996C185.465 224.596 185.705 225.364 185.801 226.3C188.561 224.62 190.205 223.78 190.733 223.78C191.261 223.78 191.873 223.888 192.569 224.104C193.265 224.296 193.781 224.512 194.117 224.752C194.117 227.152 193.889 229.108 193.433 230.62C193.097 230.716 192.701 230.764 192.245 230.764C191.813 230.764 191.513 230.752 191.345 230.728L190.625 226.804ZM198.733 240.196C199.573 240.556 200.593 240.736 201.793 240.736C203.017 240.736 203.977 240.508 204.673 240.052C205.369 239.596 205.717 238.972 205.717 238.18C205.717 237.388 205.393 236.728 204.745 236.2C204.097 235.672 203.305 235.204 202.369 234.796C201.433 234.388 200.497 233.956 199.561 233.5C198.625 233.044 197.833 232.444 197.185 231.7C196.537 230.956 196.213 230.092 196.213 229.108C196.213 227.452 196.765 226.156 197.869 225.22C198.973 224.26 200.497 223.78 202.441 223.78C204.409 223.78 206.257 224.224 207.985 225.112C208.009 225.352 208.021 226 208.021 227.056C208.021 228.088 207.913 228.976 207.697 229.72C207.121 229.912 206.437 230.008 205.645 230.008L204.457 226.336C203.929 226.072 203.209 225.94 202.297 225.94C201.409 225.94 200.701 226.18 200.173 226.66C199.645 227.116 199.381 227.704 199.381 228.424C199.381 229.12 199.705 229.732 200.353 230.26C201.025 230.788 201.829 231.268 202.765 231.7C203.701 232.108 204.637 232.552 205.573 233.032C206.509 233.488 207.301 234.1 207.949 234.868C208.621 235.612 208.957 236.476 208.957 237.46C208.957 239.188 208.285 240.544 206.941 241.528C205.621 242.488 203.989 242.968 202.045 242.968C200.989 242.968 199.861 242.8 198.661 242.464C197.461 242.104 196.453 241.648 195.637 241.096C195.637 239.488 195.781 238.06 196.069 236.812C196.621 236.716 197.365 236.668 198.301 236.668L198.733 240.196ZM220.339 240.772C222.355 240.772 223.711 240.148 224.407 238.9C225.127 237.628 225.487 235.828 225.487 233.5C225.487 229.804 224.671 227.488 223.039 226.552C222.367 226.168 221.419 225.976 220.195 225.976C218.995 225.976 217.855 226.228 216.775 226.732C215.815 228.58 215.335 230.728 215.335 233.176C215.335 235.528 215.647 237.34 216.271 238.612C216.991 240.052 218.347 240.772 220.339 240.772ZM212.023 233.5C212.023 230.452 212.719 228.076 214.111 226.372C215.503 224.644 217.651 223.78 220.555 223.78C223.459 223.78 225.559 224.572 226.855 226.156C228.151 227.716 228.799 230.032 228.799 233.104C228.799 236.176 228.103 238.588 226.711 240.34C225.343 242.092 223.255 242.968 220.447 242.968C217.639 242.968 215.527 242.152 214.111 240.52C212.719 238.888 212.023 236.548 212.023 233.5ZM242.626 223.78C244.93 223.78 246.598 224.356 247.63 225.508C248.662 226.636 249.178 228.364 249.178 230.692C249.178 231.364 249.082 234.484 248.89 240.052L251.914 240.34C251.914 241.012 251.71 241.732 251.302 242.5H243.022L242.914 241.24C244.018 240.856 245.098 240.568 246.154 240.376C246.01 234.088 245.878 230.596 245.758 229.9C245.662 229.18 245.494 228.556 245.254 228.028C245.014 227.5 244.654 227.128 244.174 226.912C243.694 226.696 243.058 226.588 242.266 226.588C240.682 226.588 239.146 226.972 237.658 227.74C237.514 233.212 237.418 237.316 237.37 240.052L240.394 240.34C240.394 241.012 240.19 241.732 239.782 242.5H231.502L231.394 241.24C232.498 240.856 233.578 240.568 234.634 240.376C234.49 234.28 234.37 229.768 234.274 226.84C232.954 226.768 231.898 226.624 231.106 226.408L231.25 224.536C232.546 224.176 234.43 223.996 236.902 223.996C237.19 224.428 237.406 225.052 237.55 225.868C238.582 225.316 239.614 224.836 240.646 224.428C241.702 223.996 242.362 223.78 242.626 223.78ZM268.049 230.728L267.869 240.016C268.901 240.088 269.933 240.256 270.965 240.52L270.893 241.78C270.509 241.972 269.813 242.188 268.805 242.428C267.821 242.644 266.849 242.752 265.889 242.752C265.457 241.888 265.217 241.06 265.169 240.268C262.433 242.068 260.513 242.968 259.409 242.968C257.705 242.968 256.337 242.512 255.305 241.6C254.273 240.688 253.757 239.416 253.757 237.784C253.757 234.016 256.061 232.072 260.669 231.952C263.357 231.88 264.713 231.844 264.737 231.844L264.701 230.62C264.653 228.964 264.341 227.776 263.765 227.056C263.189 226.312 262.157 225.94 260.669 225.94C260.045 225.94 259.373 226.084 258.653 226.372L257.789 229.972C257.669 229.996 257.465 230.008 257.177 230.008L255.701 229.9C255.317 228.868 255.113 227.44 255.089 225.616C255.545 225.376 256.589 225.016 258.221 224.536C259.853 224.032 260.897 223.78 261.353 223.78C263.801 223.78 265.529 224.32 266.537 225.4C267.545 226.48 268.049 228.256 268.049 230.728ZM260.201 240.52C260.897 240.52 262.505 239.74 265.025 238.18L264.845 233.68C263.213 233.824 261.845 233.956 260.741 234.076C259.637 234.196 258.749 234.52 258.077 235.048C257.405 235.552 257.069 236.356 257.069 237.46C257.069 239.5 258.113 240.52 260.201 240.52ZM277.844 215.752C278.588 215.752 279.116 215.776 279.428 215.824C279.428 216.664 279.272 217.624 278.96 218.704C278.744 232.864 278.636 239.98 278.636 240.052L281.66 240.34C281.66 241.012 281.456 241.732 281.048 242.5H272.768L272.66 241.24C273.764 240.856 274.844 240.568 275.9 240.376L275.54 218.596C274.22 218.524 273.164 218.38 272.372 218.164L272.516 216.292C273.74 215.932 275.516 215.752 277.844 215.752ZM307.244 229.36C308.636 229.528 309.86 230.176 310.916 231.304C311.996 232.432 312.536 234.016 312.536 236.056C312.536 238.072 311.732 239.656 310.124 240.808C308.54 241.936 306.212 242.5 303.14 242.5H293.276L293.168 241.24C294.176 240.832 295.208 240.544 296.264 240.376C296.12 231.112 296 224.164 295.904 219.532C295.088 219.388 294.032 219.1 292.736 218.668C292.808 217.78 292.868 217.324 292.916 217.3H301.952C305.168 217.3 307.352 217.576 308.504 218.128C309.056 218.392 309.608 218.74 310.16 219.172C311.264 220.036 311.816 221.464 311.816 223.456C311.816 224.464 311.636 225.376 311.276 226.192C310.94 226.984 310.496 227.596 309.944 228.028C308.936 228.82 308.036 229.264 307.244 229.36ZM303.32 230.908H299.324C299.276 232.972 299.228 236.02 299.18 240.052H302.996C306.98 240.052 308.972 238.564 308.972 235.588C308.972 233.86 308.504 232.648 307.568 231.952C306.656 231.256 305.24 230.908 303.32 230.908ZM301.592 219.82L299.432 219.856C299.384 222.064 299.36 224.932 299.36 228.46H302.888C305 228.46 306.404 228.064 307.1 227.272C307.82 226.456 308.18 225.172 308.18 223.42C308.18 221.02 305.984 219.82 301.592 219.82ZM326.68 226.804C326.56 226.684 326.296 226.624 325.888 226.624C325.48 226.624 324.868 226.768 324.052 227.056C323.26 227.344 322.54 227.68 321.892 228.064C321.748 233.392 321.652 237.388 321.604 240.052L324.628 240.34C324.628 241.012 324.424 241.732 324.016 242.5H315.736L315.628 241.24C316.732 240.856 317.812 240.568 318.868 240.376C318.724 234.28 318.604 229.768 318.508 226.84C317.188 226.768 316.132 226.624 315.34 226.408L315.484 224.536C316.756 224.176 318.64 223.996 321.136 223.996C321.52 224.596 321.76 225.364 321.856 226.3C324.616 224.62 326.26 223.78 326.788 223.78C327.316 223.78 327.928 223.888 328.624 224.104C329.32 224.296 329.836 224.512 330.172 224.752C330.172 227.152 329.944 229.108 329.488 230.62C329.152 230.716 328.756 230.764 328.3 230.764C327.868 230.764 327.568 230.752 327.4 230.728L326.68 226.804ZM346.272 230.728L346.092 240.016C347.124 240.088 348.156 240.256 349.188 240.52L349.116 241.78C348.732 241.972 348.036 242.188 347.028 242.428C346.044 242.644 345.072 242.752 344.112 242.752C343.68 241.888 343.44 241.06 343.392 240.268C340.656 242.068 338.736 242.968 337.632 242.968C335.928 242.968 334.56 242.512 333.528 241.6C332.496 240.688 331.98 239.416 331.98 237.784C331.98 234.016 334.284 232.072 338.892 231.952C341.58 231.88 342.936 231.844 342.96 231.844L342.924 230.62C342.876 228.964 342.564 227.776 341.988 227.056C341.412 226.312 340.38 225.94 338.892 225.94C338.268 225.94 337.596 226.084 336.876 226.372L336.012 229.972C335.892 229.996 335.688 230.008 335.4 230.008L333.924 229.9C333.54 228.868 333.336 227.44 333.312 225.616C333.768 225.376 334.812 225.016 336.444 224.536C338.076 224.032 339.12 223.78 339.576 223.78C342.024 223.78 343.752 224.32 344.76 225.4C345.768 226.48 346.272 228.256 346.272 230.728ZM338.424 240.52C339.12 240.52 340.728 239.74 343.248 238.18L343.068 233.68C341.436 233.824 340.068 233.956 338.964 234.076C337.86 234.196 336.972 234.52 336.3 235.048C335.628 235.552 335.292 236.356 335.292 237.46C335.292 239.5 336.336 240.52 338.424 240.52ZM362.438 223.78C364.742 223.78 366.41 224.356 367.442 225.508C368.474 226.636 368.99 228.364 368.99 230.692C368.99 231.364 368.894 234.484 368.702 240.052L371.726 240.34C371.726 241.012 371.522 241.732 371.114 242.5H362.834L362.726 241.24C363.83 240.856 364.91 240.568 365.966 240.376C365.822 234.088 365.69 230.596 365.57 229.9C365.474 229.18 365.306 228.556 365.066 228.028C364.826 227.5 364.466 227.128 363.986 226.912C363.506 226.696 362.87 226.588 362.078 226.588C360.494 226.588 358.958 226.972 357.47 227.74C357.326 233.212 357.23 237.316 357.182 240.052L360.206 240.34C360.206 241.012 360.002 241.732 359.594 242.5H351.314L351.206 241.24C352.31 240.856 353.39 240.568 354.446 240.376C354.302 234.28 354.182 229.768 354.086 226.84C352.766 226.768 351.71 226.624 350.918 226.408L351.062 224.536C352.358 224.176 354.242 223.996 356.714 223.996C357.002 224.428 357.218 225.052 357.362 225.868C358.394 225.316 359.426 224.836 360.458 224.428C361.514 223.996 362.174 223.78 362.438 223.78ZM385.774 225.832L385.666 218.632C384.346 218.56 383.29 218.416 382.498 218.2L382.642 216.328C383.866 215.968 385.642 215.788 387.97 215.788C388.714 215.788 389.242 215.812 389.554 215.86C389.554 216.292 389.482 216.868 389.338 217.588C389.218 218.284 389.134 218.668 389.086 218.74L388.762 240.016C389.746 240.064 390.79 240.232 391.894 240.52L391.822 241.78C390.166 242.548 388.702 242.932 387.43 242.932C387.166 242.932 386.962 242.92 386.818 242.896C386.626 242.536 386.386 241.708 386.098 240.412C383.338 241.972 381.406 242.812 380.302 242.932C377.998 242.932 376.27 242.056 375.118 240.304C373.966 238.552 373.39 236.308 373.39 233.572C373.39 230.812 373.966 228.496 375.118 226.624C376.294 224.728 378.022 223.78 380.302 223.78C382.078 223.78 383.902 224.464 385.774 225.832ZM380.914 226.228C378.106 226.228 376.702 228.532 376.702 233.14C376.702 234.94 376.99 236.5 377.566 237.82C377.854 238.54 378.274 239.116 378.826 239.548C379.402 239.98 380.062 240.196 380.806 240.196C381.55 240.196 382.414 240.028 383.398 239.692C384.406 239.356 385.27 238.972 385.99 238.54L385.774 228.28C385.126 227.728 384.334 227.248 383.398 226.84C382.462 226.432 381.634 226.228 380.914 226.228ZM400.225 220.792C399.601 220.936 398.989 221.008 398.389 221.008C397.813 221.008 397.237 220.972 396.661 220.9C396.517 220.228 396.445 219.556 396.445 218.884C396.445 218.188 396.469 217.672 396.517 217.336C397.045 217.216 397.597 217.156 398.173 217.156C398.773 217.156 399.409 217.18 400.081 217.228C400.225 217.852 400.297 218.464 400.297 219.064C400.297 219.64 400.273 220.216 400.225 220.792ZM393.673 224.572C395.713 224.212 397.297 224.032 398.425 224.032C399.553 224.032 400.273 224.056 400.585 224.104C400.585 224.68 400.513 225.316 400.369 226.012C400.225 226.708 400.141 227.044 400.117 227.02L399.793 240.052L402.817 240.34C402.817 241.012 402.613 241.732 402.205 242.5H393.925L393.817 241.24C394.921 240.856 396.001 240.568 397.057 240.376C396.913 234.376 396.793 229.876 396.697 226.876C395.305 226.876 394.249 226.732 393.529 226.444L393.673 224.572ZM416.051 223.78C418.355 223.78 420.023 224.356 421.055 225.508C422.087 226.636 422.603 228.364 422.603 230.692C422.603 231.364 422.507 234.484 422.315 240.052L425.339 240.34C425.339 241.012 425.135 241.732 424.727 242.5H416.447L416.339 241.24C417.443 240.856 418.523 240.568 419.579 240.376C419.435 234.088 419.303 230.596 419.183 229.9C419.087 229.18 418.919 228.556 418.679 228.028C418.439 227.5 418.079 227.128 417.599 226.912C417.119 226.696 416.483 226.588 415.691 226.588C414.107 226.588 412.571 226.972 411.083 227.74C410.939 233.212 410.843 237.316 410.795 240.052L413.819 240.34C413.819 241.012 413.615 241.732 413.207 242.5H404.927L404.819 241.24C405.923 240.856 407.003 240.568 408.059 240.376C407.915 234.28 407.795 229.768 407.699 226.84C406.379 226.768 405.323 226.624 404.531 226.408L404.675 224.536C405.971 224.176 407.855 223.996 410.327 223.996C410.615 224.428 410.831 225.052 410.975 225.868C412.007 225.316 413.039 224.836 414.071 224.428C415.127 223.996 415.787 223.78 416.051 223.78ZM436.507 240.304L439.711 240.232C443.023 240.232 444.679 241.6 444.679 244.336C444.679 245.608 444.127 246.784 443.023 247.864C441.943 248.968 440.647 249.796 439.135 250.348C437.623 250.9 436.207 251.176 434.887 251.176C433.591 251.176 432.379 250.984 431.251 250.6C430.123 250.24 429.163 249.64 428.371 248.8C427.579 247.96 427.183 246.988 427.183 245.884C427.183 245.62 427.603 244.924 428.443 243.796C429.307 242.692 429.871 242.044 430.135 241.852C429.919 241.708 429.499 241.3 428.875 240.628C428.251 239.932 427.903 239.452 427.831 239.188C428.431 238.084 429.379 237.004 430.675 235.948C428.755 234.796 427.795 232.9 427.795 230.26C427.795 228.148 428.467 226.54 429.811 225.436C431.155 224.332 432.835 223.78 434.851 223.78C436.867 223.78 438.427 224.104 439.531 224.752C441.451 224.368 443.335 224.176 445.183 224.176C445.639 224.176 445.867 224.452 445.867 225.004C445.867 225.964 445.687 226.624 445.327 226.984L441.187 226.3C442.051 227.404 442.483 228.724 442.483 230.26C442.483 232.66 441.775 234.388 440.359 235.444C438.943 236.476 437.203 236.992 435.139 236.992C434.491 236.992 433.723 236.908 432.835 236.74C432.475 237.484 432.019 238.288 431.467 239.152C431.899 239.92 433.579 240.304 436.507 240.304ZM441.079 246.928C441.319 246.256 441.439 245.56 441.439 244.84C441.439 244.144 441.163 243.58 440.611 243.148C440.059 242.716 439.351 242.5 438.487 242.5C435.055 242.5 432.955 242.464 432.187 242.392C431.539 243.424 431.083 244.288 430.819 244.984C430.579 245.704 430.459 246.112 430.459 246.208C430.459 247.144 430.903 247.84 431.791 248.296C432.679 248.752 433.699 248.98 434.851 248.98C436.027 248.98 437.203 248.788 438.379 248.404C439.579 248.02 440.479 247.528 441.079 246.928ZM439.243 230.404C439.243 227.428 437.875 225.94 435.139 225.94C432.403 225.94 431.035 227.38 431.035 230.26C431.035 231.724 431.395 232.852 432.115 233.644C432.835 234.436 433.879 234.832 435.247 234.832C437.911 234.832 439.243 233.356 439.243 230.404Z" fill="#FFEEC3"/>
</svg>
