<svg xmlns="http://www.w3.org/2000/svg" viewBox="0 0 1200 1200" width="1200" height="1200"><path fill="#FFF" d="M0 0h1200v1200H0z"/><g transform="translate(35.0 357.0) rotate(0.0 564.0 304.0) scale(1.2991230919129588 1.2983601796349642)"><svg width="868.278" height="468.283" viewBox="0 0 868.278 468.283"><path d="M464.101 412.022H240.987c.294-1.433.599-2.855.893-4.288l6.274-29.958c1.786-8.553 3.583-17.118 5.369-25.67 13.1-.4 26.199-.799 39.298-1.187l154.55-4.688a1049.087 1049.087 0 0 1 5.604 20.066 982.224 982.224 0 0 1 8.494 33.976 711.909 711.909 0 0 1 2.632 11.749z" fill="#f85572"/><path d="M452.975 366.298c-6.978 1.339-18.257.164-30.276 8.13-10.891 7.214-9.199 13.193-18.797 17.623-12.183 5.628-21.511-.963-37.595-2.35-4.035-.348-7.376-.272-10.473.146-20.349 2.746-35.725 10.432-40.046 12.778-12.126 6.584-33.489 11.638-74.015 4.699l6.379-29.547a125.24 125.24 0 0 1 3.019-4.523c8.494-4.934 23.485-13.428 41.648-22.334l154.55-4.688a1018.512 1018.512 0 0 1 5.606 20.066z" fill="#1d0333"/><path d="m445.022 319.21 74.015-34.07c-.39-1.869-6.384-28.454-30.546-37.595-21.134-7.996-46.996.826-61.092 22.322l17.623 49.343z" fill="#FEF4A6"/><path d="M329.05 161.847c7.849-2.816 18.426-4.155 20.094-.801.592 1.189-.106 2.628-.609 3.665-3.398 7.003-14.96 9.713-22.29 9.475-1.568-.051-5.097-.071-9.943.334-1.155.097-2.466.3-4.165.709-5.265 1.267-7.473 2.878-10.444 1.653-3.008-1.241-5.36-5.192-4.95-8.732.102-.877.2-1.73.793-2.504 3.066-4.004 12.482 3.083 23.759-.191 3.656-1.063 2.489-1.719 7.755-3.608z" fill="#1d0333"/><path d="M504.291 247.858c.231-19.733-.367-39.458-2.102-59.127a496.58 496.58 0 0 1-8.939-3.985c-12.344-5.672-39.564-18.855-73.847-15.671-4.13.384-6.02.951-16.246 2.571-1.975.313-38.365 6.075-75.426 11.936l58.11 74.067c26.148-43.047 44.227-32.084 97.29-16.587 7.326 2.139 14.336 4.424 21.16 6.796zm-198.24-58.466a7722.435 7722.435 0 0 0-67.671 8.33c-25.482 3.251-31.031 4.089-39.27 7.401-19.58 7.873-28.265 19.234-48.604 38.62-15.897 15.152-33.633 28.251-50.374 42.466-68.51 58.175-90.568 74.844-92.984 103.924-.503 6.059-.898 10.815 1.41 16.429 4.767 11.593 20.841 26.307 121.264 28.302 29.056.577 69.009.166 116.884-4.136l5.427-25.837c-54.018-9.035-111.109-19.847-164.308-31.093 65.546-45.923 103.213-108.157 175.74-114.641l42.486-69.765z" fill="#b8bfcc"/><path d="M308.693 4.674c-6.398.865-15.662 3.01-24.625 9.077-30.316 20.524-12.766 55.867-41.119 103.386-16.237 27.214-35.165 37.697-35.245 64.616-.03 10.038 2.573 18.248 4.699 23.497 27.41 9.799 80.122 24.078 143.331 11.748 26.07-5.085 47.835-13.508 64.804-21.805 2.52.139 8.64.114 14.361-3.823 7.293-5.019 10.986-14.365 9.727-24.119a49.128 49.128 0 0 1 1.839 8.353c1.002 7.706-.017 14.252-1.157 18.762l5.863.361c2.175-8.3 7.403-32.688-6.199-52.173-1.885-2.7-6.157-8.208-18.994-16.473-29.299-18.863-41.77-12.528-57.401-23.55-21.077-14.861-13.478-40.29-38.904-75.377-7.578-10.455-15.455-17.841-20.98-22.48z" fill="#1d0333"/><path d="M325.21 214.034c.413-2.305 26.286-31.726 20.859-32.849a501.466 501.466 0 0 1 3.791-81.671 73.744 73.744 0 0 0-16.985-9.778c-11.145-4.563-21.17-5.456-27.659-5.495a691.833 691.833 0 0 1 0 108.085c13.869-1.195 20.683 17.258 19.994 21.708z" fill="#ffb5a6"/><path d="M386.092 104.79c-.576 1.222-6.027 12.442-17.505 16.577-24.648 8.882-65.862-19.056-70.831-53.808-.529-3.666-4.053-31.38 15.719-44.938 14.815-10.151 34.775-6.932 46.97 1.727 7.848 5.557 11.443 13.863 17.376 29.559.317.834.634 1.692.975 2.573.235.658.482 1.316.74 1.997 1.269 3.372 2.455 6.544 3.525 9.551.411 1.14.811 2.256 1.175 3.348a145.176 145.176 0 0 1 1.962 6.097c1.234 4.206 2.091 8.071 2.432 11.725.493 5.523-.189 10.575-2.538 15.592z" fill="#ffb5a6"/><path d="M319.922 108.876c.735 3.443 2.628 6.005 6.385 10.987 6.998 9.283 7.934 10.452 9.83 12.377 3.583 3.638 6.014 5.323 8.851 6.445a21.2 21.2 0 0 0 4.845 1.274c.551-5.887 1.079-11.763 1.606-17.64-5.348-.895-11.197-2.809-16.634-6.64-8.593-6.055-12.296-14.795-14.449-13.839-1.448.643-.86 5.044-.434 7.036zm-43.364-60.278c2.997 14.769 19.119 27.616 26.769 24.015 5.891-2.768 7.219-15.516 4.225-30.343 2.515 3.686 5.042 7.373 7.558 11.06 3.106-.938 6.214-1.889 9.32-2.827.29-3.172.567-6.333.856-9.493l6.602 7.47a150.18 150.18 0 0 1 11.943-2.795c14.615-2.795 27.874-3.072 38.986-2.304a67.947 67.947 0 0 0-5.14-12.088 74.601 74.601 0 0 0-4.425-7.265c-2.583-3.738-6.203-8.21-10.934-12.233-2.338-1.98-4.941-3.859-7.82-5.473-16.69-9.363-39.141-8.146-55.474 2.465-1.571 1.02-26.835 18.272-22.466 39.811z" fill="#1d0333"/><path d="M310.941 63.666a58.846 58.846 0 0 0-15.983-8.048c-6.58-2.129-14.212-4.6-17.589-1.085-2.839 2.955-1.685 9.115.377 12.971 6.103 11.411 26.786 15.032 32.472 7.888.977-1.228 2.815-4.412.723-11.726z" fill="#ffb5a6"/><path d="M297.131 73.255c-3.009 0-5.755-.93-7.399-2.519-.815-.786-1.251-1.65-1.26-2.498-.019-1.934 2.311-4.12 5.994-4.949-1.552-1.134-3.908-2.367-6.85-2.415-1.482-.03-2.953.249-4.378.813a1 1 0 1 1-.736-1.86 13.469 13.469 0 0 1 5.147-.954c5.041.082 8.572 3.099 9.856 4.392.277.279.365.694.226 1.062a1.003 1.003 0 0 1-.875.642c-3.979.235-6.395 2.237-6.385 3.249.001.107.051.503.648 1.08 1.028.994 3.23 2.035 6.319 1.953h.024a1.001 1.001 0 0 1 .024 2c-.117.003-.236.004-.355.004z" fill="#1d0333"/><path d="M447.371 299.238c-.222-3.046-.969-5.235-1.175-5.874-2.427-7.56-1.368-23.755-1.368-23.755.728-5.622 1.41-13.712.969-23.943 8.23.22 15.174.882 20.461 1.52 7.18.874 15.873 2.365 26.998 5.243 4.394 1.137 7.895 2.374 10.893 3.68.601-26.066-.163-52.131-3.014-78.083-7.331-1.765-15.746-3.797-25.374-6.091-19.381-4.617-17.905-4.458-21.012-5.001-25.529-4.453-45.146-1.241-69.749 2.711-23.837 3.832-47.072 7.485-78.907 12.487-17.306 3.535-31.392 5.396-40.614 6.427-37.122 4.138-52.82 1.15-72.922 12.729-2.311 1.329-8.208 6.307-20.028 16.254-40.661 34.244-36.122 34.965-50.19 43.626-20.756 12.777-32.341 12.707-43.111 28.233-5.056 7.283-3.68 8.992-9.217 16.921-11.191 16.021-23.012 17.915-37.125 28.475-2.627 1.962-31.329 23.989-32.824 50.62a37.43 37.43 0 0 0 .106 5.704c1.847 19.262 18.407 31.831 20.778 33.585 20.656 15.227 36.258 3.254 85.268 12.675 25.161 4.832 24.542 8.665 40.68 9.025 20.914.473 31.266-5.745 56.25-5.333 2.528.04 8.06.199 15.269-1.227 9.493-1.871 16.772-5.485 21.313-8.13a108.437 108.437 0 0 0 4.149-11.362 108.755 108.755 0 0 0 4.024-19.668 127.398 127.398 0 0 0-28.893-9.701c-13.71-2.826-15.802-.865-31.456-3.348-24.207-3.841-22.472-9.04-40.864-10.186-6.932-.437-15.4-.204-26.814-4.083a74.913 74.913 0 0 1-10.201-4.333l.233-.108c15.216-6.821 26.435-14.175 34.004-19.786.575-.424 1.139-.846 1.669-1.251 5.563-4.234 9.246-7.565 44.939-39.227 7.092-6.296 13.459-11.836 23.693-15.644 9.704-3.617 18.521-4.049 24.368-3.856 2.426 6.539 5.335 16.498 5.751 28.826.335 9.784-1.212 12.182-1.762 26.447-.73 18.935-1.196 28.526 4.349 34.996 4.902 5.72 12.158 7.065 18.356 7.919 32.629 4.497 62.284-.962 63.441-1.175 0 0 85.179-15.672 119.834-30.546 3.049-1.309 9.387-4.133 10.723-9.803.145-.614.192-1.027.238-1.851.17-3.056-.772-7.056-4.52-17.692-3.515-9.974-2.337-6.949-4.923-13.112-1.354-3.227-2.852-6.516-2.693-10.41.028-.667.124-1.835 0-3.524z" fill="#683D86"/><path d="M295.898 200.398a92.124 92.124 0 0 0 26.08-.559 92.344 92.344 0 0 0 30.413-10.76 135.919 135.919 0 0 1-3.063-26.873c-.243 1.027-.724 2.461-1.77 3.848-3.426 4.545-9.848 4.518-15.878 4.892-20.741 1.284-28.62 6.79-33.042 1.66-1.165-1.351-1.681-2.966-1.895-4.458l-.845 32.25z" fill="#683D86"/><path d="M311.272 195.232c-3.448 0-6.283-.639-8.876-2.229-3.208-1.97-5.781-4.925-7.647-8.782a1.001 1.001 0 0 1 1.801-.871c1.697 3.508 4.017 6.183 6.894 7.948 5.16 3.167 11.504 2.078 25.361-.687 13.887-2.771 16.774-5.267 18.393-7.39 1.74-2.283 2.803-5.096 3.157-8.359a.991.991 0 0 1 1.103-.886 1 1 0 0 1 .886 1.103c-.395 3.63-1.591 6.777-3.556 9.355-1.923 2.523-5.02 5.23-19.592 8.138-7.646 1.526-13.33 2.66-17.924 2.66zM244.02 309.523a1 1 0 0 1-.984-.829 107.12 107.12 0 0 0-7.452-24.747 107.167 107.167 0 0 0-18.708-28.858 1 1 0 1 1 1.482-1.342 109.187 109.187 0 0 1 19.058 29.395 109.244 109.244 0 0 1 7.591 25.21 1 1 0 0 1-.987 1.171z" fill="#1d0333"/><path d="M339.001 149.567c.641-.161 1.27-.32 1.912-.469-.034-.292-.07-.595-.12-.909-.639.47-1.232.933-1.792 1.378z" fill="#b8bfcc"/><path d="M225.255 265.103c-6.232-1.574-14.259-2.55-18.75 1.778-3.869 3.728-1.445 7.859-4.759 15.027-4.521 9.779-11.493 7.411-19.66 18.574-4.255 5.815-2.98 7.301-10.01 19.426a159.337 159.337 0 0 1-7.631 11.913c10.137-8.57 24.886-19.059 44.455-27.256a170.45 170.45 0 0 1 31.757-9.783 54.684 54.684 0 0 0-4.708-14.718 54.823 54.823 0 0 0-10.694-14.961zm219.19-43.013c2.425-1.744 5.864-3.596 9.1-2.629 4.115 1.229 4.528 6.011 8.799 10.502 4.577 4.814 9.494 4.991 15.394 7.08 6.093 2.157 14.399 6.763 23.032 17.766a126.854 126.854 0 0 0-55.766-6.638l-.559-26.081z" fill="#1d0333"/><path d="M78.642 360.862a80.89 80.89 0 0 1 20.829 3.841 80.954 80.954 0 0 1 10.434 4.225c15.216-6.821 26.435-14.175 34.004-19.785-4.212.441-7.948.663-11.095.769-7.054.224-14.438.465-23.943-.969-10.114-1.528-12.362-3.408-16.98-2.071-6.812 1.98-10.882 8.655-13.249 13.99z" fill="#492D5F"/><path d="M134.533 376.806a.842.842 0 0 1-.122-.008 97.335 97.335 0 0 1-21.231-5.053c-3.86-1.393-6.545-2.639-8.702-3.641-.556-.258-1.075-.499-1.569-.721-8.959-4.031-19.602-6.3-31.634-6.742a.999.999 0 0 1-.962-1.036c.02-.552.479-1.005 1.036-.962 12.29.451 23.185 2.778 32.38 6.916.501.226 1.027.47 1.591.731 2.121.984 4.762 2.21 8.54 3.573a95.334 95.334 0 0 0 20.794 4.949 1 1 0 0 1-.121 1.994z" fill="#1d0333"/><path d="M20.946 424.707c20.656 15.227 36.258 3.255 85.268 12.675 25.161 4.832 24.542 8.665 40.68 9.025 20.914.473 31.266-5.745 56.25-5.333 2.528.04 8.06.199 15.269-1.227 9.493-1.871 16.772-5.485 21.313-8.131a29.61 29.61 0 0 1 5.127-12.706c-12.916 5.038-23.537 7.313-30.78 8.439-4.298.668-7.873 1.012-8.525 1.064-10.131.806-17.571-.366-42.29 1.03-19.701 1.107-21.216 2.204-28.401.926-16.99-3.033-22.825-11.72-35.003-18.25-35.888-19.252-70.013 10.663-90.519-8.275-3.274-3.026-7.395-8.393-9.272-18.528a37.445 37.445 0 0 0 .106 5.705c1.846 19.263 18.406 31.832 20.777 33.586z" fill="#492D5F"/><path d="M316.106 18.079c6.105 2.731 12.222 5.462 18.328 8.193.619-3.352 1.961-7.742 5.269-9.092 4.407-1.8 9.168 3.073 14.955 5.63 4.136 1.832 10.066 3.022 18.593 1.217-2.583-3.738-6.203-8.21-10.934-12.233a13.224 13.224 0 0 1-3.563 1.852c-9.001 3-17.443-5.372-23.452-1.446-2.772 1.818-3.686 5.364-4.024 7.991-5.054-.7-10.118-1.412-15.172-2.112z" fill="#eedcff"/><path d="M502.278 124.824c-8.212-3.375-15.561-.533-17.08 3.66-1.325 3.658 1.944 7.911 2.44 8.54-2.245.398-10.972 2.213-15.86 9.76-5.925 9.148-3.872 23.107 6.1 32.94-2.178 3.053-6.626 10.234-6.1 19.52.714 12.619 10.131 20.585 14.64 24.4 16.398 13.872 49.709 23.636 68.319 6.1 19.839-18.694 7.422-53.761 6.1-57.339-13.55-36.661-54.249-46.601-58.559-47.581zM670.985 260.41h-1.58c.01-.058.01-.106.01-.164.067 0 .135.01.212.019.414.029.876.078 1.358.145zM604.757 57.725c3.509-.985 15.784-3.965 28.06 2.44 3.426 1.788 10.104 5.11 13.42 12.2 4.752 10.159-2.528 16.9 1.22 21.96 7.003 9.453 35.918-9.339 52.459 2.44 6.207 4.421 8.657 11.712 9.76 17.08 10.922-4.362 23.076-1.857 30.5 6.1 7.92 8.489 7.776 20.308 4.88 28.06-4.919 13.167-20.456 21.765-37.82 19.52.674 8.053-3.136 15.685-9.76 19.52-7.826 4.531-15.932 1.65-17.08 1.22-5.673 3.362-13.919 7.407-24.4 9.76-29.69 6.666-74.255-.86-91.499-32.94-18.385-34.206-3.249-84.664 40.26-107.36z" fill="#1d0333"/><path d="M535.15 130.887c.053 3.288.202 8.136.629 13.968.169 2.357.381 5.154.695 8.342.125 1.272.915 9.109 2.381 17.718 2.313 13.589 3.938 23.137 8.562 34.428 4.772 11.651 7.158 17.476 13.777 21.484 6.872 4.161 17.425 5.852 26.204.721 1.08-.631 9.847-5.928 11.146-15.189.747-5.328-1.476-8.419-6.328-19.632-2.154-4.979-5.501-12.712-7.662-19.733 0 0-8.019-26.051-1.006-48.468a193.607 193.607 0 0 1 4.818-13.492 175.688 175.688 0 0 0-33.115 9.996 175.392 175.392 0 0 0-20.101 9.857z" fill="#e2957a"/><path d="M591.858 100.179c-6.636 34.98-49.689 61.39-74.251 51.25-11.432-4.725-16.452-16.341-16.966-17.607-2.348-5.655-2.682-11.266-1.619-17.423.693-3.962 1.965-8.159 3.652-12.737 1.829-4.968 4.147-10.375 6.746-16.454 7.974-18.614 11.949-27.933 20.916-33.706 12.753-8.208 33.129-10.544 47.667.429 19.409 14.647 14.553 42.561 13.855 46.248z" fill="#e2957a"/><path d="M532.646 153.629a229.162 229.162 0 0 0 2.842 17.65 18.987 18.987 0 0 0 3.028-.879c2.9-1.076 5.394-2.744 9.106-6.358 1.959-1.919 2.935-3.081 10.213-12.356 3.905-4.982 5.872-7.534 6.691-11.015.476-2.012 1.159-6.465-.301-7.143-2.166-1.018-6.088 7.782-14.924 13.747-5.473 3.701-11.312 5.521-16.655 6.354z" fill="#1d0333"/><path d="M525.817 122.829c3.304-.923 5.165-2.317 6.334-1.4.836.656.744 2.043.721 2.381-.239 3.582-5.156 7.883-9.631 6.818-3.517-.837-6.145-4.841-5.331-6.442.651-1.281 2.971.023 7.907-1.357zm10.634-20.993c-.069.942.587 1.679 1.013 2.174 2.247 2.572 5.389 1.457 10.663 2.01.995.102 2.063.261 3.215.518 4.489 1.003 6.857 2.678 8.547 1.308 1.152-.934 1.156-2.629 1.15-2.79-.055-3.832-6.068-7.591-11.576-8.226a17.498 17.498 0 0 0-3.357-.049c-4.913.389-9.493 2.677-9.655 5.055z" fill="#fff"/><path d="M536.451 101.836c-.069.942.587 1.679 1.013 2.174 2.247 2.572 5.389 1.457 10.663 2.01 1.201-2.349 1.137-5.859-.838-8.177a5.68 5.68 0 0 0-1.183-1.062c-4.913.389-9.493 2.677-9.655 5.055z" fill="#1d0333"/><path d="M505.615 96.272c-.055.744.474 1.327.818 1.718 1.814 2.033 4.348 1.154 8.603 1.593.802.081 1.665.207 2.594.41 3.622.795 5.533 2.119 6.896 1.037.929-.737.931-2.076.926-2.204-.046-3.027-4.898-6-9.342-6.503a14.484 14.484 0 0 0-2.708-.041c-3.964.307-7.658 2.112-7.787 3.99z" fill="#fff"/><g fill="#1d0333"><path d="M505.615 96.272c-.055.744.474 1.327.818 1.718 1.814 2.033 4.348 1.154 8.603 1.593.968-1.855.915-4.628-.679-6.46a4.551 4.551 0 0 0-.955-.84c-3.964.306-7.658 2.111-7.787 3.989zm22.907 1.278c-2.567 3.602-5.549 6.929-8.765 9.965-.791.763-1.607 1.513-2.313 2.275-.337.369-.668.794-.749 1.061-.049.139-.015.137-.008.171.013.027.092.111.249.194.679.341 1.799.459 2.821.497 1.051.037 2.125.001 3.199-.061h.006a1 1 0 0 1 .117 1.997l-.044.002a36.072 36.072 0 0 1-3.391-.086 15.089 15.089 0 0 1-1.738-.233c-.59-.126-1.192-.268-1.837-.642-.312-.192-.679-.478-.896-.955-.113-.229-.143-.501-.161-.754.022-.236.053-.501.14-.674.318-.764.759-1.164 1.161-1.596.825-.815 1.663-1.515 2.486-2.242 3.305-2.857 6.357-5.977 9.051-9.422a.421.421 0 0 1 .591-.072.423.423 0 0 1 .081.575zm-15.313-19.122c.256-.183.378-.256.622-.354.988-.415 1.025-.11 5.953.159 3.318.183 5.295.159 7.113 1.391.378.256.842.622 1.159 1.22.634 1.183.683 2.989-.098 3.575-1.11.83-2.879-1.562-7.076-2.574-2.904-.708-5.502-.39-7.149-.195-.732.085-1.427.207-2.062.329zm29.036 8.7c.633 1.875 4.44.515 10.654 2.677 1.543.537 7.171 2.495 11.714 7.474 1.759 1.928 3.001 3.92 3.475 3.671.629-.33-.842-4.22-1.06-4.797-1.128-2.984-1.77-4.68-3.409-6.054-1.468-1.229-1.943-.698-5.89-2.546-1.938-.907-1.826-1.036-4.699-2.513-5.561-2.859-6.605-2.696-7.081-2.579-2.211.549-4.225 3.126-3.704 4.667z"/></g><ellipse cx="549.647" cy="117.22" fill="#bf7960" rx="6.553" ry="10.128" transform="matrix(.0275 -.9996 .9996 .0275 417.3588 663.4359)"/><path d="M509.91 110.167c-.1 3.621-4.718 6.426-10.304 6.272a4.759 4.759 0 0 1-.583-.04c.693-3.962 1.965-8.159 3.652-12.737 4.255.88 7.318 3.491 7.235 6.505z" fill="#bf7960"/><path d="M616.957 90.664c-8.808 10.553-25.522 6.759-34.16 4.88-4.258-.927-5.429-1.806-6.1-2.44-7.186-6.771 2.245-23.497-3.66-28.06-2.257-1.744-5.539-.769-8.54 0-3.123.805-31.012 7.722-51.239 1.22-4.746-1.525-13.176-4.233-17.08-12.2-.22-.451-5.295-11.248 1.22-19.52 4.782-6.076 13.798-8.21 21.96-4.88-.366-3.196-.341-5.966-.085-8.357.793-7.369 3.867-11.151 4.965-12.383a17.452 17.452 0 0 1 1.732-1.684c11.688-9.931 35.965-4.856 48.287 7.784 2.977 3.05 4.892 6.173 6.1 8.54 3.794-2.013 8.272-1.464 10.98 1.22 2.843 2.818 2.501 6.759 2.44 7.32 9.052-5.392 20.386-2.83 25.62 4.88 4.294 6.332 3.892 15.299-1.22 21.96 6.478 10.346 5.844 23.241-1.22 31.72z" fill="#1d0333"/><path d="M580.357 23.565c3.439 5.199 7.618 13.013 9.76 23.18 4.804 22.806-4.022 41.383-7.32 47.579l17.134-5.455c3.478-8.008 10.116-26.612 3.855-47.222a59.966 59.966 0 0 0-5.129-11.983c-.497-.813-4.148-6.572-10.98-7.32-3.288-.359-5.934.592-7.32 1.221z" fill="#f85572"/><path d="M578.675 95.63a59.674 59.674 0 0 1 16.564-7.416c6.764-1.854 14.611-4.004 17.87-.287 2.74 3.125 1.287 9.312-.981 13.124-6.71 11.279-27.832 13.993-33.262 6.492-.933-1.289-2.648-4.599-.191-11.913z" fill="#e2957a"/><path d="M592.892 105.984c-.34.001-.683-.012-1.029-.036a.998.998 0 0 1-.927-1.067.984.984 0 0 1 1.067-.927c3.128.216 5.411-.73 6.502-1.691.429-.378.695-.78.712-1.075.058-1.029-2.303-3.177-6.331-3.601a.999.999 0 0 1-.573-1.731c1.326-1.219 4.891-3.996 9.798-3.996a13.542 13.542 0 0 1 5.547 1.208 1 1 0 1 1-.818 1.824 11.536 11.536 0 0 0-4.405-1.027c-3.014-.11-5.458 1.067-7.085 2.149 3.707 1.004 5.973 3.327 5.863 5.284-.047.854-.526 1.707-1.386 2.464-1.608 1.419-4.149 2.222-6.935 2.222z" fill="#1d0333"/><path d="M573.037 49.185c-2.416-7.186-6.234-14.859-12.2-15.86-6.271-1.049-9.711 6.161-15.86 4.88-7.637-1.586-7.43-13.725-15.86-17.08-3.086-1.22-6.478-.939-9.845.183.793-7.369 3.867-11.151 4.965-12.383a17.452 17.452 0 0 1 1.732-1.684c6.064.256 9.553 2.184 11.688 4.124 5.392 4.88 3.929 11.382 9.76 14.64 5.295 2.952 9.308-.83 14.64 1.22 4.209 1.622 8.87 6.734 10.98 21.96z" fill="#eedcff"/><path d="M365.513 95.341c-3.14-.877-4.909-2.202-6.02-1.33-.795.624-.707 1.942-.686 2.263.227 3.404 4.9 7.492 9.154 6.48 3.343-.796 5.841-4.602 5.067-6.123-.619-1.218-2.824.021-7.515-1.29zm-10.108-19.953c.065.896-.558 1.596-.963 2.066-2.136 2.445-5.122 1.385-10.135 1.91-.945.097-1.961.248-3.056.492-4.267.954-6.518 2.545-8.124 1.243-1.095-.888-1.098-2.499-1.093-2.652.053-3.642 5.767-7.215 11.002-7.818a16.653 16.653 0 0 1 3.19-.047c4.673.371 9.026 2.546 9.179 4.806z" fill="#fff"/><path d="M355.405 75.388c.065.896-.558 1.596-.963 2.066-2.136 2.445-5.122 1.385-10.135 1.91-1.142-2.232-1.081-5.569.796-7.772a5.422 5.422 0 0 1 1.124-1.01c4.672.371 9.025 2.546 9.178 4.806z" fill="#1d0333"/><path d="M384.714 70.1c.052.707-.451 1.261-.778 1.633-1.724 1.932-4.133 1.096-8.177 1.514-.763.077-1.582.197-2.465.39-3.443.755-5.259 2.014-6.554.986-.883-.701-.885-1.973-.88-2.094.044-2.877 4.656-5.703 8.879-6.181a13.735 13.735 0 0 1 2.574-.039c3.767.29 7.278 2.006 7.401 3.791z" fill="#fff"/><path d="M384.714 70.1c.052.707-.451 1.261-.778 1.633-1.724 1.932-4.133 1.096-8.177 1.514-.92-1.763-.869-4.399.646-6.14.279-.322.584-.588.908-.798 3.767.29 7.278 2.006 7.401 3.791zm-21.116.723c2.563 3.27 5.466 6.23 8.609 8.942.783.69 1.581 1.355 2.368 2.13.384.412.805.792 1.114 1.53.083.167.113.426.135.655-.018.246-.047.511-.157.734-.212.464-.566.741-.868.926-.62.36-1.195.496-1.759.617-.563.117-1.111.175-1.657.224a34.641 34.641 0 0 1-3.228.085 1 1 0 1 1 .027-2l.042.001h.01a32.9 32.9 0 0 0 3.036.062c.968-.034 2.032-.148 2.662-.463a.651.651 0 0 0 .222-.165c.001-.021.035-.005-.009-.131-.07-.241-.383-.646-.702-.995-.668-.723-1.442-1.438-2.194-2.163-3.054-2.89-5.886-6.058-8.323-9.485a.42.42 0 0 1 .672-.504zm13.898-17.684a2.345 2.345 0 0 0-.591-.336c-.939-.394-.974-.104-5.659.151-3.154.174-5.032.151-6.76 1.322-.359.244-.8.591-1.102 1.16-.603 1.125-.649 2.841.093 3.397 1.055.788 2.737-1.484 6.725-2.447 2.76-.673 5.23-.371 6.795-.186.696.081 1.357.197 1.96.313zm-27.598 8.27c-.602 1.782-4.22.49-10.126 2.544-1.467.51-6.816 2.371-11.134 7.104-1.672 1.832-2.852 3.726-3.303 3.49-.598-.314.8-4.011 1.008-4.559 1.072-2.836 1.682-4.448 3.24-5.754 1.395-1.168 1.847-.664 5.598-2.42 1.842-.862 1.735-.985 4.466-2.389 5.285-2.717 6.278-2.563 6.73-2.451 2.103.52 4.016 2.969 3.521 4.435z" fill="#1d0333"/><ellipse cx="342.863" cy="90.009" fill="#f99282" rx="9.626" ry="6.229" transform="matrix(.9996 -.0275 .0275 .9996 -2.3452 9.4613)"/><path d="M388.629 89.2c-4.476-.411-7.918-2.843-8.001-5.898-.059-2.538 2.221-4.782 5.569-5.827 1.234 4.206 2.092 8.071 2.432 11.725z" fill="#f99282"/><path d="M588.352 111.263c-5.068 10.411-10.53 25.797-10.574 44.644-.074 32.241 15.756 55.081 22.152 61.136a61.692 61.692 0 0 0 3.507 3.047c3.813 3.049 10.022 7.19 18.399 9.652 14.859 4.369 37.598 3.79 50.02-10.98 9.809-11.663 8.791-26.938 8.54-30.5-2.225-31.563-39.595-60.712-92.044-76.999z" fill="#1d0333"/><path d="M448.546 308.636a223.638 223.638 0 0 1-2.35-16.448 225.647 225.647 0 0 1 0-46.994 54.136 54.136 0 0 1 10.877-9.362c6.748-4.392 12.802-6.146 16.144-7.086 11.537-3.245 40.827-7.598 79.889-10.574 8.497 16.703 36.337 18.936 45.819-4.699 23.883-2.593 43.456-3.556 57.44-3.932 15.495-.417 19.724.003 24.799 1.582 9.42 2.931 15.834 8.013 38.77 30.546 6.074 5.968 13.654 13.5 22.322 22.322-41.051-18.851-72.376-19.046-93.987-15.273-64.292 11.225-110.299 69.39-136.282 52.868-9.843-6.259-8.985-18.606-19.972-21.147-14.62-3.38-31.068 12.685-43.469 28.197z" fill="#FEF4A6"/><path d="M574.399 232.615c-11.194 0-21.446-7.278-25.481-18.391a1 1 0 1 1 1.881-.681c4.021 11.076 14.681 18.043 25.907 16.961 9.463-.918 17.71-7.572 21.009-16.952a1 1 0 1 1 1.886.664c-3.557 10.11-12.468 17.285-22.702 18.278-.837.081-1.672.121-2.5.121z" fill="#1d0333"/><path d="M709.361 412.022H515.336c-1.012-57.884-25.992-95.393-20.971-151.555 85.055-37.308 133.376-27.714 165.653-11.748a7380.35 7380.35 0 0 1 49.343 163.303z" fill="#FEF4A6"/><path d="M455.595 330.783a.998.998 0 0 1-.938-.656 181.026 181.026 0 0 1-3.827-11.59 169.788 169.788 0 0 1-4.444-19.237 160.241 160.241 0 0 1-1.182-8.168c-1.129-9.589-1.31-18.557-1.369-21.503-.13-6.028.046-10.122.217-14.081.172-3.996.334-7.77.194-13.335a339.218 339.218 0 0 0-1.534-24.669 1 1 0 0 1 .896-1.094 1.01 1.01 0 0 1 1.094.896 341.543 341.543 0 0 1 1.544 24.815c.141 5.634-.023 9.44-.196 13.472-.169 3.927-.344 7.988-.215 13.953.059 2.924.238 11.818 1.355 21.31.329 2.762.711 5.4 1.167 8.066a167.898 167.898 0 0 0 4.393 19.014 180.168 180.168 0 0 0 3.784 11.463.998.998 0 0 1-.939 1.344z" fill="#1d0333"/><path d="M237.734 347.764c-1.137-15.124 10.078-30.321 15.322-29.247 2.359.483 3.745 4.31 4.126 6.411.588 3.236-.599 5.722-2.295 9.772-2.503 5.978-4.322 11.083-4.909 12.849-3.61 10.864-1.199 17.68-3.119 18.129-2.431.57-8.394-8.195-9.125-17.914z" fill="#e2957a"/><path d="M246.623 366.705c-.604 0-1.257-.256-1.951-.765-2.917-2.14-7.297-9.621-7.935-18.102-.848-11.267 4.88-22.792 10.699-27.916 2.155-1.898 4.164-2.728 5.82-2.386 2.951.604 4.475 4.818 4.91 7.213.602 3.312-.5 5.928-2.024 9.547l-.331.789c-2.431 5.803-4.258 10.896-4.884 12.779-2.015 6.062-2.108 10.796-2.171 13.928-.054 2.704-.089 4.49-1.669 4.859-.15.037-.305.054-.464.054zm5.881-47.243c-.971 0-2.309.696-3.746 1.962-4.674 4.115-10.875 14.985-10.026 26.265.571 7.594 4.412 14.473 6.966 16.519.414.331.698.452.843.486.168-.445.194-1.765.218-2.94.064-3.253.162-8.169 2.271-14.519.636-1.908 2.484-7.063 4.937-12.921l.334-.793c1.493-3.546 2.395-5.687 1.898-8.413-.386-2.125-1.678-5.27-3.343-5.611a1.73 1.73 0 0 0-.352-.035z" fill="#1d0333"/><path d="M238.812 366.716c-4.013-2.97.102-17.439 8.52-26.304 2.053-2.162 7.455-7.85 12.217-6.312 1.91.617 3.502 2.327 4.096 4.21.833 2.643-.498 4.998-3.46 9.922-8.061 13.401-9.411 14.591-11.016 15.634-1.459.949-7.563 4.917-10.357 2.85z" fill="#e2957a"/><path d="M240.834 368.305c-1.036 0-1.909-.262-2.616-.785-1.098-.812-1.74-2.21-1.91-4.155-.492-5.636 3.306-16.276 10.299-23.641 2.158-2.271 7.889-8.312 13.25-6.575 2.171.701 4.033 2.609 4.743 4.861.998 3.166-.717 6.017-3.558 10.738-8.094 13.456-9.514 14.778-11.327 15.957-3.687 2.397-6.658 3.599-8.881 3.6zm17.019-33.467c-3.847 0-8.084 4.461-9.796 6.263-6.401 6.741-10.213 16.864-9.757 22.09.116 1.33.499 2.271 1.107 2.722.676.498 2.916 1.213 9.218-2.885 1.526-.991 3.008-2.517 10.704-15.311 2.836-4.715 4.061-6.893 3.362-9.105-.513-1.629-1.899-3.06-3.45-3.561a4.502 4.502 0 0 0-1.388-.213z" fill="#1d0333"/><path d="M239.676 373.423c-1.144-6.924 6.647-12.969 9.003-14.796 4.862-3.772 13.425-8.093 16.918-5.168 1.341 1.123 1.574 3.013 1.616 3.345.382 3.096-1.946 5.737-3.76 7.592-2.154 2.202-16.401 16.766-21.916 12.879-1.385-.977-1.676-2.732-1.861-3.852z" fill="#e2957a"/><path d="M243.742 378.914c-1.037 0-1.977-.255-2.782-.822-1.726-1.217-2.066-3.273-2.271-4.503v-.003c-.823-4.983 2.331-10.282 9.374-15.748 5.078-3.938 14.106-8.554 18.175-5.146 1.424 1.191 1.843 3.007 1.966 3.982.471 3.812-2.574 6.925-4.037 8.421-5.4 5.522-14.5 13.819-20.425 13.819zm-3.08-5.654.001.003c.172 1.038.407 2.46 1.449 3.194 2.979 2.097 10.878-2.794 20.625-12.761 1.991-2.036 3.792-4.267 3.483-6.771-.147-1.167-.608-2.15-1.266-2.701-2.665-2.23-10.206.959-15.663 5.191-6.42 4.985-9.322 9.641-8.629 13.845z" fill="#1d0333"/><path d="M243.05 378.443c1.293-7.436 7.664-10.74 8.9-11.381 1.719-.892 6.062-3.143 9.322-1.201.171.102 2.893 1.776 2.931 4.361.082 5.598-12.562 6.678-17.26 17.265a18.498 18.498 0 0 0-.996 2.856c-.64-.868-3.994-5.59-2.897-11.9z" fill="#e2957a"/><path d="M245.947 391.342c-.313 0-.613-.147-.805-.406-1.002-1.356-4.188-6.281-3.078-12.664v-.001c.889-5.105 4.234-9.4 9.422-12.095 1.797-.933 6.56-3.4 10.298-1.174.345.205 3.373 2.094 3.419 5.205.046 3.151-2.965 4.982-6.452 7.103-3.781 2.299-8.488 5.16-10.895 10.582a17.48 17.48 0 0 0-.941 2.7.996.996 0 0 1-.968.75zm-1.912-12.728c-.694 3.996.535 7.349 1.617 9.377.118-.307.243-.61.376-.909 2.661-5.994 7.664-9.036 11.684-11.48 3.085-1.875 5.521-3.356 5.491-5.364-.03-2.059-2.417-3.501-2.441-3.516-2.784-1.658-6.829.438-8.351 1.229-2.678 1.389-7.325 4.623-8.376 10.663zm603.957 34.409H267.254a1 1 0 1 1 0-2h580.738a1 1 0 1 1 0 2zm-346.578-79.89a1 1 0 0 1-.947-.679 141.948 141.948 0 0 1-7.099-34.312 141.553 141.553 0 0 1 0-22.481c.044-.55.526-.955 1.076-.918a1 1 0 0 1 .918 1.076 139.449 139.449 0 0 0 0 22.163 139.857 139.857 0 0 0 6.999 33.829 1.002 1.002 0 0 1-.947 1.322z" fill="#1d0333"/><path d="M494.365 298.063a229.57 229.57 0 0 0-34.07 15.273 228.93 228.93 0 0 0-8.506 4.923 167.685 167.685 0 0 1-4.417-19.126 27.78 27.78 0 0 1 5.874-1.069c5.816-.416 8.46 1.272 12.923 0 1.96-.559 3.237-1.394 4.699-2.35 8.083-5.284 7.888-12.235 14.098-15.273 3.448-1.686 7-1.538 9.399-1.175a72.92 72.92 0 0 0 0 18.797z" fill="#1d0333"/><path d="M320.489 412.022c24.735 10.777 31.898 23.344 32.875 28.391.276 1.428.894 4.733-.921 6.431-1.647 1.541-4.619 1.357-7.54-.166 3.663 4.358-.465 12.646-8.052 10.746.056.408.685 5.552-2.682 8.058-1.747 1.3-3.77 1.294-4.544 1.242-5.66-.384-8.81-7.624-12.711-13.009-3.422-4.724-9.304-10.618-20.045-15.278 3.306 2.829 23.702 20.491 19.741 27.57-.584 1.043-1.514 1.529-1.962 1.757-6.663 3.376-14.426-10.541-31.099-17.752-13.475-5.828-19.051-1.342-33.057-9.281a59.997 59.997 0 0 1-11.469-8.465 44.38 44.38 0 0 0 7.451-15.544 44.33 44.33 0 0 0 1.175-15.273c35.477-3.13 59.925 4.947 72.84 10.573z" fill="#ffb5a6"/><path d="M337.576 458.341a1 1 0 0 1-.915-.595 59.063 59.063 0 0 0-5.999-10.479c-6.507-9.054-15.758-16.29-26.752-20.927a1.002 1.002 0 0 1 .778-1.844c11.333 4.78 20.877 12.251 27.6 21.604a61.057 61.057 0 0 1 6.202 10.836 1 1 0 0 1-.914 1.405zm8.328-9.993a1 1 0 0 1-.863-.493 68.646 68.646 0 0 0-10.562-13.688c-6.82-6.837-14.941-12.109-24.141-15.669a1 1 0 1 1 .723-1.865c9.46 3.661 17.815 9.086 24.834 16.122a70.573 70.573 0 0 1 10.871 14.086 1.002 1.002 0 0 1-.862 1.507zm-107.156-14.287a1 1 0 0 1-.867-1.497 68.55 68.55 0 0 0 6.016-13.848 68.487 68.487 0 0 0 3.003-18.061c.018-.552.49-.961 1.031-.969.552.018.985.479.969 1.031a70.553 70.553 0 0 1-3.091 18.588 70.614 70.614 0 0 1-6.191 14.252 1.003 1.003 0 0 1-.87.504z" fill="#1d0333"/><path d="M867.964 387.351c-2.138 14.744-14.58 24.131-19.972 28.196-38.006 28.655-197.549 33.812-210.132 34.164-.164 0-.305.011-.423.011a53.195 53.195 0 0 1-3.137-5.51c-.059-.129-.129-.258-.188-.388a54.283 54.283 0 0 1-1.586-3.654c-.012-.023-.012-.035-.023-.059a54.637 54.637 0 0 1-1.856-5.768c-2.902-11.29-1.245-20.865 0-25.846 3.29-2.761 8.388-6.485 15.273-9.399 12.054-5.099 21.417-4.253 30.546-4.699 17.364-.846 18.762-5.616 49.343-14.098 8.917-2.467 21.641-5.628 37.536-8.283 1.574-.258 3.184-.517 4.829-.775.752-.118 1.516-.223 2.279-.341l-.047-.047a3375.2 3375.2 0 0 1-22.428-21.159c-13.217-12.547-24.307-23.285-33.918-32.837-5.275-5.24-14.204-14.204-28.196-23.497a167.873 167.873 0 0 0-24.354-13.428c-4.664-14.063-12.606-37.384-23.814-69.985 13.475-2.89 24.413-2.115 31.286-1.069a75.312 75.312 0 0 1 14.533 1.069c27.456 4.723 45.032 23.638 52.868 31.721 43.457 44.773 90.134 68.2 121.185 113.795.67.963 1.316 1.939 1.962 2.926 3.782 5.792 10.244 16.424 8.434 28.96z" fill="#FEF4A6"/><path d="M665.892 262.818c12.87-2.881 18.447-.475 21.147 2.35 4.467 4.674.909 10.34 5.874 17.623 4.819 7.067 9.777 4.09 16.448 11.748 2.255 2.589 4.667 8.419 9.399 19.972 2.017 4.924 3.626 9 4.699 11.748-22.389-20.633-29.371-25.846-29.371-25.846-5.247-3.918-12.683-8.992-22.322-14.098l-5.874-23.497z" fill="#1d0333"/><path d="M681.165 319.035a1 1 0 0 1-.959-.718L662.583 258.4a.999.999 0 0 1 .677-1.241.995.995 0 0 1 1.241.677l17.623 59.917a.998.998 0 0 1-.959 1.282z" fill="#1d0333"/><path d="M634.342 199.154c-15.048-1.895-30.789 8.543-29.979 13.834.364 2.38 4.116 3.956 6.196 4.443 3.202.75 5.744-.311 9.875-1.801 6.097-2.2 11.286-3.76 13.08-4.258 11.031-3.06 17.718-.31 18.263-2.204.69-2.4-7.765-8.796-17.435-10.014z" fill="#ffb5a6"/><path d="M612.651 218.677c-.753 0-1.518-.084-2.319-.271-2.37-.555-6.502-2.289-6.956-5.266-.255-1.666.67-3.635 2.675-5.693 5.407-5.556 17.203-10.7 28.418-9.284 8.437 1.062 15.688 5.813 17.68 8.835.598.907.796 1.73.59 2.448-.447 1.559-2.234 1.502-4.937 1.423-3.13-.098-7.863-.238-14.02 1.469-1.897.525-7.057 2.087-13.008 4.234l-.807.292c-2.788 1.013-4.992 1.813-7.316 1.813zm17.982-18.752c-9.945 0-19.27 4.932-23.15 8.917-1.506 1.546-2.282 3.002-2.131 3.995.257 1.68 3.333 3.129 5.436 3.621 2.7.631 4.881-.16 8.497-1.474l.81-.294c6.009-2.169 11.231-3.749 13.153-4.281 6.448-1.788 11.367-1.642 14.614-1.54 1.177.034 2.494.075 2.947-.07-.027-.145-.134-.436-.444-.866-1.917-2.653-8.594-6.835-16.146-7.786a28.507 28.507 0 0 0-3.586-.222z" fill="#1d0333"/><path d="M653.216 201.183c-2.765-4.157-17.422-.774-26.698 7.188-2.262 1.942-8.215 7.052-6.918 11.884.52 1.938 2.148 3.615 3.999 4.302 2.598.965 5.016-.246 10.083-2.957 13.789-7.378 15.045-8.666 16.167-10.217 1.022-1.409 5.292-7.306 3.367-10.2z" fill="#ffb5a6"/><path d="M625.38 225.881a6.03 6.03 0 0 1-2.129-.386c-2.213-.822-4.025-2.776-4.617-4.979-1.46-5.441 4.855-10.862 7.232-12.903 7.704-6.614 18.507-9.88 24.128-9.1 1.935.268 3.298.979 4.055 2.116 1.532 2.305.393 6.12-3.389 11.342-1.269 1.752-2.66 3.104-16.506 10.512-3.749 2.006-6.351 3.398-8.774 3.398zm22.808-25.484c-5.504 0-14.604 3.228-21.019 8.733-2.116 1.816-7.737 6.642-6.604 10.867.423 1.572 1.782 3.029 3.382 3.623 2.175.811 4.413-.307 9.264-2.901 14.113-7.552 14.909-8.649 15.83-9.922 4.407-6.086 3.806-8.363 3.342-9.061-.419-.63-1.34-1.06-2.663-1.242a11.252 11.252 0 0 0-1.532-.097z" fill="#1d0333"/><path d="M659.871 202.383c-6.858-1.49-13.286 5.988-15.23 8.248-4.012 4.667-8.757 13.002-6.011 16.637 1.054 1.396 2.93 1.724 3.26 1.782 3.073.537 5.827-1.655 7.771-3.374 2.307-2.041 17.569-15.538 13.963-21.242-.905-1.432-2.644-1.81-3.753-2.051z" fill="#ffb5a6"/><path d="M642.838 230.132a6.51 6.51 0 0 1-1.119-.097c-.975-.173-2.767-.682-3.887-2.165-3.201-4.237 1.865-13.021 6.051-17.892 5.815-6.763 11.267-9.644 16.201-8.573 1.218.266 3.256.708 4.385 2.494 3.533 5.589-7.346 16.512-14.145 22.525-1.41 1.248-4.191 3.708-7.486 3.708zm15.205-26.944c-3.774 0-8.018 2.715-12.643 8.095-4.504 5.239-8.067 12.609-5.973 15.383.518.685 1.478 1.194 2.633 1.399 2.496.438 4.807-1.251 6.938-3.138 10.443-9.237 15.723-16.885 13.779-19.959-.681-1.077-2.091-1.384-3.12-1.607l.213-.978-.213.978a7.492 7.492 0 0 0-1.614-.173z" fill="#1d0333"/><path d="M664.715 206.005c-7.492.918-11.111 7.115-11.813 8.317-.977 1.672-3.444 5.897-1.668 9.25.093.176 1.629 2.979 4.208 3.146 5.587.363 7.3-12.21 18.11-16.371a18.43 18.43 0 0 1 2.902-.851c-.834-.684-5.381-4.27-11.739-3.491z" fill="#ffb5a6"/><path d="M655.688 227.726c-.103 0-.205-.003-.31-.01-3.107-.202-4.841-3.322-5.028-3.678-2.037-3.847.67-8.478 1.689-10.221 2.948-5.047 7.406-8.174 12.554-8.805 6.441-.791 11.19 2.64 12.495 3.709a.998.998 0 0 1-.433 1.753c-.93.191-1.854.462-2.744.806-5.536 2.13-8.63 6.687-11.116 10.349-2.216 3.264-4.14 6.097-7.107 6.097zm10.815-20.83c-.539 0-1.095.032-1.666.102-6.09.747-9.55 5.226-11.071 7.829-.865 1.481-3.165 5.413-1.647 8.277.014.025 1.333 2.482 3.39 2.616 2.04.146 3.605-2.229 5.633-5.215 2.643-3.892 5.932-8.736 12.052-11.092.307-.117.616-.228.928-.33-1.692-1.015-4.352-2.187-7.619-2.187zm-1.788-.891h.01zm98.63 166.014c1.574-.258 3.184-.517 4.829-.775-1.586.282-3.184.564-4.77.834l-.059-.059z" fill="#1d0333"/><path d="M790.425 367.379c-6.673 1.163-13.346 2.326-20.019 3.477a3375.2 3375.2 0 0 1-22.428-21.159c2.972 1.034 7.225 2.432 13.076 3.583 9.375 1.833 12.265.952 17.623 3.525 5.78 2.772 9.492 7.19 11.748 10.574zm77.539 19.972c-2.138 14.744-14.58 24.131-19.972 28.196-38.006 28.655-197.549 33.812-210.132 34.164a35.824 35.824 0 0 1-3.56-5.498c-.059-.129-.129-.258-.188-.388a33.198 33.198 0 0 1-1.116-2.432 26.955 26.955 0 0 1-.47-1.222c-.012-.023-.012-.035-.023-.059a34.584 34.584 0 0 1-1.856-8.118c7.405 4.621 13.705 6.314 17.623 7.049 23.519 4.412 43.048-10.378 69.316-12.923 7.666-.743 13.351-.575 13.351-.575 11.223.405 16.27 3.117 33.642.575 0 0 4.034-.597 7.965-1.52 14.47-3.397 26.355-14.842 43.728-20.802 16.585-5.689 21.453-.645 30.546-8.224 8.658-7.217 11.22-17.605 11.748-19.972 2.06-9.222.097-16.78-.999-20.137.67.963 1.316 1.939 1.962 2.926 3.783 5.792 10.245 16.424 8.435 28.96z" fill="#E6D796"/><path d="M532.122 384.069c-2.065-2.603-8.7-10.253-19.689-12.032-3.036-.491-13.476-2.181-19.689 4.375-3.914 4.131-4.419 9.707-4.375 12.032.233 12.342 17.665 24.745 42.659 31.721l1.094-9.844c-4.916-1.886-34.329-13.382-32.815-22.97.386-2.444 2.653-3.956 3.281-4.375 6.632-4.424 19.285.111 31.721 10.938l-2.187-9.845z" fill="#fff"/><path d="M531.029 421.165a.986.986 0 0 1-.269-.037c-26.122-7.29-43.154-20.111-43.391-32.665-.034-1.801.201-8.044 4.649-12.738 4.362-4.604 11.281-6.18 20.573-4.675 10.461 1.693 17.217 8.495 20.313 12.398a.99.99 0 0 1 .193.404l2.188 9.844a.999.999 0 0 1-1.633.971c-12.14-10.569-24.401-14.936-30.51-10.859-1.68 1.12-2.638 2.365-2.849 3.699-1.048 6.635 16.684 15.934 32.186 21.88a1 1 0 0 1 .636 1.044l-1.094 9.845a.999.999 0 0 1-.992.889zm-24.825-48.667c-5.563 0-9.832 1.539-12.734 4.602-4.026 4.25-4.122 10.181-4.101 11.326.213 11.294 16.556 23.46 40.796 30.455l.878-7.905c-10.905-4.234-34.199-14.436-32.723-23.781.301-1.908 1.551-3.607 3.714-5.051 6.568-4.382 18.417-.803 30.659 9.106l-1.497-6.737c-2.979-3.702-9.286-9.928-18.924-11.488-2.167-.351-4.192-.527-6.068-.527z" fill="#1d0333"/><path d="M561.108 450.792c-20.237 0-36.643-4.897-36.643-10.938v-73.286h73.286v73.286c0 5.97-16.026 10.82-35.936 10.933-.054.001-.106.005-.16.005" fill="#fff"/><path d="M561.109 451.792c-24.45 0-37.644-6.151-37.644-11.938v-73.285a1 1 0 0 1 1-1h73.286a1 1 0 0 1 1 1v73.285c0 7.615-19.027 11.832-36.931 11.933l-.146.006a1.112 1.112 0 0 1-.292-.038 1.028 1.028 0 0 1-.273.037zm-35.644-84.223v72.285c0 4.701 14.639 9.938 35.644 9.938.095 0 .187.014.273.038a1.02 1.02 0 0 1 .255-.038l.159-.006c20.914-.118 34.955-5.231 34.955-9.933v-72.285h-71.286z" fill="#1d0333"/><ellipse cx="561.108" cy="366.568" fill="#fff" rx="36.643" ry="10.938"/><path d="M561.109 378.506c-24.45 0-37.644-6.15-37.644-11.938s13.193-11.938 37.644-11.938 37.643 6.151 37.643 11.938-13.193 11.938-37.643 11.938zm0-21.876c-21.005 0-35.644 5.237-35.644 9.938 0 4.7 14.639 9.938 35.644 9.938s35.643-5.237 35.643-9.938c-.001-4.701-14.639-9.938-35.643-9.938z" fill="#1d0333"/><path d="M629.952 409.53c-3.02-2.016-7.319-5.29-11.466-10.192-13.609-16.087-13.249-35.129-19.56-35.484-2.805-.157-5.103 3.479-5.874 4.699-6.824 10.799 6.361 23.459 1.227 32.058-4.544 7.611-21.471 8.771-33.125 3.822-12.229-5.193-17.684-16.307-22.933-14.015-3.422 1.495-3.809 7.4-3.822 7.644-.325 6.028 4.62 9.838 5.096 10.192-.976.439-3.981 1.941-5.096 5.096-1.486 4.205.939 9.779 6.37 12.741-.882.557-3.364 2.291-3.822 5.096-.639 3.909 2.852 8.676 8.918 10.192-.114 1.525-.073 4.013 1.274 6.37 3.048 5.332 10.597 6.167 14.193 6.565 18.712 2.071 68.696-7.427 72.84-8.224a61.87 61.87 0 0 1-4.699-16.448 61.953 61.953 0 0 1 .479-20.112z" fill="#e2957a"/><path d="M539.494 408.256a42.934 42.934 0 0 0 8.918 6.37c7.61 4.075 14.796 4.941 19.111 5.096" fill="#e2957a"/><path d="m567.525 420.723-.037-.001c-6.978-.251-13.555-2.005-19.547-5.214a44.003 44.003 0 0 1-9.126-6.519 1 1 0 0 1 1.359-1.467 42.014 42.014 0 0 0 8.711 6.222c5.721 3.063 12.004 4.739 18.675 4.979a1 1 0 0 1-.035 2z" fill="#1d0333"/><path d="M539.494 426.093a48.475 48.475 0 0 0 8.914 4.727c6.963 2.806 13.276 3.459 17.623 3.525" fill="#e2957a"/><path d="M566.03 435.344h-.015c-6.244-.094-12.294-1.305-17.982-3.597a49.584 49.584 0 0 1-9.097-4.824 1 1 0 0 1 1.116-1.66 47.56 47.56 0 0 0 8.729 4.629c5.459 2.2 11.267 3.362 17.264 3.452a1 1 0 0 1-.015 2z" fill="#1d0333"/><path d="M546.058 442.568a66.027 66.027 0 0 0 23.497 2.35" fill="#e2957a"/><path d="M564.264 446.129a66.888 66.888 0 0 1-18.481-2.6.999.999 0 0 1-.686-1.236.995.995 0 0 1 1.236-.686 65.28 65.28 0 0 0 12.729 2.313c3.446.276 6.951.278 10.413 0 .556-.03 1.033.367 1.077.917a1 1 0 0 1-.917 1.077 66.816 66.816 0 0 1-5.371.215zm73.431 4.488a1 1 0 0 1-.762-.352c-6.947-8.162-10.564-33.89-7.214-42.144.061-.147.154-.279.275-.383 14.734-12.643 27.329-13.354 41.913-14.18 3.095-.175 6.295-.355 9.602-.661 9.081-.888 21.851-5.267 34.2-9.501 11.101-3.806 21.586-7.4 29.871-8.776.938-.229 6.475-1.184 19.088-3.345 10.805-1.852 23.051-3.95 27.918-4.881a1 1 0 1 1 .375 1.965c-4.885.934-17.142 3.034-27.955 4.887-8.979 1.539-18.265 3.13-18.936 3.312a1.332 1.332 0 0 1-.125.029c-8.127 1.344-19.037 5.085-29.587 8.702-12.459 4.271-25.341 8.688-34.66 9.6-3.348.31-6.565.491-9.678.667-14.158.801-26.395 1.493-40.534 13.538-2.955 7.9.568 32.354 6.97 39.874a1.002 1.002 0 0 1-.761 1.649z" fill="#1d0333"/></svg></g></svg>