<svg xmlns="http://www.w3.org/2000/svg" viewBox="0 0 1200 800" width="1200" height="800"><g transform="translate(325.0 47.0) rotate(0.0 317.0 224.5) scale(1.0 1.0)"><svg width="634" height="449" viewBox="0 0 634 449"><path d="M11 10h610v430H11z" fill="#fff"/><path d="M621 441H11a1 1 0 0 1-1-1V10a1 1 0 0 1 1-1h610a1 1 0 0 1 1 1v430a1 1 0 0 1-1 1zm-609-2h608V11H12z" fill="#1d0333"/><path d="M1 1h632v19H1z" fill="#1d0333"/><path d="M633 21H1a1 1 0 0 1-1-1V1a1 1 0 0 1 1-1h632a1 1 0 0 1 1 1v19a1 1 0 0 1-1 1zM2 19h630V2H2zM1 429h632v19H1z" fill="#1d0333"/><path d="M633 449H1a1 1 0 0 1-1-1v-19a1 1 0 0 1 1-1h632a1 1 0 0 1 1 1v19a1 1 0 0 1-1 1zM2 447h630v-17H2z" fill="#1d0333"/><path d="M506 112.027v262.325H126V335.32c21.079-23.887 43.019-70.716 103.066-70.716 68.922 0 71.664-88.752 119.198-88.752 77.076 0 79.764-76.346 157.736-63.825z" fill="#eedcff"/><g fill="#1d0333"><path d="M126 375.352a1 1 0 0 1-1-1V75.648a1 1 0 1 1 2 0v298.704a1 1 0 0 1-1 1zm95 0a1 1 0 0 1-1-1V75.648a1 1 0 1 1 2 0v298.704a1 1 0 0 1-1 1zm95 0a1 1 0 0 1-1-1V75.648a1 1 0 1 1 2 0v298.704a1 1 0 0 1-1 1zm95 0a1 1 0 0 1-1-1V75.648a1 1 0 1 1 2 0v298.704a1 1 0 0 1-1 1zm95 0a1 1 0 0 1-1-1V75.648a1 1 0 1 1 2 0v298.704a1 1 0 0 1-1 1z"/><path d="M142.443 272.376a3 3 0 0 1-2.105-5.138c15.928-15.689 33.962-15.794 51.401-15.895 19.14-.11 38.931-.225 58.152-20.306 3.316-3.465 7.147-7.693 11.204-12.17 23.229-25.638 58.334-64.381 97.213-72.671 43.405-9.255 89.455-52.259 89.915-52.692a3 3 0 0 1 4.114 4.367c-.482.454-11.999 11.26-29.216 23.41-23.215 16.383-44.6 26.74-63.562 30.782-36.984 7.887-71.306 45.767-94.018 70.832-4.085 4.509-7.943 8.767-11.316 12.29-20.979 21.918-43.012 22.045-62.452 22.157-16.988.099-33.034.191-47.225 14.17a2.987 2.987 0 0 1-2.105.864z"/><path d="M453.147 112.979a3.001 3.001 0 0 1-2.979-3.385l1.996-15.407-15.787 1.806c-1.647.202-3.133-.993-3.321-2.64a3 3 0 0 1 2.64-3.321l19.596-2.241a3.002 3.002 0 0 1 3.316 3.366l-2.488 19.209a3.003 3.003 0 0 1-2.973 2.613z"/></g></svg></g><g transform="translate(57.0 104.0) rotate(0.0 362.0 316.0) scale(0.9979503423217784 0.999533445622692)"><svg width="725.487" height="632.295" viewBox="0 0 725.487 632.295"><path d="M353.39 444.295c-7.1 3.061-17.461.618-20.508-6.45s.239-15.279 7.339-18.34 15.326.187 18.373 7.255c3.047 7.069 1.896 14.474-5.204 17.535zm-169.615-4.462c6.543 9.576 11.455 16.789 4.615 21.462-6.84 4.674-21.865 4.291-29.385-4.538-10.615-12.462-6.302-21.128.538-25.801s17.689-.699 24.232 8.877z" fill="#1d0333"/><path d="M376.67 632.295h-86.19c-2.43-11.14-4.69-22.31-6.91-33.49-1.3-6.52-2.54-13.05-3.76-19.59-2.3-12.33-4.48-24.68-6.67-37.03-1.53-8.7-3.04-17.42-4.52-26.13-.67.11-1.33.23-2 .35-4.48.79-9.01 1.66-13.37 2.62-.82 9.72-1.66 19.44-2.56 29.16-1.66 17.98-3.32 35.95-5.39 53.9-1.15 10.08-2.35 20.15-3.69 30.21h-86.02c.12-12.27.48-24.54.89-36.79.6-18.05 1.61-36.08 2.61-54.1 1.01-18.03 2.16-36.04 3.41-54.05 1.07-14.81 2.18-29.62 3.5-44.42.28-3.18.58-6.37.88-9.55l89.59 6.64c-.56-3.82-1.11-7.65-1.64-11.47l91.12-14.52c1.07 5.95 2.11 11.91 3.12 17.88 2.2 12.95 4.27 25.92 6.31 38.9 2.94 18.95 5.77 37.93 8.47 56.92 2.69 19 5.39 38 7.68 57.06 1.92 15.8 3.73 31.62 5.14 47.5z" fill="#759ef2"/><path d="M349.07 431.915c-8.68-7.62-19.68 9.38-34.68 11.38-12.924 1.723-13.192 21.362-25 19-15-3-36 4-49 9s-36 0-43-12c-6.69-11.47-22-8-31.39-16.36.28-3.18.58-6.37.88-9.55l89.59 6.64c-.56-3.82-1.11-7.65-1.64-11.47l91.12-14.52c1.07 5.95 2.11 11.91 3.12 17.88z" fill="#1d0333"/><path d="M620.39 263.295c8-4 43-11 52-15s35.469-16.402 42-22c7-6 5-17-9-11s-23 12-40 15-52 13-56 23 11 10 11 10z" fill="#e2957a"/><path d="M594.39 244.295c4-12 16-27 35-28 10.529-.554 21.624-1.585 31-2 7.544-.334 13.816.222 19-2 14-6 37-21 40-11 7 0 10.648 10.485-4.176 20.742-14.824 10.258-86.824 27.258-88.824 28.258s-32-6-32-6z" fill="#e2957a"/><path d="M624.39 220.295c7.398-10.357 20.662-20.331 30-25 10-5 20.95-.055 12 8-10 9-16 13-14 18s-32 0-32 0" fill="#e2957a"/><path d="M252.39 163.295c-26 1-89 10-108 13 3 60 11 134 6 186-4.524 47.048-6 80 7 92-13-17 5-27 28-14s62 30 100 8 69-35 75-15c-1-46-7-135 0-179s9-72 9-72-66-13-101-16c-16.22-1.39-16-3-16-3z" fill="#5D4085"/><path d="M330.39 121.295c-18.01 16-49 1-61-13s-26-32-19-57 52.99-40 68.99-15c6.28 9.8 13.57 26.7 17.3 43.3.77 3.4 1.39 6.79 1.81 10.1 1.77 13.66-.68 25.01-8.1 31.6z" fill="#e2957a"/><path d="M298.39 123.295s-.23 1.13-.64 3.08c-.61 2.92-1.65 7.7-2.96 13.28-1.51 6.35-3.37 13.74-5.4 20.64-5 17-9.21 32.06-32 27-18-4-18-20-15-25s16-33 13-60c-2.82-25.34-6-33-5-32s41 25 41 25z" fill="#e2957a"/><path d="M341.39 30.295c-5 8-16 17-36 21s-38-8-38-8-.46 16.46-4 20c-6 6-29 9-34 0s-3-26 8-30c5-30 36.6-37.82 59-31 10.22 3.11 15.3 7.8 20 12.58 2.64 2.69 5.15 5.41 8.39 7.89 3.95 3.02 8.97 5.7 16.61 7.53z" fill="#1d0333"/><path d="M234.39 72.295c10 10 19.875 19.526 21.438 37.263 4.125-18.526-.177-36.756-4.307-41.51-4.131-4.753-17.131 4.247-17.131 4.247z" fill="#1d0333"/><path d="m208.077 257.498 110.853 36.519-45.684 138.67-110.853-36.518z" fill="#fff"/><path d="M273.218 433.69c-.104 0-.209-.016-.313-.05l-110.85-36.524a1.002 1.002 0 0 1-.637-1.263l45.69-138.667a.999.999 0 0 1 1.263-.638l110.85 36.525a1 1 0 0 1 .637 1.263l-45.69 138.666c-.139.421-.53.688-.95.688zm-109.587-38.162 108.951 35.898 45.064-136.767-108.951-35.899z" fill="#1d0333"/><path d="m244.636 261.118 41.792 13.768-4.381 13.297-41.791-13.768z" fill="#1d0333"/><path d="M282.026 289.188c-.104 0-.209-.016-.313-.05l-41.79-13.77a1 1 0 0 1-.637-1.263l4.381-13.297a.999.999 0 0 1 1.263-.638l41.79 13.771a1 1 0 0 1 .637 1.263l-4.381 13.296c-.139.421-.53.688-.95.688zm-40.528-15.407 39.89 13.144 3.755-11.396-39.89-13.145z" fill="#1d0333"/><path d="M258.39 65.295c-4-5-14-10-24-9-7.244.724-12 4-7 11s11 12 17 13c7.891 1.315 15.731 1.882 16-4s-2-11-2-11zm-62 315c9-7 35-16 48-17 10.168-.782 19-8 26-12s15 3 8 12-16 14-16 14 31 4 31 13c0 8-7 8-7 8s3.085 5.661 2 10c-1 4-7 6-7 6s2 3 1 7-6 4-6 4 1.123 3.096-2 7c-4 5-28 1-45-3s-39-11-41-20 8-29 8-29z" fill="#e2957a"/><path d="M181.39 254.295c-2.29 4.58-15.63 19.63-29.38 32.27-4.27 3.94-8.59 7.65-12.62 10.73-16.92 12.94-30.86 35.78-42.82 54.72-.04.061-.09.13-.13.2-.02.03-.03.05-.05.08-11.51 18.21-44.01 45.99-64.92 53.59-6.44 2.34-11.78 2.76-15.08.41C5.8 398.735.37 388.885.08 377.615v-.03c-.08-2.57.13-5.21.6-7.91v-.01c.19-1.11.43-2.24.71-3.37 4-16 17-51 45-83 15.43-17.63 26.36-40.72 56-79 24-31 51-29 69.76-32.08 0 0 12.24 76.08 9.24 82.08z" fill="#5D4085"/><path d="M211.31 393.875c-.41 8.17-2.44 14.29-5.23 18.91-.01 0-.01 0-.02.01-4.53 7.51-11.1 11.09-16.15 13.14-8.15 3.31-42.8 6.63-72.36 0-28.01-6.29-91.13 5.12-113.16-31.64-3.45-5.76-4.74-11.38-4.31-16.68v-.03c.17-2.05.59-4.05 1.25-5.99 6.34-18.83 34.42-32.08 61.19-29.66 15.34 1.38 24.42 6.34 33.92 10.28 6.23 2.59 12.64 4.75 21.11 5.19 12.26.63 36.69 1.11 61.15 6.63 24.46 5.53 33.63 9.95 32.61 29.84zm302.08 19.42c-23 6-44.72-8.65-66-36-10.88-13.99-18.35-26.44-26.76-36.56-6.72-8.11-14.06-14.73-24.24-19.44-10.42-4.82-26.93-20.87-40.03-38.64-7.23-9.8-13.42-20.12-16.97-29.36-10-26 1.2-76.41 13.1-74.2 16.91 3.13 48.9 2.2 68.9 35.2 6.3 10.39 12.4 20.29 18.39 29.5h.01l.27.42c.65 1 1.3 1.99 1.95 2.97.01.02.02.04.03.05 12.24 18.53 24.09 34.09 36.35 45.06 7.72 6.9 16.75 17.27 25.44 28.42-.01 0 0 .01 0 .01 12.69 16.31 24.62 34.29 30.56 45.57 10 19 2 41-21 47z" fill="#5D4085"/><path d="M502.39 325.295c7.603-15.205 28-31 37-39s18-26 27-35 22-19 40-10 21 20 19 34-5 36-19 49c-17.739 16.472-28 33-39 51s-33.51 31.695-51.755 37.347c-18.245 5.653-37.245-24.347-36.245-42.347s16-31 23-45z" fill="#5D4085"/><path d="M247.389 76.295a1.01 1.01 0 0 1-.447-.105c-2.29-1.146-3.583-3.157-3.294-5.127.148-1.008.953-3.308 5.141-4.438-2.094-2.785-6.492-5.025-13.156-3.359a.993.993 0 0 1-1.213-.728 1 1 0 0 1 .728-1.212c8.684-2.17 14.117 1.611 16.131 5.511a.998.998 0 0 1-.717 1.444c-2.882.503-4.727 1.651-4.935 3.072-.161 1.1.706 2.296 2.21 3.048a1 1 0 0 1-.448 1.894z" fill="#1d0333"/><path d="M302.39 77.295c-1.08 4.34-6 2-10 2-.29 0-.6.01-.91.03-3.94.24-9.16 1.82-10.09-.03-1-2 4-7 10-7 1.5 0 3 .06 4.39.22 4.17.47 7.36 1.78 6.61 4.78zm30-3c0 2-6 2-9 2-.68 0-1.31.06-1.89.15-3.66.56-5.38 2.44-7.11-.15-1.66-2.5 2.92-7 9-7 .71 0 1.46.1 2.21.27h.01c3.41.77 6.78 3.09 6.78 4.73z" fill="#fff"/><path d="M312.918 72.031c1.072 2.032 2.459 3.933 3.87 5.807 1.419 1.876 2.907 3.708 4.322 5.646.695.991 1.407 1.943 1.944 3.194.124.328.249.672.279 1.138.003.248-.021.521-.152.826a1.79 1.79 0 0 1-.547.667c-.411.299-.791.412-1.138.497-.35.082-.686.129-1.009.154-2.576.147-4.909-.25-7.312-.687a1 1 0 0 1 .358-1.968l.028.006.044.009c2.221.481 4.594.92 6.751.85.506-.018 1.077-.137 1.235-.259.065-.076-.011.093.023-.04-.002-.127-.058-.354-.139-.578-.364-.942-1.029-1.939-1.667-2.893-1.319-1.92-2.76-3.804-4.138-5.74-1.373-1.941-2.734-3.913-3.81-6.1a.592.592 0 0 1 1.052-.538zm-10.528 5.264c-1.08 4.34-6 2-10 2-.29 0-.6.01-.91.03a6.005 6.005 0 0 1 4.3-6.81c4.17.47 7.36 1.78 6.61 4.78zm30-3c0 2-6 2-9 2-.68 0-1.31.06-1.89.15a6.015 6.015 0 0 1 4.1-6.88h.01c3.41.77 6.78 3.09 6.78 4.73zm-57-5c-1-1 8-7 10-7h14c2 0 3 4 1 4s-8.798-1.24-15 0c-5 1-9 4-10 3zm38.033-8.128c1.179-.856 8.916-2.882 11.016-2.61 2.101.271 7.769 3.556 7.891 5.053s-3.023-1.399-8.403-1.085c-4.35.253-8.352 1.946-9.838 1.754-1.051-.137-1.845-2.256-.666-3.112z" fill="#1d0333"/><path d="M307.01 95.743c3.17 1.717 5.254 2.53 8.241 2.255s5.702 2.252 1.453 4.887c-3.8 2.358-8.154 1.383-10.141-1.076-2.266-2.804-1.519-7.131.447-6.066z" fill="#fff"/><ellipse cx="286.89" cy="90.795" fill="#bf7960" rx="10.5" ry="5.5"/><path d="M338.49 89.695c-4.98-.01-8.96-2.01-9.1-4.68-.13-2.43 2.98-4.65 7.29-5.42.77 3.4 1.39 6.79 1.81 10.1z" fill="#bf7960"/><path d="M297.75 126.375c-.61 2.92-1.65 7.7-2.96 13.28-4.29-.39-8.57-5.37-9.4-10.36-1-6-5-6-8-11s-2-11 2-6c3.32 4.15 10.78 10.37 18.36 14.08z" fill="#1d0333"/><path d="M324.78 22.765c-7.12 5.22-21.86 1.45-27.39.53-6-1-11 9-11 9l-18-5h15c4-7 9-11 18-10 7.16.8 11.15.33 15-2.42 2.64 2.69 5.15 5.41 8.39 7.89z" fill="#eedcff"/><path d="M262.395 189.413c-1.003 0-2.03-.04-3.082-.121-5.646-.435-10.404-2.747-13.76-6.688-3.931-4.615-5.763-11.147-5.16-18.392.046-.551.529-.974 1.08-.913a1 1 0 0 1 .914 1.079c-.559 6.71 1.106 12.722 4.689 16.93 3.003 3.526 7.288 5.598 12.391 5.99 14.189 1.094 23.258-5.389 26.957-19.261a.999.999 0 0 1 1.224-.708.998.998 0 0 1 .708 1.224c-3.653 13.698-12.599 20.86-25.961 20.86zM168.4 276.62a.989.989 0 0 1-.377-.074c-9.602-3.907-23.07-10.693-35.147-17.711a.998.998 0 0 1-.362-1.366.998.998 0 0 1 1.367-.362c12.002 6.974 25.374 13.713 34.896 17.588a1 1 0 0 1-.377 1.925z" fill="#1d0333"/><path d="M151.391 314.295a1 1 0 0 1-.999-1.071c.916-12.805.473-38.09 0-44.859a1 1 0 0 1 .928-1.067c.551-.015 1.029.378 1.067.929.476 6.811.922 32.254 0 45.141a.999.999 0 0 1-.996.927z" fill="#1d0333"/><path d="M206.06 412.795c-4.53 7.51-11.1 11.09-16.15 13.14-8.15 3.31-42.8 6.63-72.36 0-28.01-6.29-91.13 5.12-113.16-31.64-3.45-5.76-4.74-11.38-4.31-16.68v-.03c-.08-2.57.13-5.21.6-7.91.21.64.571 1.245.65 1.92 2.06 17.7 14.9 30.62 30.14 34.29.63.16 1.27.3 1.92.41 17 3 30 1 46 4s30 11 47 8 25 4 35 4 32.35 3 44.67-9.5z" fill="#3B1560"/><path d="M357.389 321.295a1 1 0 0 1-.998-.954c-.102-2.253-.215-4.495-.328-6.731-1.01-20.05-1.963-38.988 4.364-61.584a1 1 0 1 1 1.926.539c-6.239 22.281-5.293 41.062-4.292 60.944.113 2.24.226 4.485.328 6.74a1 1 0 0 1-.954 1.045l-.046.001zm268.539-51.869h-.027a1.001 1.001 0 0 1-.973-1.027c.172-6.354-2.133-12.082-6.85-17.026-7.874-8.253-20.574-12.194-29.04-12.363a1 1 0 0 1-.98-1.02c.011-.553.473-.948 1.02-.98 8.868.177 22.178 4.315 30.448 12.982 5.099 5.345 7.589 11.556 7.402 18.462a1.002 1.002 0 0 1-1 .972zM286.389 399.295a.994.994 0 0 1-.572-.181c-2.517-1.759-8.199-3.417-11.241-2.837a1 1 0 1 1-.373-1.965c3.649-.687 9.854 1.133 12.759 3.163a1 1 0 0 1-.573 1.82zm-5 16c-.191 0-.383-.055-.554-.168-2.739-1.826-6.449-2.832-10.445-2.832a1 1 0 1 1 0-2c4.387 0 8.49 1.125 11.555 3.168a1 1 0 0 1-.556 1.832zm-5 11a.99.99 0 0 1-.49-.129c-2.206-1.241-5.069-1.871-8.51-1.871a1 1 0 1 1 0-2c3.788 0 6.981.716 9.49 2.129a1 1 0 0 1-.49 1.871zM152.01 286.565c-4.27 3.94-8.59 7.65-12.62 10.73-16.92 12.94-30.86 35.78-42.82 54.72-.63-.21-1.18-.4-1.65-.5-3.47-.77-15.33-5.01-15.33-5.01s.8-4.21 7.8-7.21 17-9 20-26 21-24 29-31 9.63-17.33 9.63-17.33-.63-.67 3.37 1.76c3.36 2.04 2.87 15.57 2.62 19.84z" fill="#1d0333"/><path d="M420.63 340.735c-6.72-8.11-14.06-14.73-24.24-19.44-10.42-4.82-26.93-20.87-40.03-38.64-.08-5.17.1-16.93 3.64-26.49 5.39 12.13 1.39 20.13 14.39 22.13s20 15 21 22 17 17 22 23c2.37 2.85 3.17 10.19 3.24 17.44zm-268.816 89.723c-8.353 0-16.662-.566-24.134-1.646a.999.999 0 0 1-.847-1.132.994.994 0 0 1 1.133-.847c23.946 3.457 58.159 1.43 71.676-7.878 5.835-4.018 9.823-10.865 11.23-19.282 1.392-8.327-.129-16.982-3.875-22.05-7.062-9.553-36.162-17.318-67.691-18.062-26.68-.631-34.151-3.311-43.61-6.703-1.594-.571-3.243-1.163-5.053-1.768-12.339-4.12-26.326-8.789-42.385-8.032-.55.058-1.02-.399-1.046-.952a1 1 0 0 1 .952-1.046c16.435-.766 30.609 3.957 43.114 8.134 1.825.609 3.488 1.206 5.095 1.782 9.289 3.331 16.626 5.962 42.982 6.585 32.613.771 61.737 8.708 69.252 18.873 4.115 5.566 5.739 14.598 4.24 23.569-1.497 8.956-5.783 16.271-12.068 20.599-9.865 6.792-29.53 9.856-48.965 9.856z" fill="#1d0333"/><path d="m439.79 243.795.27.42c-.09-.14-.18-.28-.28-.42zm64.04 76.92c-.01 0 0 .01 0 .01-2.76 5.01-4.86 8.86-4.86 8.86s-14.58-5.29-15.58-9.29-6-16-16-16-10-12-12-21c-1.87-8.43-2.87-19.49-13.35-36.06 12.24 18.53 24.09 34.09 36.35 45.06 7.72 6.9 16.75 17.27 25.44 28.42z" fill="#3B1560"/><g fill="#1d0333"><path d="M495.787 336.982a1 1 0 0 1-.91-1.413c5.822-12.838 11.495-18.946 17.501-25.413 1.669-1.797 3.395-3.655 5.132-5.676a1 1 0 0 1 1.516 1.305c-1.762 2.049-3.501 3.921-5.183 5.732-5.892 6.344-11.458 12.336-17.145 24.878a.998.998 0 0 1-.911.587zm183.602-107.687a1 1 0 0 1-.07-1.997c7.016-.502 14.163-4.445 20.468-7.926 6.311-3.482 11.295-6.237 14.92-5.025 2.469.822 3.997 2.041 4.542 3.62.642 1.861-.388 3.449-.432 3.516a1 1 0 0 1-1.672-1.097c.032-.051.532-.875.207-1.786-.335-.938-1.468-1.753-3.277-2.356-2.792-.926-7.672 1.763-13.321 4.88-6.486 3.58-13.837 7.637-21.292 8.169l-.073.002zm-3-7a1 1 0 0 1-.225-1.973c.102-.024 10.271-2.42 17.712-6.884a342.78 342.78 0 0 0 3.969-2.43c9.089-5.618 18.487-11.427 25.896-8.649a1 1 0 0 1-.702 1.873c-6.491-2.435-15.464 3.112-24.143 8.478a370.739 370.739 0 0 1-3.992 2.443c-7.716 4.63-17.86 7.018-18.288 7.116a.983.983 0 0 1-.227.026zm-51.167-4.537a1 1 0 0 1-.183-1.983c8.797-1.646 20.69-2.479 35.35-2.479a1 1 0 1 1 0 2c-14.537 0-26.306.823-34.982 2.446-.062.01-.124.016-.185.016zm-.833 20.537a1 1 0 0 1-.894-1.447c2.178-4.357 10.609-8.584 23.971-7.55a.999.999 0 0 1 .92 1.074 1.01 1.01 0 0 1-1.074.92c-7.279-.558-19.152.696-22.029 6.45a.996.996 0 0 1-.894.553zm-377 282a1 1 0 0 1-.066-1.998c14.577-.972 28.396-5.766 33.552-8.859a1 1 0 1 1 1.029 1.715c-5.328 3.197-19.538 8.146-34.448 9.141l-.067.001z"/><path d="M261.391 518.262a1 1 0 0 1-.986-1.174c3.152-17.897 4.817-42.134.036-56.477a1 1 0 0 1 1.897-.633c4.899 14.698 3.231 39.317.036 57.457a1 1 0 0 1-.983.827zm-88.001-17.967a1 1 0 0 1-.342-1.939c11.093-4.034 22.477-15.836 24.361-25.257a.994.994 0 0 1 1.177-.784.999.999 0 0 1 .784 1.177c-2.002 10.008-13.982 22.505-25.639 26.743-.112.04-.228.06-.341.06zm172.001-18c-.041 0-.083-.003-.125-.008-8.342-1.043-21.717-11.379-25.816-22.65a1 1 0 0 1 1.88-.683c3.867 10.635 16.392 20.376 24.184 21.35a.999.999 0 0 1-.123 1.991zm-65.581 96.92c-2.3-12.33-4.48-24.68-6.67-37.03-1.53-8.7-3.04-17.42-4.52-26.13-.67.11-1.33.23-2 .35l12.38-4.85c5.39 6.74 6.39 15.74 4.39 26.74s-1 14 1 20c1.17 3.5-1.75 13.11-4.58 20.92z"/></g></svg></g><g transform="translate(500.0 308.0) rotate(0.0 321.5 229.0) scale(1.000951137083605 1.0000414864372102)"><svg width="642.389" height="457.981" viewBox="0 0 642.389 457.981"><path d="M523.424 356.944c.04 30.4-2.67 65.68-2.67 65.68s-142-2-172 0c5.03-8.24 10.28-22.55 14.96-38.15 2.44-8.1 4.73-16.55 6.76-24.67.34-1.36.67-2.71.99-4.04 2.16-8.9 3.97-17.25 5.29-24.14 0 0 41.36-10.49 79.77-16.05 29.8-4.3 57.83-5.65 63.41 3.17.38.58.65 1.21.82 1.88 1.96 7.86 2.65 21.51 2.67 36.32z" fill="#577ddd"/><path d="M518.424 379.944c-1.67 3.68-8.91 3.98-14.67 1.68-10-4-24 6-40 15s-46.24 7.3-55 0c-12-10-21-6-33-8-2.59-.43-7.74-2.28-12.04-4.15 2.44-8.1 4.73-16.55 6.76-24.67.34-1.36.67-2.71.99-4.04.12-.38.22-.76.29-1.14 0 0 41.36-10.49 79.77-16.05 30.43 1.22 58.95 2.51 63.41 3.17.38.58.65 1.21.82 1.88 1.96 7.86 2.65 21.51 2.67 36.32zM362.886 99.825c.771 17.012-3.793 58.954-13.061 78.832-9.268 19.877 48.219 15.784 55.127 6.809 6.908-8.976 17.619-61.836 11.902-82.915S392.3 69.218 386.26 72.137s-23.374 27.688-23.374 27.688z" fill="#1d0333"/><path d="M369.755 307.624c-2.54 11.68-6.43 24.83-10.82 37.97-12.92 38.61-30.18 77.03-30.18 77.03h-80s18-27 25-37 4-27 6-37 13-38 21-50 1-48 6-78 34-44 47.21-48.66c0 0 14.04 48.8 17.38 92.87 1.19 15.66 1.03 30.73-1.59 42.79z" fill="#F0E09A"/><path d="M425.767 34.664c-8.093 6.892-14.684 50.807-12.94 69.832s25.312 51.345 47.203 59.64 40.996.551 40.996.551-7.677-24.105-21.568-32.293c-10.374-6.114-16.663-25.226-17.353-48.238-.483-16.116-36.338-49.492-36.338-49.492zm-56.012 272.96c-2.54 11.68-6.43 24.83-10.82 37.97-6.18-8.97.82-24.97-7.18-35.97-4.159-5.719-10-13-7-22s9-15 6-20-6.48-15 .48-23l10.95 6.17 9.16 14.04c1.19 15.66 1.03 30.73-1.59 42.79z" fill="#1d0333"/><path d="M533.755 350.624c-2.5 13.77-12 16-44 29s-68 12-97 3-34-24-29-34 3-64-2-93-15-81-15-81 55-21 85-24c41.9-4.19 93 7 93 7s2.93 87.05-.87 106.38c-.04.22-.1.42-.13.62-.01.03-.01.07-.01.1-1.94 12.5-.53 26.67 1.8 39.95 3.609 20.71 9.429 39.26 8.21 45.95z" fill="#F0E09A"/><path d="M424.337 66.648c-4.188 13.945-15.361 26.796-29.548 40.607s-40.158 11.461-48.928-5.658c-3.099-6.052-3.423-15.397-1.902-25.898.486-3.443 1.185-7.025 2.043-10.643 3.933-16.538 11.309-34.061 18.959-45.209 4.08-5.946 22.173-12.703 41.037-2.449 15.011 8.161 22.527 35.305 18.339 49.25z" fill="#ffb5a6"/><path d="M433.1 158.774c-6.147 10.918-22.213 15.703-29.172 12.609s-8.892-8.12-12.69-23.173c-1.124-4.456-2.779-10.478-4.386-16.661a6027.629 6027.629 0 0 1-7.021-27.496l37.427-31.5s-.417 30.997 6.327 50.09c6.744 19.092 15.662 25.213 9.515 36.131z" fill="#ffb5a6"/><path d="M442.483 55.891s.385-1.115-12.039 2.838c-9.039 2.879-13.048 6.435-13.048 6.435s-5.91-9.69-3.749-21.662c-3.04 2.959-5.107 7.932-5.107 7.932l-4.973-2.067.134-9.999s-3.027 1.96-5.08 5.932c-11.878-9.16-41.889-8.564-52.901-7.712 3.329-8.816 7.613-15.839 12.538-21.313 3.787-4.22 7.952-7.524 12.346-10.015 27.149-15.407 62.824.114 71.283 19.62 8.73 20.119.596 30.011.596 30.011z" fill="#1d0333"/><path d="M434.981 18.787c12.985 1.175 30.863 10.416 30.07 69.41-.793 59.029-12.356 100.843-21.624 120.72l-5.999-.081s3.188-13.958 3.295-21.958c-9.214 15.878-12.321 23.837-16.361 26.783s-38.077 5.489-38.077 5.489 15.227-16.797 28.844-62.618c12.92-43.475 12.437-106.843 15.544-114.801s4.308-22.944 4.308-22.944z" fill="#1d0333"/><path d="M417.378 63.554c7.134-9.905 24.159-11.676 27.132-9.636s5.865 10.08-1.228 16.985-21.106 7.717-24.078 5.677c-2.974-2.04-4.235-9.68-1.826-13.026z" fill="#ffb5a6"/><path d="M400.259 72.325c-1.013.986-6.999-.094-10.986-1.148l-.518-.127c-3.809-.851-7.479-.11-7.441-2.98.033-2.44 4.251-5.233 8.914-5.411a11.204 11.204 0 0 1 4.152.586c5.973 2.08 6.892 8.093 5.879 9.08zm-33.903-7.457c-1.027 1.986-6.013.919-9.999-.134a9.56 9.56 0 0 1-.508-.137c-3.887-1.012-8.423-2.064-7.437-3.97.893-1.728 4.827-4.176 9.126-4.078.63.019 1.289.088 1.927.226 4.985 1.067 8.339 5.283 6.891 8.093z" fill="#fff"/><g fill="#1d0333"><path d="M358.424 59.761a5.963 5.963 0 0 1-2.575 4.836c-3.887-1.012-8.423-2.064-7.437-3.97.893-1.728 4.827-4.176 9.126-4.078a5.92 5.92 0 0 1 .886 3.212zm32.916 6.443a5.99 5.99 0 0 1-2.585 4.846c-3.809-.851-7.479-.11-7.441-2.98.033-2.44 4.251-5.233 8.914-5.411.726 1 1.13 2.226 1.112 3.545zm-28.093 9.507c-.969 0-1.825-.148-2.35-.556a1.665 1.665 0 0 1-.661-1.368c.017-1.24 1.359-3.172 3.93-6.764 2.035-2.843 4.342-6.065 5.348-8.484a1 1 0 0 1 1.847.768c-1.093 2.63-3.47 5.951-5.568 8.881-1.379 1.928-3.234 4.518-3.52 5.452.783.235 3.348-.073 5.701-.71a1 1 0 0 1 .524 1.93c-1.166.315-3.412.851-5.251.851zm65.024-3.01a1 1 0 0 1-.59-1.807c.693-.506 1.797-1.541 1.398-2.794-.379-1.191-2.125-2.416-4.728-2.451a1.002 1.002 0 0 1-.931-1.329c1.307-3.752 9.114-6.562 15.188-5.467.543.099.905.618.807 1.162-.098.543-.62.898-1.162.807-4.822-.872-10.079 1.015-12.134 3.003 2.416.469 4.282 1.834 4.867 3.669.569 1.788-.206 3.616-2.126 5.016a1.011 1.011 0 0 1-.589.191zm-43.755-19.59c1.013-.986 10.026-1.865 14.972 2.201s6.905 7.093 5.892 8.08c-1.013.986-5.932-5.08-10.918-6.147s-8.013.892-9.999-.134c-1.988-1.027-.961-3.013.053-4zm-13.972-2.188c.019-1.414-3.932-5.053-9.932-5.134-5.099-.069-10.026 1.865-9.898 3.364.129 1.505 4.872-1.432 9.858-.365s6.946 4.094 7.945 4.107c1 .015 2.013-.972 2.027-1.972z"/></g><path d="M361.047 87.799c1.013-.986 5 .067 6.999.094 3 .04 6.026-1.919 8.013-.892s.906 7.013-6.107 7.919c-7.012.905-9.918-6.134-8.905-7.121z" fill="#fff"/><ellipse cx="391.145" cy="80.703" fill="#f99282" rx="5.5" ry="10" transform="matrix(.1832 -.9831 .9831 .1832 240.1364 450.438)"/><path d="M353.11 71.891c-.496 2.673-4.438 4.241-9.152 3.807.486-3.443 1.185-7.025 2.043-10.643 4.523 1.311 7.605 4.173 7.109 6.836z" fill="#f99282"/><path d="M408.138 101.689c-.652 5.964-5.39 12.488-8.699 15.144-3.308 2.656-1.755 6.85-7.269 11.276-2.062 1.656-4.636 2.833-7.049 3.655-.989-6.225-2.784-11.793-3.575-16.889 8.162-1.689 16.917-6.16 20.309-12.527 3.391-6.364 6.936-6.623 6.283-.659zm-4.415 327.064H56.886a12.456 12.456 0 0 1-12.255-10.227l-.307-1.687h369.342c1.128 6.204-3.638 11.914-9.943 11.914z" fill="#1d0333"/><path d="M243.617 417.922H44.325L1 244.624h199.293z" fill="#fff"/><path d="M243.617 418.922H44.325a.999.999 0 0 1-.97-.758L.03 244.866a1 1 0 0 1 .97-1.242h199.293c.459 0 .859.312.97.758l43.324 173.299a.997.997 0 0 1-.97 1.241zm-198.512-2h197.231l-42.824-171.299H2.281z" fill="#1d0333"/><path d="M360.318 401.721c-24.735 10.777-31.898 23.344-32.875 28.391-.276 1.428-.894 4.734.921 6.431 1.647 1.541 4.619 1.357 7.54-.166-3.663 4.358.465 12.646 8.052 10.746-.056.408-.685 5.552 2.682 8.058 1.747 1.3 3.77 1.294 4.544 1.242 5.66-.384 8.81-7.624 12.711-13.009 3.422-4.724 9.304-10.618 20.045-15.278-3.306 2.829-23.702 20.491-19.741 27.57.584 1.043 1.514 1.529 1.962 1.757 6.663 3.376 14.426-10.541 31.099-17.752 13.475-5.828 19.051-1.342 33.057-9.281a59.997 59.997 0 0 0 11.469-8.465 44.38 44.38 0 0 1-7.451-15.544 44.33 44.33 0 0 1-1.175-15.273c-35.477-3.13-59.925 4.947-72.84 10.573z" fill="#ffb5a6"/><path d="M343.231 448.04a1 1 0 0 1-.913-1.406 61.088 61.088 0 0 1 6.203-10.834c6.721-9.353 16.265-16.822 27.598-21.604a1 1 0 0 1 .777 1.844c-10.995 4.637-20.245 11.874-26.752 20.928a59.001 59.001 0 0 0-5.999 10.479 1 1 0 0 1-.914.593zm-8.328-9.993a1 1 0 0 1-.861-1.507 70.65 70.65 0 0 1 10.87-14.086c7.02-7.036 15.375-12.461 24.834-16.122a1 1 0 0 1 .722 1.865c-9.197 3.56-17.319 8.832-24.14 15.669a68.64 68.64 0 0 0-10.562 13.688 1 1 0 0 1-.863.493z" fill="#1d0333"/><path d="M641.805 379.814c-.12 10.09-2.66 18.53-9.05 23.81-5.99 4.95-12.18 6.57-18.24 5.88-17.21-1.96-33.37-22.61-40.76-38.88-2.73-6-4.72-11.64-6.38-17.02-.03-.08-.05-.17-.08-.25-4.42-14.25-6.64-26.75-14.54-39.73-6.94-11.4-12.89-23.54-19.21-34.82-6.42-11.5-13.22-22.11-21.79-30.18-17-16 4.74-92.61 4.74-92.61 17.26 1.61 49.26 8.61 63.26 47.61s33.04 67.81 40 91c6.26 20.88 21.25 56.3 22.02 82.31.03.97.04 1.93.03 2.88z" fill="#F0E09A"/><path d="M626.755 413.624c-21.84 15.72-70 11-97 14s-81 6-91 0c-2.63-1.57-5.18-3.9-7.38-6.78v-.01c-6.18-8.07-9.52-20.41-3.62-32.21 8-16 44.79-20.81 65-20 19.83.79 50.36-10.37 74.62-15.02 6.32-1.21 12.21-1.98 17.38-1.98 36.09 0 52.75 12.4 56.7 26.72.13.49.25.98.35 1.47 2.619 12.28-3.77 25.69-15.05 33.81z" fill="#F0E09A"/><path d="m410.373 27.457-9.415-7.127s-14.066 4.811-19.971-2.269c-4.626-5.543-13.032-4.395-22.728-1.786 3.787-4.22 7.952-7.524 12.346-10.015 8.557-1.225 13.503 2.842 17.422 8.895 3.48 5.375 13.012-.825 13.012-.825z" fill="#eedcff"/><path d="M410.798 173.256c-5.544 0-9.389-1.896-11.848-3.794-3.666-2.83-5.963-7.07-5.994-11.066a1 1 0 0 1 .992-1.008c.548.041 1.003.439 1.008.992.026 3.345 2.073 7.072 5.216 9.498 3.059 2.362 8.553 4.71 17.354 2.477a1 1 0 0 1 .491 1.94c-2.673.677-5.073.961-7.219.961zm-38.044 86.368a.993.993 0 0 1-.65-.241c-6.203-5.316-15.122-10.962-29.823-18.878a1 1 0 0 1 .949-1.761c14.834 7.988 23.859 13.707 30.177 19.122a1 1 0 0 1-.653 1.758zm157.397 14.264a.997.997 0 0 1-.826-.436c-4.809-7.024-19.444-28.403-27.221-35.07a1 1 0 1 1 1.301-1.517c7.151 6.129 19.159 23.172 27.57 35.459a1 1 0 0 1-.824 1.564z" fill="#1d0333"/><path d="M597.234 355.624s-20.16-3.59-29.94-2.27c-4.42-14.25-6.64-26.75-14.54-39.73-6.94-11.4-12.89-23.54-19.21-34.82l-.01-.03c15.22 16.85 34.22 28.85 36.22 40.85s8 20 17 23 10.48 13 10.48 13zm29.521 58c-21.84 15.72-70 11-97 14s-81 6-91 0c-2.63-1.57-5.18-3.9-7.38-6.78v-.01c-.01-.33-.01-.51-.01-.51 22.39 7.3 40.35 7.36 57.87 1.83s38.52-8.53 55.52-4.53 20 3 29-1 27.61-2.93 40.3-6.97c.15-.05.31-.1.46-.15 10.15-3.45 22.84-14.99 26.94-31.16.11-.47.22-.93.32-1.41.03.97.04 1.93.03 2.88 2.619 12.28-3.77 25.69-15.05 33.81z" fill="#C9AC6E"/><path d="M441.783 429.754a.996.996 0 0 1-.423-.094c-10.016-4.684-14.065-13.011-15.699-19.172-2.372-8.944-1.04-19.42 3.237-25.477 7.046-9.975 33.2-17.456 60.941-17.456l.775.001c26.268 0 49.287-6.855 68.816-13.29 16.813-5.538 40.558.142 41.561.386a1 1 0 0 1-.474 1.943c-.24-.06-24.196-5.787-40.461-.429-19.772 6.513-43.124 13.428-69.83 13.39h-.374c-26.718 0-52.724 7.271-59.32 16.609-3.96 5.606-5.168 15.397-2.938 23.81 1.524 5.749 5.297 13.516 14.613 17.872a1 1 0 0 1-.424 1.907zm83.762-125.08c-4.06-4.39-8.05-10.68-8.79-18.05-1-10-4-12-10-20s-1.87-27-1.87-27-.13-1 11.03 13.26c4.34 5.55 6.64 9.31 7.83 11.84-1.941 12.5-.531 26.67 1.8 39.95z" fill="#1d0333"/></svg></g><g transform="translate(131.0 735.0) rotate(0.0 280.0 1.0) scale(0.9988620107805749 1.0)"><svg width="560.638" height="2" viewBox="0 0 560.638 2"><path d="M559.638 2H1a1 1 0 0 1 0-2h558.638a1 1 0 0 1 0 2z" fill="#1d0333"/></svg></g></svg>