<svg width="338" height="237" viewBox="0 0 338 237" fill="none" xmlns="http://www.w3.org/2000/svg">
<rect width="337" height="69" fill="#370E3D"/>
<path d="M59.5507 39.7931L62.9492 25.4376H64.8476L65.2812 27.8282L61.6601 42.5001H59.621L59.5507 39.7931ZM57.8046 25.4376L60.6171 39.7931L60.3828 42.5001H58.1093L54.3242 25.4376H57.8046ZM68.2695 39.7345L71.0468 25.4376H74.5273L70.7538 42.5001H68.4804L68.2695 39.7345ZM65.914 25.4376L69.3359 39.8517L69.2421 42.5001H67.2031L63.5585 27.8165L64.0273 25.4376H65.914ZM81.6874 42.7345C80.7031 42.7345 79.8203 42.5782 79.039 42.2657C78.2578 41.9454 77.5937 41.504 77.0468 40.9415C76.5078 40.379 76.0937 39.7267 75.8046 38.9845C75.5156 38.2345 75.371 37.4376 75.371 36.5939V36.1251C75.371 35.1642 75.5078 34.2853 75.7812 33.4884C76.0546 32.6915 76.4453 32.0001 76.9531 31.4142C77.4687 30.8282 78.0937 30.379 78.8281 30.0665C79.5624 29.7462 80.3906 29.5861 81.3124 29.5861C82.2109 29.5861 83.0078 29.7345 83.7031 30.0314C84.3984 30.3282 84.9804 30.7501 85.4492 31.297C85.9257 31.8439 86.2851 32.5001 86.5273 33.2657C86.7695 34.0236 86.8906 34.8673 86.8906 35.797V37.2032H76.8124V34.9532H83.5742V34.6954C83.5742 34.2267 83.4882 33.8087 83.3163 33.4415C83.1523 33.0665 82.9023 32.7697 82.5663 32.5509C82.2304 32.3322 81.8007 32.2228 81.2773 32.2228C80.832 32.2228 80.4492 32.3204 80.1288 32.5157C79.8085 32.7111 79.5468 32.9845 79.3437 33.3361C79.1484 33.6876 78.9999 34.1017 78.8984 34.5782C78.8046 35.047 78.7578 35.5626 78.7578 36.1251V36.5939C78.7578 37.1017 78.8281 37.5704 78.9687 38.0001C79.1171 38.4298 79.3242 38.8009 79.5898 39.1134C79.8632 39.4259 80.1913 39.6681 80.5742 39.84C80.9648 40.0118 81.4062 40.0978 81.8984 40.0978C82.5078 40.0978 83.0742 39.9806 83.5976 39.7462C84.1288 39.504 84.5859 39.1407 84.9687 38.6564L86.6093 40.4376C86.3437 40.8204 85.9804 41.1876 85.5195 41.5392C85.0663 41.8907 84.5195 42.1798 83.8788 42.4064C83.2382 42.6251 82.5078 42.7345 81.6874 42.7345ZM91.0742 24.5001V26.2814C91.0742 26.7892 90.9765 27.3126 90.7812 27.8517C90.5937 28.3907 90.3398 28.9025 90.0195 29.3868C89.6992 29.8634 89.3476 30.2697 88.9648 30.6056L87.3828 29.6915C87.6718 29.2306 87.9179 28.7306 88.121 28.1915C88.3242 27.6447 88.4257 27.0118 88.4257 26.2931V24.5001H91.0742ZM96.8749 32.5861V42.5001H93.4999V29.8204H96.6757L96.8749 32.5861ZM100.695 29.7384L100.637 32.8673C100.473 32.8439 100.273 32.8243 100.039 32.8087C99.8124 32.7853 99.6054 32.7736 99.4179 32.7736C98.9413 32.7736 98.5273 32.8361 98.1757 32.9611C97.832 33.0782 97.5429 33.254 97.3085 33.4884C97.082 33.7228 96.9101 34.0079 96.7929 34.3439C96.6835 34.6798 96.621 35.0626 96.6054 35.4923L95.9257 35.2814C95.9257 34.4611 96.0078 33.7072 96.1718 33.0197C96.3359 32.3243 96.5742 31.7189 96.8867 31.2032C97.207 30.6876 97.5976 30.2892 98.0585 30.0079C98.5195 29.7267 99.0468 29.5861 99.6406 29.5861C99.8281 29.5861 100.019 29.6017 100.215 29.6329C100.41 29.6564 100.57 29.6915 100.695 29.7384ZM107.891 42.7345C106.906 42.7345 106.023 42.5782 105.242 42.2657C104.461 41.9454 103.797 41.504 103.25 40.9415C102.711 40.379 102.297 39.7267 102.008 38.9845C101.719 38.2345 101.574 37.4376 101.574 36.5939V36.1251C101.574 35.1642 101.711 34.2853 101.984 33.4884C102.258 32.6915 102.648 32.0001 103.156 31.4142C103.672 30.8282 104.297 30.379 105.031 30.0665C105.766 29.7462 106.594 29.5861 107.516 29.5861C108.414 29.5861 109.211 29.7345 109.906 30.0314C110.602 30.3282 111.184 30.7501 111.652 31.297C112.129 31.8439 112.488 32.5001 112.73 33.2657C112.973 34.0236 113.094 34.8673 113.094 35.797V37.2032H103.016V34.9532H109.777V34.6954C109.777 34.2267 109.691 33.8087 109.519 33.4415C109.355 33.0665 109.105 32.7697 108.769 32.5509C108.434 32.3322 108.004 32.2228 107.48 32.2228C107.035 32.2228 106.652 32.3204 106.332 32.5157C106.012 32.7111 105.75 32.9845 105.547 33.3361C105.352 33.6876 105.203 34.1017 105.102 34.5782C105.008 35.047 104.961 35.5626 104.961 36.1251V36.5939C104.961 37.1017 105.031 37.5704 105.172 38.0001C105.32 38.4298 105.527 38.8009 105.793 39.1134C106.066 39.4259 106.394 39.6681 106.777 39.84C107.168 40.0118 107.609 40.0978 108.102 40.0978C108.711 40.0978 109.277 39.9806 109.801 39.7462C110.332 39.504 110.789 39.1407 111.172 38.6564L112.812 40.4376C112.547 40.8204 112.184 41.1876 111.723 41.5392C111.269 41.8907 110.723 42.1798 110.082 42.4064C109.441 42.6251 108.711 42.7345 107.891 42.7345ZM124.555 29.8204V42.5001H121.168V29.8204H124.555ZM120.957 26.5157C120.957 26.0236 121.129 25.6173 121.473 25.297C121.816 24.9767 122.277 24.8165 122.855 24.8165C123.426 24.8165 123.883 24.9767 124.227 25.297C124.578 25.6173 124.754 26.0236 124.754 26.5157C124.754 27.0079 124.578 27.4142 124.227 27.7345C123.883 28.0548 123.426 28.215 122.855 28.215C122.277 28.215 121.816 28.0548 121.473 27.7345C121.129 27.4142 120.957 27.0079 120.957 26.5157ZM130.648 32.5275V42.5001H127.273V29.8204H130.437L130.648 32.5275ZM130.156 35.715H129.242C129.242 34.7775 129.363 33.9337 129.605 33.1837C129.848 32.4259 130.187 31.7814 130.625 31.2501C131.062 30.7111 131.582 30.3009 132.184 30.0197C132.793 29.7306 133.473 29.5861 134.223 29.5861C134.816 29.5861 135.359 29.672 135.852 29.8439C136.344 30.0157 136.766 30.2892 137.117 30.6642C137.477 31.0392 137.75 31.5353 137.937 32.1525C138.133 32.7697 138.23 33.5236 138.23 34.4142V42.5001H134.832V34.4025C134.832 33.84 134.754 33.4025 134.598 33.09C134.441 32.7775 134.211 32.5587 133.906 32.4337C133.609 32.3009 133.242 32.2345 132.805 32.2345C132.352 32.2345 131.957 32.3243 131.621 32.504C131.293 32.6837 131.019 32.9337 130.801 33.254C130.59 33.5665 130.43 33.9337 130.32 34.3556C130.211 34.7775 130.156 35.2306 130.156 35.715ZM152.984 29.8204V32.2111H145.602V29.8204H152.984ZM147.43 26.6915H150.805V38.6798C150.805 39.047 150.852 39.3282 150.945 39.5236C151.047 39.7189 151.195 39.8556 151.391 39.9337C151.586 40.004 151.832 40.0392 152.129 40.0392C152.34 40.0392 152.527 40.0314 152.691 40.0157C152.863 39.9923 153.008 39.9689 153.125 39.9454L153.137 42.4298C152.848 42.5236 152.535 42.5978 152.199 42.6525C151.863 42.7072 151.492 42.7345 151.086 42.7345C150.344 42.7345 149.695 42.6134 149.141 42.3712C148.594 42.1212 148.172 41.7228 147.875 41.1759C147.578 40.629 147.43 39.9103 147.43 39.0197V26.6915ZM158.199 24.5001V42.5001H154.824V24.5001H158.199ZM157.719 35.715H156.793C156.801 34.8322 156.918 34.0197 157.144 33.2775C157.371 32.5275 157.695 31.879 158.117 31.3322C158.539 30.7775 159.043 30.3478 159.629 30.0431C160.223 29.7384 160.879 29.5861 161.598 29.5861C162.223 29.5861 162.789 29.6759 163.297 29.8556C163.812 30.0275 164.254 30.3087 164.621 30.6993C164.996 31.0822 165.285 31.5861 165.488 32.2111C165.691 32.8361 165.793 33.5939 165.793 34.4845V42.5001H162.394V34.4611C162.394 33.8986 162.312 33.4572 162.148 33.1368C161.992 32.8087 161.762 32.5782 161.457 32.4454C161.16 32.3048 160.793 32.2345 160.355 32.2345C159.871 32.2345 159.457 32.3243 159.113 32.504C158.777 32.6837 158.508 32.9337 158.305 33.254C158.102 33.5665 157.953 33.9337 157.859 34.3556C157.766 34.7775 157.719 35.2306 157.719 35.715ZM171.922 29.8204V42.5001H168.535V29.8204H171.922ZM168.324 26.5157C168.324 26.0236 168.496 25.6173 168.84 25.297C169.184 24.9767 169.644 24.8165 170.223 24.8165C170.793 24.8165 171.25 24.9767 171.594 25.297C171.945 25.6173 172.121 26.0236 172.121 26.5157C172.121 27.0079 171.945 27.4142 171.594 27.7345C171.25 28.0548 170.793 28.215 170.223 28.215C169.644 28.215 169.184 28.0548 168.84 27.7345C168.496 27.4142 168.324 27.0079 168.324 26.5157ZM181.566 38.9962C181.566 38.754 181.496 38.5353 181.355 38.34C181.215 38.1447 180.953 37.965 180.57 37.8009C180.195 37.629 179.652 37.4728 178.941 37.3322C178.301 37.1915 177.703 37.0157 177.148 36.8048C176.602 36.5861 176.125 36.3243 175.719 36.0197C175.32 35.715 175.008 35.3556 174.781 34.9415C174.555 34.5197 174.441 34.0392 174.441 33.5001C174.441 32.9689 174.555 32.4689 174.781 32.0001C175.016 31.5314 175.348 31.1173 175.777 30.7579C176.215 30.3907 176.746 30.1056 177.371 29.9025C178.004 29.6915 178.715 29.5861 179.504 29.5861C180.605 29.5861 181.551 29.7618 182.34 30.1134C183.137 30.465 183.746 30.9493 184.168 31.5665C184.598 32.1759 184.812 32.8712 184.812 33.6525H181.437C181.437 33.3243 181.367 33.0314 181.227 32.7736C181.094 32.5079 180.883 32.3009 180.594 32.1525C180.312 31.9962 179.945 31.9181 179.492 31.9181C179.117 31.9181 178.793 31.9845 178.519 32.1173C178.246 32.2423 178.035 32.4142 177.887 32.6329C177.746 32.8439 177.676 33.0782 177.676 33.3361C177.676 33.5314 177.715 33.7072 177.793 33.8634C177.879 34.0118 178.016 34.1486 178.203 34.2736C178.391 34.3986 178.633 34.5157 178.93 34.6251C179.234 34.7267 179.609 34.8204 180.055 34.9064C180.969 35.0939 181.785 35.34 182.504 35.6447C183.223 35.9415 183.793 36.3478 184.215 36.8634C184.637 37.3712 184.848 38.0392 184.848 38.8673C184.848 39.4298 184.723 39.9454 184.473 40.4142C184.223 40.8829 183.863 41.2931 183.394 41.6447C182.926 41.9884 182.363 42.2579 181.707 42.4532C181.059 42.6407 180.328 42.7345 179.516 42.7345C178.336 42.7345 177.336 42.5236 176.516 42.1017C175.703 41.6798 175.086 41.1447 174.664 40.4962C174.25 39.84 174.043 39.1681 174.043 38.4806H177.242C177.258 38.9415 177.375 39.3126 177.594 39.5939C177.82 39.8751 178.105 40.0782 178.449 40.2032C178.801 40.3282 179.18 40.3907 179.586 40.3907C180.023 40.3907 180.387 40.3322 180.676 40.215C180.965 40.09 181.184 39.9259 181.332 39.7228C181.488 39.5118 181.566 39.2697 181.566 38.9962ZM199.227 29.8204V32.2111H191.844V29.8204H199.227ZM193.672 26.6915H197.047V38.6798C197.047 39.047 197.094 39.3282 197.187 39.5236C197.289 39.7189 197.437 39.8556 197.633 39.9337C197.828 40.004 198.074 40.0392 198.371 40.0392C198.582 40.0392 198.769 40.0314 198.934 40.0157C199.105 39.9923 199.25 39.9689 199.367 39.9454L199.379 42.4298C199.09 42.5236 198.777 42.5978 198.441 42.6525C198.105 42.7072 197.734 42.7345 197.328 42.7345C196.586 42.7345 195.937 42.6134 195.383 42.3712C194.836 42.1212 194.414 41.7228 194.117 41.1759C193.82 40.629 193.672 39.9103 193.672 39.0197V26.6915ZM200.305 36.2892V36.0431C200.305 35.1134 200.437 34.2579 200.703 33.4767C200.969 32.6876 201.355 32.004 201.863 31.4259C202.371 30.8478 202.996 30.3986 203.738 30.0782C204.48 29.7501 205.332 29.5861 206.293 29.5861C207.254 29.5861 208.109 29.7501 208.859 30.0782C209.609 30.3986 210.238 30.8478 210.746 31.4259C211.262 32.004 211.652 32.6876 211.918 33.4767C212.184 34.2579 212.316 35.1134 212.316 36.0431V36.2892C212.316 37.2111 212.184 38.0665 211.918 38.8556C211.652 39.6368 211.262 40.3204 210.746 40.9064C210.238 41.4845 209.613 41.9337 208.871 42.254C208.129 42.5743 207.277 42.7345 206.316 42.7345C205.355 42.7345 204.5 42.5743 203.75 42.254C203.008 41.9337 202.379 41.4845 201.863 40.9064C201.355 40.3204 200.969 39.6368 200.703 38.8556C200.437 38.0665 200.305 37.2111 200.305 36.2892ZM203.68 36.0431V36.2892C203.68 36.8204 203.727 37.3165 203.82 37.7775C203.914 38.2384 204.062 38.6447 204.266 38.9962C204.477 39.34 204.75 39.6095 205.086 39.8048C205.422 40.0001 205.832 40.0978 206.316 40.0978C206.785 40.0978 207.187 40.0001 207.523 39.8048C207.859 39.6095 208.129 39.34 208.332 38.9962C208.535 38.6447 208.684 38.2384 208.777 37.7775C208.879 37.3165 208.93 36.8204 208.93 36.2892V36.0431C208.93 35.5275 208.879 35.0431 208.777 34.59C208.684 34.129 208.531 33.7228 208.32 33.3712C208.117 33.0118 207.848 32.7306 207.512 32.5275C207.176 32.3243 206.769 32.2228 206.293 32.2228C205.816 32.2228 205.41 32.3243 205.074 32.5275C204.746 32.7306 204.477 33.0118 204.266 33.3712C204.062 33.7228 203.914 34.129 203.82 34.59C203.727 35.0431 203.68 35.5275 203.68 36.0431ZM222.418 29.8204H225.477V42.0782C225.477 43.2345 225.219 44.215 224.703 45.0197C224.195 45.8322 223.484 46.4454 222.57 46.8595C221.656 47.2814 220.594 47.4923 219.383 47.4923C218.852 47.4923 218.289 47.422 217.695 47.2814C217.109 47.1407 216.547 46.922 216.008 46.6251C215.477 46.3282 215.031 45.9532 214.672 45.5001L216.16 43.5079C216.551 43.9611 217.004 44.3126 217.519 44.5626C218.035 44.8204 218.605 44.9493 219.23 44.9493C219.84 44.9493 220.355 44.8361 220.777 44.6095C221.199 44.3907 221.523 44.0665 221.75 43.6368C221.977 43.215 222.09 42.7032 222.09 42.1017V32.7501L222.418 29.8204ZM213.887 36.3126V36.0665C213.887 35.0978 214.004 34.2189 214.238 33.4298C214.48 32.6329 214.82 31.9493 215.258 31.379C215.703 30.8087 216.242 30.3673 216.875 30.0548C217.508 29.7423 218.223 29.5861 219.019 29.5861C219.863 29.5861 220.57 29.7423 221.141 30.0548C221.711 30.3673 222.18 30.8126 222.547 31.3907C222.914 31.9611 223.199 32.6368 223.402 33.4181C223.613 34.1915 223.777 35.0392 223.894 35.9611V36.5001C223.777 37.3829 223.602 38.2032 223.367 38.9611C223.133 39.7189 222.824 40.3829 222.441 40.9532C222.059 41.5157 221.582 41.9532 221.012 42.2657C220.449 42.5782 219.777 42.7345 218.996 42.7345C218.215 42.7345 217.508 42.5743 216.875 42.254C216.25 41.9337 215.715 41.4845 215.269 40.9064C214.824 40.3282 214.48 39.6486 214.238 38.8673C214.004 38.0861 213.887 37.2345 213.887 36.3126ZM217.262 36.0665V36.3126C217.262 36.8361 217.312 37.3243 217.414 37.7775C217.516 38.2306 217.672 38.6329 217.883 38.9845C218.102 39.3282 218.371 39.5978 218.691 39.7931C219.019 39.9806 219.406 40.0743 219.852 40.0743C220.469 40.0743 220.973 39.9454 221.363 39.6876C221.754 39.422 222.047 39.0587 222.242 38.5978C222.437 38.1368 222.551 37.6056 222.582 37.004V35.4689C222.566 34.9767 222.5 34.5353 222.383 34.1447C222.266 33.7462 222.102 33.4064 221.891 33.1251C221.68 32.8439 221.406 32.6251 221.07 32.4689C220.734 32.3126 220.336 32.2345 219.875 32.2345C219.43 32.2345 219.043 32.3361 218.715 32.5392C218.394 32.7345 218.125 33.004 217.906 33.3478C217.695 33.6915 217.535 34.0978 217.426 34.5665C217.316 35.0275 217.262 35.5275 217.262 36.0665ZM233.937 42.7345C232.953 42.7345 232.07 42.5782 231.289 42.2657C230.508 41.9454 229.844 41.504 229.297 40.9415C228.758 40.379 228.344 39.7267 228.055 38.9845C227.766 38.2345 227.621 37.4376 227.621 36.5939V36.1251C227.621 35.1642 227.758 34.2853 228.031 33.4884C228.305 32.6915 228.695 32.0001 229.203 31.4142C229.719 30.8282 230.344 30.379 231.078 30.0665C231.812 29.7462 232.641 29.5861 233.562 29.5861C234.461 29.5861 235.258 29.7345 235.953 30.0314C236.648 30.3282 237.23 30.7501 237.699 31.297C238.176 31.8439 238.535 32.5001 238.777 33.2657C239.019 34.0236 239.141 34.8673 239.141 35.797V37.2032H229.062V34.9532H235.824V34.6954C235.824 34.2267 235.738 33.8087 235.566 33.4415C235.402 33.0665 235.152 32.7697 234.816 32.5509C234.48 32.3322 234.051 32.2228 233.527 32.2228C233.082 32.2228 232.699 32.3204 232.379 32.5157C232.059 32.7111 231.797 32.9845 231.594 33.3361C231.398 33.6876 231.25 34.1017 231.148 34.5782C231.055 35.047 231.008 35.5626 231.008 36.1251V36.5939C231.008 37.1017 231.078 37.5704 231.219 38.0001C231.367 38.4298 231.574 38.8009 231.84 39.1134C232.113 39.4259 232.441 39.6681 232.824 39.84C233.215 40.0118 233.656 40.0978 234.148 40.0978C234.758 40.0978 235.324 39.9806 235.848 39.7462C236.379 39.504 236.836 39.1407 237.219 38.6564L238.859 40.4376C238.594 40.8204 238.23 41.1876 237.769 41.5392C237.316 41.8907 236.769 42.1798 236.129 42.4064C235.488 42.6251 234.758 42.7345 233.937 42.7345ZM247.273 29.8204V32.2111H239.891V29.8204H247.273ZM241.719 26.6915H245.094V38.6798C245.094 39.047 245.141 39.3282 245.234 39.5236C245.336 39.7189 245.484 39.8556 245.68 39.9337C245.875 40.004 246.121 40.0392 246.418 40.0392C246.629 40.0392 246.816 40.0314 246.98 40.0157C247.152 39.9923 247.297 39.9689 247.414 39.9454L247.426 42.4298C247.137 42.5236 246.824 42.5978 246.488 42.6525C246.152 42.7072 245.781 42.7345 245.375 42.7345C244.633 42.7345 243.984 42.6134 243.43 42.3712C242.883 42.1212 242.461 41.7228 242.164 41.1759C241.867 40.629 241.719 39.9103 241.719 39.0197V26.6915ZM252.488 24.5001V42.5001H249.113V24.5001H252.488ZM252.008 35.715H251.082C251.09 34.8322 251.207 34.0197 251.434 33.2775C251.66 32.5275 251.984 31.879 252.406 31.3322C252.828 30.7775 253.332 30.3478 253.918 30.0431C254.512 29.7384 255.168 29.5861 255.887 29.5861C256.512 29.5861 257.078 29.6759 257.586 29.8556C258.102 30.0275 258.543 30.3087 258.91 30.6993C259.285 31.0822 259.574 31.5861 259.777 32.2111C259.98 32.8361 260.082 33.5939 260.082 34.4845V42.5001H256.684V34.4611C256.684 33.8986 256.602 33.4572 256.437 33.1368C256.281 32.8087 256.051 32.5782 255.746 32.4454C255.449 32.3048 255.082 32.2345 254.644 32.2345C254.16 32.2345 253.746 32.3243 253.402 32.504C253.066 32.6837 252.797 32.9337 252.594 33.254C252.391 33.5665 252.242 33.9337 252.148 34.3556C252.055 34.7775 252.008 35.2306 252.008 35.715ZM268.484 42.7345C267.5 42.7345 266.617 42.5782 265.836 42.2657C265.055 41.9454 264.391 41.504 263.844 40.9415C263.305 40.379 262.891 39.7267 262.602 38.9845C262.312 38.2345 262.168 37.4376 262.168 36.5939V36.1251C262.168 35.1642 262.305 34.2853 262.578 33.4884C262.852 32.6915 263.242 32.0001 263.75 31.4142C264.266 30.8282 264.891 30.379 265.625 30.0665C266.359 29.7462 267.187 29.5861 268.109 29.5861C269.008 29.5861 269.805 29.7345 270.5 30.0314C271.195 30.3282 271.777 30.7501 272.246 31.297C272.723 31.8439 273.082 32.5001 273.324 33.2657C273.566 34.0236 273.687 34.8673 273.687 35.797V37.2032H263.609V34.9532H270.371V34.6954C270.371 34.2267 270.285 33.8087 270.113 33.4415C269.949 33.0665 269.699 32.7697 269.363 32.5509C269.027 32.3322 268.598 32.2228 268.074 32.2228C267.629 32.2228 267.246 32.3204 266.926 32.5157C266.605 32.7111 266.344 32.9845 266.141 33.3361C265.945 33.6876 265.797 34.1017 265.695 34.5782C265.602 35.047 265.555 35.5626 265.555 36.1251V36.5939C265.555 37.1017 265.625 37.5704 265.766 38.0001C265.914 38.4298 266.121 38.8009 266.387 39.1134C266.66 39.4259 266.988 39.6681 267.371 39.84C267.762 40.0118 268.203 40.0978 268.695 40.0978C269.305 40.0978 269.871 39.9806 270.394 39.7462C270.926 39.504 271.383 39.1407 271.766 38.6564L273.406 40.4376C273.141 40.8204 272.777 41.1876 272.316 41.5392C271.863 41.8907 271.316 42.1798 270.676 42.4064C270.035 42.6251 269.305 42.7345 268.484 42.7345ZM278.984 32.5861V42.5001H275.609V29.8204H278.785L278.984 32.5861ZM282.805 29.7384L282.746 32.8673C282.582 32.8439 282.383 32.8243 282.148 32.8087C281.922 32.7853 281.715 32.7736 281.527 32.7736C281.051 32.7736 280.637 32.8361 280.285 32.9611C279.941 33.0782 279.652 33.254 279.418 33.4884C279.191 33.7228 279.019 34.0079 278.902 34.3439C278.793 34.6798 278.73 35.0626 278.715 35.4923L278.035 35.2814C278.035 34.4611 278.117 33.7072 278.281 33.0197C278.445 32.3243 278.684 31.7189 278.996 31.2032C279.316 30.6876 279.707 30.2892 280.168 30.0079C280.629 29.7267 281.156 29.5861 281.75 29.5861C281.937 29.5861 282.129 29.6017 282.324 29.6329C282.519 29.6564 282.68 29.6915 282.805 29.7384Z" fill="#F3B6FC"/>
<path d="M191.703 44.8439H283.086V46.0157H191.703V44.8439Z" fill="#F3B6FC"/>
<rect width="337" height="69" transform="translate(-6.10352e-05 84.0001)" fill="#FFEEC3"/>
<path d="M76.7851 109.438V126.5H73.2812V109.438H76.7851ZM83.1718 116.527V126.5H79.7968V113.82H82.9609L83.1718 116.527ZM82.6796 119.715H81.7656C81.7656 118.777 81.8867 117.934 82.1288 117.184C82.371 116.426 82.7109 115.781 83.1484 115.25C83.5859 114.711 84.1054 114.301 84.707 114.02C85.3163 113.731 85.996 113.586 86.746 113.586C87.3398 113.586 87.8828 113.672 88.3749 113.844C88.8671 114.016 89.289 114.289 89.6406 114.664C89.9999 115.039 90.2734 115.535 90.4609 116.152C90.6562 116.77 90.7538 117.524 90.7538 118.414V126.5H87.3554V118.402C87.3554 117.84 87.2773 117.402 87.121 117.09C86.9648 116.777 86.7343 116.559 86.4296 116.434C86.1328 116.301 85.7656 116.234 85.3281 116.234C84.8749 116.234 84.4804 116.324 84.1445 116.504C83.8163 116.684 83.5429 116.934 83.3242 117.254C83.1132 117.567 82.9531 117.934 82.8437 118.356C82.7343 118.777 82.6796 119.231 82.6796 119.715ZM99.5312 113.82V116.211H92.1484V113.82H99.5312ZM93.9765 110.692H97.3515V122.68C97.3515 123.047 97.3984 123.328 97.4921 123.524C97.5937 123.719 97.7421 123.856 97.9374 123.934C98.1328 124.004 98.3788 124.039 98.6757 124.039C98.8867 124.039 99.0742 124.031 99.2382 124.016C99.4101 123.992 99.5546 123.969 99.6718 123.945L99.6835 126.43C99.3945 126.524 99.082 126.598 98.746 126.652C98.4101 126.707 98.039 126.734 97.6328 126.734C96.8906 126.734 96.2421 126.613 95.6874 126.371C95.1406 126.121 94.7187 125.723 94.4218 125.176C94.1249 124.629 93.9765 123.91 93.9765 123.02V110.692ZM107.289 126.734C106.305 126.734 105.422 126.578 104.641 126.266C103.859 125.945 103.195 125.504 102.648 124.942C102.109 124.379 101.695 123.727 101.406 122.984C101.117 122.234 100.973 121.438 100.973 120.594V120.125C100.973 119.164 101.109 118.285 101.383 117.488C101.656 116.692 102.047 116 102.555 115.414C103.07 114.828 103.695 114.379 104.43 114.067C105.164 113.746 105.992 113.586 106.914 113.586C107.812 113.586 108.609 113.734 109.305 114.031C110 114.328 110.582 114.75 111.051 115.297C111.527 115.844 111.887 116.5 112.129 117.266C112.371 118.024 112.492 118.867 112.492 119.797V121.203H102.414V118.953H109.176V118.695C109.176 118.227 109.09 117.809 108.918 117.442C108.754 117.067 108.504 116.77 108.168 116.551C107.832 116.332 107.402 116.223 106.879 116.223C106.434 116.223 106.051 116.32 105.73 116.516C105.41 116.711 105.148 116.984 104.945 117.336C104.75 117.688 104.602 118.102 104.5 118.578C104.406 119.047 104.359 119.563 104.359 120.125V120.594C104.359 121.102 104.43 121.57 104.57 122C104.719 122.43 104.926 122.801 105.191 123.113C105.465 123.426 105.793 123.668 106.176 123.84C106.566 124.012 107.008 124.098 107.5 124.098C108.109 124.098 108.676 123.981 109.199 123.746C109.73 123.504 110.187 123.141 110.57 122.656L112.211 124.438C111.945 124.82 111.582 125.188 111.121 125.539C110.668 125.891 110.121 126.18 109.48 126.406C108.84 126.625 108.109 126.734 107.289 126.734ZM122.441 113.82H125.5V126.078C125.5 127.234 125.242 128.215 124.727 129.02C124.219 129.832 123.508 130.445 122.594 130.859C121.68 131.281 120.617 131.492 119.406 131.492C118.875 131.492 118.312 131.422 117.719 131.281C117.133 131.141 116.57 130.922 116.031 130.625C115.5 130.328 115.055 129.953 114.695 129.5L116.184 127.508C116.574 127.961 117.027 128.313 117.543 128.563C118.059 128.82 118.629 128.949 119.254 128.949C119.863 128.949 120.379 128.836 120.801 128.609C121.223 128.391 121.547 128.067 121.773 127.637C122 127.215 122.113 126.703 122.113 126.102V116.75L122.441 113.82ZM113.91 120.313V120.067C113.91 119.098 114.027 118.219 114.262 117.43C114.504 116.633 114.844 115.949 115.281 115.379C115.727 114.809 116.266 114.367 116.898 114.055C117.531 113.742 118.246 113.586 119.043 113.586C119.887 113.586 120.594 113.742 121.164 114.055C121.734 114.367 122.203 114.813 122.57 115.391C122.937 115.961 123.223 116.637 123.426 117.418C123.637 118.192 123.801 119.039 123.918 119.961V120.5C123.801 121.383 123.625 122.203 123.391 122.961C123.156 123.719 122.848 124.383 122.465 124.953C122.082 125.516 121.605 125.953 121.035 126.266C120.473 126.578 119.801 126.734 119.019 126.734C118.238 126.734 117.531 126.574 116.898 126.254C116.273 125.934 115.738 125.484 115.293 124.906C114.848 124.328 114.504 123.649 114.262 122.867C114.027 122.086 113.91 121.234 113.91 120.313ZM117.285 120.067V120.313C117.285 120.836 117.336 121.324 117.437 121.777C117.539 122.231 117.695 122.633 117.906 122.984C118.125 123.328 118.394 123.598 118.715 123.793C119.043 123.981 119.43 124.074 119.875 124.074C120.492 124.074 120.996 123.945 121.387 123.688C121.777 123.422 122.07 123.059 122.266 122.598C122.461 122.137 122.574 121.606 122.605 121.004V119.469C122.59 118.977 122.523 118.535 122.406 118.145C122.289 117.746 122.125 117.406 121.914 117.125C121.703 116.844 121.43 116.625 121.094 116.469C120.758 116.313 120.359 116.234 119.898 116.234C119.453 116.234 119.066 116.336 118.738 116.539C118.418 116.734 118.148 117.004 117.93 117.348C117.719 117.692 117.559 118.098 117.449 118.567C117.34 119.027 117.285 119.527 117.285 120.067ZM131.5 116.586V126.5H128.125V113.82H131.301L131.5 116.586ZM135.32 113.738L135.262 116.867C135.098 116.844 134.898 116.824 134.664 116.809C134.437 116.785 134.23 116.774 134.043 116.774C133.566 116.774 133.152 116.836 132.801 116.961C132.457 117.078 132.168 117.254 131.934 117.488C131.707 117.723 131.535 118.008 131.418 118.344C131.309 118.68 131.246 119.063 131.23 119.492L130.551 119.281C130.551 118.461 130.633 117.707 130.797 117.02C130.961 116.324 131.199 115.719 131.512 115.203C131.832 114.688 132.223 114.289 132.684 114.008C133.144 113.727 133.672 113.586 134.266 113.586C134.453 113.586 134.644 113.602 134.84 113.633C135.035 113.656 135.195 113.692 135.32 113.738ZM140.477 113.82V126.5H137.09V113.82H140.477ZM136.879 110.516C136.879 110.024 137.051 109.617 137.394 109.297C137.738 108.977 138.199 108.817 138.777 108.817C139.348 108.817 139.805 108.977 140.148 109.297C140.5 109.617 140.676 110.024 140.676 110.516C140.676 111.008 140.5 111.414 140.148 111.734C139.805 112.055 139.348 112.215 138.777 112.215C138.199 112.215 137.738 112.055 137.394 111.734C137.051 111.414 136.879 111.008 136.879 110.516ZM149.477 113.82V116.211H142.094V113.82H149.477ZM143.922 110.692H147.297V122.68C147.297 123.047 147.344 123.328 147.437 123.524C147.539 123.719 147.687 123.856 147.883 123.934C148.078 124.004 148.324 124.039 148.621 124.039C148.832 124.039 149.019 124.031 149.184 124.016C149.355 123.992 149.5 123.969 149.617 123.945L149.629 126.43C149.34 126.524 149.027 126.598 148.691 126.652C148.355 126.707 147.984 126.734 147.578 126.734C146.836 126.734 146.187 126.613 145.633 126.371C145.086 126.121 144.664 125.723 144.367 125.176C144.07 124.629 143.922 123.91 143.922 123.02V110.692ZM155.16 125.07L158.523 113.82H162.144L157.047 128.41C156.937 128.731 156.789 129.074 156.602 129.442C156.422 129.809 156.176 130.156 155.863 130.484C155.559 130.82 155.172 131.094 154.703 131.305C154.242 131.516 153.676 131.621 153.004 131.621C152.684 131.621 152.422 131.602 152.219 131.563C152.016 131.524 151.773 131.469 151.492 131.399V128.926C151.578 128.926 151.668 128.926 151.762 128.926C151.855 128.934 151.945 128.938 152.031 128.938C152.477 128.938 152.84 128.887 153.121 128.785C153.402 128.684 153.629 128.527 153.801 128.317C153.973 128.113 154.109 127.848 154.211 127.52L155.16 125.07ZM153.754 113.82L156.508 123.008L156.988 126.582L154.691 126.828L150.133 113.82H153.754ZM177.062 119.422L169.551 116.738V113.586L179.758 117.875V120.137L177.062 119.422ZM169.551 121.672L177.074 118.93L179.758 118.285V120.535L169.551 124.824V121.672ZM194.992 112.356L190.352 126.5H186.613L192.953 109.438H195.332L194.992 112.356ZM198.848 126.5L194.195 112.356L193.82 109.438H196.223L202.598 126.5H198.848ZM198.637 120.149V122.902H189.625V120.149H198.637ZM207.531 108.5V126.5H204.144V108.5H207.531ZM213.883 108.5V126.5H210.496V108.5H213.883ZM234.309 123.758V126.5H225.227V123.758H234.309ZM226.375 109.438V126.5H222.859V109.438H226.375ZM233.125 116.387V119.059H225.227V116.387H233.125ZM234.297 109.438V112.192H225.227V109.438H234.297ZM239.711 108.5V126.5H236.324V108.5H239.711ZM249.355 122.996C249.355 122.754 249.285 122.535 249.144 122.34C249.004 122.145 248.742 121.965 248.359 121.801C247.984 121.629 247.441 121.473 246.73 121.332C246.09 121.192 245.492 121.016 244.937 120.805C244.391 120.586 243.914 120.324 243.508 120.02C243.109 119.715 242.797 119.356 242.57 118.942C242.344 118.52 242.23 118.039 242.23 117.5C242.23 116.969 242.344 116.469 242.57 116C242.805 115.531 243.137 115.117 243.566 114.758C244.004 114.391 244.535 114.106 245.16 113.902C245.793 113.692 246.504 113.586 247.293 113.586C248.394 113.586 249.34 113.762 250.129 114.113C250.926 114.465 251.535 114.949 251.957 115.567C252.387 116.176 252.602 116.871 252.602 117.652H249.227C249.227 117.324 249.156 117.031 249.016 116.774C248.883 116.508 248.672 116.301 248.383 116.152C248.102 115.996 247.734 115.918 247.281 115.918C246.906 115.918 246.582 115.984 246.309 116.117C246.035 116.242 245.824 116.414 245.676 116.633C245.535 116.844 245.465 117.078 245.465 117.336C245.465 117.531 245.504 117.707 245.582 117.863C245.668 118.012 245.805 118.149 245.992 118.274C246.18 118.399 246.422 118.516 246.719 118.625C247.023 118.727 247.398 118.82 247.844 118.906C248.758 119.094 249.574 119.34 250.293 119.645C251.012 119.942 251.582 120.348 252.004 120.863C252.426 121.371 252.637 122.039 252.637 122.867C252.637 123.43 252.512 123.945 252.262 124.414C252.012 124.883 251.652 125.293 251.184 125.645C250.715 125.988 250.152 126.258 249.496 126.453C248.848 126.641 248.117 126.734 247.305 126.734C246.125 126.734 245.125 126.524 244.305 126.102C243.492 125.68 242.875 125.145 242.453 124.496C242.039 123.84 241.832 123.168 241.832 122.481H245.031C245.047 122.942 245.164 123.313 245.383 123.594C245.609 123.875 245.894 124.078 246.238 124.203C246.59 124.328 246.969 124.391 247.375 124.391C247.812 124.391 248.176 124.332 248.465 124.215C248.754 124.09 248.973 123.926 249.121 123.723C249.277 123.512 249.355 123.27 249.355 122.996ZM260.664 126.734C259.68 126.734 258.797 126.578 258.016 126.266C257.234 125.945 256.57 125.504 256.023 124.942C255.484 124.379 255.07 123.727 254.781 122.984C254.492 122.234 254.348 121.438 254.348 120.594V120.125C254.348 119.164 254.484 118.285 254.758 117.488C255.031 116.692 255.422 116 255.93 115.414C256.445 114.828 257.07 114.379 257.805 114.067C258.539 113.746 259.367 113.586 260.289 113.586C261.187 113.586 261.984 113.734 262.68 114.031C263.375 114.328 263.957 114.75 264.426 115.297C264.902 115.844 265.262 116.5 265.504 117.266C265.746 118.024 265.867 118.867 265.867 119.797V121.203H255.789V118.953H262.551V118.695C262.551 118.227 262.465 117.809 262.293 117.442C262.129 117.067 261.879 116.77 261.543 116.551C261.207 116.332 260.777 116.223 260.254 116.223C259.809 116.223 259.426 116.32 259.105 116.516C258.785 116.711 258.523 116.984 258.32 117.336C258.125 117.688 257.977 118.102 257.875 118.578C257.781 119.047 257.734 119.563 257.734 120.125V120.594C257.734 121.102 257.805 121.57 257.945 122C258.094 122.43 258.301 122.801 258.566 123.113C258.84 123.426 259.168 123.668 259.551 123.84C259.941 124.012 260.383 124.098 260.875 124.098C261.484 124.098 262.051 123.981 262.574 123.746C263.105 123.504 263.562 123.141 263.945 122.656L265.586 124.438C265.32 124.82 264.957 125.188 264.496 125.539C264.043 125.891 263.496 126.18 262.855 126.406C262.215 126.625 261.484 126.734 260.664 126.734Z" fill="black"/>
<rect width="337" height="69" transform="translate(1 168)" fill="#370E3D"/>
<path d="M76.2383 206.035C76.2383 205.731 76.1914 205.457 76.0977 205.215C76.0117 204.965 75.8477 204.738 75.6055 204.535C75.3633 204.324 75.0234 204.117 74.5859 203.914C74.1484 203.711 73.582 203.5 72.8867 203.281C72.1133 203.031 71.3789 202.75 70.6836 202.438C69.9961 202.125 69.3867 201.762 68.8555 201.348C68.332 200.926 67.918 200.438 67.6133 199.883C67.3164 199.328 67.168 198.684 67.168 197.949C67.168 197.238 67.3242 196.594 67.6367 196.016C67.9492 195.43 68.3867 194.93 68.9492 194.516C69.5117 194.094 70.1758 193.77 70.9414 193.543C71.7148 193.317 72.5625 193.203 73.4844 193.203C74.7422 193.203 75.8398 193.43 76.7773 193.883C77.7148 194.336 78.4414 194.957 78.957 195.746C79.4805 196.535 79.7422 197.438 79.7422 198.453H76.25C76.25 197.953 76.1445 197.516 75.9336 197.141C75.7305 196.758 75.418 196.457 74.9961 196.238C74.582 196.02 74.0586 195.91 73.4258 195.91C72.8164 195.91 72.3086 196.004 71.9023 196.192C71.4961 196.371 71.1914 196.617 70.9883 196.93C70.7852 197.234 70.6836 197.578 70.6836 197.961C70.6836 198.25 70.7539 198.512 70.8945 198.746C71.043 198.981 71.2617 199.199 71.5508 199.402C71.8398 199.606 72.1953 199.797 72.6172 199.977C73.0391 200.156 73.5273 200.332 74.082 200.504C75.0117 200.785 75.8281 201.102 76.5312 201.453C77.2422 201.805 77.8359 202.199 78.3125 202.637C78.7891 203.074 79.1484 203.57 79.3906 204.125C79.6328 204.68 79.7539 205.309 79.7539 206.012C79.7539 206.754 79.6094 207.418 79.3203 208.004C79.0312 208.59 78.6133 209.086 78.0664 209.492C77.5195 209.899 76.8672 210.207 76.1094 210.418C75.3516 210.629 74.5039 210.734 73.5664 210.734C72.7227 210.734 71.8906 210.625 71.0703 210.406C70.25 210.18 69.5039 209.84 68.832 209.387C68.168 208.934 67.6367 208.356 67.2383 207.652C66.8398 206.949 66.6406 206.117 66.6406 205.156H70.168C70.168 205.688 70.25 206.137 70.4141 206.504C70.5781 206.871 70.8086 207.168 71.1055 207.395C71.4102 207.621 71.7695 207.785 72.1836 207.887C72.6055 207.988 73.0664 208.039 73.5664 208.039C74.1758 208.039 74.6758 207.953 75.0664 207.781C75.4648 207.609 75.7578 207.371 75.9453 207.067C76.1406 206.762 76.2383 206.418 76.2383 206.035ZM85.3086 200.258V215.375H81.9336V197.82H85.0625L85.3086 200.258ZM93.3359 204.02V204.266C93.3359 205.188 93.2266 206.043 93.0078 206.832C92.7969 207.621 92.4844 208.309 92.0703 208.895C91.6562 209.473 91.1406 209.926 90.5234 210.254C89.9141 210.574 89.2109 210.734 88.4141 210.734C87.6406 210.734 86.9688 210.578 86.3984 210.266C85.8281 209.953 85.3477 209.516 84.957 208.953C84.5742 208.383 84.2656 207.723 84.0312 206.973C83.7969 206.223 83.6172 205.418 83.4922 204.559V203.914C83.6172 202.992 83.7969 202.149 84.0312 201.383C84.2656 200.609 84.5742 199.942 84.957 199.379C85.3477 198.809 85.8242 198.367 86.3867 198.055C86.957 197.742 87.625 197.586 88.3906 197.586C89.1953 197.586 89.9023 197.738 90.5117 198.043C91.1289 198.348 91.6445 198.785 92.0586 199.356C92.4805 199.926 92.7969 200.606 93.0078 201.395C93.2266 202.184 93.3359 203.059 93.3359 204.02ZM89.9492 204.266V204.02C89.9492 203.481 89.9023 202.984 89.8086 202.531C89.7227 202.07 89.582 201.668 89.3867 201.324C89.1992 200.981 88.9492 200.715 88.6367 200.527C88.332 200.332 87.9609 200.234 87.5234 200.234C87.0625 200.234 86.668 200.309 86.3398 200.457C86.0195 200.606 85.7578 200.82 85.5547 201.102C85.3516 201.383 85.1992 201.719 85.0977 202.109C84.9961 202.5 84.9336 202.942 84.9102 203.434V205.063C84.9492 205.641 85.0586 206.16 85.2383 206.621C85.418 207.074 85.6953 207.434 86.0703 207.699C86.4453 207.965 86.9375 208.098 87.5469 208.098C87.9922 208.098 88.3672 208 88.6719 207.805C88.9766 207.602 89.2227 207.324 89.4102 206.973C89.6055 206.621 89.7422 206.215 89.8203 205.754C89.9062 205.293 89.9492 204.797 89.9492 204.266ZM98.9961 197.82V210.5H95.6094V197.82H98.9961ZM95.3984 194.516C95.3984 194.024 95.5703 193.617 95.9141 193.297C96.2578 192.977 96.7188 192.817 97.2969 192.817C97.8672 192.817 98.3242 192.977 98.668 193.297C99.0195 193.617 99.1953 194.024 99.1953 194.516C99.1953 195.008 99.0195 195.414 98.668 195.734C98.3242 196.055 97.8672 196.215 97.2969 196.215C96.7188 196.215 96.2578 196.055 95.9141 195.734C95.5703 195.414 95.3984 195.008 95.3984 194.516ZM105.16 200.586V210.5H101.785V197.82H104.961L105.16 200.586ZM108.98 197.738L108.922 200.867C108.758 200.844 108.559 200.824 108.324 200.809C108.098 200.785 107.891 200.774 107.703 200.774C107.227 200.774 106.812 200.836 106.461 200.961C106.117 201.078 105.828 201.254 105.594 201.488C105.367 201.723 105.195 202.008 105.078 202.344C104.969 202.68 104.906 203.063 104.891 203.492L104.211 203.281C104.211 202.461 104.293 201.707 104.457 201.02C104.621 200.324 104.859 199.719 105.172 199.203C105.492 198.688 105.883 198.289 106.344 198.008C106.805 197.727 107.332 197.586 107.926 197.586C108.113 197.586 108.305 197.602 108.5 197.633C108.695 197.656 108.855 197.692 108.98 197.738ZM114.137 197.82V210.5H110.75V197.82H114.137ZM110.539 194.516C110.539 194.024 110.711 193.617 111.055 193.297C111.398 192.977 111.859 192.817 112.438 192.817C113.008 192.817 113.465 192.977 113.809 193.297C114.16 193.617 114.336 194.024 114.336 194.516C114.336 195.008 114.16 195.414 113.809 195.734C113.465 196.055 113.008 196.215 112.438 196.215C111.859 196.215 111.398 196.055 111.055 195.734C110.711 195.414 110.539 195.008 110.539 194.516ZM123.137 197.82V200.211H115.754V197.82H123.137ZM117.582 194.692H120.957V206.68C120.957 207.047 121.004 207.328 121.098 207.524C121.199 207.719 121.348 207.856 121.543 207.934C121.738 208.004 121.984 208.039 122.281 208.039C122.492 208.039 122.68 208.031 122.844 208.016C123.016 207.992 123.16 207.969 123.277 207.945L123.289 210.43C123 210.524 122.688 210.598 122.352 210.652C122.016 210.707 121.645 210.734 121.238 210.734C120.496 210.734 119.848 210.613 119.293 210.371C118.746 210.121 118.324 209.723 118.027 209.176C117.73 208.629 117.582 207.91 117.582 207.02V194.692ZM130.895 210.734C129.91 210.734 129.027 210.578 128.246 210.266C127.465 209.945 126.801 209.504 126.254 208.942C125.715 208.379 125.301 207.727 125.012 206.984C124.723 206.234 124.578 205.438 124.578 204.594V204.125C124.578 203.164 124.715 202.285 124.988 201.488C125.262 200.692 125.652 200 126.16 199.414C126.676 198.828 127.301 198.379 128.035 198.067C128.77 197.746 129.598 197.586 130.52 197.586C131.418 197.586 132.215 197.734 132.91 198.031C133.605 198.328 134.188 198.75 134.656 199.297C135.133 199.844 135.492 200.5 135.734 201.266C135.977 202.024 136.098 202.867 136.098 203.797V205.203H126.02V202.953H132.781V202.695C132.781 202.227 132.695 201.809 132.523 201.442C132.359 201.067 132.109 200.77 131.773 200.551C131.438 200.332 131.008 200.223 130.484 200.223C130.039 200.223 129.656 200.32 129.336 200.516C129.016 200.711 128.754 200.984 128.551 201.336C128.355 201.688 128.207 202.102 128.105 202.578C128.012 203.047 127.965 203.563 127.965 204.125V204.594C127.965 205.102 128.035 205.57 128.176 206C128.324 206.43 128.531 206.801 128.797 207.113C129.07 207.426 129.398 207.668 129.781 207.84C130.172 208.012 130.613 208.098 131.105 208.098C131.715 208.098 132.281 207.981 132.805 207.746C133.336 207.504 133.793 207.141 134.176 206.656L135.816 208.438C135.551 208.82 135.188 209.188 134.727 209.539C134.273 209.891 133.727 210.18 133.086 210.406C132.445 210.625 131.715 210.734 130.895 210.734ZM145.508 207.734V192.5H148.906V210.5H145.848L145.508 207.734ZM137.492 204.313V204.067C137.492 203.098 137.602 202.219 137.82 201.43C138.039 200.633 138.359 199.949 138.781 199.379C139.203 198.809 139.723 198.367 140.34 198.055C140.957 197.742 141.66 197.586 142.449 197.586C143.191 197.586 143.84 197.742 144.395 198.055C144.957 198.367 145.434 198.813 145.824 199.391C146.223 199.961 146.543 200.637 146.785 201.418C147.027 202.192 147.203 203.039 147.312 203.961V204.5C147.203 205.383 147.027 206.203 146.785 206.961C146.543 207.719 146.223 208.383 145.824 208.953C145.434 209.516 144.957 209.953 144.395 210.266C143.832 210.578 143.176 210.734 142.426 210.734C141.637 210.734 140.934 210.574 140.316 210.254C139.707 209.934 139.191 209.484 138.77 208.906C138.355 208.328 138.039 207.649 137.82 206.867C137.602 206.086 137.492 205.234 137.492 204.313ZM140.867 204.067V204.313C140.867 204.836 140.906 205.324 140.984 205.777C141.07 206.231 141.207 206.633 141.395 206.984C141.59 207.328 141.84 207.598 142.145 207.793C142.457 207.981 142.836 208.074 143.281 208.074C143.859 208.074 144.336 207.945 144.711 207.688C145.086 207.422 145.371 207.059 145.566 206.598C145.77 206.137 145.887 205.606 145.918 205.004V203.469C145.895 202.977 145.824 202.535 145.707 202.145C145.598 201.746 145.434 201.406 145.215 201.125C145.004 200.844 144.738 200.625 144.418 200.469C144.105 200.313 143.734 200.234 143.305 200.234C142.867 200.234 142.492 200.336 142.18 200.539C141.867 200.734 141.613 201.004 141.418 201.348C141.23 201.692 141.09 202.098 140.996 202.567C140.91 203.027 140.867 203.527 140.867 204.067ZM157.73 193.438H164.094C165.398 193.438 166.52 193.633 167.457 194.024C168.402 194.414 169.129 194.992 169.637 195.758C170.145 196.524 170.398 197.465 170.398 198.582C170.398 199.496 170.242 200.281 169.93 200.938C169.625 201.586 169.191 202.129 168.629 202.567C168.074 202.996 167.422 203.34 166.672 203.598L165.559 204.184H160.027L160.004 201.442H164.117C164.734 201.442 165.246 201.332 165.652 201.113C166.059 200.895 166.363 200.59 166.566 200.199C166.777 199.809 166.883 199.356 166.883 198.84C166.883 198.293 166.781 197.82 166.578 197.422C166.375 197.024 166.066 196.719 165.652 196.508C165.238 196.297 164.719 196.192 164.094 196.192H161.246V210.5H157.73V193.438ZM167.27 210.5L163.379 202.895L167.094 202.871L171.031 210.336V210.5H167.27ZM178.73 210.734C177.746 210.734 176.863 210.578 176.082 210.266C175.301 209.945 174.637 209.504 174.09 208.942C173.551 208.379 173.137 207.727 172.848 206.984C172.559 206.234 172.414 205.438 172.414 204.594V204.125C172.414 203.164 172.551 202.285 172.824 201.488C173.098 200.692 173.488 200 173.996 199.414C174.512 198.828 175.137 198.379 175.871 198.067C176.605 197.746 177.434 197.586 178.355 197.586C179.254 197.586 180.051 197.734 180.746 198.031C181.441 198.328 182.023 198.75 182.492 199.297C182.969 199.844 183.328 200.5 183.57 201.266C183.812 202.024 183.934 202.867 183.934 203.797V205.203H173.855V202.953H180.617V202.695C180.617 202.227 180.531 201.809 180.359 201.442C180.195 201.067 179.945 200.77 179.609 200.551C179.273 200.332 178.844 200.223 178.32 200.223C177.875 200.223 177.492 200.32 177.172 200.516C176.852 200.711 176.59 200.984 176.387 201.336C176.191 201.688 176.043 202.102 175.941 202.578C175.848 203.047 175.801 203.563 175.801 204.125V204.594C175.801 205.102 175.871 205.57 176.012 206C176.16 206.43 176.367 206.801 176.633 207.113C176.906 207.426 177.234 207.668 177.617 207.84C178.008 208.012 178.449 208.098 178.941 208.098C179.551 208.098 180.117 207.981 180.641 207.746C181.172 207.504 181.629 207.141 182.012 206.656L183.652 208.438C183.387 208.82 183.023 209.188 182.562 209.539C182.109 209.891 181.562 210.18 180.922 210.406C180.281 210.625 179.551 210.734 178.73 210.734ZM192.711 206.996C192.711 206.754 192.641 206.535 192.5 206.34C192.359 206.145 192.098 205.965 191.715 205.801C191.34 205.629 190.797 205.473 190.086 205.332C189.445 205.192 188.848 205.016 188.293 204.805C187.746 204.586 187.27 204.324 186.863 204.02C186.465 203.715 186.152 203.356 185.926 202.942C185.699 202.52 185.586 202.039 185.586 201.5C185.586 200.969 185.699 200.469 185.926 200C186.16 199.531 186.492 199.117 186.922 198.758C187.359 198.391 187.891 198.106 188.516 197.902C189.148 197.692 189.859 197.586 190.648 197.586C191.75 197.586 192.695 197.762 193.484 198.113C194.281 198.465 194.891 198.949 195.312 199.567C195.742 200.176 195.957 200.871 195.957 201.652H192.582C192.582 201.324 192.512 201.031 192.371 200.774C192.238 200.508 192.027 200.301 191.738 200.152C191.457 199.996 191.09 199.918 190.637 199.918C190.262 199.918 189.938 199.984 189.664 200.117C189.391 200.242 189.18 200.414 189.031 200.633C188.891 200.844 188.82 201.078 188.82 201.336C188.82 201.531 188.859 201.707 188.938 201.863C189.023 202.012 189.16 202.149 189.348 202.274C189.535 202.399 189.777 202.516 190.074 202.625C190.379 202.727 190.754 202.82 191.199 202.906C192.113 203.094 192.93 203.34 193.648 203.645C194.367 203.942 194.938 204.348 195.359 204.863C195.781 205.371 195.992 206.039 195.992 206.867C195.992 207.43 195.867 207.945 195.617 208.414C195.367 208.883 195.008 209.293 194.539 209.645C194.07 209.988 193.508 210.258 192.852 210.453C192.203 210.641 191.473 210.734 190.66 210.734C189.48 210.734 188.48 210.524 187.66 210.102C186.848 209.68 186.23 209.145 185.809 208.496C185.395 207.84 185.188 207.168 185.188 206.481H188.387C188.402 206.942 188.52 207.313 188.738 207.594C188.965 207.875 189.25 208.078 189.594 208.203C189.945 208.328 190.324 208.391 190.73 208.391C191.168 208.391 191.531 208.332 191.82 208.215C192.109 208.09 192.328 207.926 192.477 207.723C192.633 207.512 192.711 207.27 192.711 206.996ZM201.746 197.82V210.5H198.359V197.82H201.746ZM198.148 194.516C198.148 194.024 198.32 193.617 198.664 193.297C199.008 192.977 199.469 192.817 200.047 192.817C200.617 192.817 201.074 192.977 201.418 193.297C201.77 193.617 201.945 194.024 201.945 194.516C201.945 195.008 201.77 195.414 201.418 195.734C201.074 196.055 200.617 196.215 200.047 196.215C199.469 196.215 199.008 196.055 198.664 195.734C198.32 195.414 198.148 195.008 198.148 194.516ZM208.098 192.5V210.5H204.711V192.5H208.098ZM214.449 192.5V210.5H211.062V192.5H214.449ZM220.801 197.82V210.5H217.414V197.82H220.801ZM217.203 194.516C217.203 194.024 217.375 193.617 217.719 193.297C218.062 192.977 218.523 192.817 219.102 192.817C219.672 192.817 220.129 192.977 220.473 193.297C220.824 193.617 221 194.024 221 194.516C221 195.008 220.824 195.414 220.473 195.734C220.129 196.055 219.672 196.215 219.102 196.215C218.523 196.215 218.062 196.055 217.719 195.734C217.375 195.414 217.203 195.008 217.203 194.516ZM229.426 210.734C228.441 210.734 227.559 210.578 226.777 210.266C225.996 209.945 225.332 209.504 224.785 208.942C224.246 208.379 223.832 207.727 223.543 206.984C223.254 206.234 223.109 205.438 223.109 204.594V204.125C223.109 203.164 223.246 202.285 223.52 201.488C223.793 200.692 224.184 200 224.691 199.414C225.207 198.828 225.832 198.379 226.566 198.067C227.301 197.746 228.129 197.586 229.051 197.586C229.949 197.586 230.746 197.734 231.441 198.031C232.137 198.328 232.719 198.75 233.188 199.297C233.664 199.844 234.023 200.5 234.266 201.266C234.508 202.024 234.629 202.867 234.629 203.797V205.203H224.551V202.953H231.312V202.695C231.312 202.227 231.227 201.809 231.055 201.442C230.891 201.067 230.641 200.77 230.305 200.551C229.969 200.332 229.539 200.223 229.016 200.223C228.57 200.223 228.188 200.32 227.867 200.516C227.547 200.711 227.285 200.984 227.082 201.336C226.887 201.688 226.738 202.102 226.637 202.578C226.543 203.047 226.496 203.563 226.496 204.125V204.594C226.496 205.102 226.566 205.57 226.707 206C226.855 206.43 227.062 206.801 227.328 207.113C227.602 207.426 227.93 207.668 228.312 207.84C228.703 208.012 229.145 208.098 229.637 208.098C230.246 208.098 230.812 207.981 231.336 207.746C231.867 207.504 232.324 207.141 232.707 206.656L234.348 208.438C234.082 208.82 233.719 209.188 233.258 209.539C232.805 209.891 232.258 210.18 231.617 210.406C230.977 210.625 230.246 210.734 229.426 210.734ZM239.855 200.527V210.5H236.48V197.82H239.645L239.855 200.527ZM239.363 203.715H238.449C238.449 202.777 238.57 201.934 238.812 201.184C239.055 200.426 239.395 199.781 239.832 199.25C240.27 198.711 240.789 198.301 241.391 198.02C242 197.731 242.68 197.586 243.43 197.586C244.023 197.586 244.566 197.672 245.059 197.844C245.551 198.016 245.973 198.289 246.324 198.664C246.684 199.039 246.957 199.535 247.145 200.152C247.34 200.77 247.438 201.524 247.438 202.414V210.5H244.039V202.402C244.039 201.84 243.961 201.402 243.805 201.09C243.648 200.777 243.418 200.559 243.113 200.434C242.816 200.301 242.449 200.234 242.012 200.234C241.559 200.234 241.164 200.324 240.828 200.504C240.5 200.684 240.227 200.934 240.008 201.254C239.797 201.567 239.637 201.934 239.527 202.356C239.418 202.777 239.363 203.231 239.363 203.715ZM255.242 208.098C255.656 208.098 256.023 208.02 256.344 207.863C256.664 207.699 256.914 207.473 257.094 207.184C257.281 206.887 257.379 206.539 257.387 206.141H260.562C260.555 207.031 260.316 207.824 259.848 208.52C259.379 209.207 258.75 209.75 257.961 210.149C257.172 210.539 256.289 210.734 255.312 210.734C254.328 210.734 253.469 210.57 252.734 210.242C252.008 209.914 251.402 209.461 250.918 208.883C250.434 208.297 250.07 207.617 249.828 206.844C249.586 206.063 249.465 205.227 249.465 204.336V203.996C249.465 203.098 249.586 202.262 249.828 201.488C250.07 200.707 250.434 200.027 250.918 199.449C251.402 198.863 252.008 198.406 252.734 198.078C253.461 197.75 254.312 197.586 255.289 197.586C256.328 197.586 257.238 197.785 258.02 198.184C258.809 198.582 259.426 199.152 259.871 199.895C260.324 200.629 260.555 201.5 260.562 202.508H257.387C257.379 202.086 257.289 201.703 257.117 201.359C256.953 201.016 256.711 200.742 256.391 200.539C256.078 200.328 255.691 200.223 255.23 200.223C254.738 200.223 254.336 200.328 254.023 200.539C253.711 200.742 253.469 201.024 253.297 201.383C253.125 201.734 253.004 202.137 252.934 202.59C252.871 203.035 252.84 203.504 252.84 203.996V204.336C252.84 204.828 252.871 205.301 252.934 205.754C252.996 206.207 253.113 206.609 253.285 206.961C253.465 207.313 253.711 207.59 254.023 207.793C254.336 207.996 254.742 208.098 255.242 208.098ZM268.355 210.734C267.371 210.734 266.488 210.578 265.707 210.266C264.926 209.945 264.262 209.504 263.715 208.942C263.176 208.379 262.762 207.727 262.473 206.984C262.184 206.234 262.039 205.438 262.039 204.594V204.125C262.039 203.164 262.176 202.285 262.449 201.488C262.723 200.692 263.113 200 263.621 199.414C264.137 198.828 264.762 198.379 265.496 198.067C266.23 197.746 267.059 197.586 267.98 197.586C268.879 197.586 269.676 197.734 270.371 198.031C271.066 198.328 271.648 198.75 272.117 199.297C272.594 199.844 272.953 200.5 273.195 201.266C273.438 202.024 273.559 202.867 273.559 203.797V205.203H263.48V202.953H270.242V202.695C270.242 202.227 270.156 201.809 269.984 201.442C269.82 201.067 269.57 200.77 269.234 200.551C268.898 200.332 268.469 200.223 267.945 200.223C267.5 200.223 267.117 200.32 266.797 200.516C266.477 200.711 266.215 200.984 266.012 201.336C265.816 201.688 265.668 202.102 265.566 202.578C265.473 203.047 265.426 203.563 265.426 204.125V204.594C265.426 205.102 265.496 205.57 265.637 206C265.785 206.43 265.992 206.801 266.258 207.113C266.531 207.426 266.859 207.668 267.242 207.84C267.633 208.012 268.074 208.098 268.566 208.098C269.176 208.098 269.742 207.981 270.266 207.746C270.797 207.504 271.254 207.141 271.637 206.656L273.277 208.438C273.012 208.82 272.648 209.188 272.188 209.539C271.734 209.891 271.188 210.18 270.547 210.406C269.906 210.625 269.176 210.734 268.355 210.734Z" fill="#F3B6FC"/>
</svg>
