<svg id="visual" viewBox="0 0 900 600" width="900" height="600" xmlns="http://www.w3.org/2000/svg" xmlns:xlink="http://www.w3.org/1999/xlink" version="1.1"><path d="M0 307L37.5 309.2C75 311.3 150 315.7 225 319.5C300 323.3 375 326.7 450 320.8C525 315 600 300 675 289.7C750 279.3 825 273.7 862.5 270.8L900 268L900 601L862.5 601C825 601 750 601 675 601C600 601 525 601 450 601C375 601 300 601 225 601C150 601 75 601 37.5 601L0 601Z" fill="#FFF8E5" stroke-linecap="round" stroke-linejoin="miter"></path></svg>