<svg id="visual" viewBox="0 0 900 600" width="900" height="600" xmlns="http://www.w3.org/2000/svg" xmlns:xlink="http://www.w3.org/1999/xlink" version="1.1"><rect x="0" y="0" width="900" height="600" fill="#FFF8E5"></rect><path d="M0 529L37.5 525.7C75 522.3 150 515.7 225 516.7C300 517.7 375 526.3 450 528.2C525 530 600 525 675 522.3C750 519.7 825 519.3 862.5 519.2L900 519L900 601L862.5 601C825 601 750 601 675 601C600 601 525 601 450 601C375 601 300 601 225 601C150 601 75 601 37.5 601L0 601Z" fill="#FFFFFF" stroke-linecap="round" stroke-linejoin="miter"></path></svg>