<svg xmlns="http://www.w3.org/2000/svg" viewBox="0 0 1200 1200" width="1200" height="1200"><g transform="translate(829.0 289.0) rotate(0.0 159.0 331.5) scale(1.0003554722275525 1.000988910613049)"><svg width="317.887" height="662.345" viewBox="0 0 317.887 662.345"><path d="M109.54 515.953c31.677-5.755 55.404-14.822 71.107-21.96 29.619-13.463 40.276-23.93 64.833-25.097 6.11-.29 38.503-1.829 52.285 18.823 4.368 6.545 9.006 18.525 4.183 25.097-8.12 11.063-36.233 5.993-51.239 3.137-5.927-1.128-6.301-1.59-18.823-4.183-15.995-3.312-23.992-4.969-31.371-5.228-13.605-.479-21.549 3.289-32.417 6.274-13.034 3.58-32.331 6.599-58.558 3.137z" fill="#1d0333"/><path d="m170.191 447.983-.69 41.629-.69 41.786c-.345 20.895-1.059 58.341-2.668 130.947h-58a793.693 793.693 0 0 1-11.15-107.701c-.288-8.272-.44-16.42-.471-24.438v-.272a910.33 910.33 0 0 1 .241-28.453 951.066 951.066 0 0 1 3.367-60.818c23.349 2.436 46.71 4.883 70.061 7.32zm141.951 214.362h-59a2888.16 2888.16 0 0 1-37.986-145.346 2076.962 2076.962 0 0 1-18.572-84.837l69.957-12.548a4244.689 4244.689 0 0 1 12.36 56.269c1.735 8.159 3.811 17.929 5.438 25.986 9.268 45.888 9.958 65.918 17.803 110.478a1113.319 1113.319 0 0 0 10 49.998z" fill="#e59588"/><path d="M287.309 502.359c-6.387-1.533-15.024-2.409-21.96 2.091-7.128 4.625-5.219 9.717-11.503 13.594-9.829 6.065-19.199-2.729-32.417 2.091a26.314 26.314 0 0 0-4.925 2.416l-1.349-5.553a2067.935 2067.935 0 0 1-5.093-21.646 179341.7 179341.7 0 0 0 66.789-24.365c.68 1.631 1.37 3.263 2.05 4.894a73.778 73.778 0 0 0 8.408 26.478zM169.5 489.612l-.69 41.786c-4.026-.659-9.213-1.359-16.397.241-11.984 2.677-12.894 8.062-20.914 7.32-9.725-.899-10.959-9.056-21.96-10.457-6.138-.784-10.018 1.213-13.019 1.704v-.272l.241-28.453c29.061-18.813 57.713-22.598 72.739-11.869zM140.149 36.967c-.208 8.687 5.131 14.857 5.755 17.083 13.617 48.57 3.491 93.527-7.084 123.097l136.322-5.802c1.795-16.237-2.04-26.016-6-32-4.761-7.193-9.37-8.398-16-17-6.926-8.986-9.609-17.679-12-26-15.074-52.47-13.312-72.048-30-86-2.56-2.14-10.31-8.452-22-10-12.062-1.598-21.745 2.746-26 5-10.525 7.164-22.668 18.009-22.993 31.622z" fill="#1d0333"/><path d="M117.906 163.553c14.662.25 29.655.261 44.965 0 41.662-.71 81.127-3.356 118.164-7.32l-25.097 194.499a409.433 409.433 0 0 1-57.513 5.228c-35.396.709-66.226-3.277-90.976-8.366a726.612 726.612 0 0 0 3.137-48.102c.842-26.192.418-39.561 0-57.513-.426-18.296.521-44.935 7.32-78.426z" fill="#FDEDBB"/><path d="M304.042 503.405c-.08.02-.15-.16-.24-.5-.35-1.23-.94-4.48-2.9-6.82-3.84-4.59-10.11-5.59-18.32-4.38-.11.01-.21.03-.32.05-14.16 2.15-34.04 10.71-57.27 18.6-3.46 1.17-7 2.33-10.6 3.46-14.27 4.45-29.58 8.3-45.46 10.1-16.58 1.88-33.78 1.52-51.03-2.73-8.14-2.01-15.28-4.63-21.24-7.26-.04-.02-.07-.03-.1-.05-5.99-2.64-10.78-5.29-14.21-7.33 1.41-27.96 4.53-59.24 10.46-93.07.38-2.16.76-4.3 1.15-6.42 1.76-9.53 3.65-18.78 5.65-27.73.05-.24.1-.49.16-.73 1.1-4.92 2.23-9.74 3.39-14.48 1.4-5.75 2.85-11.37 4.32-16.85 1.02-3.79 2.05-7.51 3.1-11.17 6.8.19 13.61.39 20.41.58 14.45.41 28.9.83 43.34 1.24l7.25.21c.21 0 .41.01.61.01l.72.03c7.68.21 15.35.43 23.02.65l.93.03 47.32 1.35c.93.03 1.87.05 2.8.08.08.22.15.45.22.67.06.18.12.35.18.52 3.76 11.26 7.24 21.97 10.44 32.09.04.12.08.23.11.34 3.07 9.69 5.89 18.83 8.48 27.37 3.74 12.33 6.97 23.41 9.73 33.08 7.72 27.06 19.04 68.72 17.9 69.06z" fill="#cc9af0"/><path d="M276.412 401.265c-.2-.12-.4-.23-.61-.34-7.02-3.66-10.65-.82-17.77-3.14-11.74-3.8-9.67-14.02-21.96-19.86-9.43-4.49-12.59.6-23.01-4.19-11.1-5.11-9.98-12.04-18.82-14.64-12.31-3.6-25.61 6.6-29.28 9.41-9.4 7.22-6.95 10.8-14.64 15.69-7.29 4.64-25.32 4.39-35.55 7.32-5.66 1.62-13.19 5.47-20.81 15.54-.03.05-.07.1-.11.15 1.4-8.78 3.18-18.08 5.45-27.81.05-.24.1-.49.17-.74.53-2.31 1.1-4.65 1.7-7.01.65-2.55 1.31-5.06 1.99-7.53 1.56-5.69 3.19-11.16 4.87-16.4.23-.74.47-1.48.71-2.22 5.63-2.66 13.13-5.87 22.25-8.82 11.28-3.66 25.04-6.94 40.78-8.32 6.76-.61 13.88-.85 21.33-.63h.09c.06 0 .12 0 .18.01 25.7.8 46.58 6.91 60.81 12.46 1.03.39 2.02.79 2.97 1.18.08.03.16.06.23.09.06.03.11.05.16.07 2.93 6.66 5.85 13.55 12.69 31.68.05.11.09.23.14.35-.81.15-1.62.26-2.44.33 3.07 9.69 5.89 18.83 8.48 27.37z" fill="#1d0333"/><path d="M313.452 332.955c-3.55 8.3-9.41 15.69-9.41 15.69-.32.41-.64.82-.96 1.22-7.55 9.4-17.33 17.3-25.44 21.21-.02.01-.03.01-.05.02-1.35.65-2.65 1.19-3.88 1.6-1.11.37-2.22.66-3.34.87-.81.15-1.62.26-2.44.33-1.97.15-3.99.06-6.13-.3h-.01c-8.76-1.47-19.37-7.42-35.11-19.18-5.84-4.36-12.39-9.53-19.82-15.57-4.21-3.42-8.689-7.12-13.49-11.11-.05-.05-.11-.09-.16-.13-.53-.45-1.07-.9-1.61-1.34-.35-.3-.7-.59-1.05-.88-6.1-5.1-12.69-10.65-19.83-16.67-1.26-1.07-2.56-2.16-3.89-3.29-1.73-1.46-3.52-2.97-5.36-4.53-1.74-1.47-3.52-2.98-5.35-4.53-9.27-7.86-19.71-16.72-31.11-26.45a.187.187 0 0 0-.07-.06c-.58-.5-1.16-1-1.75-1.5 4.59-10.54 9.19-21.09 13.79-31.63.49-1.12.97-2.23 1.46-3.35 19.13 10.35 38.69 21.17 58.19 32.17 7.9 4.46 15.8 8.94 23.65 13.45 6.43 3.68 12.83 7.37 19.18 11.07 4.01 2.33 8.01 4.66 11.98 6.99.71-7.32 1.68-14.36 2.77-21.11.47-2.92.96-5.79 1.47-8.6.02-.09.04-.19.05-.28.03-.14.05-.28.08-.42 6.03-33.15 13.75-58.72 5.72-75.99-4.83-10.4-15.36-17.79-35.38-22.03-5.05-1.07-10.7-1.94-17.01-2.6-.29-.03-.58-.06-.87-.1l-.68-.06c-6.24-.62-13.11-1.04-20.67-1.27 4.939-.79 9.729-1.54 14.34-2.25h.02a1085 1085 0 0 1 8-1.21c.17-.03.34-.06.51-.08.15-.02.29-.05.44-.06 22.9-3.41 40.79-5.64 51.53-6.68 1.11-.1 2.15-.2 3.1-.28.79-.07 1.79-.15 2.94-.18 3.39-.11 8.16.19 13.23 2.38 0 0 7.75 3.35 13.6 11.5 12.14 16.95 9.55 54.27 14.64 90.98.97 7.01 2.12 13.24 3.26 18.92 1.47 7.36 2.92 13.79 3.94 19.75 2.13 12.48 2.39 22.91-3.02 35.57z" fill="#FDEDBB"/><path d="M169.145 163.553c-12.053.746-21.752.415-28.234 0-15.529-.995-23.118-3.153-34.508 0-.912.253-9.057 2.567-15.685 7.32-18.038 12.935-19.753 40.279-20.442 49.046-6.489 82.514-48.667 127.549-24.523 151.728 24.04 24.075 85.031-1.367 92.422-4.45 31.069-12.96 50.497-33.626 60.25-45.744l44.965-15.685-39.736-20.914c-29.467 5.935-76.057 19.403-101.432 26.142l66.923-147.443z" fill="#FDEDBB"/><path d="M195.999 57.839a626.48 626.48 0 0 1 14.248 103.085c-2.244 8.394-8.925 14.757-17.051 16.223-9.725 1.753-19.874-3.805-24.051-13.594a115.735 115.735 0 0 0 4.262-33.431c-.363-18.44-5.082-33.057-8.853-42.158a698.935 698.935 0 0 0 31.445-30.125z" fill="#e59588"/><path d="M195.48 49.936c.417 1.619.736 3.275.965 4.931l.004.01a47.69 47.69 0 0 1 .475 5.528l.004.01c.021.562.024 1.108.012 1.671-.006.014.001.033-.005.047-.039 9.104-2.412 18.301-6.344 26.553-4.49 9.476-11.014 17.694-18.319 23.055-.087.066-.174.132-.274.192-5.248 3.786-10.888 6.111-16.464 6.369-10.841.511-19.156-6.871-20.04-7.679-4.417-4.04-6.828-8.955-8.211-15.092-.561-2.481-.951-5.16-1.232-8.059-.035-.21-.049-.428-.064-.646-.445-4.646-.627-9.871-.83-15.747-.001-.033-.006-.076.003-.113-.015-.218-.02-.439-.024-.661-.028-.76-.052-1.51-.069-2.241-.163-4.785-.284-8.894-.245-12.516l-.004-.01c.075-8.504.999-14.232 4.212-19.489l.006-.013c.053-.098.115-.199.178-.301 2.57-4.078 6.191-7.914 10.532-10.992l.02-.007a36.22 36.22 0 0 1 2.592-1.697l.01-.004a39.758 39.758 0 0 1 7.378-3.468c3.212-1.114 6.582-1.774 10.05-1.878l.01-.004a31.498 31.498 0 0 1 7.456.646c13.523 2.862 21.025 13.943 24.844 22.261 2.092 4.52 3.088 8.223 3.374 9.344z" fill="#e59588"/><path d="M188.176 93.565c.568 3.081-.121 5.839-1.512 11.213-2.597 10.018-2.968 11.295-3.871 13.531-.803 1.965-2.238 5.444-5.078 8.311-1.126 1.136-3.425 3.12-7.206 4.389.004-.07.003-.126.006-.196 0 0 .159-8.703-1.387-17 3.314-2.4 6.547-5.517 9.121-9.579 5.014-7.907 5.078-16.353 7.173-16.301 1.419.035 2.428 3.848 2.754 5.632zm18.906-61.52c.09 5.62-1.78 11.52-4.48 16.05-1.13 1.91-2.41 3.58-3.75 4.87-.79.77-1.6 1.41-2.41 1.9-1.28.78-2.58 1.19-3.83 1.13-2.85-.14-5.63-2.65-8-6.75-2.46-4.2-4.49-10.08-5.8-16.77-.81 3.89-1.64 7.78-2.45 11.67l-8.63.84c-1.32-2.51-2.62-5.01-3.93-7.51l-2.89 8.39c-11.76 1.24-25.45 5.21-36.09 9.65a98.323 98.323 0 0 0-7.53 3.49c-.04-7.72.44-14.43 1.08-19.94.24-2.08.5-3.99.77-5.72.64-4.15 1.25-7.01 1.96-9.28.59-1.85 1.24-3.3 2.04-4.72 0 0 3.96-7 12-12 23.17-14.41 65.91-1.32 71.31 19.78.41 1.59.61 3.24.63 4.92z" fill="#1d0333"/><path d="M183.307 51.224a52.36 52.36 0 0 1 10.405-12.059c4.686-3.991 10.123-8.62 14.097-6.879 3.34 1.464 4.489 6.922 4.105 10.796-1.135 11.462-16.913 21.48-24.021 17.54-1.222-.677-3.817-2.67-4.586-9.398z" fill="#e59588"/><path d="M197.313 54.698a1 1 0 0 1-.36-1.934c2.534-.977 3.971-2.551 4.47-3.698.221-.508.229-.863.164-1.025-.265-.659-2.771-1.628-6.218-.436a1 1 0 0 1-1.252-1.325c.622-1.513 2.518-5.228 6.67-7.025a11.987 11.987 0 0 1 4.6-.977c.562.007 1.007.432 1.016.984a1 1 0 0 1-.984 1.016 9.98 9.98 0 0 0-3.836.812c-2.266.981-3.737 2.662-4.634 4.07 3.26-.489 5.853.537 6.494 2.135.293.728.229 1.617-.186 2.569-.855 1.966-2.942 3.748-5.585 4.767a1.005 1.005 0 0 1-.359.067z" fill="#1d0333"/><path d="M163.542 15.495c-.69.73-1.38 1.45-2.06 2.18h-.01c-3.4 3.6-6.81 7.2-10.21 10.79-1.65-2.54-4.25-5.7-7.43-5.68-.56 0-1.09.12-1.6.33-.67.26-1.31.7-1.92 1.24-2.22 1.98-4.18 5.44-6.87 8.15-1.1 1.11-2.47 2.22-4.22 3.21-2.65 1.52-6.15 2.77-10.85 3.35.24-2.08.5-3.99.77-5.72.64-4.15 1.25-7.01 1.96-9.28 1.55 1.18 3.54 2.2 5.86 2.3 7.87.32 12.34-10.4 18.79-9.18 1.62.31 2.94 1.26 3.97 2.39.87.89 1.55 1.91 2.06 2.82 2.67-1.57 5.35-3.14 8.02-4.71h.01c1.24-.74 2.49-1.46 3.73-2.19z" fill="#eedcff"/><path d="M188.942 178.092c-5.025 0-8.835-1.68-9.776-2.136-9.084-4.406-11.623-13.528-12.04-15.312a.999.999 0 1 1 1.947-.455c.381 1.629 2.698 9.958 10.966 13.967 1.204.583 7.579 3.375 14.941.994 7.84-2.536 13.59-9.843 15.005-19.068a1 1 0 1 1 1.977.304c-1.53 9.978-7.802 17.897-16.366 20.668a21.574 21.574 0 0 1-6.654 1.038z" fill="#1d0333"/><path d="M173.867 71.533c-.89 1.69-3.375 1.169-7.338 1.927-.51.099-.988.208-1.455.326-.456.129-.902.247-1.317.385-4.446 1.39-6.582 3.389-9.289 2.101-.425-.207-1.04-.481-1.381-1.025a1.58 1.58 0 0 1-.189-.371c-.708-1.966 2.18-5.412 6.01-7.442a14.55 14.55 0 0 1 2.717-1.128c4.655-1.417 10.803-.483 12.193 2.582.057.123.652 1.486.049 2.645zm-30.854 6.853c-.664 1.234-2.386 1.003-5.114 1.441-.26.039-.52.089-.801.139-.822.161-1.558.361-2.232.57-3.585 1.134-5.316 2.724-7.481 1.722-.276-.128-.657-.305-.949-.589a1.475 1.475 0 0 1-.319-.503c-.549-1.563 1.795-4.302 4.884-5.933.7-.377 1.444-.692 2.19-.913 3.753-1.149 8.701-.451 9.8 1.974.046.103.507 1.177.022 2.092zm9.683 13.029c2.423-1.966 3.472-3.803 4.78-3.46.935.245 1.36 1.436 1.464 1.726 1.097 3.076-1.45 8.445-5.571 9.175-3.238.574-6.881-1.817-6.781-3.448.08-1.303 2.488-1.055 6.108-3.993z" fill="#fff"/><path d="M144.601 72.422c-.796 3.801-2.023 7.532-3.54 11.107-.368.892-.76 1.783-1.057 2.638-.141.41-.252.868-.223 1.078.011.114.027.067.022.073 0 0 .072.033.217.042.624.032 1.567-.261 2.395-.589.852-.339 1.7-.744 2.539-1.172l.005-.002a1.001 1.001 0 0 1 .908 1.782c-.014.007-.031.016-.046.022-.901.402-1.816.784-2.775 1.109-.482.159-.97.31-1.495.418-.525.104-1.067.201-1.739.121-.33-.048-.744-.155-1.107-.482-.182-.154-.309-.376-.417-.586-.068-.208-.139-.448-.13-.624-.009-.759.213-1.235.389-1.728.386-.949.819-1.803 1.231-2.675 1.676-3.446 3.056-7.014 4.036-10.723a.405.405 0 0 1 .787.191zm31.008-11.13c-.496 1.072-4.935-1.245-10.387-1.207-7.762.054-12.466 4.814-13.851 3.233-.759-.866.05-3.077 1.13-4.29.33-.371.99-.987 2.71-1.58 2.075-.716 3.242-.553 5.543-.762 4.843-.441 5.408-1.683 7.904-.977 1.405.398 2.668 1.2 3.387 1.657 1.486.944 2.178 1.713 2.511 2.119.759.926 1.21 1.468 1.053 1.807zm-38.482 4.81c-.575 1.087-2.463.342-5.239.98-3.469.786-5.667 3.117-6.73 3.884-.015-.218-.02-.439-.024-.661-.028-.76-.052-1.51-.069-2.241.469-.745 1.478-1.838 3.68-3.054 2.448-1.364 5.685-3.157 7.379-1.793.325.269 1.016.982 1.003 2.885z" fill="#1d0333"/><ellipse cx="174.021" cy="81.926" fill="#e27469" rx="8.888" ry="5.751" transform="matrix(.9281 -.3724 .3724 .9281 -17.9925 70.7016)"/><path d="M132.795 87.153c1.125 2.817-1.319 6.482-5.511 8.379-.563-2.481-.954-5.16-1.238-8.058-.006.013-.006.013-.02.007l-.044-.654a108.49 108.49 0 0 1-.149-2.569c2.027-.225 3.879.097 5.196.898.81.491 1.431 1.162 1.766 1.997z" fill="#e27469"/><g fill="#1d0333"><path d="M137.899 79.827c-.26.039-.52.089-.801.139-.822.161-1.558.361-2.232.57-3.585 1.134-5.316 2.724-7.481 1.722-.276-.128-.657-.305-.949-.589.468-.964 1.671-3.066 4.129-4.257.419-.203 4.269-2.069 6.271-.189.841.788 1.023 1.925 1.063 2.604zm27.175-6.041c-.456.129-.902.247-1.317.385-4.446 1.39-6.582 3.389-9.289 2.101-.425-.207-1.04-.481-1.381-1.025.469-.93 2.124-3.912 5.51-4.958 1.682-.52 5.161-.985 6.303.856.51.821.397 1.846.174 2.641zm-55.533 236.119a1 1 0 0 1-.988-1.156 332.098 332.098 0 0 0 2.085-15.638c2.877-26.414 2.526-53.424-1.043-80.278a1 1 0 0 1 1.982-.264c3.591 27.014 3.943 54.185 1.049 80.759a330.73 330.73 0 0 1-2.099 15.733.998.998 0 0 1-.986.844zm146.396-39.737a1 1 0 0 1-.989-.858l-6.274-43.919a1 1 0 0 1 1.981-.283l6.274 43.919a1 1 0 0 1-.992 1.141zM206.79 120.68c4.569 26.249 5.752 58.375-3.648 92.665a197.006 197.006 0 0 1-3.672 11.904c2.03.291 5.058.537 8.672.096 6.674-.814 11.389-3.486 14-5 4.334-2.513 7.161-5.184 8-6 7.169-6.973 9.901-15.365 11-20a81.2 81.2 0 0 1-1 16 80.751 80.751 0 0 1-2 9l7-3c3.201-4.717 7.709-12.547 10-23 2.673-12.194 1.044-22.094 0-28-6.298-35.637-19.939-87.948-21-92L206.79 120.68z"/><path d="M249.664 226.295c-1.919 2.434-4.53 6.294-6.274 11.503-2.562 7.65-1.414 12.712-2.091 19.868-.504 5.323-2.123 12.92-7.32 21.96l23.005-4.183-7.32-49.148z"/></g><path d="M218.021 277.179c11.763-6.475 32.634-15.267 56.45-10.772 15.578 2.94 37.707 12.565 37.463 21.834-.053 2.007-1.177 4.829-3.268 5.764-3.048 1.363-6.726-1.97-12.551-5.503-3.492-2.118-8.809-4.946-16.05-7.34 5.446 4.582 12.697 11.889 16.303 21.104 2.626 6.71 1.354 9.409.653 10.476-.174.265-1.684 2.483-4.305 2.686-2.423.188-4.888-1.415-6.178-4.087 1.755 6.29.644 11.517-2.215 12.951-1.392.698-2.909.351-3.492.218-3.536-.81-6.271-4.444-7.222-9.22.756 4.416-.538 8.301-3.253 9.873-.262.152-2.237 1.257-4.313.631-4.767-1.438-4.522-10.339-7.251-17.438-2.061-5.361-6.913-12.542-19.788-18.832-6.994-4.117-13.988-8.231-20.983-12.345z" fill="#e59588"/><path d="M274.037 321.217h-.013a1 1 0 0 1-.987-1.013 52.22 52.22 0 0 0-1.046-11.083 52.165 52.165 0 0 0-5.293-14.496 1 1 0 0 1 1.757-.955 54.192 54.192 0 0 1 5.494 15.051 54.192 54.192 0 0 1 1.087 11.509.998.998 0 0 1-.999.987zm13.329-7.237a1 1 0 0 1-.989-.862 44.399 44.399 0 0 0-1.633-7.227c-2.033-6.429-5.505-12.302-10.316-17.456a1.001 1.001 0 0 1 1.461-1.366c5.018 5.374 8.639 11.503 10.762 18.218a46.249 46.249 0 0 1 1.707 7.554 1 1 0 0 1-.992 1.139zm9.003-10.715a.999.999 0 0 1-.908-.579 57.188 57.188 0 0 0-22.096-24.759 1 1 0 0 1 1.043-1.708 59.217 59.217 0 0 1 22.867 25.625 1 1 0 0 1-.906 1.421zm-185.783-87.427c-1.389-.088-3.633 9.573-4.183 17.777-.616 9.187 1.321 10.112 0 15.685-2.359 9.95-9.152 9.621-11.503 18.823-2.239 8.766 3.43 11.007 1.046 20.914-.41 1.704-1.019 3.47-8.366 15.685a779.139 779.139 0 0 1-8.366 13.594 444.316 444.316 0 0 0 30.325-9.411 517.902 517.902 0 0 0 2.091-23.005c2.243-32.721 1.659-69.891-1.044-70.062z" fill="#1d0333"/><path d="M138.438 239.838c-3.399-1.707-32.107-16.022-54.477-22.107-6.931-1.886-15.113-3.486-24.528-1.692-1.075.205-4.016.819-8.936 2.708-8.624 3.311-15.301 7.469-33.272 21.399C2.79 251.335-.772 254.752.131 257.24c.82 2.258 4.931 2.688 6.648 2.849 18.651 1.751 26.24-19.82 48.425-22.059 2.999-.303 13.028-1.192 21.991 5.075 6.939 4.851 9.895 11.46 10.995 14.379.72 1.17 2.07 3.143 4.229 5.075 3.987 3.567 8.004 4.552 20.725 7.994 1.678.454 5.227 1.416 9.937 2.71a65.892 65.892 0 0 0 15.357-33.425z" fill="#e59588"/><path d="M50.129 229.572c-5.939 3.638-9.089 14.084-5.075 21.145 1.876 3.299 4.854 5.048 6.766 5.921.24 1.17.847 3.226 2.537 5.075 3.768 4.121 9.494 3.469 10.15 3.383 1.754 1.144 4.387 2.46 7.612 2.537 12.165.294 23.999-17.206 20.299-25.374-.893-1.972-2.525-2.888-14.379-6.766-23.39-7.653-25.895-7.155-27.91-5.921z" fill="#e59588"/><path d="M51.821 257.639c-.11 0-.222-.019-.331-.057-2.668-.936-4.879-2.52-6.395-4.58-3.195-4.342-2.4-9.307-1.874-12.591.23-1.439 2.543-14.148 12.493-17.701 1.708-.61 3.572-.896 5.416-.904a1 1 0 0 1-.005 2c-.023.002-.054 0-.081 0-1.626 0-3.192.265-4.658.788-8.866 3.165-10.979 14.815-11.19 16.133-.474 2.956-1.188 7.422 1.511 11.09 1.276 1.735 3.159 3.076 5.445 3.878a1 1 0 0 1-.331 1.944z" fill="#1d0333"/><path d="M63.352 266.138c-2.523 0-6.744-.544-9.725-3.743-1.234-1.325-2.167-3.176-2.774-5.504-2.081-7.983.166-19.496 8.431-25.106 1.971-1.338 4.213-2.3 6.664-2.858a1 1 0 0 1 .443 1.95c-2.206.502-4.22 1.365-5.984 2.562-7.506 5.096-9.527 15.626-7.618 22.947.522 2.003 1.297 3.566 2.302 4.646 2.953 3.169 7.518 3.201 9.345 3.067.56-.026 1.031.374 1.07.924a1 1 0 0 1-.924 1.071c-.337.024-.754.044-1.23.044z" fill="#1d0333"/><path d="M71.768 268.533c-2.268 0-4.345-.591-6.117-1.755-6.4-4.206-5.56-14.045-5.521-14.461.81-8.719 7.748-13.387 9.131-14.234a1 1 0 1 1 1.045 1.705c-1.24.76-7.463 4.944-8.184 12.714-.035.369-.779 9.052 4.627 12.605 2.11 1.385 4.788 1.771 7.747 1.116 4.85-1.072 10.132-4.881 12.845-9.264 1.459-2.354 3.472-6.895 1.766-8.992-1.474-1.815-5.16-1.414-7.308-.549-5.362 2.16-6.139 9.251-6.146 9.323a1 1 0 0 1-1.991-.201c.034-.341.918-8.371 7.388-10.977 2.628-1.059 7.355-1.628 9.608 1.143 2.837 3.49-.521 9.537-1.618 11.307-2.975 4.805-8.778 8.984-14.113 10.164a14.74 14.74 0 0 1-3.159.356zM252.8 299.448a.99.99 0 0 1-.54-.159 785.348 785.348 0 0 0-41.774-25.064 785.531 785.531 0 0 0-70.883-35 69.45 69.45 0 0 1-5.1 16.76 69.462 69.462 0 0 1-12.73 19.097 1 1 0 1 1-1.459-1.369 67.44 67.44 0 0 0 17.517-36.065.996.996 0 0 1 1.384-.768 787.107 787.107 0 0 1 72.245 35.599 787.006 787.006 0 0 1 41.882 25.129 1 1 0 0 1-.542 1.84z" fill="#1d0333"/><path d="m137.774 300.54 16.731-4.183a368.027 368.027 0 0 1 38.691 31.371l-19.868 17.777c2.299-10.389.275-15.256-2.091-17.777-4.298-4.578-10.078-1.794-15.685-7.32-4.076-4.016-2.806-7.244-7.32-12.548-3.472-4.079-7.649-6.198-10.458-7.32z" fill="#E7E2A0"/><path d="M264.069 374.767c-4.892 0-14.367-1.588-42.188-22.185-14.797-10.955-24.104-19.34-33.104-27.449-4.396-3.96-8.94-8.055-14.003-12.327-16.409-13.845-34.653-26.475-54.224-37.539a1 1 0 0 1 .984-1.741c19.679 11.125 38.024 23.826 54.528 37.751 5.088 4.292 9.646 8.399 14.053 12.37 8.965 8.078 18.235 16.43 32.954 27.328 29.979 22.194 37.959 21.912 42.243 21.764 8.288-.289 24.504-4.283 39.982-27.784a.999.999 0 1 1 1.67 1.1c-15.973 24.252-32.908 28.381-41.582 28.684-.401.013-.836.028-1.313.028z" fill="#1d0333"/><path d="M77.123 320.363a1 1 0 0 1-.949-.688.999.999 0 0 1 .636-1.263 1368.612 1368.612 0 0 1 36.627-11.511 1369.014 1369.014 0 0 1 40.812-11.511 1 1 0 1 1 .514 1.933c-13.57 3.6-27.281 7.467-40.753 11.494a1372.973 1372.973 0 0 0-36.572 11.495 1.027 1.027 0 0 1-.315.051zm5.228 61.695a1 1 0 0 1-.09-1.996c14.606-1.336 28.948-4.484 42.629-9.357 25.447-9.065 48.187-23.76 67.59-43.675a1 1 0 0 1 1.432 1.395c-19.617 20.136-42.613 34.995-68.35 44.164-13.839 4.93-28.346 8.114-43.119 9.465a.957.957 0 0 1-.092.004z" fill="#1d0333"/></svg></g><g transform="translate(12.0 326.0) rotate(0.0 573.0 332.5) scale(1.0010106189232932 1.0026611985193785)"><svg width="1144.843" height="663.235" viewBox="0 0 1144.843 663.235"><path d="M461.853 626.071c-43.91-.02-87.81-.03-131.72-.05-1.81-13.1-3.74-26.32-5.82-39.66a2394 2394 0 0 0-22.47-123.19c-.63.06-1.25.12-1.88.19l-8.12.81 9.36 161.84c-40.68-.01-81.37-.02-122.05-.04 2.55-112.09 5.32-154.59 7.69-168.8.28-1.68 4.19-24.73 9-56 .54-2.4 1.1-4.86 1.73-7.57.64-2.71 1.35-5.67 2.22-9.09a587.907 587.907 0 0 1 27.05-81.34c4.51.96 9.03 1.93 13.54 2.89 40.82 8.7 81.64 17.4 122.46 26.11 2.25 10.13 5.41 23.42 9.71 39.13a858.79 858.79 0 0 0 15.29 49.87c2.61 7.67 5.22 15.06 7.79 22.1 10.99 30.17 21.21 54.21 27.21 68.9 9.84 24.09 22.67 58.2 35.56 101.96.11.36.22.72.32 1.08 1.03 3.52 2.07 7.1 3.09 10.74.02.04.03.08.04.12z" fill="#574C8D"/><path d="M271.842 469.172a1 1 0 0 1-.272-1.962 212.717 212.717 0 0 1 37.175-7.033c6.978-.684 14.11-1.039 21.1-1.005a1 1 0 0 1-.002 2h-.002a207.476 207.476 0 0 0-20.9.995 210.77 210.77 0 0 0-36.825 6.967 1.035 1.035 0 0 1-.274.038z" fill="#1d0333"/><path d="M298.844 463.171a1 1 0 0 1-.987-1.167 1066.742 1066.742 0 0 0 5.995-39.962 1065.398 1065.398 0 0 0 7.992-92.913c.023-.552.501-.969 1.041-.957a1 1 0 0 1 .957 1.041c-1.3 31.02-3.993 62.338-8.008 93.087a1066.35 1066.35 0 0 1-6.005 40.038 1 1 0 0 1-.985.833z" fill="#1d0333"/><path d="M372.553 371.301c-5.281 3.899-13.261 8.395-22.71 7.87-10.671-.593-11.87-6.96-23-8-10.027-.937-11.873 3.967-32 7-7.384 1.113-11.076 1.669-15 1-12.684-2.163-13.759-10.829-24-13-7.828-1.659-11.782 2.124-31 10a194.797 194.797 0 0 1-25.05 8.34c6.2-24.48 13.54-46.83 21.28-66.93 6.27-4.4 12.73-8.24 19.31-11.52 40.82 8.7 81.64 17.4 122.46 26.11 2.25 10.13 5.41 23.42 9.71 39.13zm33.605-256.9c7.722-1.385 13.54 2.438 14.071 6.342.464 3.406-3.153 6.471-3.698 6.922 1.865.762 9.064 3.955 11.881 11.384 3.414 9.005-.959 20.68-11.403 27.315 1.313 3.042 3.817 10.073 1.633 17.996-2.967 10.767-12.584 15.893-17.189 18.348-16.747 8.928-47.337 11.157-60.145-7.455-13.654-19.841 3.601-47.817 5.41-50.662 18.531-29.141 55.535-30.146 59.44-30.19z" fill="#1d0333"/><path d="M300.871 177.121a6605.98 6605.98 0 0 0-57.05-10.646c-21.512-3.916-26.23-4.664-33.767-4.095-17.912 1.352-27.881 8.337-49.37 18.835-16.796 8.206-34.556 14.272-51.795 21.501-70.551 29.582-92.736 37.434-102.176 60.408-1.967 4.786-3.51 8.544-3.081 13.693.886 10.633 10.144 26.705 91.114 54.152 23.428 7.941 55.951 17.883 95.902 26.706l11.049-19.569c-41.506-21.224-85.049-44.681-125.321-67.488 64.995-20.404 111.564-61.212 172.079-47.819l52.416-45.678z" fill="#e2957a"/><path d="M377.843 342.171c8.191-10.067 2.912-19.91 6-41 2.629-17.951 9.594-32.267 15.943-42.449a181.67 181.67 0 0 1 5.873 2.153c6.564-25.47 4.234-54.252-11.966-75.487-36.085-6.9-87.149-12.567-125.529-19.378-43.958-8.536-46.94-16.92-82.873-.39-41.8 17.328-38.302 19.08-51.945 22.489-29.208 5.757-35.535 2.693-54.07 23.181-13.202 10.119-23.281 8.616-37.448 13.554-23.648 7.028-58.456 35.961-32.81 69.882 12.842 17.667 28.581 11.965 65.924 32.214 19.172 10.392 17.685 13.343 30.687 17.786 16.848 5.763 26.846 3.38 47.013 10.14 5.976 3.101 26.428 4.273 32.089 1.816 5.54-6.175 11.702-16.13 14.613-23.075-10.694-11.291-28.776-19.325-45.611-26.108-18.653-9.344-15.908-13.116-30.536-18.776-6.511-1.792-21.658-9.097-27.87-16.349 46.14-8.581 21.728-3.232 81.125-28.191 11.413-6.836 32.841-8.706 44.011-3.463a112.74 112.74 0 0 1-2.748 24.869c-5.693 25.25-16.954 33.93-13.704 50.519.367 1.872 2.498 11.905 10.832 19.063 8.311 7.139 18.448 7.688 23 8 46.001 3.156 59.108 19.002 103 13 15.443-2.112 29.188-4.399 37-14z" fill="#6D3F8F"/><path d="M219.901 258.828a.999.999 0 0 1-.992-1.134 91.025 91.025 0 0 0 .318-21.96 91.062 91.062 0 0 0-7.745-28.181 1 1 0 1 1 1.818-.831 93.022 93.022 0 0 1 7.915 28.799 93.12 93.12 0 0 1-.324 22.442 1 1 0 0 1-.99.865z" fill="#1d0333"/><path d="M201.697 338.107a101.298 101.298 0 0 1 12.256 5.898c6.323 3.582 9.639 5.461 12.797 9.014 5.701 6.415 6.96 13.872 7.496 17.315 1.146 7.354-.766 8.764-2.299 21.902-2.034 17.435.238 24.356-5.472 29.514-.693.625-4.335 3.915-7.519 2.909-6.27-1.982-6.186-19.179-6.151-26.214a95.043 95.043 0 0 1 1.104-13.992c-6.591 10.137-9.518 19.104-10.957 25.651-4.458 20.29.959 37.464-7.415 42.368-.46.27-3.235 1.895-6.232 1.081-4.967-1.349-6.546-8.315-6.715-9.106-1.391.521-3.291.953-5.093.241-6.733-2.655-7.232-19.319-5.404-31.158 4.12-26.683 21.88-40.641 15.141-53.336a14.67 14.67 0 0 0-2.518-3.415l16.981-18.672z" fill="#e2957a"/><path d="M215.84 217.772c-4.652-2.88-10.914-5.737-15.671-3.38-4.098 2.03-3.194 6.005-7.726 10.969-6.183 6.772-11.231 3.058-20.729 10.014-4.948 3.624-4.295 5.158-13.118 13.188a135.679 135.679 0 0 1-9.255 7.703c10.43-4.347 25.094-9.064 43.08-10.682a145.042 145.042 0 0 1 28.283.23 46.553 46.553 0 0 0-.035-13.153 46.646 46.646 0 0 0-4.829-14.889z" fill="#1d0333"/><path d="M72.251 257.761a68.874 68.874 0 0 1 15.912 8.473 68.75 68.75 0 0 1 7.379 6.112c14.101-1.621 25.095-4.702 32.679-7.308a133.967 133.967 0 0 1-9.2-2.23c-5.781-1.632-11.834-3.336-19.178-6.944-7.814-3.841-9.154-5.945-13.245-6.047-6.035-.145-11.054 4.224-14.347 7.944z" fill="#4B296E"/><path d="M113.755 285.262a.986.986 0 0 1-.414-.091 83 83 0 0 1-15.955-9.578c-2.78-2.127-4.641-3.832-6.136-5.201-.385-.352-.743-.68-1.087-.987-6.217-5.562-14.252-10.13-23.883-13.578a.998.998 0 0 1-.604-1.278.998.998 0 0 1 1.278-.604c9.875 3.534 18.133 8.234 24.543 13.97.349.312.713.646 1.104 1.002 1.466 1.343 3.291 3.014 6 5.088a81.087 81.087 0 0 0 15.57 9.347.999.999 0 0 1-.416 1.91z" fill="#1d0333"/><path d="M9.016 294.725c12.844 17.668 28.583 11.966 65.926 32.215 19.172 10.392 17.684 13.343 30.686 17.786 16.848 5.763 26.846 3.38 47.013 10.14 2.041.683 6.489 2.235 12.705 2.932 8.184.923 15.019-.137 19.384-1.115a25.19 25.19 0 0 1 7.427-8.991c-11.776.766-20.979-.119-27.145-1.069-3.659-.563-6.649-1.203-7.191-1.329-8.428-1.952-14.163-4.816-34.579-10.041-16.27-4.168-17.781-3.669-23.282-6.553-13.005-6.83-15.506-15.38-23.708-23.811-24.167-24.851-59.551-9.355-71.318-29.996-1.878-3.298-3.841-8.712-2.758-17.418a31.812 31.812 0 0 0-1.381 4.656c-3.455 16.104 6.749 30.561 8.221 32.594z" fill="#4B296E"/><path d="M183.592 358.522a1 1 0 0 1-.676-1.736 58.216 58.216 0 0 0 8.42-9.665 58.122 58.122 0 0 0 7.064-13.846 1 1 0 1 1 1.886.663 60.121 60.121 0 0 1-7.307 14.322 60.299 60.299 0 0 1-8.711 9.997.992.992 0 0 1-.676.265zm-1.288 88.805a1 1 0 0 1-.992-.886 127.462 127.462 0 0 1-.521-23.524 127.596 127.596 0 0 1 3.013-19.933.996.996 0 0 1 1.201-.746.999.999 0 0 1 .746 1.201 125.73 125.73 0 0 0-2.966 19.619c-.543 7.689-.37 15.479.514 23.155a1 1 0 0 1-.995 1.114zm961.539 179.625H939.929a1 1 0 1 1 0-2h203.914a1 1 0 1 1 0 2z" fill="#1d0333"/><path d="m724.233 391.241-.27.92c-.29.99-.58 1.97-.88 2.95-.76 2.56-1.53 5.08-2.3 7.57-.03.07-.05.14-.07.21-1.82 5.82-3.67 11.44-5.54 16.87-.01.04-.02.07-.04.11-8.3 24.14-16.88 44.37-24.29 60.3-4.25 9.15-8.87 19.02-14.14 29.39-.14.28-.28.55-.43.83-13.89 27.23-32.28 57.89-60.31 88.26-3.24 3.51-6.61 7.02-10.12 10.52-1.75 1.75-3.45 3.4-5.07 4.96-5.17 4.96-9.64 8.95-12.95 11.82h-77.89c1.2-3.13 2.7-6.75 4.53-10.74.16-.35.33-.71.5-1.08 2.15-4.59 4.75-9.63 7.88-14.96 2.18-3.71 8.7-14.5 22-30 13.43-15.66 20.48-20.62 26.81-26.48 3.9-3.6 7.52-7.54 12.19-14.52 8.18-12.23 13.31-24.41 16.39-31.75 5.51-13.09 7.85-22.19 8.69-25.54 1.35-5.37 2.33-10.83 3.1-16.32 7.38-52.56 20.55-63.52 49-64.77.37-.02.74-.03 1.12-.04 12.11-.43 26.92.79 45.14 1.3h.2c5.29.14 10.87.23 16.75.19z" fill="#6D3F8F"/><path d="M866.063 560.161v.02c-.06 3.09-.15 6.29-.29 9.58l-.03.9a479.475 479.475 0 0 1-5.33 54.18c-.05.38-.11.75-.18 1.11h-217.12c2.88-4.13 5.36-8.1 7.52-11.82 2.42-4.16 4.42-8.01 6.07-11.43 0 0 8.03-16.61 13.28-37.64.15-.57.26-1.02.3-1.21 2.33-9.39 3.94-18.61 4.97-27.64 1.04-9.1 1.48-18.01 1.45-26.65v-.08c-.01-.62-.01-1.24-.02-1.86-.6-47.03-15.32-86.24-25.52-108.63 3.1-.18 6.24-.37 9.41-.58.07 0 .14-.01.21-.01 15.92-1.06 32.61-2.55 49.98-4.6l.32-.03.01-.01c4.25-.49 8.54-1.03 12.87-1.6 4.84-.63 9.73-1.31 14.67-2.03 5.98-.87 11.88-1.79 17.69-2.75.3-.05.61-.1.91-.16.29-.04.57-.09.86-.14.19-.03.37-.06.56-.1 17.9-2.99 34.95-6.36 51.11-9.95.56-.12 1.12-.25 1.67-.38 2.42-.53 4.81-1.08 7.18-1.63 2.14-.5 4.26-1 6.37-1.5.36.74.72 1.49 1.08 2.25 15.23 31.78 31.42 75.79 37.67 129.5.16 1.43.42 3.7.7 6.73.05.51.1 1.04.15 1.6.02.2.03.4.06.61.85 9.75 1.82 25.7 1.42 45.95z" fill="#6D3F8F"/><path d="M672.199 490.773a1 1 0 0 1-.985-.834 1180.086 1180.086 0 0 0-3.318-18.805 1174.93 1174.93 0 0 0-6.638-33.186 1 1 0 0 1 1.956-.421 1171.19 1171.19 0 0 1 9.973 52.081 1 1 0 0 1-.988 1.165zm164.965-33.106c-4.748 9.833-9.039 22.651-3.321 31 1.916 2.797 3.162 2.29 5.536 5.536 7.155 9.783-.53 18.684 5.536 28.786 2.987 4.974 5.529 3.301 11.072 11.071 3.215 4.507 4.865 8.603 5.857 11.112 1.521 3.845 3.345 9.628 4 17 .603-5.307 1.038-11 1.214-17.04a204.259 204.259 0 0 0-1.214-28.96l-28.68-58.505z" fill="#1d0333"/><path d="M676.843 509.171c-.05.1-.1.21-.14.31-.14.31-.28.61-.43.91-13.89 27.23-32.28 57.89-60.31 88.26 15.75-19 18.37-30.13 17.49-36.91-.31-2.35-1.62-11.45 2.21-19.93 4.08-9.04 9.31-8.15 12.18-15.5 4.65-11.89-6.89-19.66-2.21-31 2.94-7.13 8.58-6.46 14.39-14.39 5.72-7.82 6.54-17.37 5.89-25.41-.09-1.16-.21-2.29-.36-3.38 3.15 10.46 6.05 22.17 8.29 35.04 1.24 7.12 2.16 13.95 2.84 20.45.06.52.11 1.04.16 1.55z" fill="#1d0333"/><path d="M967.846 603.173s-1.47 5.21-5 10c-15.92 21.56-52.15 17.09-126 16-13.5-.2-33.89-.36-59 0-1.03-1.6-2.32-3.81-3.58-6.56a53.982 53.982 0 0 1-4.42-15.44c-1.34-10.28.6-18.54 2-23a688.25 688.25 0 0 1 118-16 1783.119 1783.119 0 0 0-32.96-71.94c-9.46-19.47-19.01-38.23-28.58-56.28-31.81 31.13-73.41-2.31-69.54-54.87 26.33-1.46 51.979-9.42 78.61-15.75 76.51-14 47.61 75.05 91.68 127.08 3.42 4.04 9.46 15.52 16.56 31.7 7.27 16.58 4.38 14.69 13.23 37.06.43 1.08.84 2.12 1.25 3.13 6.61 16.38 10.69 24.43 7.75 34.87z" fill="#6D3F8F"/><path d="M678.118 404.898c-3.684-.171-15.28-1.047-17.515-6.89-2.465-6.444 6.781-18.073 24.697-27.376a55.97 55.97 0 0 1 5.454-10.662c16.423-25.033 55.243-39.194 86.077-26.674 5.249 2.131 14.125 6.602 23.059 16.28 1.556.378 16.656 4.263 19.632 15.561.703 2.669 1.673 9.332-7.821 21.672-20.161 26.205-52.902 33.032-55.996 33.634-37.851 7.367-68.504-9.943-77.587-15.545z" fill="#6D3F8F"/><g fill="#1d0333"><path d="M741.66 425.296a1 1 0 0 1-.747-1.664c8.652-9.735 18.329-17.663 28.76-23.564.538-.304 1.304-.731 2.259-1.263 7.531-4.198 27.538-15.349 40.315-24.783 1.903-1.406 6.362-4.698 6.274-8.863-.059-2.79-2.119-5.116-3.837-6.576a1 1 0 1 1 1.295-1.525c2.913 2.475 4.483 5.262 4.542 8.059.108 5.201-4.934 8.924-7.087 10.515-12.879 9.509-32.967 20.705-40.529 24.92-.95.53-1.712.955-2.248 1.258-10.238 5.792-19.743 13.582-28.25 23.152a.997.997 0 0 1-.747.334zm-22.505-1.855a.997.997 0 0 1-.583-.188 81.26 81.26 0 0 0-10.657-6.474c-6.411-3.249-11.861-4.933-23.803-8.624-2.844-.879-6.05-1.871-9.72-3.022l-.203-.064c-10.518-3.3-15.318-4.807-15.929-8.99-.634-4.332 2.746-8.034 3.798-9.066a.999.999 0 1 1 1.4 1.428c-.881.864-3.717 3.95-3.22 7.349.43 2.94 5.148 4.421 14.549 7.371l.204.064c3.666 1.15 6.87 2.141 9.711 3.019 12.053 3.726 17.553 5.426 24.116 8.751a83.191 83.191 0 0 1 10.921 6.634 1.001 1.001 0 0 1-.584 1.812zm-21.072 62.028a.999.999 0 0 1-.148-1.989c2.21-.334 4.011-1.14 5.353-2.394 2.253-2.106 2.359-4.651 2.506-8.172.119-2.866.255-6.114 1.636-9.875 1.343-3.662 2.99-5.333 4.896-7.269 1.647-1.672 3.514-3.566 5.797-7.271 2.922-4.739 5.012-10.007 6.211-15.659a1.001 1.001 0 0 1 1.958.415c-1.248 5.876-3.423 11.358-6.465 16.293-2.402 3.897-4.438 5.964-6.075 7.625-1.887 1.916-3.25 3.299-4.444 6.554-1.272 3.469-1.401 6.551-1.515 9.271-.154 3.694-.287 6.884-3.139 9.55-1.643 1.536-3.802 2.515-6.419 2.911a1.13 1.13 0 0 1-.152.01zm72.727-2.232a1 1 0 0 1-.916-1.4c3.489-7.997 3.994-14.189 1.502-18.404-1.551-2.624-3.938-4.038-6.246-5.405-2.699-1.599-5.248-3.109-5.786-6.302-.516-3.064 1.245-5.386 2.798-7.435 1.326-1.75 2.472-3.261 2.135-4.92-.431-2.117-3.476-5.067-15.542-7.102a1 1 0 1 1 .332-1.972c10.735 1.81 16.351 4.648 17.169 8.676.518 2.545-1.017 4.569-2.5 6.526-1.436 1.894-2.792 3.683-2.419 5.895.384 2.278 2.347 3.441 4.832 4.914 2.408 1.426 5.137 3.043 6.948 6.107 2.839 4.799 2.371 11.603-1.389 20.222a1 1 0 0 1-.918.6z"/><path d="M760.903 407.582c13.604-7.686 24.963-11.642 32.949-13.842 6.31-1.738 11.405-2.607 18.188-6.562 8.243-4.806 9.906-8.852 16.325-13.034 5.103-3.324 13.198-6.724 26.014-6.353a265.136 265.136 0 0 0-34.857-2.655c-.892 2.353-2.728 6.488-6.69 10.254-3.286 3.123-6.994 5.546-9.225 6.055l-42.704 26.137zm-58.043-20.035c-1.2-1.607-3.08-4.655-2.981-8.488.17-6.632 6.17-12.089 11.071-14.393 4.186-1.968 13.607-4.472 15.379-5.468.111-.062.798-.455 1.786-.878a16.51 16.51 0 0 1 1.317-.497c1.675-.552 2.51-.833 6.187-.759 5.379.109 8.013-9.804 14.08-10.113 3.586-.183 6.535 3.083 7.75 4.429 4.557 5.046 2.888 10.463 6.643 12.179 2.802 1.281 5.155-1.166 7.374.449 2.09 1.522 2.213 4.932 1.99 7.571l-24.951 25.176-37.057-2.401-8.588-6.807z"/><path d="M733.452 421.788a1 1 0 0 1-.89-1.452c5.104-10.075 11.19-19.46 18.088-27.894 7.01-8.571 14.145-15.279 17.978-18.882a237.292 237.292 0 0 1 10.151-9.009.999.999 0 1 1 1.283 1.534 235.26 235.26 0 0 0-10.065 8.933c-3.799 3.572-10.872 10.222-17.798 18.691-6.807 8.323-12.812 17.586-17.854 27.532a1 1 0 0 1-.893.547z"/><path d="M737.052 433.632a1 1 0 0 1-.96-.722c-3.236-11.142-8.999-21.508-16.668-29.976a75.597 75.597 0 0 0-19.377-15.359 1 1 0 1 1 .97-1.748 77.57 77.57 0 0 1 19.889 15.764c7.871 8.692 13.786 19.329 17.105 30.761a1 1 0 0 1-.959 1.28zm24.581-159.621c-2 2.68-4.32 5.02-6.78 6.74-2.3 1.61-4.73 2.67-7.13 2.96-.45.06-.91.08-1.36.08-.13 0-.27 0-.4-.02-.32-.01-.64-.03-.95-.08-.05 0-.1-.01-.15-.02-2.06-.32-3.91-1.28-5.62-2.67-9.15-7.38-14.45-26.92-28.02-27.2-4.25-.09-7.63 1.69-10.62 3.8-4.99 3.54-8.9 8.03-13.99 6.35-3.35-1.11-5.51-4.52-6.9-8.6-2.69-7.88-2.49-18.28-2.46-19.42.04-1.91.47-12 4.17-21.85.93-1.55 1.97-3.01 3.09-4.33a19.05 19.05 0 0 1 3.33-2.58c8.01-4.87 13.15.76 26.12.21 3.73 1.56 8.09 2.62 13.88 1.79 2.08-.3 5.03-.94 8.25-.66 1.93 2.65 3.17 5.32 4.28 8.06 2.03 4.99 3.65 10.24 8.23 16.1 1.24 1.58 2.69 3.2 4.43 4.87 2.7 2.6 4.99 4.28 6.91 5.56.2.14.4.27.6.4 3.53 2.32 5.77 3.44 7.1 7.1 2.43 6.76-.68 16.29-6.01 23.41zm14.21 353.176-83.089-.032c-6.894 0-13.797 0-20.691-.011h-17.709l-308.231-.118c-9.294 0-18.599 0-27.893-.011-39.239-.011-78.46-.021-117.672-.043-23.234 0-46.479-.011-69.716-.021a1 1 0 0 1 .001-2h.001c23.234.011 46.479.021 69.715.021 39.212.021 78.432.032 117.643.043 9.324.011 18.627.011 27.921.011l325.942.118c6.895.011 13.798.011 20.689.011l83.089.032a1 1 0 1 1 0 2z"/><path d="M758.653 615.951c0 5.41-4.39 10-10.03 10h-344.1c-5.97 0-11.09-4.27-12.16-10.15l-.11-.59-.19-1.08h366.43c.11.61.16 1.22.16 1.82z"/></g><path d="M589.782 615.206H392.059l-42.983-171.932h197.723z" fill="#fff"/><path d="M589.781 616.207H392.059a1 1 0 0 1-.97-.757l-42.983-171.933a.998.998 0 0 1 .97-1.243H546.8a1 1 0 0 1 .97.757l42.982 171.933a.998.998 0 0 1-.971 1.243zm-196.941-2H588.5l-42.482-169.933H350.357z" fill="#1d0333"/><path d="M704.806 600.424c-32.038 12.655-42.332 28.322-43.827 34.341-1.906 7.672 3.447 9.11 8.643 6.4-3.742 4.452.475 12.918 8.225 10.977-.057.417-.7 5.672 2.74 8.232 1.785 1.328 3.852 1.322 4.642 1.268 5.782-.392 9-7.789 12.984-13.289 3.496-4.826 9.504-10.846 20.477-15.607-3.378 2.89-24.212 20.933-20.166 28.164.596 1.066 1.546 1.562 2.004 1.795 6.807 3.449 14.737-10.768 31.769-18.134 13.765-5.953 19.462-1.371 33.769-9.481 5.308-3.009 7.666-5.656 10.17-8.006-2.294-4.627-3.709-12.71-4.518-22.274-.565-6.671-1.306-11.521-.482-15.726-31.009-.239-52.61 5.88-66.43 11.34z" fill="#ffb5a6"/><path d="M677.106 653.058a1.002 1.002 0 0 1-.913-1.406 62.346 62.346 0 0 1 6.334-11.064c6.864-9.551 16.61-17.179 28.185-22.062a1 1 0 1 1 .778 1.843c-11.235 4.739-20.688 12.134-27.337 21.386a60.308 60.308 0 0 0-6.131 10.709 1.004 1.004 0 0 1-.916.594zm-8.507-10.209a1 1 0 0 1-.861-1.507 72.044 72.044 0 0 1 11.102-14.385c7.168-7.186 15.701-12.725 25.361-16.465a1 1 0 1 1 .723 1.865c-9.399 3.638-17.698 9.025-24.668 16.012a70.096 70.096 0 0 0-10.793 13.987 1.001 1.001 0 0 1-.864.493z" fill="#1d0333"/><path d="M871.843 527.171c5.432 1.426 12.746 4.347 17 11 4.465 6.983 1.259 11.349 6 16 5.751 5.642 13.792 2.477 21 10a20.975 20.975 0 0 1 3 4h-29l-18-41z" fill="#4B296E"/><path d="M771.842 585.171a1.001 1.001 0 0 1-.203-1.979 770.877 770.877 0 0 1 60.078-10.013 771.66 771.66 0 0 1 89.116-6.008h.009a1 1 0 0 1 .009 2 769.68 769.68 0 0 0-88.884 5.992 769.4 769.4 0 0 0-59.922 9.987.933.933 0 0 1-.203.021z" fill="#1d0333"/><path d="M889.844 569.172c-.381 0-.744-.218-.912-.587a2697.883 2697.883 0 0 0-32.737-69.515 2689.204 2689.204 0 0 0-22.136-44.269 1 1 0 0 1 1.782-.911 2693.145 2693.145 0 0 1 54.914 113.868 1 1 0 0 1-.911 1.414z" fill="#1d0333"/><path d="M967.846 603.173s-1.47 5.21-5 10c-15.92 21.56-52.15 17.09-126 16-13.5-.2-33.89-.36-59 0-1.03-1.6-2.32-3.81-3.58-6.56-.36-1.15-.71-2.33-1.03-3.53-.85-3.13-1.5-6.14-2-9 8.8 2.29 22.35 5.01 39 5 22.06-.02 25.19-4.83 43-3 23.21 2.38 26.39 11.41 42 8 11.43-2.49 13.7-8.2 27-9 10.43-.63 13.45 2.62 21 0 11.69-4.06 16.63-16.07 17-17 3.02-7.67 1.83-14.54 0-25-.05-.26-.09-.52-.14-.78 6.61 16.38 10.69 24.43 7.75 34.87z" fill="#4B296E"/><path d="M777.844 630.171c-.365 0-.717-.2-.894-.548a69.346 69.346 0 0 1-5.072-13.19c-2.838-10.471-3.18-21.39-1.017-32.453a.992.992 0 0 1 1.174-.79.999.999 0 0 1 .789 1.173c-2.104 10.76-1.773 21.374.983 31.546a67.432 67.432 0 0 0 4.928 12.81 1.001 1.001 0 0 1-.891 1.452zM330.141 37.36c-2.848-1.505-12.895-6.365-24.69-3.118-3.292.906-9.679 2.532-13.863 8.038-5.996 7.89-.963 15.068-5.143 18.74-7.809 6.861-29.284-14.756-45.765-7.663-6.185 2.662-9.659 8.503-11.611 12.935-8.621-5.802-19.585-5.902-27.479-.412-8.422 5.857-10.498 16.093-9.441 23.327 1.796 12.289 13.615 22.609 29.03 23.903-2.082 6.83-.212 14.131 4.795 18.677 5.916 5.372 13.454 4.392 14.525 4.235 4.274 3.961 10.643 8.99 19.257 12.974 24.403 11.287 64.297 13.087 85.165-11.41 22.249-26.119 18.573-72.52-14.78-100.226z" fill="#1d0333"/><path d="M376.636 113.515a274.04 274.04 0 0 1-14.228 43.13 273.423 273.423 0 0 1-13.565 27.526c-2.336 1.012-16.017 6.679-30 0-6.771-3.234-10.891-8.062-13-11 2.248-3.877 5.69-9.758 9.987-16.87 7.572-12.535 12.222-19.085 14.123-22.795 5.749-11.227 10.841-24.799 15.633-44.503 10.346 8.166 20.702 16.346 31.05 24.512z" fill="#e2957a"/><path d="M333.375 76.431c-.783 31.449 31.485 62.278 54.588 58.095 10.754-1.952 17.254-11.05 17.933-12.048 3.081-4.447 4.415-9.232 4.643-14.748.139-3.551-.177-7.413-.782-11.681-.655-4.632-1.65-9.734-2.762-15.468-3.421-17.562-5.118-26.352-11.789-33.008-9.487-9.464-26.65-15.277-41.251-8.507-19.492 9.036-20.496 34.05-20.58 37.365z" fill="#e2957a"/><path d="M396.714 92.242c8.522 6.493 18.483 7.091 24.301 2.407 3.163-2.547 6.262-7.621 4.673-10.803-3.261-6.531-24.45-1.423-26.828-.833l-2.146 9.229z" fill="#e2957a"/><path d="M411.714 94.615a1 1 0 0 1-.082-1.997c1.799-.149 2.832-1.042 2.882-1.478.018-.161-.096-.474-.39-.811-.695-.795-1.925-1.289-3.29-1.32a1 1 0 0 1-.541-1.825 8.855 8.855 0 0 1 4.008-1.504c4.054-.448 6.97 2.177 7.764 2.99a1 1 0 0 1-1.432 1.398c-.451-.462-2.877-2.755-6.115-2.399-.186.02-.37.048-.553.084a5.425 5.425 0 0 1 1.665 1.261c.648.742.958 1.577.871 2.351-.187 1.643-2.209 3.038-4.703 3.246a.8.8 0 0 1-.084.004zm-37.871 38.556a17.622 17.622 0 0 1-1 9 17.6 17.6 0 0 1-5 7 19.082 19.082 0 0 0-3.06-2.314c-.597-.364-.917-.494-1.287-.717-2.342-1.409-4.234-3.265-6.865-7.011-1.386-1.987-2.044-3.156-6.845-12.4-2.575-4.965-3.866-7.503-4.007-10.659-.034-.751-.235-5.628 1.43-6.153 2.332-.735 4.854 8.157 13.635 15.254 4.133 3.341 9 6 9 6a60.822 60.822 0 0 0 3.999 2z" fill="#1d0333"/><path d="M386.198 108.294c-2.681-1.413-4.029-2.963-5.21-2.389-.845.411-1.023 1.626-1.066 1.922-.461 3.138 2.985 7.769 7.049 7.682 3.194-.068 6.209-3.037 5.805-4.571-.325-1.227-2.571-.533-6.578-2.644zm-5.275-20.113c-.12.83-.82 1.34-1.28 1.69-2.42 1.8-4.93.25-9.58-.25-.88-.1-1.83-.16-2.88-.15-.13 0-.26 0-.39.01-3.82.08-6.07.97-7.23-.48-.82-1.02-.51-2.48-.479-2.62.76-3.3 6.66-5.43 11.53-4.95.98.1 1.96.3 2.91.58 2.86.87 5.43 2.48 6.65 4.07.559.73.839 1.45.749 2.1zm27.67.94c-.09.65-.66 1.05-1.03 1.33-1.939 1.42-3.97.19-7.72-.23-.71-.08-1.48-.13-2.32-.13-.26 0-.5.01-.74.01-2.83.12-4.51.7-5.41-.4-.66-.81-.42-1.96-.39-2.07.6-2.61 5.35-4.27 9.28-3.88.79.08 1.58.24 2.35.47 1.9.56 3.63 1.52 4.74 2.55.86.8 1.34 1.63 1.24 2.35z" fill="#fff"/><path d="M389.289 85.626c1.694 3.47 3.756 6.722 6.086 9.796.577.78 1.173 1.538 1.74 2.4.271.452.582.879.723 1.63.043.172.021.422-.006.641-.065.229-.147.472-.296.66-.295.394-.683.581-.999.693-.647.21-1.2.221-1.74.222a13.527 13.527 0 0 1-1.558-.12 32.304 32.304 0 0 1-2.957-.551 1 1 0 1 1 .443-1.951l.045.011.009.002c.913.256 1.831.489 2.739.655.882.161 1.87.264 2.481.108a.666.666 0 0 0 .205-.085c-.005-.006.021.037.009-.078-.013-.214-.214-.643-.434-1.02-.462-.786-1.024-1.588-1.563-2.396-2.205-3.23-4.154-6.67-5.691-10.267a.42.42 0 0 1 .764-.35zm16.068-13.335a2.195 2.195 0 0 0-.471-.421c-.776-.542-.865-.286-5.172-.972-2.9-.46-4.603-.849-6.402-.123-.374.151-.843.381-1.228.838-.768.904-1.147 2.454-.581 3.106.804.923 2.778-.813 6.591-.906 2.64-.07 4.825.688 6.211 1.163.616.21 1.194.445 1.719.668zm-26.699 2.107c-.896 1.502-3.931-.382-9.701.328-1.433.176-6.658.819-11.51 4.274-1.878 1.337-3.322 2.827-3.685 2.524-.482-.402 1.513-3.489 1.809-3.946 1.53-2.367 2.4-3.713 4.072-4.594 1.497-.788 1.808-.241 5.561-1.102 1.842-.423 1.77-.555 4.526-1.296 5.335-1.434 6.207-1.099 6.596-.909 1.81.886 3.068 3.487 2.332 4.721z" fill="#1d0333"/><ellipse cx="366.66" cy="99.011" fill="#bf7960" rx="5.79" ry="8.949" transform="matrix(.1838 -.983 .983 .1838 201.9369 441.2227)"/><path d="M402.295 100.32c-.588 3.146 2.878 6.429 7.732 7.337.165.031.342.064.511.074.139-3.551-.177-7.413-.782-11.681-3.839-.034-6.971 1.651-7.461 4.27z" fill="#bf7960"/><path d="M313.469 63.538c5.642 10.755 20.785 10.591 28.596 10.577 3.85-.008 5.026-.548 5.723-.971 7.468-4.51 2.437-20.713 8.387-23.554 2.274-1.086 4.927.368 7.376 1.59 2.548 1.277 25.348 12.446 44.03 10.597 4.383-.433 12.169-1.203 17.024-7.356.274-.349 6.668-8.729 2.582-17.087-2.999-6.138-10.389-9.661-18.058-8.305.911-2.693 1.406-5.089 1.63-7.202.688-6.512-1.264-10.351-1.982-11.62a15.317 15.317 0 0 0-1.183-1.777c-8.245-10.754-30.16-10.892-43.157-2.27a30.91 30.91 0 0 0-6.859 6.24c-2.902-2.445-6.872-2.805-9.711-.991-2.98 1.905-3.419 5.372-3.471 5.868-6.814-6.343-17.081-6.241-23.037-.556-4.888 4.669-6.211 12.489-3.036 19.194-7.523 7.728-9.377 18.984-4.854 27.623z" fill="#1d0333"/><path d="M357.577 12.399c-3.939 3.85-9.003 9.821-12.747 18.203-8.397 18.803-4.233 36.493-2.539 42.459l-6.922-3.698c-3.235-10.322-7.669-30.476 1.795-49.236a51.088 51.088 0 0 1 3.471-5.868c.581-.61 4.807-4.904 10.847-4.278 2.907.303 5.015 1.617 6.095 2.418z" fill="#6D3F8F"/><path d="M345.608 74.957a52.726 52.726 0 0 0-12.926-9.49c-5.497-2.861-11.875-6.179-15.382-3.576-2.948 2.189-2.846 7.804-1.597 11.518 3.695 10.992 21.433 17.269 27.521 11.802 1.047-.939 3.144-3.479 2.384-10.254z" fill="#e2957a"/><path d="M332.422 81.538a.992.992 0 0 1-.143-.01c-2.819-.404-5.268-1.681-6.549-3.416-.62-.84-.883-1.696-.761-2.475.271-1.713 2.593-3.306 5.902-3.553-1.198-1.184-3.025-2.508-5.478-2.962a10.084 10.084 0 0 0-3.951.066 1 1 0 1 1-.416-1.956 12.066 12.066 0 0 1 4.73-.077c4.478.829 7.172 4.045 8.123 5.389a.998.998 0 0 1-.924 1.571c-3.649-.396-5.899 1.125-6.012 1.833-.027.175.062.524.395.975.749 1.014 2.514 2.236 5.223 2.625a1 1 0 0 1-.139 1.99z" fill="#1d0333"/><path d="M359.128 35.891c3.425-5.757 8.152-11.673 13.491-11.426 5.612.262 7.24 7.13 12.79 7.169 6.892.052 8.973-10.471 16.88-11.799 2.893-.479 5.77.395 8.469 1.991.688-6.512-1.264-10.351-1.982-11.62a15.317 15.317 0 0 0-1.183-1.777c-5.285-.908-8.658.107-10.863 1.385-5.566 3.211-5.513 9.1-11.156 10.827-5.123 1.564-7.885-2.45-12.872-1.673-3.938.618-8.915 4.165-13.574 16.923z" fill="#eedcff"/><path d="M340.744 105.81c-6.777 43.961-31.204 74.718-57.392 76.946-12.141 1.033-32.768-3.377-41.158-18.799-5.235-9.621-4.3-20.942-1.696-27.934 8.626-23.164 49.062-35.059 100.246-30.213z" fill="#1d0333"/><path d="M334.146 189.421c-10.007 0-20.75-5.607-28.601-15.423a1 1 0 0 1 1.562-1.249c9.485 11.86 23.316 17.276 34.411 13.476 4.424-1.515 8.303-4.429 11.529-8.66a1 1 0 1 1 1.589 1.213c-3.47 4.551-7.666 7.694-12.471 9.339-2.565.88-5.264 1.304-8.019 1.304z" fill="#1d0333"/><path d="M618.843 385.171c-2.67 9-9.33 15-12 24-51.839 6.836-110.361-6.453-146.37-55.61-30.831-39.379-37.052-75.922-81.63-97.39 4.33-23.67 8.67-47.33 13-71 37.52 3.03 54.99 16.04 64 27 16.45 20 7.6 36.66 30 61 8.15 8.86 17.41 15.45 28 32 7.91 12.37 5.91 13.65 11 21 18.102 27.542 63.266 22.208 94 59z" fill="#6D3F8F"/><path d="m324.313 586.361-22.47-123.19c-.63.06-1.25.12-1.88.19l-.12-1.19c4.99-.95 10.7-1.71 17-2 3.91-.18 7.59-.16 11 0 .57 4.64.92 11.76-1 20-2.35 10.08-6.21 13.7-7 22-.91 9.61 3.12 16.83 5 21 9.33 20.67 4.34 51.42-.53 63.19zm64.53-304.189a1.002 1.002 0 0 1-.953-1.308c3.273-10.149 8.029-19.661 14.137-28.271a103.485 103.485 0 0 1 13.127-15.146 1 1 0 0 1 1.377 1.45 101.59 101.59 0 0 0-12.873 14.854 101.943 101.943 0 0 0-13.863 27.729 1.002 1.002 0 0 1-.952.692z" fill="#1d0333"/><path d="M460.473 353.561c-27.66-32.77-26.29-53.7-55.63-79.39a136.53 136.53 0 0 0-9.74-7.77c2.13-5.29 5.91-11.6 12.74-18.23 5.13 4.72 10.11 10.62 14 18 5.23 9.93 4.49 14.95 10 26 5.53 11.09 7.64 8.77 13 19 7.53 14.37 4.48 21.06 12 36 1.18 2.35 2.41 4.48 3.63 6.39z" fill="#1d0333"/><path d="M606.843 409.171c5.666 1.601 14.227 4.686 23 11 13.111 9.435 19.645 21.023 25 19 3.147-1.189 3.899-6.25 4-7 1.614-12.007-15.568-19.747-13-28 .604-1.94 2.097-3.259 5-5 13.375-8.02 32.109-10.266 42-11-14.369-3.322-32.366-5.85-53-5a196.397 196.397 0 0 0-21 2 41.373 41.373 0 0 0-12 24z" fill="#e2957a"/><path d="M678.118 404.898c-3.684-.171-15.28-1.047-17.515-6.89-2.465-6.444 6.781-18.073 24.697-27.376a55.97 55.97 0 0 1 5.454-10.662c16.423-25.033 55.243-39.194 86.077-26.674 5.249 2.131 14.125 6.602 23.059 16.28 1.556.378 16.656 4.263 19.632 15.561.703 2.669 1.673 9.332-7.821 21.672-20.161 26.205-52.902 33.032-55.996 33.634-37.851 7.367-68.504-9.943-77.587-15.545z" fill="#6D3F8F"/><path d="M741.66 425.296a1 1 0 0 1-.747-1.664c8.652-9.735 18.329-17.663 28.76-23.564.538-.304 1.304-.731 2.259-1.263 7.531-4.198 27.538-15.349 40.315-24.783 1.903-1.406 6.362-4.698 6.274-8.863-.059-2.79-2.119-5.116-3.837-6.576a1 1 0 1 1 1.295-1.525c2.913 2.475 4.483 5.262 4.542 8.059.108 5.201-4.934 8.924-7.087 10.515-12.879 9.509-32.967 20.705-40.529 24.92-.95.53-1.712.955-2.248 1.258-10.238 5.792-19.743 13.582-28.25 23.152a.997.997 0 0 1-.747.334zm-22.505-1.855a.996.996 0 0 1-.582-.188 82.301 82.301 0 0 0-10.659-6.475c-2.494-1.267-10.084-5.122-33.49-11.636l-2.084-.577c-8.273-2.283-12.427-3.429-13.459-7.126-.788-2.822.638-6.173 4.238-9.958a1.001 1.001 0 0 1 1.449 1.379c-3.038 3.193-4.339 5.975-3.762 8.042.729 2.608 4.518 3.653 12.065 5.736l2.089.578c23.598 6.567 31.321 10.491 33.859 11.78a84.393 84.393 0 0 1 10.919 6.633.999.999 0 0 1-.583 1.812zm-21.072 62.028a.999.999 0 0 1-.148-1.989c2.21-.334 4.011-1.14 5.353-2.394 2.253-2.106 2.359-4.651 2.506-8.172.119-2.866.255-6.114 1.636-9.875 1.343-3.662 2.99-5.333 4.896-7.269 1.647-1.672 3.514-3.566 5.797-7.271 2.922-4.739 5.012-10.007 6.211-15.659a1.001 1.001 0 0 1 1.958.415c-1.248 5.876-3.423 11.358-6.465 16.293-2.402 3.897-4.438 5.964-6.075 7.625-1.887 1.916-3.25 3.299-4.444 6.554-1.272 3.469-1.401 6.551-1.515 9.271-.154 3.694-.287 6.884-3.139 9.55-1.643 1.536-3.802 2.515-6.419 2.911a1.13 1.13 0 0 1-.152.01zm72.727-2.232a1 1 0 0 1-.916-1.4c3.489-7.997 3.994-14.189 1.502-18.404-1.551-2.624-3.938-4.038-6.246-5.405-2.699-1.599-5.248-3.109-5.786-6.302-.516-3.064 1.245-5.386 2.798-7.435 1.326-1.75 2.472-3.261 2.135-4.92-.431-2.117-3.476-5.067-15.542-7.102a1 1 0 1 1 .332-1.972c10.735 1.81 16.351 4.648 17.169 8.676.518 2.545-1.017 4.569-2.5 6.526-1.436 1.894-2.792 3.683-2.419 5.895.384 2.278 2.347 3.441 4.832 4.914 2.408 1.426 5.137 3.043 6.948 6.107 2.839 4.799 2.371 11.603-1.389 20.222a1 1 0 0 1-.918.6z" fill="#1d0333"/><path d="M760.903 407.582c13.604-7.686 24.963-11.642 32.949-13.842 6.31-1.738 11.405-2.607 18.188-6.562 8.243-4.806 9.906-8.852 16.325-13.034 5.103-3.324 13.198-6.724 26.014-6.353a265.136 265.136 0 0 0-34.857-2.655c-.892 2.353-2.728 6.488-6.69 10.254-3.286 3.123-6.994 5.546-9.225 6.055l-42.704 26.137zm-58.043-20.035c-1.2-1.607-3.08-4.655-2.981-8.488.17-6.632 6.17-12.089 11.071-14.393 4.186-1.968 13.607-4.472 15.379-5.468.111-.062.798-.455 1.786-.878a16.51 16.51 0 0 1 1.317-.497c1.675-.552 2.51-.833 6.187-.759 5.379.109 8.013-9.804 14.08-10.113 3.586-.183 6.535 3.083 7.75 4.429 4.557 5.046 2.888 10.463 6.643 12.179 2.802 1.281 5.155-1.166 7.374.449 2.09 1.522 2.213 4.932 1.99 7.571l-24.951 25.176-37.057-2.401-8.588-6.807z" fill="#1d0333"/><path d="M760.428 384.23a112.757 112.757 0 0 0-14.836 16.209 111.25 111.25 0 0 0-12.134 20.349c-3.344-6.444-8.68-14.736-17.106-22.541a81.611 81.611 0 0 0-9.809-7.783c1.749-.941 3.499-1.893 5.237-2.834-.111-6.732-.675-12.123-1.196-15.899-.421-3.1-.952-6.676-1.904-12.954-.299-1.96-.642-4.174-1.03-6.72l-.133-.897a625.128 625.128 0 0 1-.642-4.473c-.597-4.008-1.174-8.027-1.749-12.035 0 0-.521-3.554-.975-6.621-.797-5.314-2.823-15.544-8.702-36.436 4.269 9.422 14.526 14.66 24.523 12.61 9.686-1.985 16.941-10.363 17.548-20.36.229 4.868.676 11.856 1.639 20.261.513 4.483.73 5.238 2.834 20.393l2.89 20.781c.786 5.635 1.594 11.437 2.325 16.629 1.317 9.521 2.38 17.039 2.491 17.891 3.577 1.474 7.153 2.957 10.729 4.43z" fill="#b8bfcc"/><path d="M733.452 421.788a1 1 0 0 1-.89-1.452c5.104-10.075 11.19-19.46 18.088-27.894 7.01-8.571 14.145-15.279 17.978-18.882a237.292 237.292 0 0 1 10.151-9.009.999.999 0 1 1 1.283 1.534 235.26 235.26 0 0 0-10.065 8.933c-3.799 3.572-10.872 10.222-17.798 18.691-6.807 8.323-12.812 17.586-17.854 27.532a1 1 0 0 1-.893.547z" fill="#1d0333"/><path d="M737.052 433.632a1 1 0 0 1-.96-.722c-3.236-11.142-8.999-21.508-16.668-29.976a75.597 75.597 0 0 0-19.377-15.359 1 1 0 1 1 .97-1.748 77.57 77.57 0 0 1 19.889 15.764c7.871 8.692 13.786 19.329 17.105 30.761a1 1 0 0 1-.959 1.28z" fill="#1d0333"/><path d="M680.696 341.267c-10.929-3.519-16.429-13.922-17.018-15.045-3.108-6.087-3.529-12.312-2.308-19.576.61-3.632 1.629-7.515 2.935-11.782 1.152-3.828 2.553-7.959 4.067-12.473.853-2.517 1.638-4.858 2.392-7.034a171.51 171.51 0 0 1 1.152-3.328c3.975-11.188 7.148-17.688 13.314-22.401 11.221-8.552 29.904-12.233 44.2-3.138 19.062 12.124 16.627 38.341 16.257 41.807-3.56 32.895-41.477 60.534-64.991 52.97z" fill="#b8bfcc"/><path d="M746.363 283.791c-.52 0-1.02-.04-1.5-.12-12.08-1.82-15.14-24.56-33.64-29.87-6.42-1.84-12.98-1.03-19.14 1.09-6.38 2.19-12.33 5.78-17.24 9.28-.21-2.12-.69-5.33-2-9-2.8-7.84-6.41-9.51-8-15-1.53-5.25-.83-12.68 3-17 2.86-3.23 6.31-3.42 10.74-3.11 5.2.37 11.75 1.44 20.26-.89 8.18-2.23 14.69-6.64 19.92-10.25 2.62.56 5.59.75 9.08.25 2.08-.3 5.03-.94 8.25-.66 1.93 2.65 3.18 5.32 4.28 8.06 2.03 4.99 3.65 10.24 8.23 16.1 1.24 1.58 2.69 3.2 4.43 4.87 2.99 2.88 5.47 4.62 7.51 5.96v.01c3.53 2.31 5.77 3.43 7.1 7.09 4.37 12.14-9.16 33.26-21.28 33.19z" fill="#1d0333"/><path d="M733.136 285.061a55.448 55.448 0 0 1 14.793-8.096c6.128-2.218 13.237-4.791 16.531-1.589 2.769 2.691 1.882 8.53.063 12.229-5.38 10.944-24.743 15.022-30.328 8.477-.959-1.125-2.793-4.065-1.059-11.021z" fill="#b8bfcc"/><path d="M746.107 293.712a1 1 0 0 1-.01-2c2.895-.029 4.918-1.065 5.847-2.026.42-.435.564-.8.56-.998-.019-.792-2.104-2.698-6.062-2.797a1 1 0 0 1-.708-1.68c1.173-1.264 4.415-4.231 9.181-4.472a12.562 12.562 0 0 1 4.901.735 1 1 0 0 1-.672 1.883 10.606 10.606 0 0 0-4.128-.622c-2.69.136-4.821 1.314-6.241 2.406 3.455.692 5.684 2.675 5.729 4.498.02.815-.368 1.657-1.121 2.436-1.567 1.621-4.283 2.607-7.266 2.636l-.01.001zm-21.772 27.665c-.099 4.008-1.107 6.864-2.148 10.219-1.616 5.237-1.007 4.307-2.159 7.695-1.993 5.857-2.99 8.791-5.359 10.385-.786.531-3.045 1.849-7.096 1.351-.299-1.96-.642-4.174-1.03-6.72l-.133-.897a625.128 625.128 0 0 1-.642-4.473c4.584-2.712 7.319-5.713 9.034-8.171 4.661-6.665 7.761-13.197 9.067-12.732.544.188.511 1.55.466 3.343z" fill="#1d0333"/><path d="M748.598 232.667c-3.625 1.861-8.663 3.602-14.613 3.374a28.08 28.08 0 0 1-7.926-1.463c-7.968-2.704-12.543-8.293-14.39-10.851-1.769.915-3.529 1.819-5.298 2.734-3.695-3.727-7.389-7.443-11.084-11.169-3.059 2.886-6.118 5.782-9.177 8.668l8.647-14.178c3.26 3.023 6.51 6.048 9.77 9.071l5.977-7.248c.843 1.598 3.697 6.529 9.77 9.071 1.263.524 8.424 3.517 15.535-.381a16.273 16.273 0 0 0 4.57-3.72c2.024 4.987 3.641 10.237 8.219 16.092z" fill="#b8bfcc"/><path d="M715.563 296.061c-1.5 1.36-3.79-.05-8-.71-.55-.08-1.06-.14-1.57-.19-.5-.04-.99-.08-1.45-.09-4.93-.21-7.77 1.02-10.01-1.23-.35-.36-.86-.85-1.01-1.51-.04-.14-.06-.29-.06-.44 0-.25.05-.5.16-.75.78-1.98 4.46-3.93 8.5-4.52 1.02-.15 2.08-.21 3.11-.15.84.04 1.7.16 2.55.35 4.34.94 8.44 3.61 8.67 6.58.02.15.12 1.72-.89 2.66zm-33.2-4.21c-1.1.99-2.74.15-5.61-.39-.28-.06-.55-.1-.85-.15-.88-.13-1.68-.2-2.43-.23-3.98-.15-6.27.81-8.07-.96-.23-.23-.55-.54-.73-.92-.08-.19-.14-.4-.14-.62 0-.23.06-.46.18-.7.71-1.53 3.63-3.01 6.81-3.47.83-.12 1.68-.17 2.51-.12.93.04 1.89.2 2.81.46 3.22.86 6.07 2.83 6.25 5.01 0 .12.08 1.35-.73 2.09zm8.374 20.829c3.118-1.093 4.82-2.548 6.001-1.739.845.579.842 1.918.841 2.243-.007 3.458-4.465 7.897-8.833 7.151-3.432-.586-6.207-4.271-5.524-5.861.546-1.27 2.857-.162 7.515-1.794z" fill="#fff"/><path d="M686.073 287.571c-2.157 3.499-4.717 6.772-7.511 9.787-.687.756-1.396 1.503-2.001 2.251-.289.361-.566.776-.619 1.011-.033.125 0 .101 0 .118.007.01.075.077.221.141.629.264 1.674.308 2.619.279.974-.031 1.966-.13 2.956-.255l.006-.001a1 1 0 1 1 .201 1.99c-1.04.08-2.087.135-3.156.117a14.365 14.365 0 0 1-1.633-.115c-.559-.083-1.129-.18-1.76-.494-.308-.163-.674-.413-.912-.856-.122-.213-.167-.471-.2-.713.007-.226.021-.483.092-.652.257-.744.645-1.14.994-1.567.721-.806 1.457-1.504 2.179-2.226 2.898-2.84 5.548-5.907 7.847-9.257a.404.404 0 0 1 .677.442zm35.107-.428c-.998.753-3.987-3.625-9.097-6.31-7.275-3.823-14.043-1.725-14.547-3.892-.276-1.187 1.583-2.848 3.196-3.442.494-.182 1.417-.427 3.319-.123 2.295.367 3.303 1.101 5.556 2.054 4.742 2.005 5.89 1.127 7.868 3.032 1.114 1.073 1.893 2.452 2.336 3.237.917 1.623 1.179 2.687 1.287 3.232.247 1.243.397 1.974.082 2.212zm-38.114-11.884c-.949.879-2.574-.534-5.563-.901-2.779-.333-5.154.42-6.739.999a171.51 171.51 0 0 1 1.152-3.328c.782-.328 1.812-.633 3.19-.86 2.938-.477 6.798-1.108 8 .855.233.39.656 1.342-.04 3.235z" fill="#1d0333"/><ellipse cx="710.906" cy="307.593" fill="#9aa0ad" rx="9.411" ry="6.089" transform="matrix(.9993 -.0371 .0371 .9993 -10.9091 26.5526)"/><path d="M661.369 306.649c5.019-.297 8.947-3.124 8.825-6.41-.093-2.512-2.518-4.571-5.894-5.376-1.304 4.269-2.323 8.152-2.931 11.786z" fill="#9aa0ad"/><path d="M676.843 284.751c-1.38 2.17-3.84 4.25-7 4.42-1.83.1-3.67-.45-5.13-1.29.71-1.53 3.63-3.01 6.81-3.47.83-.12 1.68-.17 2.51-.12.93.04 1.89.2 2.81.46zm30.94 2.07c-.91 2.69-3.83 6.13-7.94 6.35-2.33.13-4.67-.8-6.22-2.03.78-1.98 4.46-3.93 8.5-4.52 1.02-.15 2.08-.21 3.11-.15.84.04 1.7.16 2.55.35zm33.877 138.475a1 1 0 0 1-.747-1.664c8.652-9.735 18.329-17.663 28.76-23.564.538-.304 1.304-.731 2.259-1.263 7.531-4.198 27.538-15.349 40.315-24.783 1.903-1.406 6.362-4.698 6.274-8.863-.059-2.79-2.119-5.116-3.837-6.576a1 1 0 1 1 1.295-1.525c2.913 2.475 4.483 5.262 4.542 8.059.108 5.201-4.934 8.924-7.087 10.515-12.879 9.509-32.967 20.705-40.529 24.92-.95.53-1.712.955-2.248 1.258-10.238 5.792-19.743 13.582-28.25 23.152a.997.997 0 0 1-.747.334zm-22.505-1.855a1 1 0 0 1-.58-.186 85.083 85.083 0 0 0-10.663-6.478c-6.581-3.364-13.469-5.757-33.501-11.639l-2.382-.698c-10.573-3.096-12.198-3.571-13.116-5.904-2.3-5.839 5.993-15.385 25.351-29.181a1.001 1.001 0 0 1 1.161 1.629c-10.269 7.318-27.125 20.534-24.649 26.819.544 1.381 2.161 1.89 11.817 4.717l2.382.698c20.176 5.924 27.135 8.345 33.849 11.777a86.97 86.97 0 0 1 10.915 6.63 1 1 0 0 1 .232 1.395.997.997 0 0 1-.816.421zm-21.072 62.028a.999.999 0 0 1-.148-1.989c2.21-.334 4.011-1.14 5.353-2.394 2.253-2.106 2.359-4.651 2.506-8.172.119-2.866.255-6.114 1.636-9.875 1.343-3.662 2.99-5.333 4.896-7.269 1.647-1.672 3.514-3.566 5.797-7.271 2.922-4.739 5.012-10.007 6.211-15.659a1.001 1.001 0 0 1 1.958.415c-1.248 5.876-3.423 11.358-6.465 16.293-2.402 3.897-4.438 5.964-6.075 7.625-1.887 1.916-3.25 3.299-4.444 6.554-1.272 3.469-1.401 6.551-1.515 9.271-.154 3.694-.287 6.884-3.139 9.55-1.643 1.536-3.802 2.515-6.419 2.911a1.13 1.13 0 0 1-.152.01zm72.727-2.232a1 1 0 0 1-.916-1.4c3.489-7.997 3.994-14.189 1.502-18.404-1.551-2.624-3.938-4.038-6.246-5.405-2.699-1.599-5.248-3.109-5.786-6.302-.516-3.064 1.245-5.386 2.798-7.435 1.326-1.75 2.472-3.261 2.135-4.92-.431-2.117-3.476-5.067-15.542-7.102a1 1 0 1 1 .332-1.972c10.735 1.81 16.351 4.648 17.169 8.676.518 2.545-1.017 4.569-2.5 6.526-1.436 1.894-2.792 3.683-2.419 5.895.384 2.278 2.347 3.441 4.832 4.914 2.408 1.426 5.137 3.043 6.948 6.107 2.839 4.799 2.371 11.603-1.389 20.222a1 1 0 0 1-.918.6z" fill="#1d0333"/><path d="M760.903 407.582c13.604-7.686 24.963-11.642 32.949-13.842 6.31-1.738 11.405-2.607 18.188-6.562 8.243-4.806 9.906-8.852 16.325-13.034 5.103-3.324 13.198-6.724 26.014-6.353a265.136 265.136 0 0 0-34.857-2.655c-.892 2.353-2.728 6.488-6.69 10.254-3.286 3.123-6.994 5.546-9.225 6.055l-42.704 26.137zm-58.043-20.035c-1.2-1.607-3.08-4.655-2.981-8.488.17-6.632 6.17-12.089 11.071-14.393 4.186-1.968 13.607-4.472 15.379-5.468.111-.062.798-.455 1.786-.878a16.51 16.51 0 0 1 1.317-.497c1.675-.552 2.51-.833 6.187-.759 5.379.109 8.013-9.804 14.08-10.113 3.586-.183 6.535 3.083 7.75 4.429 4.557 5.046 2.888 10.463 6.643 12.179 2.802 1.281 5.155-1.166 7.374.449 2.09 1.522 2.213 4.932 1.99 7.571l-24.951 25.176-37.057-2.401-8.588-6.807z" fill="#1d0333"/><path d="M760.428 384.23a112.757 112.757 0 0 0-14.836 16.209 111.25 111.25 0 0 0-12.134 20.349c-3.344-6.444-8.68-14.736-17.106-22.541a81.611 81.611 0 0 0-9.809-7.783c1.749-.941 3.499-1.893 5.237-2.834-.111-6.732-.675-12.123-1.196-15.899-.421-3.1-.952-6.676-1.904-12.954-.299-1.96-.642-4.174-1.03-6.72l-.133-.897a625.128 625.128 0 0 1-.642-4.473c-.597-4.008-1.174-8.027-1.749-12.035 0 0-.521-3.554-.975-6.621-.797-5.314-2.823-15.544-8.702-36.436 4.269 9.422 14.526 14.66 24.523 12.61 9.686-1.985 16.941-10.363 17.548-20.36.229 4.868.676 11.856 1.639 20.261.513 4.483.73 5.238 2.834 20.393l2.89 20.781c.786 5.635 1.594 11.437 2.325 16.629 1.317 9.521 2.38 17.039 2.491 17.891 3.577 1.474 7.153 2.957 10.729 4.43z" fill="#ffb5a6"/><path d="M733.452 421.788a1 1 0 0 1-.89-1.452c5.104-10.075 11.19-19.46 18.088-27.894 7.01-8.571 14.145-15.279 17.978-18.882a237.292 237.292 0 0 1 10.151-9.009.999.999 0 1 1 1.283 1.534 235.26 235.26 0 0 0-10.065 8.933c-3.799 3.572-10.872 10.222-17.798 18.691-6.807 8.323-12.812 17.586-17.854 27.532a1 1 0 0 1-.893.547z" fill="#1d0333"/><path d="M737.052 433.632a1 1 0 0 1-.96-.722c-3.236-11.142-8.999-21.508-16.668-29.976a75.597 75.597 0 0 0-19.377-15.359 1 1 0 1 1 .97-1.748 77.57 77.57 0 0 1 19.889 15.764c7.871 8.692 13.786 19.329 17.105 30.761a1 1 0 0 1-.959 1.28z" fill="#1d0333"/><path d="M680.696 341.267c-10.929-3.519-16.429-13.922-17.018-15.045-3.108-6.087-3.529-12.312-2.308-19.576.61-3.632 1.629-7.515 2.935-11.782 1.152-3.828 2.553-7.959 4.067-12.473.853-2.517 1.638-4.858 2.392-7.034a171.51 171.51 0 0 1 1.152-3.328c3.975-11.188 7.148-17.688 13.314-22.401 11.221-8.552 29.904-12.233 44.2-3.138 19.062 12.124 16.627 38.341 16.257 41.807-3.56 32.895-41.477 60.534-64.991 52.97z" fill="#ffb5a6"/><path d="M756.723 274.241c-3.08 3.23-6.73 6.72-10.75 8.95-.32.17-.64.34-.96.5-2.36 1.17-4.84 1.88-7.4 1.82-.08.01-.17 0-.26 0-.83-.03-1.67-.14-2.51-.34-.41-.16-.78-.33-1.13-.55-6.74-3.88-3.1-16.19-13.87-23.45-6.66-4.5-12.48-2.73-19.24-3.57-4.91-.61-10.68-3.47-15.33-8-3.71-3.59-6.72-8.25-8.02-13.67-2.23-9.22.87-20.02 7.26-26.18a19.05 19.05 0 0 1 3.33-2.58c8.01-4.87 13.15.76 26.12.21 2.61-.1 5.54-.46 8.88-1.21 4.97-1.11 11.33-3.2 17 0 3.36 1.89 5.38 5.01 6 6 .5.79.88 1.51 1.17 2.19 1.73 4.01.5 6.5 2.81 10.76 0 .02.01.03.02.05 3.41 6.23 8.02 4.56 10 10 1.12 3.08.24 5.25.1 7.93-.07 1.46.08 3.07.9 5.07 1.49 3.6 2.98 3.13 4 6 2.56 7.19-4.48 16.25-8.12 20.07z" fill="#1d0333"/><path d="M733.136 285.061a55.448 55.448 0 0 1 14.793-8.096c6.128-2.218 13.237-4.791 16.531-1.589 2.769 2.691 1.882 8.53.063 12.229-5.38 10.944-24.743 15.022-30.328 8.477-.959-1.125-2.793-4.065-1.059-11.021z" fill="#ffb5a6"/><path d="M746.107 293.712a1 1 0 0 1-.01-2c2.895-.029 4.918-1.065 5.847-2.026.42-.435.564-.8.56-.998-.019-.792-2.104-2.698-6.062-2.797a1 1 0 0 1-.708-1.68c1.173-1.264 4.415-4.231 9.181-4.472a12.562 12.562 0 0 1 4.901.735 1 1 0 0 1-.672 1.883 10.606 10.606 0 0 0-4.128-.622c-2.69.136-4.821 1.314-6.241 2.406 3.455.692 5.684 2.675 5.729 4.498.02.815-.368 1.657-1.121 2.436-1.567 1.621-4.283 2.607-7.266 2.636l-.01.001zm-21.772 27.665c-.099 4.008-1.107 6.864-2.148 10.219-1.616 5.237-1.007 4.307-2.159 7.695-1.993 5.857-2.99 8.791-5.359 10.385-.786.531-3.045 1.849-7.096 1.351-.299-1.96-.642-4.174-1.03-6.72l-.133-.897a625.128 625.128 0 0 1-.642-4.473c4.584-2.712 7.319-5.713 9.034-8.171 4.661-6.665 7.761-13.197 9.067-12.732.544.188.511 1.55.466 3.343z" fill="#1d0333"/><path d="M715.563 296.061c-1.5 1.36-3.79-.05-8-.71-.55-.08-1.06-.14-1.57-.19-.5-.04-.99-.08-1.45-.09-4.93-.21-7.77 1.02-10.01-1.23-.35-.36-.86-.85-1.01-1.51-.04-.14-.06-.29-.06-.44 0-.25.05-.5.16-.75.78-1.98 4.46-3.93 8.5-4.52 1.02-.15 2.08-.21 3.11-.15.84.04 1.7.16 2.55.35 4.34.94 8.44 3.61 8.67 6.58.02.15.12 1.72-.89 2.66zm-33.2-4.21c-1.1.99-2.74.15-5.61-.39-.28-.06-.55-.1-.85-.15-.88-.13-1.68-.2-2.43-.23-3.98-.15-6.27.81-8.07-.96-.23-.23-.55-.54-.73-.92-.08-.19-.14-.4-.14-.62 0-.23.06-.46.18-.7.71-1.53 3.63-3.01 6.81-3.47.83-.12 1.68-.17 2.51-.12.93.04 1.89.2 2.81.46 3.22.86 6.07 2.83 6.25 5.01 0 .12.08 1.35-.73 2.09zm8.374 20.829c3.118-1.093 4.82-2.548 6.001-1.739.845.579.842 1.918.841 2.243-.007 3.458-4.465 7.897-8.833 7.151-3.432-.586-6.207-4.271-5.524-5.861.546-1.27 2.857-.162 7.515-1.794z" fill="#fff"/><path d="M686.073 287.571c-2.157 3.499-4.717 6.772-7.511 9.787-.687.756-1.396 1.503-2.001 2.251-.289.361-.566.776-.619 1.011-.033.125 0 .101 0 .118.007.01.075.077.221.141.629.264 1.674.308 2.619.279.974-.031 1.966-.13 2.956-.255l.006-.001a1 1 0 1 1 .201 1.99c-1.04.08-2.087.135-3.156.117a14.365 14.365 0 0 1-1.633-.115c-.559-.083-1.129-.18-1.76-.494-.308-.163-.674-.413-.912-.856-.122-.213-.167-.471-.2-.713.007-.226.021-.483.092-.652.257-.744.645-1.14.994-1.567.721-.806 1.457-1.504 2.179-2.226 2.898-2.84 5.548-5.907 7.847-9.257a.404.404 0 0 1 .677.442zm35.107-.428c-.998.753-3.987-3.625-9.097-6.31-7.275-3.823-14.043-1.725-14.547-3.892-.276-1.187 1.583-2.848 3.196-3.442.494-.182 1.417-.427 3.319-.123 2.295.367 3.303 1.101 5.556 2.054 4.742 2.005 5.89 1.127 7.868 3.032 1.114 1.073 1.893 2.452 2.336 3.237.917 1.623 1.179 2.687 1.287 3.232.247 1.243.397 1.974.082 2.212zm-38.114-11.884c-.949.879-2.574-.534-5.563-.901-2.779-.333-5.154.42-6.739.999a171.51 171.51 0 0 1 1.152-3.328c.782-.328 1.812-.633 3.19-.86 2.938-.477 6.798-1.108 8 .855.233.39.656 1.342-.04 3.235z" fill="#1d0333"/><ellipse cx="710.906" cy="307.593" fill="#f99282" rx="9.411" ry="6.089" transform="matrix(.9993 -.0371 .0371 .9993 -10.9091 26.5526)"/><path d="M661.369 306.649c5.019-.297 8.947-3.124 8.825-6.41-.093-2.512-2.518-4.571-5.894-5.376-1.304 4.269-2.323 8.152-2.931 11.786z" fill="#f99282"/><path d="M676.843 284.751c-.208 1.172-.658 1.951-1 2.42-1.93 2.647-6.074 3.166-9 2a7.692 7.692 0 0 1-2.13-1.29c.71-1.53 3.63-3.01 6.81-3.47.83-.12 1.68-.17 2.51-.12.93.04 1.89.2 2.81.46zm30.94 2.07c-.91 2.69-3.83 6.13-7.94 6.35-2.33.13-4.67-.8-6.22-2.03.78-1.98 4.46-3.93 8.5-4.52 1.02-.15 2.08-.21 3.11-.15.84.04 1.7.16 2.55.35zm-100.939 123.35a.999.999 0 0 1-.992-1.133c.622-4.644 2.001-9.123 4.097-13.314s4.852-7.981 8.193-11.266a1 1 0 1 1 1.402 1.427 40.251 40.251 0 0 0-7.807 10.734 40.225 40.225 0 0 0-3.903 12.686 1 1 0 0 1-.99.866zM380.923 88.181c-.12.83-.82 1.34-1.28 1.69-2.42 1.8-4.93.25-9.58-.25-.88-.1-1.83-.16-2.88-.15-.13 0-.26 0-.39.01 1.28-1.84 3.57-3.62 6.05-4.31 2.6-.72 5.17-.19 7.33.91.56.73.84 1.45.75 2.1zm27.67.94c-.09.65-.66 1.05-1.03 1.33-1.939 1.42-3.97.19-7.72-.23-.71-.08-1.48-.13-2.32-.13-.26 0-.5.01-.74.01 1.16-1.57 3.11-3.05 5.23-3.64 1.86-.52 3.69-.31 5.34.31.86.8 1.34 1.63 1.24 2.35z" fill="#1d0333"/><path d="M749.823 225.121c-.95-.02-1.94-.01-2.98.05-10.47.61-12.23 5.24-20 5-8.51-.26-10.21-5.93-19-6-5.58-.05-10.13 2.2-13 4 4.65-5.65 8.98-7.41 12-8 7.52-1.47 10.75 3.54 19 2 5.47-1.02 5.89-3.57 13-6a38.02 38.02 0 0 1 8.17-1.81c1.73 4.01.5 6.5 2.81 10.76z" fill="#eedcff"/><ellipse cx="459.093" cy="525.906" fill="#fff" rx="14.863" ry="18" transform="matrix(.9972 -.075 .075 .9972 -38.1498 35.913)"/><path d="M459.513 544.89c-8.304 0-15.482-7.75-16.238-17.794-.785-10.448 5.671-19.481 14.393-20.136 4.26-.323 8.406 1.375 11.672 4.773 3.215 3.347 5.193 7.958 5.571 12.983.378 5.026-.889 9.881-3.566 13.671-2.72 3.849-6.564 6.145-10.826 6.465-.338.026-.673.038-1.006.038zm-.832-35.969c-.287 0-.575.011-.863.032-7.622.573-13.251 8.644-12.549 17.992.703 9.348 7.498 16.487 15.099 15.913 3.656-.275 6.975-2.273 9.343-5.625 2.411-3.412 3.55-7.803 3.206-12.366-.343-4.563-2.126-8.735-5.02-11.748-2.619-2.728-5.864-4.198-9.216-4.198z" fill="#1d0333"/></svg></g></svg>