<svg id="visual" viewBox="0 0 900 600" width="900" height="600" xmlns="http://www.w3.org/2000/svg" xmlns:xlink="http://www.w3.org/1999/xlink" version="1.1"><rect x="0" y="0" width="900" height="600" fill="#FFF8E5"></rect><path d="M0 69L37.5 72.3C75 75.7 150 82.3 225 81.3C300 80.3 375 71.7 450 69.8C525 68 600 73 675 75.7C750 78.3 825 78.7 862.5 78.8L900 79L900 0L862.5 0C825 0 750 0 675 0C600 0 525 0 450 0C375 0 300 0 225 0C150 0 75 0 37.5 0L0 0Z" fill="#370E3D" stroke-linecap="round" stroke-linejoin="miter"></path></svg>