<svg id="visual" viewBox="0 0 900 600" width="900" height="600" xmlns="http://www.w3.org/2000/svg" xmlns:xlink="http://www.w3.org/1999/xlink" version="1.1"><path d="M0 493L37.5 488.2C75 483.3 150 473.7 225 475.3C300 477 375 490 450 492.8C525 495.7 600 488.3 675 484.3C750 480.3 825 479.7 862.5 479.3L900 479L900 601L862.5 601C825 601 750 601 675 601C600 601 525 601 450 601C375 601 300 601 225 601C150 601 75 601 37.5 601L0 601Z" fill="#FFF8E5" stroke-linecap="round" stroke-linejoin="miter"></path></svg>